<svg xmlns="http://www.w3.org/2000/svg" viewBox="0 0 353.74 610.5"><defs><style>.cls-1{fill:#1a174b;}.cls-2{fill:#b15cff;}.cls-3{fill:#c17eff;}.cls-4{fill:#771eff;}.cls-5{fill:#b7c4ef;}.cls-6{fill:#eff1fc;}.cls-7{fill:#adbced;}</style></defs><title>Asset 8</title><g id="Layer_2" data-name="Layer 2"><g id="Layer_1-2" data-name="Layer 1"><path id="Shadow1" class="cls-1" d="M206.28,603.82c13,7.52,31.78,8.9,41.85,3.08l99.37-55.09c10.08-5.81,7.69-16.64-5.34-24.16L146.82,413.56c-13-7.52-31.77-8.9-41.85-3.08L6.24,467.58c-10.08,5.82-7.69,16.65,5.34,24.16Z"/><path id="Folder" class="cls-2" d="M97.3,137c3.29-2.34,8.12-2.16,13.64,1l55.27,31.91c5.47,3.15,10.94,9.11,14.58,16.83l10.93,23.14a11.64,11.64,0,0,0,4.86,5.61l133,76.8c9.72,5.61,18.22,20.34,18.22,31.56V506.19c0,5.53-1.7,9.48-4.55,11.53h0a7.92,7.92,0,0,1-1.41.81l-18.36,10.6V513.19L110.94,390.47c-10.32-6-18.22-19.64-18.22-31.56V155.59l-13.84-8L97.3,137Z"/><path id="Folder1" class="cls-3" d="M202.23,218.74l-28.47,16.44,132.47,76.48,27.86-16.08a26.63,26.63,0,0,0-4.49-3.3L202.23,218.74Zm-29.62-43.82L146.43,190,92.72,159v-3.43l-13.84-8L97.3,137c3.3-2.34,8.12-2.16,13.64,1l55.28,31.91a30.38,30.38,0,0,1,6.39,5Z"/><path id="Folder2" class="cls-4" d="M309.83,303.7l-133-76.8a11.59,11.59,0,0,1-4.86-5.61L161,198.15c-3.65-7.72-9.11-13.68-14.58-16.83L91.17,149.4C80.84,143.44,73,148,73,159.92V370.33c0,11.92,7.89,25.6,18.22,31.56L309.83,528.13c10.32,6,18.22,1.4,18.22-10.52V335.26C328.05,324,319.54,309.31,309.83,303.7Z"/><path id="rectangle" class="cls-5" d="M286.43,420.89c3.47-2,5.62-6.34,5.62-12.51L292.59,130c0-12.15-8.33-26.83-18.6-32.75L109.48,2.48C104.3-.51,99.6-.7,96.23,1.4L92,3.83,95.81,6a21.6,21.6,0,0,0-.6,5.23L93,290.46c4.07-174,11.89-135.5,18.6,32.76l166.13,93.93a21.21,21.21,0,0,0,3.92,1.77v4.71l4.74-2.74Z"/><path id="rectangle1" class="cls-6" d="M269.24,99.93c10.27,5.93,18.61,20.61,18.61,32.76l-.55,278.43c0,12.15-8.33,17.2-18.6,11.27L102.57,328.46C92.3,322.53,84,307.85,84,295.7L86.13,16.49c0-12.15,8.34-17.2,18.61-11.27l164.5,94.71Z"/><path id="screen" class="cls-7" d="M249.84,160.24a4,4,0,0,1,1.76,3.11V168c0,1.16-.79,1.64-1.76,1.07L116.77,92.37a3.93,3.93,0,0,1-1.77-3.1l.16-4.75c0-1.15.79-1.63,1.76-1.07l132.92,76.79Z"/><path id="screen1" class="cls-7" d="M249.84,185a4,4,0,0,1,1.76,3.11v4.67c0,1.15-.79,1.63-1.76,1.07L116.77,117.1A3.93,3.93,0,0,1,115,114l.16-4.75c0-1.15.79-1.63,1.76-1.06L249.84,185Z"/><path id="screen2" class="cls-7" d="M249.84,137a4,4,0,0,1,1.76,3.1v4.68c0,1.15-.79,1.63-1.76,1.07L116.77,69.09A4,4,0,0,1,115,66l.16-4.75c0-1.15.79-1.63,1.76-1.07L249.84,137Z"/><path id="screen3" class="cls-7" d="M249.84,209.87A4,4,0,0,1,251.6,213v4.67c0,1.15-.79,1.63-1.76,1.07L116.77,142a3.93,3.93,0,0,1-1.77-3.11l.16-4.74c0-1.16.79-1.64,1.76-1.07l132.92,76.79Z"/><path id="screen4" class="cls-7" d="M249.84,235a4,4,0,0,1,1.76,3.11v4.67c0,1.15-.79,1.63-1.76,1.07L116.77,167.11A3.93,3.93,0,0,1,115,164l.16-4.75c0-1.15.79-1.63,1.76-1.07L249.84,235Z"/><path id="screen5" class="cls-7" d="M249.84,257.42a4,4,0,0,1,1.76,3.1v4.68c0,1.15-.79,1.63-1.76,1.07L116.77,189.55a4,4,0,0,1-1.77-3.11l.16-4.75c0-1.15.79-1.63,1.76-1.07l132.92,76.8Z"/><path id="Folder3" class="cls-2" d="M61.74,157.49c3.3-2.34,8.12-2.16,13.64,1l55.27,31.91c5.47,3.15,10.94,9.11,14.58,16.83l10.93,23.14A11.64,11.64,0,0,0,161,236l133,76.8c9.72,5.61,18.22,20.34,18.22,31.56V526.72c0,5.53-1.7,9.48-4.55,11.53h0a8.58,8.58,0,0,1-1.41.81l-18.36,10.6V533.72L75.38,411c-10.32-6-18.22-19.64-18.22-31.56V176.12l-13.84-8,18.42-10.64Z"/><path id="Folder4" class="cls-3" d="M166.67,239.27,138.2,255.71l132.47,76.48,27.86-16.08a26.63,26.63,0,0,0-4.49-3.3Zm-29.62-43.82-26.18,15.11-53.71-31v-3.43l-13.84-8,18.42-10.64c3.3-2.34,8.12-2.16,13.64,1l55.28,31.91A30.38,30.38,0,0,1,137.05,195.45Z"/><path id="Folder5" class="cls-4" d="M274.27,324.23l-133-76.8a11.64,11.64,0,0,1-4.86-5.61l-10.93-23.14c-3.65-7.72-9.11-13.68-14.58-16.84L55.61,169.93c-10.33-6-18.22-1.4-18.22,10.52V390.86c0,11.92,7.89,25.6,18.22,31.56L274.27,548.66c10.32,6,18.22,1.4,18.22-10.52V355.79C292.49,344.57,284,329.84,274.27,324.23Z"/><path id="Folder6" class="cls-2" d="M24.35,179.08c3.3-2.35,8.13-2.17,13.65,1L93.27,212c5.47,3.16,10.93,9.12,14.58,16.83L118.78,252a11.64,11.64,0,0,0,4.86,5.61l133,76.8c9.71,5.61,18.22,20.33,18.22,31.56V548.31c0,5.53-1.7,9.47-4.55,11.52h0a8.23,8.23,0,0,1-1.41.82l-18.36,10.6v-16L38,432.58C27.67,426.62,19.77,413,19.77,401V197.7l-13.83-8,18.41-10.63Z"/><path id="Folder7" class="cls-3" d="M129.28,260.86l-28.46,16.43,132.47,76.48,27.86-16.08a27.38,27.38,0,0,0-4.49-3.29ZM99.67,217,73.49,232.15l-53.71-31V197.7l-13.84-8,18.41-10.63c3.3-2.35,8.13-2.17,13.65,1L93.27,212A31,31,0,0,1,99.67,217Z"/><path id="Folder8" class="cls-4" d="M236.88,345.81,103.86,269A11.73,11.73,0,0,1,99,263.41L88.07,240.26c-3.64-7.71-9.11-13.68-14.58-16.83L18.22,191.52C7.9,185.56,0,190.11,0,202v210.4C0,424.36,7.9,438,18.22,444L236.88,570.24c10.33,6,18.22,1.41,18.22-10.52V377.37c0-11.22-8.5-25.95-18.22-31.56Z"/><path class="cls-6" d="M86,337.06l-50.79,9.26,1.49,11.33L97.88,427l5.83-12.66L60.2,365l36.15-6.59L86,337.06Z"/><path class="cls-6" d="M224.2,447.71l-61.14-69.32-5.83,12.66,43.51,49.33L164.59,447l10.3,21.32,50.8-9.26Z"/><path class="cls-6" d="M151.71,360.93l-21-11.28-17.44,96.93,21,11.28Z"/></g></g></svg>