<svg xmlns="http://www.w3.org/2000/svg" xmlns:xlink="http://www.w3.org/1999/xlink" viewBox="0 0 510.76 573.09"><defs><style>.cls-1{fill:none;}.cls-2{fill:#1a174b;}.cls-3{fill:#dbdbfa;}.cls-4{clip-path:url(#clip-path);}.cls-5{fill:#cacaf8;}.cls-6{fill:#e3e3fb;}.cls-7{fill:#3733bd;}.cls-8{fill:#2a278f;}.cls-9{clip-path:url(#clip-path-2);}.cls-10{fill:#f0f0fd;}.cls-11{fill:#b7c4ee;}.cls-12{fill:#9eb0de;}.cls-13{fill:#5877c6;}.cls-14{fill:#deb7ff;}.cls-15{fill:#9b59ff;}.cls-16{fill:#c684ff;}.cls-17{fill:#e3e6f9;}.cls-18{fill:#771dff;}.cls-19{fill:#9eb0e9;}.cls-20{fill:#748ddf;}.cls-21{fill:#fea576;}.cls-22{fill:#fec2a2;}.cls-23{fill:#fd6b1f;}.cls-24{fill:#eff1fc;}.cls-25{fill:#ff7bb2;}.cls-26{fill:#ff3589;}.cls-27{fill:#fa0069;}.cls-28{fill:#fff;}.cls-29{fill:#ffd0e4;}.cls-30{fill:#dc5059;}</style><clipPath id="clip-path"><path class="cls-1" d="M234.17.62a5.22,5.22,0,0,1,5.42.31L503.7,156.16c3.95,2.32,6.63,8.25,6,13.23L479.54,405.18a6.68,6.68,0,0,1-2.9,5.14h0a3,3,0,0,1-.4.21l-8.12,4.25.21-6.47L207.11,254.78c-3.94-2.32-6.63-8.25-6-13.23L230.84,9.18,226,4.88,234.17.62Z"/></clipPath><clipPath id="clip-path-2"><path class="cls-1" d="M0,379.17c-.1,1.45.7,2.84,2.45,3.87L270,540.44c3.64,2.14,10,1.87,14.21-.6L462,435.26c2.38-1.4,3.56-3.22,3.47-4.91h0V420.23l-6.73,4v.19L195.45,269.49c-3.64-2.14-10-1.87-14.21.6L6.52,372.89,0,369.05v10.12Z"/></clipPath></defs><title>Asset 4</title><g id="Layer_2" data-name="Layer 2"><g id="Layer_1-2" data-name="Layer 1"><path class="cls-2" d="M285.14,571.18c-3.95,2.32-9.95,2.56-13.4.53L2.53,413.33c-3.45-2-3-5.56.9-7.89L190.22,295.56c3.94-2.33,9.95-2.56,13.4-.53L472.83,453.41c3.45,2,3,5.56-.91,7.88Z"/><path class="cls-3" d="M234.17.62a5.22,5.22,0,0,1,5.42.31L503.7,156.16c3.95,2.32,6.63,8.25,6,13.23L479.54,405.18a6.68,6.68,0,0,1-2.9,5.14h0a3,3,0,0,1-.4.21l-8.12,4.25.21-6.47L207.11,254.78c-3.94-2.32-6.63-8.25-6-13.23L230.84,9.18,226,4.88,234.17.62Z"/><g class="cls-4"><path class="cls-5" d="M510.76,173.62l-13,5.22-29.6,235.84,13-5.23Z"/></g><path class="cls-6" d="M501.17,173.85c.64-5-2.08-10.93-6.06-13.27L231.12,5.43c-4-2.34-7.73-.2-8.37,4.79L192.59,246c-.64,5,2.08,10.93,6.06,13.27l264,155.15c4,2.34,7.73.19,8.37-4.79Z"/><path class="cls-7" d="M498.44,174.56c.63-4.94-2.06-10.84-6-13.16L230.77,7.62c-4-2.32-7.67-.2-8.3,4.75l-29.9,233.71c-.63,4.94,2.07,10.84,6,13.16L460.25,413c3.94,2.32,7.66.2,8.29-4.74Z"/><path class="cls-8" d="M481.79,304.77l13-101.32-.33-.2-74.36-44.17c-9.38-5.57-17.74-.86-18.68,10.52l-5.16,62.73c-.93,11.38,5.91,25.12,15.29,30.69l10.06,6a24.35,24.35,0,0,1,8.83,10.11l9.69,19.45c1.93,3.88,5.4,5.94,7.76,4.61l11.83-6.67c2.69-1.51,6.14-1.21,9.6.84l12.51,7.43Z"/><path class="cls-3" d="M0,379.17c-.1,1.45.7,2.84,2.45,3.87L270,540.44c3.64,2.14,10,1.87,14.21-.6L462,435.26c2.38-1.4,3.56-3.22,3.47-4.91h0V420.23l-6.73,4v.19L195.45,269.49c-3.64-2.14-10-1.87-14.21.6L6.52,372.89,0,369.05v10.12Z"/><g class="cls-9"><path class="cls-5" d="M465.82,415.39,286,521.16v17.6L465.82,433Z"/></g><path class="cls-10" d="M283.85,529.93c-3.77,2.22-9.52,2.44-12.81.5L2.26,372.3c-3.3-1.94-2.92-5.31.86-7.53l178.51-105c3.77-2.22,9.51-2.44,12.81-.5L463.22,417.37c3.3,1.94,2.91,5.31-.86,7.53Z"/><path class="cls-11" d="M283.1,527.77c-3.74,2.2-9.44,2.43-12.71.5L3.72,371.39c-3.27-1.93-2.89-5.28.86-7.48l177.1-104.2c3.75-2.2,9.44-2.43,12.72-.5L461.06,416.09c3.27,1.93,2.89,5.28-.85,7.48Z"/><path class="cls-12" d="M312.14,471.82a8.05,8.05,0,0,1-7.35.29L94.55,348.42c-1.89-1.11-1.67-3.05.5-4.32l102.41-60.25a8,8,0,0,1,7.35-.29L415.05,407.25c1.89,1.11,1.67,3.05-.5,4.32Z"/><path class="cls-13" d="M342.62,375.48l-12,7.07,12.87,7.56,12-7.06Z"/><path class="cls-13" d="M303.27,398.63l-12,7.06,12.86,7.57,12-7.07-12.86-7.56Z"/><path class="cls-13" d="M323,387l-12,7.07,12.87,7.56,12-7.06Z"/><path class="cls-13" d="M283.7,410.15l-12,7.06,12.86,7.57,12-7.07Z"/><path class="cls-13" d="M263.24,422.18l-12,7.07,12.86,7.56,12-7.06Z"/><path class="cls-13" d="M262.06,328.09l-12,7.06,12.86,7.57,12-7.07Z"/><path class="cls-13" d="M222.71,351.23l-12,7.07,12.86,7.57,12-7.07Z"/><path class="cls-13" d="M242.48,339.6l-12,7.06,12.86,7.57,12-7.07Z"/><path class="cls-13" d="M203.14,362.75l-12,7.07L204,377.38l12-7.06Z"/><path class="cls-13" d="M182.68,374.78l-12,7.07L242.26,424l12-7.07Z"/><path class="cls-13" d="M221.5,304.22l-12,7.07,12.87,7.57,12-7.07-12.87-7.57Z"/><path class="cls-13" d="M182.16,327.37l-12,7.06L183,342l12-7.06Z"/><path class="cls-13" d="M201.93,315.74l-12,7.07,12.86,7.57,12-7.07-12.86-7.57Z"/><path class="cls-13" d="M162.58,338.89l-12,7.06,12.86,7.57,12-7.06-12.86-7.57Z"/><path class="cls-13" d="M142.12,350.92l-12,7.07L143,365.56l12-7.07Z"/><path class="cls-13" d="M382.56,399l-12,7.07,12.86,7.57,12-7.07Z"/><path class="cls-13" d="M343.22,422.12l-12,7.07,12.86,7.56,12-7.06Z"/><path class="cls-13" d="M363,410.49l-12,7.07,12.86,7.57,12-7.07Z"/><path class="cls-13" d="M323.64,433.64l-12,7.07,12.86,7.56,12-7.06Z"/><path class="cls-13" d="M303.18,445.68l-12,7.06L304,460.31l12-7.07-12.86-7.56Z"/><path class="cls-13" d="M302,351.58l-12,7.07,12.86,7.56,12-7.06Z"/><path class="cls-13" d="M262.65,374.73l-12,7.06,12.86,7.57,12-7.07Z"/><path class="cls-13" d="M282.42,363.1l-12,7.06,12.86,7.57,12-7.06Z"/><path class="cls-13" d="M243.08,386.25l-12,7.06,12.86,7.57,12-7.07Z"/><path class="cls-13" d="M201.48,292.44l-12,7.07,12.86,7.56,12-7.06-12.86-7.57Z"/><path class="cls-13" d="M162.13,315.59l-12,7.06L163,330.22l12-7.07-12.86-7.56Z"/><path class="cls-13" d="M181.9,304l-12,7.07,12.86,7.56,12-7.06Z"/><path class="cls-13" d="M142.56,327.11l-12,7.06,12.86,7.57,12-7.07-12.86-7.56Z"/><path class="cls-13" d="M122.1,339.14l-12,7.07L123,353.78l12-7.07Z"/><path class="cls-13" d="M362.53,387.19l-12,7.07,12.87,7.57,12-7.07Z"/><path class="cls-13" d="M323.18,410.34l-12,7.07L324,425l12-7.06Z"/><path class="cls-13" d="M343,398.71l-12,7.07,12.87,7.56,12-7.06Z"/><path class="cls-13" d="M303.61,421.86l-12,7.07,12.86,7.56,12-7.06Z"/><path class="cls-13" d="M283.15,433.89l-12,7.07L284,448.53l12-7.07-12.87-7.57Z"/><path class="cls-13" d="M282,339.8l-12,7.06,12.86,7.57,12-7.07Z"/><path class="cls-13" d="M242.62,362.94l-12,7.07,12.87,7.57,12-7.07Z"/><path class="cls-13" d="M262.4,351.32l-12,7.06L263.25,366l12-7.07-12.86-7.56Z"/><path class="cls-13" d="M223.05,374.46l-12,7.07,12.86,7.57,12-7.07Z"/><path class="cls-13" d="M241.41,315.94l-12,7.07,12.87,7.57,12-7.07-12.87-7.57Z"/><path class="cls-13" d="M202.07,339.09l-12,7.07,12.86,7.56,12-7.06-12.86-7.57Z"/><path class="cls-13" d="M221.84,327.45l-12,7.07,12.86,7.57,12-7.07Z"/><path class="cls-13" d="M182.49,350.6l-12,7.07,12.86,7.56,12-7.06-12.86-7.57Z"/><path class="cls-13" d="M162,362.64l-12,7.06,12.86,7.57,12-7.07Z"/><path class="cls-13" d="M321.91,363.29l-12,7.07,12.86,7.56,12-7.06Z"/><path class="cls-13" d="M282.56,386.45l-12,7.06,12.86,7.57,12-7.07Z"/><path class="cls-13" d="M302.33,374.81l-12,7.07,12.86,7.56,12-7.06-12.86-7.57Z"/><path class="cls-13" d="M263,398,251,405l12.86,7.57,12-7.07Z"/><path class="cls-8" d="M288.79,94.18c.21-2.5,1.23-4.41,2.83-5.32,6.4-3.61,23.3-13.14,29.78-16.81,1.66-.93,3.79-.74,5.91.52L436.1,137.25a15.21,15.21,0,0,1,5.48,6.28,16.33,16.33,0,0,1,1.79,8.36C440.74,183.55,432.51,282.64,429.9,314c-.21,2.56-1.25,4.51-2.89,5.43s-3.74.74-5.84-.51l-136.29-81c-4.23-2.51-7.3-8.7-6.88-13.83,2.33-28,9.22-110.9,10.79-129.88Z"/><path class="cls-14" d="M411.93,328.83h0l-20,10.83,1-12.27-129.46-77c-4.22-2.51-7.3-8.71-6.87-13.83,2.33-28,9.21-110.9,10.79-129.89.21-2.5,1.22-4.41,2.83-5.31,6.39-3.61,29.94-16.48,36.43-20.14,1.65-.94,3.78-.75,5.9.52l108.79,64.67a15.18,15.18,0,0,1,5.48,6.29,16.3,16.3,0,0,1,1.79,8.35C426,192.74,417.8,291.83,415.19,323.21c-.21,2.55-1.25,4.5-2.89,5.43l-.37.19Z"/><path class="cls-15" d="M253.74,114.42c.21-2.5,1.23-4.41,2.83-5.32l29.78-16.8c1.66-.94,3.78-.75,5.91.51l108.79,64.68a15.28,15.28,0,0,1,5.48,6.28,16.33,16.33,0,0,1,1.79,8.36c-2.63,31.66-10.86,130.75-13.47,162.13-.21,2.55-1.25,4.5-2.89,5.42s-3.74.74-5.84-.51l-136.29-81c-4.23-2.52-7.31-8.71-6.88-13.84,2.33-28,9.22-110.9,10.79-129.88Z"/><path class="cls-16" d="M408.13,168.56l20.27-11.41a14,14,0,0,1,.26,3.94C426,192.75,417.8,291.83,415.19,323.21c-.21,2.55-1.25,4.51-2.89,5.43l-.37.19-19.66,10.66a6.77,6.77,0,0,0,2.58-5.24c2.61-31.37,10.84-130.46,13.47-162.12a14.05,14.05,0,0,0-.19-3.57Z"/><path class="cls-17" d="M378.37,334.56,257.06,262.43s5.42-65.31,6.78-81.64c.43-5.18,4.24-7.33,8.51-4.79l106,63a14.26,14.26,0,0,1,5.15,5.9,15.3,15.3,0,0,1,1.68,7.86C383.81,269.06,378.37,334.56,378.37,334.56Z"/><path class="cls-18" d="M378.32,239,274.08,177c-4.27-2.54-8.08-.39-8.51,4.79l-6.78,81.64-1.74-1s5.43-65.3,6.79-81.64c.43-5.18,4.24-7.33,8.5-4.79l106,63Z"/><path class="cls-19" d="M386.55,210.19h0a4.53,4.53,0,0,1-.48.27l-1.77,1,0-.57a6.68,6.68,0,0,1-3.72-1.06l-68.13-40.51a14.19,14.19,0,0,1-5.15-5.9,15.32,15.32,0,0,1-1.69-7.86c1.18-14.14,1.77-47.16,1.77-47.16l2.25-1.27,83.47,49.63s-2.65,32-4,48.28c-.21,2.46-1.17,4.23-2.58,5.15Zm-66.13-86.78c.21-2.48,1.78-3.65,3.5-2.63l14,8.34c1.72,1,3,3.87,2.75,6.35l-3.22,38.83c-.21,2.47-1.78,3.64-3.51,2.62l-14-8.34c-1.73-1-3-3.87-2.76-6.34Z"/><path class="cls-20" d="M386.55,210.19l-2.25,1.27,4.32-52,4.51-2.54-4,48.14c-.21,2.46-1.17,4.23-2.58,5.15Z"/><path class="cls-17" d="M307.43,108.4,390.89,158s-2.65,31.94-4,48.28c-.43,5.18-4.24,7.32-8.51,4.79l-68.13-40.51a14.22,14.22,0,0,1-5.15-5.91,15.28,15.28,0,0,1-1.69-7.85C304.76,140.54,307.43,108.4,307.43,108.4Zm10.74,16.27c.21-2.47,1.78-3.65,3.5-2.62l14,8.34c1.73,1,3,3.87,2.75,6.34l-3.22,38.83c-.21,2.48-1.78,3.65-3.5,2.62l-14-8.33c-1.72-1-3-3.87-2.75-6.35Z"/><path id="Folder14" class="cls-21" d="M153.94,165.39c2-1.45,5-1.34,8.45.63l34.25,19.77a23.94,23.94,0,0,1,9,10.43l6.77,14.34a7.18,7.18,0,0,0,3,3.48l82.41,47.58c6,3.48,11.3,12.6,11.3,19.55v113c0,3.43-1,5.88-3.7,7.65L281.1,415.86V406L149.41,330c-6.4-3.69-11.29-12.17-11.29-19.56v-126l-8.57-4.95,24.39-14.08Z"/><path id="Folder15" class="cls-22" d="M219,216.06l-30.62,17.68,82.08,47.38,30.23-17.46a16.35,16.35,0,0,0-2.78-2ZM200.6,188.91l-29.2,16.85-33.28-19.21v-2.13l-8.57-4.95,24.39-14.08c2-1.45,5-1.34,8.45.63l34.24,19.77A19.19,19.19,0,0,1,200.6,188.91Z"/><path id="Folder16" class="cls-23" d="M272.63,276.18,190.22,228.6a7.26,7.26,0,0,1-3-3.47l-6.77-14.34a23.82,23.82,0,0,0-9-10.43l-34.25-19.78c-6.39-3.69-11.29-.86-11.29,6.52V317.46c0,7.39,4.9,15.87,11.29,19.56l135.48,78.22c6.4,3.69,11.29.86,11.29-6.52v-113C283.92,288.79,278.65,279.66,272.63,276.18Z"/><path class="cls-24" d="M179.17,270.76,147.7,276.5l.92,7,37.89,42.94,3.61-7.84-27-30.57,22.4-4.08-6.39-13.21Z"/><path class="cls-24" d="M264.78,339.32,226.9,296.37l-3.62,7.85,27,30.56-22.39,4.09,6.38,13.21,31.47-5.74-.92-7Z"/><path class="cls-24" d="M219.86,285.55l-13-7L196,338.62l13,7Z"/><path class="cls-25" d="M370.65,179.61h0c-.17.09-.34.18-.5.28l-22.68,12.78,11.64,6.91-4.7,57.14c-.93,11.38-4.84,18.73,4.54,24.3l20.81,12.37a24.35,24.35,0,0,1,8.83,10.11L398.28,323c1.93,3.88,5.4,5.94,7.76,4.61L438,343.15,461.27,330h0c3.35-1.92,5.66-5.93,6.12-11.59l5.16-62.73c.93-11.38-5.91-25.12-15.29-30.69L382.9,180.85c-4.57-2.72-8.9-3-12.25-1.24Z"/><path class="cls-26" d="M471.64,245.92l-27.71,15.62L438,343.15,461.27,330h0c3.35-1.91,5.65-5.92,6.12-11.59l5.16-62.72A30.3,30.3,0,0,0,471.64,245.92Z"/><path class="cls-27" d="M434.09,238.08l-74.37-44.17c-9.37-5.57-17.74-.86-18.67,10.52l-5.16,62.72c-.94,11.39,5.91,25.13,15.29,30.7l10.06,6a24.42,24.42,0,0,1,8.83,10.11l9.69,19.45c1.93,3.87,5.4,5.94,7.75,4.61l11.84-6.67c2.69-1.51,6.14-1.22,9.6.84L425.54,342c9.38,5.57,17.74.86,18.67-10.52l5.16-62.73C450.31,257.39,443.46,243.65,434.09,238.08Z"/><path class="cls-28" d="M409.92,280.91,375.7,261.16l-4.31,31,34.21,19.75Z"/><path class="cls-28" d="M379.2,263.18l4.91,2.83,3.23-23.16c.36-2.57,2.6-3.52,5-2.14l8.7,5a7.81,7.81,0,0,1,3.71,7.16l-2.4,17.18,4.91,2.83L410,253.43c.56-4-2-9-5.79-11.21l-13.62-7.85c-3.75-2.17-7.26-.68-7.82,3.34l-3.55,25.47Z"/><path class="cls-29" d="M340.76,207.94c.9-11,9-15.54,18-10.16L430,240.07c9.06,5.38,15.67,18.65,14.77,29.65l-5,60.58c-.75,9.2-6.53,13.89-13.71,12,9.17,5.1,17.24.36,18.16-10.82l5.16-62.72c.94-11.38-5.91-25.13-15.28-30.7l-74.37-44.17c-9.37-5.57-17.74-.86-18.67,10.52l-.29,3.52Zm41.67,129c1.69,1.44,3.61,1.94,5.08,1.11l11.84-6.67a8,8,0,0,1,5.67-.74c-3-1.5-6-1.62-8.31-.29l-11.44,6.44a3.41,3.41,0,0,1-2.84.15Z"/><path class="cls-30" d="M401,233.21c-.09-.05,0-.41.33-1.3a.33.33,0,0,1,.15,0c.22.13.15.48,0,.77s-.38.55-.48.49Z"/></g></g></svg>