<svg xmlns="http://www.w3.org/2000/svg" viewBox="0 0 452.41 505.15"><defs><style>.cls-1{fill:#d80051;}.cls-2{fill:#9f003c;}.cls-3{fill:#ff6ca3;}.cls-4{fill:#ff9cc1;}.cls-5{fill:#ff2174;}.cls-6{fill:#1a174b;}.cls-7{fill:#7d00d1;}.cls-8{fill:#0042ba;}.cls-9{fill:#7cabff;}.cls-10{fill:#518fff;}.cls-11{fill:#60a;}.cls-12{fill:#efb185;}.cls-13{fill:#dd9569;}.cls-14{fill:#e6a376;}.cls-15{fill:#7e00d1;}.cls-16{fill:#9901ff;}.cls-17{fill:#cb7cff;}.cls-18{fill:#ff83b2;}.cls-19{isolation:isolate;}.cls-20{fill:#ffe4e7;}</style></defs><title>Asset 3</title><g id="Layer_2" data-name="Layer 2"><g id="Layer_1-2" data-name="Layer 1"><path class="cls-1" d="M114.22,224.19,91.69,237.14l-.29,38,22.53-12.95Z"/><path class="cls-2" d="M114.22,224.19,91.69,237.14,42.58,184.7l22.53-12.95Z"/><path class="cls-1" d="M114.89,137.06,92.35,150l-.28,37.51,22.53-13Z"/><path class="cls-3" d="M114.89,137.06,92.35,150,.29,143.83l22.54-12.94Z"/><path class="cls-4" d="M91.4,275.15Q68.47,250,45.7,225T0,174.92l.24-31q23.12,1.53,46.05,3.07L92.35,150l-.28,37.54q-12.46-.48-24.75-1.43T42.57,184.7l49.12,52.44-.29,38Z"/><path class="cls-1" d="M152.51,305.68l-22.59,13L186,170.06l22.59-13Z"/><path class="cls-4" d="M101.76,291.16l55.89-148.7L186,170.06l-56.07,148.6Z"/><path class="cls-3" d="M180.24,129.48l-22.59,13L186,170.06l22.59-13Z"/><path class="cls-2" d="M218.1,284.33l-22.6,13L245,302l22.6-13Z"/><path class="cls-5" d="M310.1,297.36l-22.54,12.95-.23,31.15,22.53-12.95.24-31.15Z"/><path class="cls-3" d="M218.7,197.23l-22.6,13,91.4,100.2,22.6-13Z"/><path class="cls-4" d="M196.17,210.18q22.94,25.15,45.7,50.09l45.7,50.09-.24,31.05q-23.11-1.52-46.06-3.05t-46.06-3l.29-38L245,302q-12.36-13.9-24.55-27.13t-24.55-27.14l.29-37.54Z"/><path class="cls-6" d="M25.43,441.25c25.31-14.61,66.39-14.61,91.7,0s25.3,38.33,0,52.94-66.39,14.61-91.7,0S.13,455.86,25.43,441.25Z"/><path class="cls-7" d="M31.14,206c7.28,1.41,5.85,29.08,8.73,49.28,0,0,31.08,40.36,27.37,40.79-19.93,12.15-49.43-52.39-47.71-68.53.84-7.91.87-13.21,6.08-19a11.12,11.12,0,0,1,3.82-2.26,4.45,4.45,0,0,1,1.71-.28Z"/><path class="cls-1" d="M61.8,444.55s6.52,1.5,4.84,5.49-11.77,13-12.81,15.51-7,11.66-9.13,10.83-15.6,2.1-9.53-18.15c2.95-9.87,17.39-14.11,26.63-13.68Z"/><path class="cls-1" d="M68.72,487.64s4.67,7.49,13,5,4.35-6.09,22.25-11.92,13.1-17.15,11.61-18.72-13.78,1.75-17.72,3-11.33,3.68-11.33,3.68l-17.81,6.08v12.92Z"/><path class="cls-8" d="M35.49,307s2,70.62,2,77.33-6.89,50.85-2.37,73.94c0,0,10.22,10.81,21.71-2.23,0,0,1.28-23,3-44.95,1.2-15.29,2.63-30.08,4-36.21,3.33-14.95,2.22-60.67,2.22-60.67Z"/><path class="cls-9" d="M58.3,315.43s11.64,58,11,96.38c0,0-3.1,56-1.32,67,0,0,24.44,6.07,26.9-5.44,0,0-.64-66.68,0-80.62s2-52.79-3.49-75.22-33.13-2.06-33.13-2.06Z"/><path class="cls-10" d="M68,478.78c-3.78-32.47,1.32-67,1.32-67,2.07-63.24-25.7-52.94-24.61-89.81l29.53,8.13s10.87,28.57,9.21,71.4c-1.29,33.15-1.82,65.76-2,78.84A62.11,62.11,0,0,1,68,478.78Z"/><path class="cls-10" d="M35.17,458.23c-4.22-32.06,2.37-66.46,2.37-73.18,0-6.4-9-45.16-2-77.65l13.12,10.09s4.16,42.61,0,66.89c-3.79,22.09-1.36,65.09-3.2,77.43-7.26,0-10.24-3.58-10.24-3.58Z"/><path class="cls-7" d="M29.11,205.78s-11.21,5.88-4.4,25,8.95,70.08,7.53,75c0,0-1.58,15.89,34.85,24.62,0,0,28,2.49,25.92-17.63-4.32-42.64-9.15-50.69-8.55-58.25S89.31,231.78,70.22,222s-29-17.16-41.11-16.18Z"/><path class="cls-11" d="M84.46,254.52c-.16,2,1.28,5.27,2.35,10,3.81,16.88,5.07,31.64,6.31,50.29.69,10.49-11,15-19.48,15.56-1.89-12.94-2-33.36-4.92-55.6-1.1-8.52-9.83-42.43,8.2-28.69C89.58,255.72,85,247.8,84.46,254.52Z"/><path class="cls-12" d="M42.33,196s1.4,10-1.92,16.4c-3,5.78,20.78,10.52,21.24,5.21,0-.56-4.67-9.13.84-19.51,2.89-5.43-20.16-2.1-20.16-2.1Z"/><path class="cls-13" d="M40.52,212.74c2.47-4.74,2.35-11.48,2.1-14.64l17.49,8.24v0c-.63.16-12.25,3.36-14.61,11.81-3.6-1.39-6.06-3.35-5-5.46Z"/><path class="cls-12" d="M66.11,168.91s4.09,9.58,3.48,17.92c-.19,2.54.68,3.28,1.42,5.13,1.49,3.76-.73,2.71-1.09,5.56-.21,1.71.69,8.13-2,10-3.19,2.14-8.4,3.81-16.16,1.15-9.4-3.23-19.49-15.87-15.74-27.49S51.88,159.78,66.11,168.91Z"/><path class="cls-14" d="M36.68,193.61c3.53-10.45,12.57-23.1,12.47-23.76-.06-.4,3-2.39,6.45-4.52a20.74,20.74,0,0,1,10.51,3.58,48.61,48.61,0,0,1,2.06,6.18c-2.17,2.53-6.64,5.44-7.3,7.57-1.49,5-.43,12.53,1.1,15.83s-4.34,8.29-3,11.21l0,.41a27,27,0,0,1-7.24-1.48C45.72,206.56,39.46,200.64,36.68,193.61Z"/><path d="M59.78,196.08c0-.47-.12-.93-.18-1.29-.65-4.39-2.15-8.86-.13-13.14,1.18-2.5,3-3.81,4.9-5.63.72-.67,1.15-1.58,2-2.11,1.13-.7,2.72-.69,3.69-1.6.56-.52.37-1.28.8-1.79,1.11-1.31,4.2-1.53,3.46-4a3.9,3.9,0,0,0-2.5-2.53,12.64,12.64,0,0,1-1.68-.23c-.31-.38.55-.84.67-1.32a2.46,2.46,0,0,0-.94-2.7c-2-1.62-5-.88-6.86-2.24-2.15-1.56.28-6.34-3.84-6.42-3.76-.07-6.38,4.18-9.7,5.59s-7.19,0-10.14,2-2.77,6.46-4.52,9.29c-1.42,2.29-4,3.31-5.81,5.15s-4.2,7.85-3.89,10.39c.36,2.93,2.34,5.77,3.61,8.38.4.83,1.26,1.42,1.35,2.4.21,2.19-2.13,3.76-1.42,6.14,1,3.31,4.4,4.43,7.49,5.68,2.26,1.29,6.78,4,9.44,3.43,1.11-.23,1.89-1.4,2.87-1.92,2.21-1.19,3.4-2,3.46-4.78.07-3.23-6.36-6.58-2.46-9.73,3.51-2.85,5.29,4.61,7.64,5.31a2.26,2.26,0,0,0,2.52-1.25,10.06,10.06,0,0,1,.17-1Z"/><path class="cls-7" d="M60.26,214.5l7.84,6.35s-23.91,7.36-31.16-4.27c-1-1.66.07-7.27,4.23-8.39,0,0,1,9.57,19.09,6.31Z"/><path class="cls-12" d="M70,227.88c6.5-3.56,21.88,15.54,37,29.29l24.4-29.79a52.45,52.45,0,0,0,1.48-9.89c-.1-3.62,1.19-4.6,1.87-4.83s.83,2.07,1.42,3.45-.34,5,1.19,3.81,7-9.65,9.81-9.16c1.28.22,2.6-1.09.52,6.92-1.48,5.73-6.19,11.26-8.77,14-7.6,22.07-24.45,41.56-24.45,41.56v0a10.42,10.42,0,0,1-5.13,2.24c-14.73-3-29-17.27-39.17-32.15-7.32-10.63-.15-15.4-.15-15.4Z"/><path class="cls-7" d="M70,227.88c9.84-5.68,22.71,14.53,37.81,28.28l23.57-28.78c.53-2.33,11.57,3.13,9,5.83-18.68,48.15-31.25,44.21-31.25,44.21-14.73-3-28.92-10.35-41.05-23.7C53.36,237.5,70,227.88,70,227.88Z"/><path class="cls-15" d="M268.55,63.88l1.74-13.37L254.52,41.4l24.55-10.69.54-.22q7-2.67,17.66,3.46l13.81,8-2.14,16.44-17.86,7.78-2.45,18.74c-.4,3-1.29,5.28-2.7,6.78a9.7,9.7,0,0,1-3.61,2.49h0l-7.17,3.13.08.07A32.74,32.74,0,0,1,280,103.3a30.11,30.11,0,0,1,3.42,7.79,23.29,23.29,0,0,1,.57,9.51l-3.34,25.53a18.22,18.22,0,0,0,.6,7.25q1,3.8,5.93,6.62l7.91,4.57L292.93,181l-24.44,10.64,1.64-12.59-10.71,4.66L244.73,99.21l11.09-4.83a28,28,0,0,0-3.11-2.11l.14-1.07-7.28,3.17-15.06-8.69,20.42-8.89,3.53,2L255,75a22.41,22.41,0,0,0,4.1,1.87,9,9,0,0,0,3,.51l1.48-11.37,5-2.17Z"/><path class="cls-16" d="M311.08,41.93,286.64,52.57,284.5,69l24.44-10.64Z"/><path class="cls-16" d="M295.07,164.58l-24.44,10.64-2.14,16.45L292.93,181Z"/><path class="cls-17" d="M254.67,183.69a41.3,41.3,0,0,1-16-16,32.87,32.87,0,0,1-4-20.51L238,121a17.34,17.34,0,0,0-.25-6.46,16,16,0,0,0-2.15-5,17.67,17.67,0,0,0-3.39-3.81,28.75,28.75,0,0,0-4-2.81l2.25-17.23a22.8,22.8,0,0,0,4.11,1.87,8.35,8.35,0,0,0,3.83.44,4.66,4.66,0,0,0,3.05-1.86,9.68,9.68,0,0,0,1.73-4.9l3.5-26.78q1.4-10.65,8.44-13.32t17.66,3.46l13.81,8L284.5,69l-7.92-4.57c-3.26-1.88-5.49-2.1-6.71-.67a10.59,10.59,0,0,0-2.27,5.6l-3.41,26.15c-.4,3-1.29,5.29-2.7,6.79a9.45,9.45,0,0,1-4.81,2.86,14.36,14.36,0,0,1-5.55.17,17.54,17.54,0,0,1-4.88-1.47l0,.31a33.08,33.08,0,0,1,4.58,3.82,32.48,32.48,0,0,1,4.75,5.94,30.11,30.11,0,0,1,3.42,7.79,23.29,23.29,0,0,1,.57,9.51l-3.34,25.53a18.22,18.22,0,0,0,.6,7.25q1,3.79,5.93,6.62l7.91,4.57-2.14,16.45-13.82-8Z"/><path class="cls-15" d="M376.81,177l-3.34,25.63q-1.39,10.65-8.44,13.32l-.36.12L341,226.36,343.12,210l-6.25-3.61-7,3-18.65-10.77,23.26-10.13,3.39-25.95,18.8-8.18-3.32,25.43.24-.11,2.29-17.57a16.87,16.87,0,0,1,1.95-6.4L341.74,84.39,327.27,76l24.44-10.65h0l13.81,8,.66.39a41.12,41.12,0,0,1,15.37,15.6,32.84,32.84,0,0,1,4,20.52l-3.49,26.78a15.79,15.79,0,0,0,.29,6.07,15.25,15.25,0,0,0,2.17,4.87,18.64,18.64,0,0,0,3.41,3.74,27.76,27.76,0,0,0,4,2.8l-2.25,17.23L376.81,177Z"/><path class="cls-16" d="M391.92,154.24l-24.44,10.64L365.24,182l24.44-10.64,2.24-17.12Z"/><path class="cls-17" d="M365.24,182a23,23,0,0,0-4.1-1.87,7.81,7.81,0,0,0-3.85-.37,5,5,0,0,0-3.07,2,11.18,11.18,0,0,0-1.78,5.29L349,213.24q-1.39,10.65-8.44,13.32t-17.67-3.46l-13.81-8,2.15-16.44,7.92,4.57c3.25,1.88,5.49,2.1,6.7.67a10.59,10.59,0,0,0,2.27-5.6l3.33-25.53c.45-3.44,1.39-6,2.8-7.56a9.15,9.15,0,0,1,4.83-3,12.43,12.43,0,0,1,5.53,0,21.28,21.28,0,0,1,4.86,1.62l0-.31a28.33,28.33,0,0,1-4.55-4,37.66,37.66,0,0,1-4.73-6.1,30.79,30.79,0,0,1-3.44-7.63,20.38,20.38,0,0,1-.67-8.72l3.41-26.16a18.4,18.4,0,0,0-.59-7.25q-1.05-3.8-5.93-6.62l-7.92-4.57L327.27,76l13.81,8a41.26,41.26,0,0,1,16,16,32.8,32.8,0,0,1,4,20.51l-3.49,26.79a15.75,15.75,0,0,0,.29,6.06,15.4,15.4,0,0,0,2.17,4.88,18.59,18.59,0,0,0,3.41,3.73,28.67,28.67,0,0,0,4,2.81L365.24,182Z"/><path class="cls-18" d="M134.75.15a1.27,1.27,0,0,1,1.31.07l54.56,31.46a3.39,3.39,0,0,1,1.45,3.14L182.66,107a1.59,1.59,0,0,1-.7,1.22h0l-.1.05-6.21,3.35,0-1.54L126.4,76.39A3.35,3.35,0,0,1,125,73.25l4.74-68.73-1.55-.8L134.75.15Z"/><path class="cls-1" d="M185.45,38.4A3.39,3.39,0,0,0,184,35.26L129.45,3.8c-1-.55-1.86,0-2,1.15L118,77.12a3.39,3.39,0,0,0,1.45,3.14L174,111.72c1,.55,1.86,0,2-1.15Z"/><g class="cls-19"><path class="cls-20" d="M157.76,43.6l-1.59,17.14,15,8.68-.4,4.38-15-8.68L154.15,82.4l-4.26-2.46,1.61-17.28-15-8.69.41-4.37,15,8.68,1.59-17.14Z"/></g><path class="cls-18" d="M378.9,245.1a1.63,1.63,0,0,1,1.67.09l70,40.34a4.36,4.36,0,0,1,1.86,4L440.32,382.1a2,2,0,0,1-.89,1.56h0l-.13.06-8,4.3.07-2-63.22-43.19a4.34,4.34,0,0,1-1.86-4l6.09-88.13-2-1,8.49-4.58Z"/><path class="cls-1" d="M443.9,294.15a4.36,4.36,0,0,0-1.86-4l-70-40.34c-1.22-.7-2.38-.05-2.57,1.47l-12.07,92.54a4.33,4.33,0,0,0,1.86,4l69.95,40.35c1.22.7,2.38,0,2.58-1.47Z"/><g class="cls-19"><path class="cls-20" d="M408.38,300.84l-2,22,19.28,11.13-.52,5.61-19.28-11.13-2.06,22.16-5.46-3.15,2.06-22.16-19.28-11.14.52-5.6,19.28,11.13,2-22Z"/></g></g></g></svg>