<svg xmlns="http://www.w3.org/2000/svg" viewBox="0 0 383.1 568.45"><defs><style>.cls-1{fill:#1a174b;}.cls-2{fill:#a333ff;}.cls-3{fill:#b2bcf1;}.cls-4{fill:#eff1fc;}.cls-5{fill:#becaf1;}.cls-6{fill:#7200cf;}.cls-7{fill:#d2d7f6;}.cls-8{fill:#d6dbf7;}.cls-9{fill:#817edc;}.cls-10{fill:#fba7b9;}.cls-11{fill:#fa8ea5;}.cls-12{fill:#4c48ce;}.cls-13{fill:#ff5177;}</style></defs><title>Asset 9</title><g id="Layer_2" data-name="Layer 2"><g id="Layer_1-2" data-name="Layer 1"><path id="Shadow" class="cls-1" d="M188.49,562.84c12,6.9,30.29,7.52,40.91,1.39L333.88,506c10.62-6.13,9.54-16.71-2.41-23.61L152.31,377.57c-11.95-6.9-30.28-7.53-40.9-1.39L7.31,436.37C-3.31,442.5-2.23,453.08,9.72,460L188.49,562.84Z"/><path class="cls-2" d="M169.34.52a4.91,4.91,0,0,1,4.88.28L377.61,118.09c3.56,2,6,7.29,5.41,11.7L338.36,472.38a5.89,5.89,0,0,1-2.6,4.55h0l-.37.19-11.84,5.1.2-5.72L123,360.72c-3.55-2.05-6-7.3-5.4-11.71L161.82,9.44l-4.35-3.8Z"/><path class="cls-3" d="M376.82,177.36,338.34,472.59a5.87,5.87,0,0,1-2.61,4.54l-.36.19-11.82,4.9,38.13-298.85Z"/><path class="cls-4" d="M370.79,135.09c.58-4.41-1.84-9.65-5.4-11.7L162,6.09c-3.55-2-6.91-.14-7.48,4.27L109.87,353c-.57,4.41,1.85,9.65,5.41,11.71L318.65,482c3.56,2.05,6.91.13,7.49-4.27Z"/><path class="cls-5" d="M195.15,242.59l-41,7.29v8.93l41,54.59,5.9-10L171.9,264.57l29.15-5.19-5.9-16.79Z"/><path class="cls-5" d="M292.48,329.73l-41-54.59-5.91,10L274.77,324l-29.16,5.19,5.91,16.8,41-7.3Z"/><path class="cls-5" d="M244.39,261.39,229,252.51l-23.78,76.34,15.38,8.88Z"/><path class="cls-6" d="M370.79,135.09c.58-4.41-1.84-9.65-5.4-11.7L162,6.09c-3.55-2-6.91-.14-7.48,4.27l-6.14,47.09L364.66,182.18Z"/><path class="cls-5" d="M286.72,229a3.73,3.73,0,0,0-1.6-3.46l-123-71c-1.05-.6-2,0-2.21,1.26l-.48,3.71A3.72,3.72,0,0,0,161,163l123,71c1.05.61,2,0,2.21-1.26l.48-3.71Z"/><path class="cls-5" d="M274.61,185.92a3.73,3.73,0,0,0-1.6-3.46L166.38,120.93c-1-.61-2-.05-2.21,1.26l-.48,3.7a3.7,3.7,0,0,0,1.59,3.46l106.63,61.54c1,.61,2,0,2.21-1.26l.49-3.71Z"/><path class="cls-5" d="M321.28,212.86a3.7,3.7,0,0,0-1.6-3.45l-35.86-20.68c-1.05-.61-2,0-2.21,1.26l-.48,3.71a3.72,3.72,0,0,0,1.59,3.46l35.87,20.67c1.05.61,2,0,2.21-1.26Z"/><path class="cls-5" d="M193,157.28a3.7,3.7,0,0,0-1.6-3.45L164.15,138.1c-1.05-.6-2.05,0-2.21,1.27l-.49,3.7a3.72,3.72,0,0,0,1.6,3.46l27.24,15.72c1.05.61,2,.05,2.21-1.26Z"/><path class="cls-5" d="M318.71,229.87a3.69,3.69,0,0,0-1.59-3.45L202.47,160.23c-1.05-.61-2,0-2.21,1.26l-.48,3.71a3.72,3.72,0,0,0,1.59,3.46L316,234.84c1.05.61,2,0,2.21-1.26l.48-3.71Z"/><path class="cls-5" d="M252.63,155.58a3.73,3.73,0,0,0-1.6-3.46l-82.5-47.6c-1.05-.61-2,0-2.21,1.26l-.48,3.71a3.69,3.69,0,0,0,1.59,3.45l82.5,47.61c1,.6,2,0,2.21-1.26Z"/><path class="cls-5" d="M310.49,189a3.71,3.71,0,0,0-1.59-3.46l-46.85-27c-1.06-.61-2.05,0-2.21,1.26l-.49,3.71a3.7,3.7,0,0,0,1.6,3.45l46.85,27c1.05.6,2,0,2.21-1.26l.48-3.71Z"/><path class="cls-2" d="M134.55,22.55a4.88,4.88,0,0,1,4.88.28l203.4,117.28c3.55,2.06,6,7.3,5.4,11.71L303.57,494.41A5.9,5.9,0,0,1,301,499h0c-.12.07-.37.18-.37.18l-11.84,5.11.2-5.72L88.18,382.74c-3.56-2.05-6-7.29-5.41-11.7L127,31.47l-4.35-3.8Z"/><path class="cls-3" d="M342,199.38,303.55,494.61a5.89,5.89,0,0,1-2.61,4.55l-.36.19-11.82,4.9L326.89,205.4Z"/><path class="cls-4" d="M336,157.12c.57-4.41-1.85-9.65-5.41-11.71L127.23,28.12c-3.56-2.05-6.92-.14-7.49,4.27L75.09,375c-.58,4.41,1.84,9.65,5.4,11.7L283.86,504c3.56,2.06,6.92.14,7.49-4.27Z"/><path class="cls-7" d="M327.72,220.65l-11.43,87.72L100.12,182.88l11.44-87.72Z"/><path class="cls-6" d="M336,157.12c.57-4.41-1.85-9.65-5.41-11.71L127.23,28.12c-3.56-2.05-6.92-.14-7.49,4.27L113.6,79.48,329.87,204.21Z"/><path class="cls-5" d="M251.93,251.06a3.73,3.73,0,0,0-1.6-3.46l-123-71c-1.05-.61-2,0-2.21,1.26l-.48,3.71a3.71,3.71,0,0,0,1.6,3.46l123,71c1,.6,2,0,2.21-1.26Z"/><path class="cls-5" d="M239.82,208a3.73,3.73,0,0,0-1.6-3.46L131.59,143c-1.05-.6-2,0-2.21,1.26l-.48,3.71a3.72,3.72,0,0,0,1.59,3.46l106.64,61.54c1.05.6,2,0,2.21-1.26l.48-3.71Z"/><path class="cls-5" d="M286.49,234.89a3.71,3.71,0,0,0-1.59-3.45L249,210.76c-1.05-.61-2,0-2.21,1.26l-.48,3.71a3.69,3.69,0,0,0,1.59,3.45l35.87,20.68c1.05.61,2,0,2.21-1.26l.48-3.71Z"/><path class="cls-5" d="M158.2,179.31a3.7,3.7,0,0,0-1.6-3.45l-27.24-15.73c-1.05-.6-2,0-2.21,1.26l-.49,3.71a3.73,3.73,0,0,0,1.6,3.46l27.24,15.72c1.05.61,2,0,2.21-1.26Z"/><path class="cls-5" d="M283.93,251.9a3.72,3.72,0,0,0-1.6-3.45L167.68,182.26c-1.05-.61-2,0-2.21,1.26l-.48,3.71a3.69,3.69,0,0,0,1.59,3.45l114.65,66.19c1,.61,2,0,2.21-1.26Z"/><path class="cls-5" d="M217.84,177.61a3.71,3.71,0,0,0-1.6-3.46l-82.5-47.6c-1.05-.61-2,0-2.21,1.26l-.48,3.71a3.69,3.69,0,0,0,1.59,3.45l82.5,47.61c1.05.6,2,0,2.21-1.27Z"/><path class="cls-5" d="M275.7,211a3.69,3.69,0,0,0-1.59-3.45l-46.85-27c-1-.61-2,0-2.21,1.26l-.49,3.71a3.7,3.7,0,0,0,1.6,3.45L273,216c1.05.6,2,0,2.21-1.27Z"/><path class="cls-8" d="M96.66,209.47,75.09,375c-.58,4.41,1.84,9.65,5.4,11.7l130.06,75,21.57-165.52c.58-4.41-1.84-9.65-5.4-11.7Z"/><path class="cls-2" d="M40.26,205a4.91,4.91,0,0,1,4.88.27l161,92.86c3.56,2,6,7.3,5.4,11.7L186.31,503.65a5.91,5.91,0,0,1-2.61,4.55h0l-.36.18-11.85,5.11.2-5.72L13.27,416.42c-3.56-2.06-6-7.3-5.4-11.71L32.74,213.89l-4.35-3.81L40.26,205Z"/><path class="cls-3" d="M205.37,357.37,186.28,503.85a5.89,5.89,0,0,1-2.61,4.55l-.36.19-11.82,4.9,18.74-150.11Z"/><path class="cls-4" d="M199.35,315.11c.57-4.41-1.85-9.66-5.4-11.71l-161-92.87c-3.56-2.05-6.91-.13-7.49,4.27L.18,408.65c-.58,4.41,1.84,9.65,5.4,11.71l161,92.86c3.55,2.06,6.91.14,7.48-4.27l25.27-193.84Z"/><path class="cls-5" d="M134.14,422.2a3.15,3.15,0,0,0-1.36-2.95L27.94,358.74c-.9-.51-1.74,0-1.89,1.08L25.64,363A3.17,3.17,0,0,0,27,365.92l104.85,60.51c.89.52,1.74,0,1.88-1.07l.41-3.16Z"/><path class="cls-5" d="M123.82,385.46a3.13,3.13,0,0,0-1.36-2.94L31.6,330.08c-.9-.52-1.74,0-1.88,1.07l-.42,3.16a3.19,3.19,0,0,0,1.36,2.95l90.87,52.44c.89.51,1.74,0,1.88-1.08Z"/><path class="cls-5" d="M163.59,408.42a3.13,3.13,0,0,0-1.36-2.94l-30.56-17.62c-.89-.52-1.74,0-1.88,1.07l-.41,3.16a3.15,3.15,0,0,0,1.36,3l30.56,17.62c.89.51,1.73,0,1.88-1.08l.41-3.16Z"/><path class="cls-5" d="M54.27,361.06a3.13,3.13,0,0,0-1.36-2.94L29.7,344.72c-.9-.52-1.74,0-1.89,1.07L27.4,349a3.17,3.17,0,0,0,1.36,2.95L52,365.3c.89.51,1.73,0,1.88-1.08Z"/><path class="cls-5" d="M161.4,422.92a3.17,3.17,0,0,0-1.35-2.95l-97.7-56.4c-.89-.51-1.74,0-1.88,1.08l-.41,3.16a3.13,3.13,0,0,0,1.36,2.94l97.69,56.4c.89.52,1.74,0,1.88-1.07l.42-3.16Z"/><path class="cls-5" d="M105.09,359.61a3.17,3.17,0,0,0-1.36-2.95L33.43,316.1c-.89-.52-1.74,0-1.88,1.07l-.41,3.16a3.15,3.15,0,0,0,1.36,2.95l70.3,40.56c.89.52,1.73,0,1.88-1.07Z"/><path class="cls-5" d="M154.4,388.08a3.19,3.19,0,0,0-1.36-2.95l-39.92-23c-.9-.51-1.74,0-1.89,1.08l-.41,3.16a3.19,3.19,0,0,0,1.36,3l39.92,23c.9.52,1.74,0,1.89-1.07Z"/><path class="cls-6" d="M199.35,315.11c.57-4.41-1.85-9.66-5.4-11.71l-161-92.87c-3.56-2.05-6.91-.13-7.49,4.27l-6.13,47.09L193.21,362.2Z"/><path class="cls-9" d="M43.53,87.18c2-1.11,4.54-1,7.26.57L360.57,267.56c5.41,3.14,9.36,11,8.81,17.45l-5.67,66.39c-.27,3.23-1.61,5.52-3.55,6.63h0l-.53.26-14.57,6-.1-8.45L39.16,178.4s-9.37-11-8.81-17.46L35.63,99l-6.71-5.76L38,89.49Z"/><path class="cls-10" d="M290.25,241.84l13-7.53,57.29,33.25c5.41,3.14,9.36,11,8.81,17.45l-5.67,66.39c-.27,3.23-1.61,5.52-3.55,6.63h0l-.53.26-14.57,6-.1-8.45-54.71-114Z"/><path class="cls-11" d="M369.38,285l-5.67,66.39c-.27,3.23-1.61,5.52-3.55,6.63l-.53.26-14.13,5.86L351.36,292Z"/><path class="cls-12" d="M354.25,291.33c.55-6.49-3.39-14.31-8.81-17.45L35.69,94.06c-5.42-3.14-10.27-.43-10.82,6.06l-5.66,66.39C18.65,173,22.6,180.82,28,184L337.77,363.78c5.42,3.15,10.27.43,10.82-6.06Z"/><path class="cls-13" d="M354.25,291.33c.55-6.49-3.39-14.31-8.81-17.45l-55.19-32-7.67,89.9,55.19,32c5.42,3.15,10.27.43,10.82-6.06Z"/><path class="cls-4" d="M52.72,177.6l2.6-32.73,6,3.44L58.68,181Zm3.13-39.38.52-6.59,6,3.45-.53,6.58Z"/><path class="cls-4" d="M64.28,184.27l2.6-32.73,6,3.45-.25,3.16.11.07A4.61,4.61,0,0,1,75.17,157a5.35,5.35,0,0,1,3.44.94,11,11,0,0,1,2.19,1.7,10.45,10.45,0,0,1,1.87,2.54,12.36,12.36,0,0,1,1.21,3.29,13.46,13.46,0,0,1,.23,4l-2,25.11-6-3.44L78,168.47a6.45,6.45,0,0,0-.53-3.28,5,5,0,0,0-2.08-2.28c-1.13-.66-1.94-.72-2.43-.19a5,5,0,0,0-.91,3l-1.75,22-6-3.45Z"/><path class="cls-4" d="M94.53,190.6a8.42,8.42,0,0,0,.44,3.63,4.69,4.69,0,0,0,2.13,2.51,2,2,0,0,0,2.25.12,3.2,3.2,0,0,0,1.05-2.47l1-12.72a5.57,5.57,0,0,0-.64-3,5.29,5.29,0,0,0-2.06-2.24c-1.13-.65-1.93-.71-2.4-.17a4,4,0,0,0-.83,2.36l-1,12Zm5.06,14.06.23-3c-.43.25-.83.47-1.22.68a3.32,3.32,0,0,1-1.25.39,4.33,4.33,0,0,1-1.52-.13,8.2,8.2,0,0,1-2-.86,10.41,10.41,0,0,1-5-6.1,13.43,13.43,0,0,1-.54-3.15,33.78,33.78,0,0,1,.11-4.46l1-12.46c.19-2.37.39-4.08.59-5.13.41-2,1.45-3.1,3.13-3.26a5.72,5.72,0,0,1,3.4,1.09A10.64,10.64,0,0,1,99.66,171a15.34,15.34,0,0,1,2.17,3.86l.12.07,1.29-16.21,6,3.44-3.65,46-6-3.44Z"/><path class="cls-4" d="M129.5,207.41l-11.81-6.82-.35,4.46a4.85,4.85,0,0,0,.6,2.84A5.32,5.32,0,0,0,120,210c1.13.66,1.91.72,2.34.21a4,4,0,0,0,.85-1.81l6,3.44q-.35,4.33-3,5.59a5.07,5.07,0,0,1-3,.51,9.41,9.41,0,0,1-3.75-1.35,15.62,15.62,0,0,1-4.66-4,17.16,17.16,0,0,1-2.74-5.16,13.38,13.38,0,0,1-.64-3.48,27.36,27.36,0,0,1,.06-3.82l.85-10.78a23.31,23.31,0,0,1,.53-3.54,6.08,6.08,0,0,1,1.11-2.47,4.5,4.5,0,0,1,3.29-1.68,8.77,8.77,0,0,1,4.86,1.46,15.18,15.18,0,0,1,3.65,2.92,17.12,17.12,0,0,1,2.67,3.77,16.28,16.28,0,0,1,1.76,8.65l-.72,9Zm-11.4-12,5.85,3.38.3-3.75a5.92,5.92,0,0,0-.57-3.26,5.19,5.19,0,0,0-2.06-2.17,2.21,2.21,0,0,0-2.21-.3c-.57.32-.91,1.11-1,2.36Z"/><path class="cls-4" d="M130.37,222.43l8.64-12.5-5.68-20,6.31,3.65,3,11.42L147,197.8l6.31,3.65L145,213.38l6.09,21-6.31-3.64-3.24-12.34-4.83,7.68-6.32-3.65Z"/><path class="cls-4" d="M153.57,235.83l.53-6.59,6,3.45-.52,6.58-6-3.44Z"/><path class="cls-4" d="M165.14,242.5l3.65-46,6,3.44-1.3,16.4.12.07A4.55,4.55,0,0,1,176,215.2a5.33,5.33,0,0,1,3.44.94,10.72,10.72,0,0,1,2.19,1.7,10.48,10.48,0,0,1,1.88,2.54,12.72,12.72,0,0,1,1.21,3.29,13.78,13.78,0,0,1,.23,4l-2,25.11-6-3.44,1.8-22.66a6.45,6.45,0,0,0-.54-3.28,4.94,4.94,0,0,0-2.08-2.28c-1.13-.66-1.94-.72-2.43-.19a5.09,5.09,0,0,0-.91,3l-1.75,22-6-3.45Z"/><path class="cls-4" d="M191.17,223.3l.79-9.94,6,3.44-.79,9.95,3.68,2.12-.41,5.17-3.68-2.13-1.44,18.14a6.57,6.57,0,0,0,.06,1.93,3.3,3.3,0,0,0,.59,1.35,4.64,4.64,0,0,0,1.11,1c.45.3,1,.64,1.66,1l-.49,6.2-2.46-1.42a13.37,13.37,0,0,1-3.36-2.69,13.15,13.15,0,0,1-2.05-3.07,12.33,12.33,0,0,1-1-3.18,11.86,11.86,0,0,1-.17-2.9l1.58-19.88-3-1.72.41-5.17,3,1.72Z"/><path class="cls-4" d="M201.19,263.32l2.6-32.73,6,3.44-.25,3.16.12.07a4.62,4.62,0,0,1,2.45-1.25,5.37,5.37,0,0,1,3.45.94,9.44,9.44,0,0,1,3.13,2.89,20.59,20.59,0,0,1,1.92,3.48,7.09,7.09,0,0,1,2.64-.91A6.54,6.54,0,0,1,227,243.6a12,12,0,0,1,4.25,4.34,13.45,13.45,0,0,1,1.32,3.37,12.39,12.39,0,0,1,.29,4.05l-2,25.11-6-3.45,1.8-22.66a6.49,6.49,0,0,0-.53-3.28,5,5,0,0,0-2.09-2.28c-1.13-.65-1.94-.71-2.43-.19a5.15,5.15,0,0,0-.91,3l-1.75,22-6-3.44,1.8-22.66a6.47,6.47,0,0,0-.54-3.28,4.94,4.94,0,0,0-2.08-2.28c-1.13-.65-1.94-.72-2.43-.19a5.13,5.13,0,0,0-.91,3l-1.75,22-6-3.44Z"/><path class="cls-4" d="M239.8,237.53l6,3.45-2.92,36.73a5.26,5.26,0,0,0,.41,2.9,7.08,7.08,0,0,0,2.24,2.21L245,289a30.31,30.31,0,0,1-3.66-2.48,12.4,12.4,0,0,1-2.69-3,11.23,11.23,0,0,1-1.57-3.78,17.45,17.45,0,0,1-.24-5Z"/></g></g></svg>