<?xml version="1.0" encoding="utf-8"?>
<!-- Generator: Adobe Illustrator 23.0.5, SVG Export Plug-In . SVG Version: 6.00 Build 0)  -->
<svg version="1.1" id="Слой_1" xmlns="http://www.w3.org/2000/svg" xmlns:xlink="http://www.w3.org/1999/xlink" x="0px" y="0px"
	 viewBox="0 0 1278 971.7" style="enable-background:new 0 0 1278 971.7;" xml:space="preserve">
<style type="text/css">
	.st0{fill:#E3ECFF;}
	.st1{fill:#203A72;}
	.st2{fill:#4061AE;}
	.st3{fill:#E9EBF9;}
	.st4{fill:#FFFFFF;}
	.st5{fill:#A2A1F3;}
	.st6{fill:#CDCDFC;}
	.st7{fill:#CBD9F9;}
	.st8{fill:#CF4564;}
	.st9{fill:#DEA33D;}
	.st10{fill:#E5AC8A;}
	.st11{fill-rule:evenodd;clip-rule:evenodd;fill:#2E7EF9;}
	.st12{fill-rule:evenodd;clip-rule:evenodd;fill:#2F2E41;}
	.st13{fill:#201D40;}
</style>
<title>1</title>
<ellipse class="st0" cx="1073" cy="847.7" rx="144.9" ry="23.9"/>
<ellipse class="st0" cx="285.7" cy="783" rx="260.6" ry="32"/>
<ellipse class="st0" cx="649.3" cy="723.8" rx="260.6" ry="32"/>
<path class="st0" d="M968.8,290.5l1.9,2.8l2.8-1.9l32.3-22.4l2.8-1.9l-1.9-2.8l-15.2-22c3.5-4.4,6.6-9.1,9.1-14.1l26.3,4.8l3.3,0.6
	l0.6-3.3l7-38.6l0.6-3.3l-3.3-0.6l-26.4-4.8c-0.6-5.3-1.7-10.5-3.3-15.5l21.6-15l2.8-1.9l-1.9-2.8l-22.4-32.3l-1.9-2.8l-2.8,1.9
	l-21.6,15c-3.9-3.1-8.2-5.9-12.6-8.2l4.7-25.8l0.6-3.3l-3.3-0.6l-38.6-7l-3.3-0.6l-0.6,3.3l-4.6,25.2c-5.5,0.5-10.9,1.6-16.1,3.3
	l-14.8-21.3l-1.9-2.8l-2.8,1.9l-32.3,22.4l-2.8,1.9l1.9,2.8l14.6,21c-3.7,4.6-6.9,9.5-9.5,14.8l-25.2-4.6l-3.3-0.6l-0.6,3.3l-7,38.6
	l-0.6,3.3l3.3,0.6l25.8,4.7c0.7,5.4,1.9,10.7,3.6,15.8l-21.4,14.8l-2.8,1.9l1.9,2.8l22.4,32.3l1.9,2.8l2.8-1.9l21.9-15.2
	c3.9,3,8,5.6,12.4,7.9l-4.8,26.3l-0.6,3.3l3.3,0.6l38.6,7l3.3,0.6l0.6-3.3l4.8-26.3c5.2-0.6,10.3-1.6,15.3-3.2L968.8,290.5
	L968.8,290.5z M953.1,226.5c-19,13.2-45.1,8.4-58.2-10.6c-13.2-19-8.4-45.1,10.6-58.2c19-13.2,45.1-8.4,58.2,10.6c0,0,0,0,0,0
	C976.9,187.3,972.1,213.4,953.1,226.5L953.1,226.5z"/>
<path class="st0" d="M795.2,179.4l1.2,1.8l1.8-1.2l20.4-14.1l1.8-1.2l-1.2-1.8l-9.6-13.9c2.2-2.8,4.2-5.7,5.8-8.9l16.6,3l2.1,0.4
	l0.4-2.1l4.4-24.4l0.4-2.1l-2.1-0.4l-16.6-3c-0.4-3.3-1.1-6.6-2.1-9.8l13.7-9.5l1.8-1.2l-1.2-1.8l-14.1-20.4l-1.2-1.7l-1.8,1.2
	l-13.7,9.5c-2.5-2-5.2-3.7-8-5.2l3-16.3l0.4-2.1l-2.1-0.4l-24.4-4.4l-2.1-0.4l-0.4,2.1l-2.9,15.9c-3.5,0.3-6.9,1-10.2,2.1l-9.3-13.5
	l-1.2-1.8l-1.8,1.2l-20.4,14.1l-1.7,1.2l1.2,1.8l9.2,13.3c-2.3,2.9-4.4,6-6,9.4l-16-2.9l-2.1-0.4l-0.4,2.1l-4.4,24.4l-0.4,2.1
	l2.1,0.4l16.3,3c0.4,3.4,1.2,6.8,2.3,10l-13.5,9.3l-1.8,1.2l1.2,1.8l14.1,20.4l1.2,1.8l1.8-1.2l13.8-9.6c2.5,1.9,5.1,3.6,7.8,5
	l-3,16.6l-0.4,2.1l2.1,0.4l24.4,4.4l2.1,0.4l0.4-2.1l3-16.6c3.3-0.3,6.5-1,9.7-2l9.7,14L795.2,179.4z M785.3,138.9
	c-12,8.3-28.4,5.3-36.7-6.7c-8.3-12-5.3-28.4,6.7-36.7c12-8.3,28.4-5.3,36.7,6.7C800.3,114.2,797.3,130.6,785.3,138.9L785.3,138.9z"
	/>
<path class="st0" d="M462.7,117.2l3.4-0.6l-0.6-3.4L458,73l-0.6-3.4l-3.4,0.6l-27.3,5.1c-2.6-5.2-5.8-10.1-9.5-14.6l15.7-22.8l2-2.9
	l-2.9-2L398.4,9.9l-2.9-2l-2,2.9l-15.7,23c-5.2-1.7-10.6-2.8-16.1-3.4l-5-26.9L356,0l-3.4,0.6l-40.1,7.5L309,8.7l0.6,3.4l5,26.9
	c-4.6,2.4-9,5.2-13.1,8.4l-22.5-15.4l-2.9-2l-2,2.9l-23,33.6l-2,2.9l2.9,2l22,15.1c-1.8,5.4-3.1,11-3.7,16.7l-26.5,4.9l-3.4,0.6
	l0.6,3.4l7.5,40.1l0.6,3.4l3.4-0.6l26.1-4.9c2.8,5.5,6.1,10.6,10,15.3l-15.1,22l-2,2.9l2.9,2l33.6,23l2.9,2l2-2.9l15.4-22.5
	c5.4,1.6,10.9,2.7,16.5,3.3l4.9,26.5l0.6,3.4l3.4-0.6l40.1-7.5l3.4-0.6l-0.6-3.4l-5.1-27.2c4.5-2.4,8.8-5.2,12.7-8.4l22.9,15.7
	l2.9,2l2-2.9l23.1-33.6l2-2.9l-2.9-2l-22.8-15.7c1.7-5.2,2.8-10.5,3.5-15.9L462.7,117.2L462.7,117.2z M395.4,104.8
	c4.4,23.6-11.2,46.3-34.8,50.7s-46.3-11.2-50.7-34.8c-4.4-23.6,11.2-46.3,34.8-50.7c0,0,0,0,0,0C368.3,65.7,391,81.2,395.4,104.8
	L395.4,104.8z"/>
<path class="st0" d="M283.5,234.4l2.2-0.4l-0.4-2.2l-4.7-25.3l-0.4-2.2l-2.2,0.4l-17.2,3.2c-1.7-3.3-3.7-6.4-6-9.2l9.9-14.4l1.3-1.8
	l-1.8-1.2l-21.2-14.6l-1.8-1.2l-1.3,1.8l-9.9,14.5c-3.3-1.1-6.7-1.8-10.2-2.2l-3.2-17l-0.4-2.1l-2.2,0.4l-25.3,4.7l-2.2,0.4l0.4,2.2
	l3.2,17c-2.9,1.5-5.7,3.3-8.3,5.3l-14.2-9.7l-1.8-1.3l-1.3,1.8L150,202.5l-1.3,1.8l1.8,1.3l13.9,9.5c-1.1,3.4-1.9,6.9-2.4,10.5
	l-16.7,3.1l-2.2,0.4l0.4,2.2l4.7,25.3l0.4,2.2l2.2-0.4l16.5-3.1c1.7,3.4,3.9,6.7,6.3,9.7l-9.5,13.9l-1.3,1.8l1.8,1.3l21.3,14.6
	l1.8,1.3l1.3-1.8l9.7-14.2c3.4,1,6.9,1.7,10.4,2.1l3.1,16.7l0.4,2.2l2.2-0.4l25.3-4.7l2.2-0.4l-0.4-2.2l-3.2-17.2
	c2.8-1.5,5.5-3.3,8-5.3l14.6,10l1.8,1.3l1.3-1.8l14.6-21.2l1.3-1.8l-1.8-1.3l-14.4-9.9c1.1-3.3,1.8-6.6,2.2-10L283.5,234.4
	L283.5,234.4z M241.1,226.6c2.8,14.9-7.1,29.2-21.9,32c-14.9,2.8-29.2-7.1-32-21.9c-2.8-14.9,7-29.2,21.9-32
	C224,201.9,238.3,211.7,241.1,226.6L241.1,226.6z"/>
<rect x="562.6" y="651.7" class="st1" width="177" height="43.3"/>
<path class="st2" d="M508.4,690.7h281.7c6.1,0,11.1,5,11.1,11.1V734l0,0H497.3l0,0v-32.2C497.3,695.6,502.3,690.7,508.4,690.7
	L508.4,690.7z"/>
<path class="st1" d="M1049.4,153.2c0-14.1-11.4-25.5-25.5-25.5l0,0H278.4c-14.1,0-25.5,11.4-25.5,25.5v0v431.5h796.6V153.2z"/>
<rect x="273.1" y="152.3" class="st0" width="756.1" height="414.3"/>
<path class="st2" d="M278.4,656.1h745.5c14.1,0,25.5-11.4,25.5-25.5l0,0v-45.9H252.9v45.9C252.9,644.7,264.3,656.1,278.4,656.1z"/>
<circle class="st3" cx="651.2" cy="620.4" r="15.1"/>
<path class="st4" d="M976.2,550.2H327.1c-17.2,0-31.2-11.1-31.2-24.8V195.3c0-13.7,14-24.8,31.2-24.8h649.2
	c17.2,0,31.2,11.1,31.2,24.8v330.2C1007.4,539.1,993.4,550.2,976.2,550.2z"/>
<path class="st5" d="M976.2,170.5H327.1c-17.2,0-31.2,11.1-31.2,24.8V217h711.5v-21.7C1007.4,181.6,993.4,170.5,976.2,170.5z"/>
<ellipse class="st6" cx="790.1" cy="194.6" rx="7.3" ry="7.1"/>
<ellipse class="st6" cx="819.7" cy="194.6" rx="7.3" ry="7.1"/>
<ellipse class="st6" cx="849.3" cy="194.6" rx="7.3" ry="7.1"/>
<path class="st7" d="M649.2,502.8l295-0.6c0.7,0,1.3,0.6,1.3,1.3l0,8.8c0,0.7-0.6,1.3-1.3,1.3l-295,0.6c-0.7,0-1.3-0.6-1.3-1.3
	l0-8.8C647.9,503.4,648.5,502.8,649.2,502.8z"/>
<path class="st7" d="M649.2,477.5l295-0.6c0.7,0,1.3,0.6,1.3,1.3l0,8.8c0,0.7-0.6,1.3-1.3,1.3l-295,0.6c-0.7,0-1.3-0.6-1.3-1.3
	l0-8.8C647.9,478.1,648.5,477.5,649.2,477.5z"/>
<path class="st7" d="M649.2,452.2l295-0.6c0.7,0,1.3,0.6,1.3,1.3l0,8.8c0,0.7-0.6,1.3-1.3,1.3l-295,0.6c-0.7,0-1.3-0.6-1.3-1.3
	l0-8.8C647.9,452.8,648.5,452.2,649.2,452.2z"/>
<path class="st7" d="M649.2,426.9l295-0.6c0.7,0,1.3,0.6,1.3,1.3l0,8.8c0,0.7-0.6,1.3-1.3,1.3l-295,0.6c-0.7,0-1.3-0.6-1.3-1.3
	l0-8.8C647.9,427.5,648.5,426.9,649.2,426.9z"/>
<path class="st7" d="M649.2,401.6l295-0.6c0.7,0,1.3,0.6,1.3,1.3l0,8.8c0,0.7-0.6,1.3-1.3,1.3l-295,0.6c-0.7,0-1.3-0.6-1.3-1.3
	l0-8.8C647.9,402.2,648.5,401.6,649.2,401.6z"/>
<path class="st7" d="M649.2,376.3l295-0.6c0.7,0,1.3,0.6,1.3,1.3l0,8.8c0,0.7-0.6,1.3-1.3,1.3l-295,0.6c-0.7,0-1.3-0.6-1.3-1.3
	l0-8.8C647.9,376.9,648.5,376.3,649.2,376.3z"/>
<path class="st7" d="M318.1,317l384.4-0.8c0.5,0,1,0.4,1,1l0,5.7c0,0.5-0.4,1-1,1l-384.4,0.8c-0.5,0-1-0.4-1-1l0-5.7
	C317.1,317.4,317.6,317,318.1,317z"/>
<path class="st7" d="M318.2,299.9l384.4-0.8c0.5,0,1,0.4,1,1l0,5.7c0,0.5-0.4,1-1,1l-384.4,0.8c-0.5,0-1-0.4-1-1l0-5.7
	C317.2,300.3,317.6,299.9,318.2,299.9z"/>
<path class="st7" d="M318.2,282.8l384.4-0.8c0.5,0,1,0.4,1,1l0,5.7c0,0.5-0.4,1-1,1l-384.4,0.8c-0.5,0-1-0.4-1-1l0-5.7
	C317.2,283.3,317.7,282.8,318.2,282.8z"/>
<path class="st7" d="M318.2,265.8l384.4-0.8c0.5,0,1,0.4,1,1l0,5.7c0,0.5-0.4,1-1,1l-384.4,0.8c-0.5,0-1-0.4-1-1l0-5.7
	C317.2,266.2,317.7,265.8,318.2,265.8z"/>
<path class="st7" d="M318.3,248.7l384.3-0.8c0.5,0,1,0.4,1,1l0,5.7c0,0.5-0.4,1-1,1l-384.3,0.8c-0.5,0-1-0.4-1-1l0-5.7
	C317.3,249.1,317.7,248.7,318.3,248.7z"/>
<path class="st7" d="M318.3,231.6l384.4-0.8c0.5,0,1,0.4,1,1l0,5.7c0,0.5-0.4,1-1,1l-384.4,0.8c-0.5,0-1-0.4-1-1l0-5.7
	C317.3,232.1,317.8,231.6,318.3,231.6z"/>
<polygon class="st0" points="514.5,524.2 323,524.6 322.6,356.6 514.2,356.2 514.2,356.2 514.5,524.2 "/>
<ellipse transform="matrix(0.1602 -0.9871 0.9871 0.1602 -90.1109 774.8873)" class="st8" cx="410.3" cy="440.4" rx="46.6" ry="46.6"/>
<path class="st4" d="M432.5,446h-45.8c-3.1,0.1-5.7-2.3-5.9-5.4s2.3-5.7,5.4-5.9c0.2,0,0.3,0,0.5,0h45.8c3.1-0.1,5.7,2.3,5.9,5.4
	s-2.3,5.7-5.4,5.9C432.8,446,432.6,446,432.5,446z"/>
<path class="st0" d="M746.4,268.5l25,8.4l4.7,23.2l-17.8,15.7l-25-8.4c-1.2-0.4-2.5,0.3-2.9,1.4c-0.2,0.5-0.1,1.1,0.1,1.6
	c8,18.3,29.3,26.6,47.6,18.6c5.3-2.3,9.9-5.9,13.6-10.3l120.4,1.3c9.1,14.3,27.7,18.9,42.4,10.7c1-0.6,1.3-1.8,0.7-2.7
	c-0.2-0.4-0.6-0.7-1.1-0.9l-22-7.4l-4.2-20.5l15.7-13.9l22.1,7.4c1.1,0.3,2.2-0.2,2.5-1.3c0.1-0.5,0.1-0.9-0.1-1.4
	c-7.1-16.1-25.9-23.5-42-16.4c-4,1.7-7.5,4.3-10.5,7.4c-0.8-0.1-1.6-0.2-2.4-0.2l-117.4-1.2c-9-17.8-30.7-24.9-48.5-15.9
	c-0.5,0.2-0.9,0.5-1.4,0.7c-1.1,0.6-1.4,2-0.8,3.1C745.5,268,745.9,268.4,746.4,268.5z"/>
<rect x="121.5" y="600.8" class="st1" width="44.2" height="185.6"/>
<rect x="397.8" y="600.8" class="st1" width="44.2" height="185.6"/>
<path class="st9" d="M571.4,557.3v33.6c0,10.1-8.2,18.3-18.3,18.3H18.4C8.3,609.2,0.1,601,0,590.9v-33.6c0-10.1,8.2-18.3,18.4-18.3
	h534.7C563.2,539,571.4,547.2,571.4,557.3z"/>
<path class="st4" d="M82.7,538.9l-63.4,70.3h-1C8.2,609.2,0,601,0,590.9v-6.5l41-45.5H82.7z"/>
<polygon class="st4" points="252.2,538.9 188.8,609.2 147.1,609.2 210.5,538.9 "/>
<polygon class="st4" points="165.7,538.9 102.4,609.2 60.6,609.2 124,538.9 "/>
<polygon class="st4" points="336.9,538.9 273.6,609.2 231.9,609.2 295.2,538.9 "/>
<polygon class="st4" points="506.4,538.9 443,609.2 401.3,609.2 464.7,538.9 "/>
<path class="st4" d="M571.4,557.3v0.6l-46.3,51.4h-41.7l63.4-70.3h6.3C563.2,538.9,571.4,547.2,571.4,557.3z"/>
<polygon class="st4" points="419.9,538.9 356.6,609.2 314.8,609.2 378.2,538.9 "/>
<rect x="74.8" y="761.1" class="st2" width="408.6" height="27.6"/>
<ellipse class="st0" cx="819.2" cy="950.2" rx="130.3" ry="21.5"/>
<polygon class="st9" points="833.5,800.7 805,800.7 757.9,922.2 880.6,922.2 "/>
<polygon class="st9" points="722.8,946.7 915.6,946.7 902.6,922.2 735.9,922.2 "/>
<polygon class="st4" points="836.8,809.3 792.6,832.8 779.1,867.5 845.6,832.1 "/>
<polygon class="st4" points="760.4,915.6 757.9,922.2 799.9,922.2 866.8,886.7 857.9,863.8 "/>
<path class="st10" d="M1053.5,277.6c-5.8,6.5,35.3,16.7,41.8,2.8s-0.4-53.8-0.4-53.8l-38.4,5.5
	C1056.4,232.2,1061,269.1,1053.5,277.6z"/>
<path class="st10" d="M1035.4,276c0,0,11.9-12.4,44.7-11.1c44.5,1.8,36.9,15.6,36.9,15.6l-28.8,22.7L1035.4,276z"/>
<path class="st10" d="M980.4,473.6c0,0-0.7-31.6-2.4-49.9l8.8-26.9l1.3-9.8l-2.7-12l-21.4-25.2c-0.9,4.6-18.8,58.1-18.8,58.1
	l7.9,78.6L980.4,473.6z"/>
<path class="st11" d="M1041,785.6c-3.1,8.9-9.1,16.6-17,21.8c-9.2,6.2-57,26.2-56.1,28.8s6.2,4.1,24.9,4.7s29.4-4.8,33.9-5.3
	c4.6-0.5,22.4,1,28.2-0.7s0.4-32.3,0.4-32.3L1041,785.6z"/>
<path class="st11" d="M1106.9,790.9c-4.7,14.8-9.8,36-11.8,41.5s-9.1,15.5,0.4,19.3s48.8,6.9,46.8-4.4s-13-48.9-13-48.9
	L1106.9,790.9z"/>
<path class="st12" d="M1135,804.4l-33.4-0.4c0,0-24.3-264.2-25.9-243.6S1058.6,805,1058.6,805l-34.7,2.4c0,0-28.4-315.9-26.6-325.7
	s6.8-10.7,6.8-10.7c78.6-48.4,125-29.4,143-5.1C1154,475.1,1135,804.4,1135,804.4z"/>
<path class="st2" d="M994,515.6c53.3,13.4,109.1,13.4,162.3,0c0.3-19.8,0.6-63.8-1-128.7c0-1.3,0-2.5-0.1-3.8c0-0.6,0-1.3,0-1.9
	v-0.1c0-0.8,0-1.6-0.1-2.4c-1.2-42.8,20.2-77.8,16.8-82.5l0,0c-8.1-10.9-43.4-22.2-65.4-27.3c-0.9,1.5-15,14.5-31.4,14.5
	c-19.5,0-32.5-13-32.5-13s-45.5,16.4-53.6,27.3c-3.6,4.8,3.4,33.5,4.9,71.6C996.2,425.3,993.8,495.5,994,515.6z"/>
<path class="st5" d="M834,548.5l50-16.8l9.4-46.5l-35.6-31.4l-50,16.8c-2.4,0.8-4.9-0.5-5.7-2.8c-0.3-1-0.3-2.2,0.1-3.2
	c16-36.6,58.6-53.3,95.2-37.2c10.6,4.6,19.9,11.7,27.1,20.7l240.8-2.5c18.2-28.5,55.4-37.9,84.9-21.4c1.9,1.1,2.5,3.6,1.4,5.5
	c-0.5,0.8-1.2,1.4-2.1,1.8l-44.1,14.8l-8.3,41l31.4,27.7l44.1-14.8c2.1-0.7,4.4,0.4,5.1,2.5c0.3,0.9,0.3,1.9-0.1,2.8
	c-14.2,32.3-51.8,47-84.1,32.8c-7.9-3.5-15-8.5-20.9-14.8c-1.6,0.2-3.2,0.3-4.8,0.3l-235,2.5c-18,35.6-61.5,49.9-97.1,31.9
	c-0.9-0.5-1.8-0.9-2.6-1.4c-2.1-1.3-2.8-4-1.6-6.2C832.1,549.5,833,548.8,834,548.5z"/>
<path class="st2" d="M953,363.9l35,37.7c0,0,4.7-20.5,8.5-20.5c1.4-40-9.5-74.7-6.5-84.6C984.7,303,953,363.9,953,363.9z"/>
<path class="st10" d="M1191.7,323.2c0,0,21.4,80.1,16.2,106.3c-4.5,22.5-96.2,58.4-96.2,58.4l-12.1-12.3c0,0,24.7-18.4,39.7-32
	c13.8-12.6,24.2-22.4,24.2-22.4c-2.7-2.1-14.9-87-14.9-87L1191.7,323.2z"/>
<path class="st10" d="M1115.5,472.1c0,0,2.2-3.8-4.8-4.9s-17.8-6.3-24.2-2.4c-4,2.5,1,5.1,7.8,6.1c0,0-10.8,5.6-16.6,9
	c-5.1,3-6.9,5.1-11.1,8.3c-0.6,0.4-0.8,1.3-0.3,1.9c0.3,0.4,0.8,0.6,1.3,0.6c2.3-0.3,6.1-1.7,12.5-6.2c0,0-12.9,9.5-12.1,12.8
	s17.2-9.4,17.2-9.4s-12.8,12.7-11,14.9c1.1,1.3,16.3-9.9,16.3-9.9s-11,12.9-6.3,11.7c1.1-0.3,12-4.9,27.1-16.6
	c5.6-4.3,9.2-10.8,4.4-15.9L1115.5,472.1z"/>
<path class="st2" d="M1103.1,318.5l39.3,40.4l62.9-13.2l-23.9-49.2C1181.4,296.6,1091.2,255.6,1103.1,318.5z"/>
<path class="st10" d="M988,528.5c0,0,2.9-12.4-6.6-12s-17.6,8.3-16.8,12s10.7,4.4,16.3,2.9S988,528.5,988,528.5z"/>
<path class="st10" d="M1105.2,195.1c1.2,30.6-17.3,56.1-41.3,57s-38.8-24.8-39.9-55.4c-1.2-30.6,11.6-54.4,35.7-55.4
	S1104,164.5,1105.2,195.1z"/>
<path class="st13" d="M1098,217.3c-14.8-14.2-10.1-40.3-10.1-40.3c-16.4-2.9-25.1,4.3-38.1,10.3c-17.9,8.3-44,7.9-50.7-14.6
	c-1-3.3,0.7-9.2,4.9-10.2c0,0-2.8-19,0-21c11.1-7.7,13.3,5.8,25.8,0.8c8.3-3.3,23.9-15.9,36.7-15.6c10.5,0.2,25.7,1.9,31.6,13.4
	c0,0,19.6,2.9,27.4,29.6c7.8,26.2-30.2,63.3-30.2,63.3S1101.9,221.6,1098,217.3z"/>
<ellipse transform="matrix(0.3392 -0.9407 0.9407 0.3392 530.35 1161.4391)" class="st10" cx="1091.9" cy="203.2" rx="13" ry="10.7"/>
<ellipse class="st0" cx="353.3" cy="866.9" rx="130.3" ry="21.5"/>
<polygon class="st9" points="359.4,720.9 331,720.9 283.8,842.5 406.5,842.5 "/>
<polygon class="st9" points="248.8,866.9 441.6,866.9 428.5,842.5 261.8,842.5 "/>
<polygon class="st4" points="362.7,729.5 318.5,753 305.1,787.7 371.6,752.4 "/>
<polygon class="st4" points="286.4,835.9 283.8,842.5 325.8,842.5 392.7,806.9 383.9,784 "/>
</svg>
