<?xml version="1.0" encoding="utf-8"?>
<!-- Generator: Adobe Illustrator 23.0.5, SVG Export Plug-In . SVG Version: 6.00 Build 0)  -->
<svg version="1.1" id="Слой_1" xmlns="http://www.w3.org/2000/svg" xmlns:xlink="http://www.w3.org/1999/xlink" x="0px" y="0px"
	 viewBox="0 0 218.7 662.8" style="enable-background:new 0 0 218.7 662.8;" xml:space="preserve">
<style type="text/css">
	.st0{fill:#D29474;}
	.st1{fill:url(#SVGID_1_);}
	.st2{fill:#4E85DE;}
	.st3{fill:#E38563;}
	.st4{fill:#90C0FC;}
	.st5{fill:#DEDEDE;}
	.st6{fill:#FDBB3D;}
	.st7{fill:#2F2E41;}
</style>
<g>
	<path class="st0" d="M38.3,223.8L9.6,174.3c-4.6-8-4.5-17.9,0.4-25.7l34.5-55.1L55.6,109l-22.8,52.5l36.8,37.3L38.3,223.8z"/>
	<g>
		<g>
			<linearGradient id="SVGID_1_" gradientUnits="userSpaceOnUse" x1="18.2073" y1="83.4139" x2="218.6607" y2="83.4139">
				<stop  offset="0" style="stop-color:#454C60"/>
				<stop  offset="0.5387" style="stop-color:#41485E"/>
				<stop  offset="1" style="stop-color:#37405B"/>
			</linearGradient>
			<path class="st1" d="M31.2,139.5h159.5l27.5,27.3l0.4-51V13c0-7.2-5.8-13-13-13H31.2c-7.2,0-13,5.8-13,13v113.5
				C18.2,133.7,24,139.5,31.2,139.5z"/>
		</g>
		<g>
			<rect x="32.5" y="123.2" class="st2" width="46" height="6.6"/>
		</g>
		<g>
			<rect x="87.6" y="123.2" class="st3" width="32" height="6.6"/>
		</g>
		<g>
			<rect x="128.3" y="123.2" class="st4" width="35.3" height="6.6"/>
		</g>
		<g>
			<rect x="87.6" y="104.3" class="st5" width="32" height="6.6"/>
		</g>
		<g>
			<rect x="128.3" y="104.3" class="st2" width="62" height="6.6"/>
		</g>
		<g>
			<rect x="64.6" y="85.3" class="st5" width="46" height="6.6"/>
		</g>
		<g>
			<rect x="152.3" y="85.3" class="st3" width="27.5" height="6.6"/>
		</g>
		<g>
			<rect x="29.6" y="85.3" class="st3" width="27.5" height="6.6"/>
		</g>
		<g>
			<rect x="69" y="66.4" class="st2" width="46" height="6.6"/>
		</g>
		<g>
			<rect x="30.7" y="66.4" class="st4" width="12.5" height="6.6"/>
		</g>
		<g>
			<rect x="128.3" y="66.4" class="st5" width="62" height="6.6"/>
		</g>
		<g>
			<rect x="32.5" y="47.5" class="st3" width="46" height="6.6"/>
		</g>
		<g>
			<rect x="124.8" y="47.5" class="st4" width="32" height="6.6"/>
		</g>
		<g>
			<rect x="87.6" y="47.5" class="st4" width="16" height="6.6"/>
		</g>
		<g>
			<rect x="55.5" y="28.6" class="st5" width="32" height="6.6"/>
		</g>
		<g>
			<rect x="100.6" y="28.6" class="st2" width="65.4" height="6.6"/>
		</g>
		<g>
			<rect x="32.5" y="9.6" class="st2" width="46" height="6.6"/>
		</g>
		<g>
			<rect x="87.6" y="9.6" class="st4" width="32" height="6.6"/>
		</g>
		<g>
			<rect x="145.9" y="9.6" class="st3" width="32" height="6.6"/>
		</g>
	</g>
	<path class="st0" d="M144.7,220.7l36.2-30.7c8.4-7.2,12.7-18.1,11.2-29.1l-7.5-56.3l-16.9,0.5l-1.6,56.4l-39.1,27.4L144.7,220.7z"
		/>
	<polygon class="st0" points="125.4,607.1 136.7,647.6 163.4,647.6 161,611.1 	"/>
	<polygon class="st0" points="69.5,607.1 58.2,647.6 31.5,647.6 33.9,611.1 	"/>
	<g>
		<g>
			<path class="st0" d="M106.7,161.6H74.9c0,0,1.2,8.6-0.9,18.3c-1.8,8.4-6,16-6,16s18.4,9.4,29,7.6c10.6-1.8,18.5-8.3,18.5-8.3
				s-7.1-10.4-8-15.3C106.7,174.9,106.7,161.6,106.7,161.6z"/>
			<path class="st6" d="M107.5,99.6c0,0,4.7,0,8.1-3.3c-8.1-2.7-17.4-3.9-23.8,0.4c-5-4.1-13.3-5.5-18.8-1.9
				c4.1,1.7,5.8,3.3,5.8,3.3s-9.3-0.4-14.7,5.4c1.2,0.6,3.9,1.2,3.9,1.2s-10.3,7.8-7.9,26.7c1.4,11.3,6.4,23.6,13.5,31.9
				c5.1,5.9,10.4,5.9,18.2,13.7c5.5-6.8,12.7-7.7,17.4-13.4c6.6-8.1,10.9-20.2,11.9-31.6C123.7,101.9,107.5,99.6,107.5,99.6z"/>
			<g>
				<g>
					<g>
						<path class="st7" d="M66,659.3L66,659.3c-0.4-3.9-1.6-10.5-4.5-17.2c-0.9-2-4.9-5.2-7.7-4.4c-6.8,1.9-10.1,7.9-14.7,7.9
							c-5.4,0-7-7.9-7-7.9s-24.6,5.6-28.9,10.2c-4.3,4.6-3,15-3,15H66h0.3C66.3,662.8,66.2,661.5,66,659.3L66,659.3z"/>
					</g>
					<g>
						<path class="st7" d="M186.4,647.9c-4.3-4.6-24.3-10.3-24.3-10.3s-6.3,8-11.6,8c-4.6,0-7.9-6-14.7-7.9
							c-2.8-0.8-6.8,2.4-7.7,4.4c-2.9,6.7-4.1,13.3-4.5,17.2h0v0c-0.3,2.2-0.3,3.5-0.3,3.5h0.3h65.8
							C189.3,662.8,190.6,652.5,186.4,647.9z"/>
					</g>
				</g>
			</g>
			<path class="st2" d="M139.1,328.5c0,0-26.4,1.9-35.2,2.5c-12.2,0.7-55.7-2.7-55.7-2.7S30.7,591.3,27.6,626
				c8.4,2.9,38.9,6.4,42.6,5.7c1.8-25.5,27.6-179.3,27.6-179.3s24.5,150.4,27.6,176.4c4.6,1.9,36.5-0.7,44.1-6
				C169.6,504.4,139.1,328.5,139.1,328.5z"/>
			<path class="st5" d="M144.6,255.4c2.3-19.9-9.8-72.8-32.8-71.2c-14.5,7.1-40.7-0.9-40.7-0.9l-22.4,44.9c0,0-6,107.5-9.3,128
				c-0.7,4.2-1.1,6.7-1.1,6.7s24.6,12.8,73.7,8.7c29.7-2.5,37.9-11.1,37.9-11.1s-8.6-36.7-7.9-51.7
				C142.7,290.9,143.1,268.3,144.6,255.4z"/>
		</g>
	</g>
	<path class="st5" d="M54.2,261.9c0-1.1-30.7-55.4-30.7-55.4L50,173.8l26.7,10.9l-3.7,65.7L54.2,261.9z"/>
	<polygon class="st5" points="136.9,256 163.8,215.6 145.2,173.8 111.9,184.3 104.8,218.6 	"/>
	<path class="st0" d="M185.5,112.8c-0.5-5.3-0.9-8.7-1-9c1-6,1.2-11.1,0.9-15.7c-0.2-4.5-0.9-8.3-1.7-11.8l-1.2-11.2
		c-0.1-1.2-1.2-2-2.5-1.9c-1.3,0.2-2.2,1.3-2.1,2.5c0,0,0.4,9.2,0.2,10.2c-0.3-0.6-2.2-14.8-2.2-14.8c-0.1-1.2-1.3-2-2.5-1.8
		c-1.3,0.2-2.2,1.3-2.1,2.5c0,0,0.9,13.5,0.8,14.5c-0.4-0.8-2.5-15.3-2.5-15.3c-0.1-1.2-1.3-2-2.5-1.8c-1.3,0.2-2.2,1.3-2.1,2.6
		c0,0,1.1,15.6,0.9,15.7c-0.3,0-2.1-13.2-2.1-13.2c-0.1-1.2-1.3-2-2.5-1.8c-1.3,0.2-2.2,1.3-2.1,2.5l1.4,13.9
		c-0.2,0.1,1.5,14.3-1.4,15.8c-2.1,1.1-7.4,0.8-9.4,2.6c-0.7,0.6-1.7,2.2-0.7,2.4c2.7,0.4,10.2,0.8,14.7,4.4
		c1.5,1.1,3.5,1.9,5.4,2.4c-0.1,1.9-0.4,4.6-0.6,7.7L185.5,112.8z"/>
</g>
</svg>
