<?xml version="1.0" encoding="utf-8"?>
<!-- Generator: Adobe Illustrator 23.0.5, SVG Export Plug-In . SVG Version: 6.00 Build 0)  -->
<svg version="1.1" id="Слой_1" xmlns="http://www.w3.org/2000/svg" xmlns:xlink="http://www.w3.org/1999/xlink" x="0px" y="0px"
	 viewBox="0 0 1248.9 908" style="enable-background:new 0 0 1248.9 908;" xml:space="preserve">
<style type="text/css">
	.st0{fill:#B9CAED;}
	.st1{fill:#E3ECFF;}
	.st2{fill:#203A72;}
	.st3{fill:#DFEBF7;}
	.st4{fill:#7772D6;}
	.st5{fill:#FFFFFF;}
	.st6{fill:#4061AE;}
	.st7{fill:#E9EBF9;}
	.st8{fill:#3797DB;}
	.st9{fill:#77BEEA;}
	.st10{fill-rule:evenodd;clip-rule:evenodd;fill:#3797DB;}
	.st11{fill:#2F2E41;}
	.st12{fill:#FAD1BB;}
	.st13{fill:#E4F2F6;}
</style>
<title>1</title>
<path class="st0" d="M1037.6,297.8c-8.1,3.1-56.5,29.4-59.7,28.8s-58.6-36.8-58.6-36.8s-5.1,14.2-7.3,13.9
	c-3.9-0.6,51.3,46,61.5,47.3s80.3-5,92.6-28.6c6-11.4-0.1-21.2-5.6-26.1S1043.6,295.5,1037.6,297.8z"/>
<ellipse class="st1" cx="1065.1" cy="884.2" rx="165.6" ry="23.8"/>
<rect x="1034.2" y="445.5" class="st2" width="106.8" height="444.1"/>
<path class="st1" d="M250.2,244.2l2.3-1.6l-1.6-2.3l-18.8-26.8l-1.6-2.3l-2.3,1.6l-18.3,12.8c-3.7-2.9-7.6-5.5-11.8-7.6l3.9-22
	l0.5-2.8l-2.8-0.5l-32.3-5.7l-2.8-0.5l-0.5,2.8l-3.9,22c-4.4,0.5-8.7,1.5-12.9,2.9l-12.6-18l-1.6-2.3l-2.3,1.6l-26.9,18.8l-2.3,1.6
	l1.6,2.3l12.6,18c-2.6,3.3-4.9,6.8-6.8,10.6L87.4,243l-2.8-0.5l-0.5,2.8l-5.7,32.3l-0.5,2.8l2.8,0.5l21.1,3.7
	c0.5,4.6,1.4,9.1,2.8,13.5l-17.7,12.4l-2.3,1.6l1.6,2.3l18.8,26.9l1.6,2.3l2.3-1.6l17.5-12.3c3.8,3.1,8,5.7,12.4,7.9l-3.7,21.1
	l-0.5,2.8l2.8,0.5l32.3,5.7l2.8,0.5l0.5-2.8l3.8-21.6c4.5-0.6,8.9-1.6,13.2-3.1l12.5,17.8l1.6,2.3l2.3-1.6l26.9-18.8l2.3-1.6
	l-1.6-2.3l-12.8-18.1c2.5-3.3,4.7-6.7,6.5-10.4l22,3.9l2.8,0.5l0.5-2.8l5.7-32.3l0.5-2.8l-2.8-0.5l-22-3.9
	c-0.5-4.3-1.4-8.6-2.7-12.8L250.2,244.2L250.2,244.2z M196.8,257.6c11.1,15.8,7.2,37.6-8.6,48.7c-15.8,11.1-37.6,7.2-48.7-8.6
	c-11.1-15.8-7.2-37.6,8.6-48.7C163.9,238,185.7,241.8,196.8,257.6z"/>
<path class="st1" d="M158.1,389.8l1.5-1l-1-1.5l-11.9-17l-1-1.5l-1.5,1l-11.5,8.1c-2.3-1.8-4.8-3.4-7.5-4.8l2.4-13.9l0.3-1.8
	l-1.8-0.3l-20.4-3.6l-1.8-0.3l-0.3,1.8l-2.4,13.9c-2.8,0.3-5.5,0.9-8.2,1.8l-8-11.4l-1-1.5l-1.4,1l-17,11.9l-1.4,1l1,1.5l8,11.4
	c-1.6,2.1-3.1,4.3-4.3,6.7L55.3,389l-1.8-0.3l-0.3,1.8l-3.6,20.4l-0.3,1.8l1.8,0.3l13.3,2.4c0.3,2.9,0.9,5.7,1.8,8.5L55,431.5
	l-1.4,1l1,1.5l11.9,17l1,1.5l1.4-1l11.1-7.7c2.4,2,5.1,3.6,7.9,5L85.4,462l-0.3,1.8l1.8,0.3l20.4,3.6l1.8,0.3l0.3-1.8l2.4-13.6
	c2.8-0.4,5.6-1,8.3-2l7.9,11.2l1,1.5l1.5-1l17-11.9l1.5-1l-1-1.5l-8.1-11.5c1.6-2.1,3-4.3,4.1-6.6l13.9,2.5l1.8,0.3l0.3-1.8
	l3.6-20.4l0.3-1.8l-1.8-0.3l-13.9-2.5c-0.3-2.7-0.9-5.4-1.7-8.1L158.1,389.8L158.1,389.8z M124.3,398.2c7,10,4.6,23.7-5.4,30.7
	c-10,7-23.7,4.6-30.7-5.4c-7-10-4.6-23.7,5.4-30.7c0,0,0,0,0,0C103.6,385.8,117.3,388.2,124.3,398.2z"/>
<path class="st3" d="M758.3,266.4c25.1-12.1,41.9-36.7,44-64.5l-36.2-2.7c-1.7,23-21.8,40.2-44.7,38.5c-23-1.7-40.2-21.8-38.5-44.7
	c1.1-14.9,10.1-28,23.5-34.5l-15.8-32.8c-39,18.4-55.7,64.9-37.3,103.9c18.4,39,64.9,55.7,103.9,37.3
	C757.5,266.7,757.9,266.6,758.3,266.4L758.3,266.4z"/>
<path class="st3" d="M794.7,162.2c-18.6-38.8-65.2-55.2-104.1-36.6c-0.1,0-0.1,0-0.2,0.1l32.3,71.6l79.4,4.5
	C803.3,188.2,800.7,174.5,794.7,162.2z"/>
<path class="st4" d="M1120.7,122.4h121.6c3.6,0,6.5,2.9,6.5,6.5v82.2c0,3.6-2.9,6.5-6.5,6.5h-65.6l-21,18.3
	c-0.6,0.5-1.6,0.5-2.1-0.2c-0.2-0.3-0.4-0.6-0.4-1v-17.2h-32.6c-3.6,0-6.5-2.9-6.5-6.5v-82.2
	C1114.2,125.3,1117.1,122.4,1120.7,122.4z"/>
<rect x="1130.3" y="168.4" class="st5" width="13.9" height="26.9"/>
<rect x="1157.7" y="160.3" class="st5" width="13.9" height="35.1"/>
<rect x="1185.8" y="154.5" class="st5" width="13.9" height="40.8"/>
<rect x="1215.9" y="144.7" class="st5" width="13.9" height="50.7"/>
<ellipse class="st1" cx="567.7" cy="836.2" rx="271.5" ry="33.4"/>
<rect x="477.3" y="761" class="st2" width="184.5" height="45.1"/>
<path class="st6" d="M420.4,801.7h294.5c6.1,0,11.1,5,11.1,11.1v34l0,0H409.3l0,0v-34C409.3,806.6,414.3,801.7,420.4,801.7
	L420.4,801.7z"/>
<path class="st2" d="M984.6,241.6c0-14.7-11.9-26.6-26.6-26.6H181.2c-14.7,0-26.6,11.9-26.6,26.6l0,0v449.6h830.1L984.6,241.6z"/>
<rect x="175.6" y="240.6" class="st1" width="787.9" height="431.7"/>
<path class="st6" d="M181.2,765.6H958c14.7,0,26.6-11.9,26.6-26.6v-47.8H154.6V739C154.5,753.7,166.5,765.6,181.2,765.6
	C181.2,765.6,181.2,765.6,181.2,765.6z"/>
<circle class="st7" cx="569.6" cy="728.4" r="15.8"/>
<path class="st5" d="M210.8,305.7h576.8l0,0v332.7c0,6.2-5.1,11.3-11.3,11.3h0H222.1c-6.2,0-11.3-5.1-11.3-11.3l0,0L210.8,305.7
	L210.8,305.7z"/>
<path class="st8" d="M218.5,274.4h561c4.6,0,8.4,3.7,8.4,8.4v36l0,0H210.2l0,0v-36C210.2,278.1,213.9,274.4,218.5,274.4
	C218.5,274.4,218.5,274.4,218.5,274.4z"/>
<circle class="st5" cx="759.1" cy="296.6" r="10.6"/>
<circle class="st5" cx="724.4" cy="296.6" r="10.6"/>
<circle class="st5" cx="689.7" cy="296.6" r="10.6"/>
<rect x="246" y="364.1" class="st8" width="270.1" height="19.9"/>
<rect x="246" y="410.3" class="st8" width="270.1" height="19.9"/>
<rect x="444.5" y="584.7" class="st8" width="19.9" height="43.4"/>
<rect x="513.2" y="517.6" class="st8" width="19.9" height="110.4"/>
<rect x="547.2" y="517.6" class="st8" width="19.9" height="110.4"/>
<rect x="581.3" y="499.4" class="st8" width="19.9" height="128.7"/>
<rect x="615.4" y="426.5" class="st8" width="19.9" height="201.6"/>
<rect x="649.4" y="499.4" class="st8" width="19.9" height="128.7"/>
<rect x="683.5" y="461" class="st8" width="19.9" height="167.1"/>
<rect x="717.5" y="426.5" class="st8" width="19.9" height="201.6"/>
<rect x="751.6" y="449.3" class="st8" width="19.9" height="178.8"/>
<rect x="813.1" y="278.2" class="st5" width="124.1" height="371.4"/>
<rect x="829.5" y="289.8" class="st4" width="91.2" height="84.3"/>
<rect x="829.5" y="388" class="st9" width="91.2" height="9.2"/>
<rect x="829.5" y="405.7" class="st9" width="91.2" height="9.2"/>
<rect x="829.5" y="423.3" class="st9" width="91.2" height="9.2"/>
<rect x="829.5" y="623.5" class="st9" width="91.2" height="9.2"/>
<rect x="992.3" y="445.5" class="st6" width="106.8" height="444.1"/>
<path class="st3" d="M356.9,30.6c-42.6,0-77.1,34.5-77.1,77.1s34.5,77.1,77.1,77.1s77.1-34.5,77.1-77.1v0h-77.1V30.6z"/>
<path class="st3" d="M373.1,15.7v77.1h77.1C450.2,50.3,415.6,15.8,373.1,15.7z"/>
<path class="st1" d="M246.1,620.7c0,4.6,3.7,8.3,8.3,8.3l0,0h221.3c4.6,0,8.3-3.7,8.3-8.3c0,0,0,0,0,0V497.1c0-4.6-3.7-8.3-8.3-8.3
	c0,0,0,0,0,0H254.3c-4.6,0-8.3,3.7-8.3,8.3c0,0,0,0,0,0V620.7z"/>
<path class="st8" d="M38,629.2c0,4.6,3.7,8.3,8.3,8.3c0,0,0,0,0,0h221.4c4.6,0,8.3-3.7,8.3-8.3l0,0V505.6c0-4.6-3.7-8.3-8.3-8.3l0,0
	H46.3c-4.6,0-8.3,3.7-8.3,8.3c0,0,0,0,0,0L38,629.2z"/>
<polygon class="st5" points="64.7,605.1 62.4,603.9 87.4,557.5 126.5,590.1 163.1,532 214.5,580.3 249.2,516.4 251.5,517.6 
	215.1,584.6 163.6,536.1 127.1,594 88.2,561.5 "/>
<path class="st5" d="M69.2,604.5c0,3.1-2.5,5.7-5.7,5.7c-3.1,0-5.7-2.5-5.7-5.7s2.5-5.7,5.7-5.7c0,0,0,0,0,0
	C66.7,598.8,69.2,601.4,69.2,604.5z"/>
<path class="st5" d="M92,560.8c0,3.1-2.5,5.7-5.7,5.7s-5.7-2.5-5.7-5.7c0-3.1,2.5-5.7,5.7-5.7C89.5,555.1,92,557.6,92,560.8
	C92,560.8,92,560.8,92,560.8z"/>
<path class="st5" d="M132.9,590.1c0,5.2-4.2,9.3-9.3,9.3c-5.2,0-9.3-4.2-9.3-9.3c0-5.2,4.2-9.3,9.3-9.3c0,0,0,0,0,0
	C128.8,580.8,132.9,585,132.9,590.1z"/>
<path class="st5" d="M169.9,537c0,4.9-4,8.9-8.9,8.9s-8.9-4-8.9-8.9c0-4.9,4-8.9,8.9-8.9C166,528.1,169.9,532.1,169.9,537
	C169.9,537,169.9,537,169.9,537z"/>
<circle class="st5" cx="217.1" cy="582.4" r="5.7"/>
<path class="st5" d="M256,517c0,3.1-2.5,5.7-5.7,5.7c-3.1,0-5.7-2.5-5.7-5.7s2.5-5.7,5.7-5.7c0,0,0,0,0,0
	C253.5,511.3,256,513.9,256,517z"/>
<ellipse transform="matrix(0.9858 -0.1681 0.1681 0.9858 -19.309 91.7354)" class="st3" cx="532" cy="159.9" rx="12.5" ry="12.5"/>
<circle class="st3" cx="12.5" cy="289.8" r="12.5"/>
<ellipse transform="matrix(0.9858 -0.1681 0.1681 0.9858 -2.8784 179.5431)" class="st3" cx="1058.7" cy="106.8" rx="12.5" ry="12.5"/>
<ellipse transform="matrix(0.9858 -0.1681 0.1681 0.9858 10.4764 148.6682)" class="st3" cx="883.1" cy="12.5" rx="12.5" ry="12.5"/>
<ellipse transform="matrix(0.9858 -0.1681 0.1681 0.9858 -74.1929 215.3869)" class="st3" cx="1234.7" cy="545.8" rx="14.1" ry="14"/>
<path class="st10" d="M988.3,551.9c3.5,2.7,20.2,20.5,8.1,24c-2.2,0.6-38.1,20.7-46.3,16.5c-12.8-6.5,4.7-18.3,21.4-29.1
	c0.2-0.5,13.1-8.2,13.1-8.2s1.9-1.7,2.2-1.9S988.3,551.9,988.3,551.9L988.3,551.9z"/>
<path class="st10" d="M1034.1,564.1c3.3,2.9,19,21.7,6.7,24.4c-2.3,0.5-41,18.5-48.9,13.8c-12.4-7.3,7.5-18.1,24.8-27.9
	c0.3-0.5,13.5-7.4,13.6-7.4s2-1.6,2.3-1.8S1034,564.1,1034.1,564.1z"/>
<path class="st11" d="M1006,226.7c-5.1,9-4,19.2,2.4,22.6s15.7-1.1,20.8-10.1s4-19.2-2.4-22.6C1020.3,213.1,1011.1,217.6,1006,226.7
	z"/>
<ellipse transform="matrix(0.9244 -0.3814 0.3814 0.9244 -19.3509 407.0724)" class="st11" cx="1017.3" cy="252.4" rx="9.6" ry="9.3"/>
<path class="st11" d="M1014.5,217.8c0,0,5.8-15,19.4-5.3c0,0,4.9-6.2,11.9-1.7c0,0,10-8.1,19.8,7.8c0,0,5.4-3.5,9.1,3.1
	c2.2,3.9,2.9,8.4,2,12.8c0,0,4.3,1.1,5.5,8.2c0.7,3.3-0.5,6.7-3.2,8.7c0,0,2.6,9.7-0.3,14.1s-8.8,5.3-8.8,5.3s0.6,5.6-4.2,7.1
	s-12.4-0.6-16.8,3.6S1014.5,217.8,1014.5,217.8z"/>
<polyline class="st12" points="1071.3,292.1 1054.1,255.2 1042.9,285.1 1046.7,299.6 "/>
<ellipse transform="matrix(0.9244 -0.3814 0.3814 0.9244 -4.0309 423.793)" class="st11" cx="1067.2" cy="222.1" rx="7.3" ry="10.4"/>
<path class="st12" d="M1035.9,230.8c-12.4-0.1-21.9,8-19.8,20c1.1,6.3,2.6,12.5,4.4,18.6c5.1,16.5,16.2,23.9,23.7,21.4
	s26.4-10.2,19.5-33.8C1059.3,242.5,1048.9,230.9,1035.9,230.8z"/>
<ellipse transform="matrix(0.9758 -0.2188 0.2188 0.9758 -29.5297 238.1317)" class="st12" cx="1060.3" cy="252.4" rx="5.7" ry="7.6"/>
<ellipse transform="matrix(0.9244 -0.3814 0.3814 0.9244 -7.4832 406.4734)" class="st11" cx="1021.7" cy="222.1" rx="7.5" ry="5.1"/>
<ellipse transform="matrix(0.9244 -0.3814 0.3814 0.9244 -5.4357 425.1618)" class="st11" cx="1069.9" cy="226.3" rx="9.6" ry="9.3"/>
<ellipse transform="matrix(0.9244 -0.3814 0.3814 0.9244 -2.8153 418.8559)" class="st11" cx="1055.3" cy="216.5" rx="9.6" ry="9.3"/>
<ellipse transform="matrix(0.9244 -0.3814 0.3814 0.9244 -3.6625 413.4926)" class="st11" cx="1041.4" cy="216" rx="9.6" ry="9.3"/>
<ellipse transform="matrix(0.9244 -0.3814 0.3814 0.9244 -18.2356 421.9405)" class="st11" cx="1055.4" cy="257" rx="9.6" ry="9.3"/>
<ellipse transform="matrix(0.9244 -0.3814 0.3814 0.9244 -14.3953 418.0994)" class="st11" cx="1047.6" cy="245.4" rx="9.6" ry="9.3"/>
<ellipse transform="matrix(0.2699 -0.9629 0.9629 0.2699 540.4055 1167.1927)" class="st11" cx="1039.9" cy="227.2" rx="9.6" ry="12.1"/>
<ellipse transform="matrix(0.2699 -0.9629 0.9629 0.2699 528.0245 1167.1686)" class="st11" cx="1033.7" cy="235.4" rx="9.6" ry="12.1"/>
<ellipse transform="matrix(0.7245 -0.6892 0.6892 0.7245 127.8446 790.8332)" class="st11" cx="1053.3" cy="235.5" rx="9.6" ry="11.6"/>
<path class="st11" d="M1054,262.5c4.4,4.6,6.5,17.6,10.4,14s6.4-30.8,2-35.4s-32.2-19.1-36-15.5S1049.6,257.8,1054,262.5z"/>
<ellipse transform="matrix(0.9244 -0.3814 0.3814 0.9244 -11.7171 428.5242)" class="st11" cx="1075.3" cy="243.8" rx="9.6" ry="9.3"/>
<ellipse transform="matrix(0.992 -0.1265 0.1265 0.992 -24.49 134.2028)" class="st12" cx="1044" cy="259.9" rx="6.9" ry="9.3"/>
<ellipse transform="matrix(0.9244 -0.3814 0.3814 0.9244 -14.683 406.4613)" class="st11" cx="1018.1" cy="240.3" rx="9.6" ry="9.3"/>
<ellipse transform="matrix(0.9244 -0.3814 0.3814 0.9244 -9.9823 402.2831)" class="st11" cx="1009.9" cy="226.3" rx="9.6" ry="9.3"/>
<path class="st0" d="M967.9,563.6c0,0-4.6-82.4-2.8-101.2s-3-26.2,8.2-32.8s54-15.6,65.1-20c12.6-5,17.4-5.9,17.4-5.9
	c24.4-7.8,39.9-12.2,54.7-12.3c11.4-0.1-14.1,19.8-17.1,32s-33.8,31.6-53.4,34.1c-12.9,1.5-25.9,1.5-38.8,0l-1.8,104.7L967.9,563.6z
	"/>
<path class="st0" d="M1012.5,576.1c0,0-5.8-81.2-4.2-101.2s-3-27.9,8.2-34.9c11.2-7,35.7-22.9,58.8-34.4c10.8-5.4,17.8-9.5,17.8-9.5
	c24.5-8.3,22.3-12.1,35.7-5.9c5.4,2.5,15.1,40.9,8.5,52.5c-16.9,29.6-92.9,27.2-92.9,27.2l1.2,106.3L1012.5,576.1z"/>
<path class="st13" d="M1045.7,407.4c0,0-26.9-68.1-15.3-92.6c8.4-17.7,23.9-27.6,33.4-28.9s30.8,4,39.8,16.8
	c32.5,46.5,37.5,109.8,37.5,109.8s-56.7-5.1-64.9-4.5S1045.7,407.4,1045.7,407.4z"/>
<path class="st0" d="M1050.2,309c-5.6,6.7-35.2,53-38.3,54s-69.1-3.8-69.1-3.8s2.4,14.9,0.3,15.7c-3.7,1.3,67.2,15.4,76.7,11.6
	c9.5-3.9,67.8-43.2,67.3-69.8c-0.3-12.8-10.4-18.5-17.5-20.1S1054.2,304.1,1050.2,309z"/>
<path class="st12" d="M909.9,354.9c1-3.3,6.9-4.7,11.1-4.7c4.6,0.3,9.1,1.3,13.4,3c2.5,1.2,8.8,8.5,8.8,8.5l0.7,11.4
	c0,0,1.7,0.8-3.5-1.6s-8.4-1.6-12.8-5.2s-4.7-4.6-10.6-5.9S909.3,357,909.9,354.9z"/>
</svg>
