<?xml version="1.0" encoding="utf-8"?>
<!-- Generator: Adobe Illustrator 26.0.1, SVG Export Plug-In . SVG Version: 6.00 Build 0)  -->
<!DOCTYPE svg PUBLIC "-//W3C//DTD SVG 1.1//EN" "http://www.w3.org/Graphics/SVG/1.1/DTD/svg11.dtd" [
	<!ENTITY ns_extend "http://ns.adobe.com/Extensibility/1.0/">
	<!ENTITY ns_ai "http://ns.adobe.com/AdobeIllustrator/10.0/">
	<!ENTITY ns_graphs "http://ns.adobe.com/Graphs/1.0/">
	<!ENTITY ns_vars "http://ns.adobe.com/Variables/1.0/">
	<!ENTITY ns_imrep "http://ns.adobe.com/ImageReplacement/1.0/">
	<!ENTITY ns_sfw "http://ns.adobe.com/SaveForWeb/1.0/">
	<!ENTITY ns_custom "http://ns.adobe.com/GenericCustomNamespace/1.0/">
	<!ENTITY ns_adobe_xpath "http://ns.adobe.com/XPath/1.0/">
]>
<svg version="1.1" id="publicdomainvectors.org" xmlns:x="&ns_extend;" xmlns:i="&ns_ai;" xmlns:graph="&ns_graphs;"
	 xmlns="http://www.w3.org/2000/svg" xmlns:xlink="http://www.w3.org/1999/xlink" x="0px" y="0px" viewBox="0 0 499.8 499.8"
	 enable-background="new 0 0 499.8 499.8" xml:space="preserve">
<metadata>
	<sfw  xmlns="&ns_sfw;">
		<slices></slices>
		<sliceSourceBounds  bottomLeftOrigin="true" height="499.8" width="499.8" x="49.9" y="-550"></sliceSourceBounds>
		<optimizationSettings>
			<targetSettings  fileFormat="JPEGFormat" targetSettingsID="0">
				
					<JPEGFormat  blurAmount="0" embedICCProfile="false" matteColor="#FFFFFF" noMatteColor="false" optimized="true" progressive="true" quality="60">
					</JPEGFormat>
			</targetSettings>
		</optimizationSettings>
	</sfw>
</metadata>
<g>
	<rect fill-rule="evenodd" clip-rule="evenodd" fill="#FFEFD6" width="499.8" height="499.8"/>
	<path fill-rule="evenodd" clip-rule="evenodd" fill="#FFFFFF" d="M80.5,73.6h338.9c8.7,0,15.8,7.1,15.8,15.8v203.3
		c0,8.7-7.1,15.8-15.8,15.8H80.5c-8.7,0-15.8-7.1-15.8-15.8V89.4C64.6,80.7,71.8,73.6,80.5,73.6z"/>
	<path fill-rule="evenodd" clip-rule="evenodd" fill="#FFCEAE" d="M80.5,84.1h338.9c2.9,0,5.3,2.4,5.3,5.3v183.5
		c0,2.9-2.4,5.3-5.3,5.3H80.5c-2.9,0-5.3-2.4-5.3-5.3V89.4C75.2,86.5,77.6,84.1,80.5,84.1z"/>
	<rect x="107.3" y="97" fill-rule="evenodd" clip-rule="evenodd" fill="#FFEFD6" width="285.3" height="181.2"/>
	<rect x="107.3" y="97" fill-rule="evenodd" clip-rule="evenodd" fill="#FFFFFF" width="285.3" height="15"/>
	
		<rect x="301.9" y="238.6" transform="matrix(0.7071 -0.7071 0.7071 0.7071 -90.3101 295.4434)" fill-rule="evenodd" clip-rule="evenodd" fill="#332D2A" width="19.1" height="36.2"/>
	<circle fill-rule="evenodd" clip-rule="evenodd" fill="#6B5C7B" cx="253.4" cy="198.7" r="87.9"/>
	<path fill-rule="evenodd" clip-rule="evenodd" fill="#4D4441" d="M304.5,280.3l30.4-30.4l72.3,72.3c8.4,8.4,8.4,22.1,0,30.4l0,0
		c-8.4,8.4-22.1,8.4-30.4,0L304.5,280.3z"/>
	<path fill-rule="evenodd" clip-rule="evenodd" fill="#FFF7EB" d="M208.1,153.4c25-25,65.6-25,90.6,0c25,25,25,65.6,0,90.6
		c-25,25-65.6,25-90.6,0C183.1,219,183.1,178.4,208.1,153.4z"/>
	<rect x="199.4" y="308.6" fill-rule="evenodd" clip-rule="evenodd" fill="#FFCEAE" width="77.7" height="41.5"/>
	<path fill-rule="evenodd" clip-rule="evenodd" fill="#FFFFFF" d="M238.2,341.7c32.8,0,60.5,8.3,70,19.8H168.2
		C177.7,350.1,205.5,341.7,238.2,341.7z"/>
	<rect x="28.2" y="361.6" fill-rule="evenodd" clip-rule="evenodd" fill="#E68572" width="443.5" height="19.8"/>
	<path fill-rule="evenodd" clip-rule="evenodd" fill="#CF6853" d="M46.4,381.4h29.2v118.4H46.4V381.4L46.4,381.4z M424.2,381.4h29.2
		v118.4h-29.2V381.4z"/>
	<path fill-rule="evenodd" clip-rule="evenodd" fill="#BD5540" d="M46.4,381.4h29.2v19.8H46.4V381.4L46.4,381.4z M424.2,381.4h29.2
		v19.8h-29.2V381.4z"/>
	<path fill-rule="evenodd" clip-rule="evenodd" fill="#D46D59" d="M242.3,184.3c1.7,0.1,3,1.6,2.9,3.3c-0.1,1.7-1.6,3-3.3,2.9
		l-5-0.3c-5.5-0.4-10.5-2.5-14.2-5.7c-3.8-3.3-6.3-7.8-6.7-12.9c-0.1-1.7,1.1-3.2,2.8-3.3c1.7-0.1,3.2,1.1,3.3,2.8
		c0.3,3.4,2,6.5,4.7,8.8c2.7,2.4,6.4,3.9,10.6,4.2L242.3,184.3L242.3,184.3z M259.2,184.3c-1.7,0.1-3,1.6-2.9,3.3
		c0.1,1.7,1.6,3,3.3,2.9l5-0.3c5.5-0.4,10.5-2.5,14.2-5.7c3.8-3.3,6.3-7.8,6.7-12.9c0.1-1.7-1.1-3.2-2.8-3.3
		c-1.7-0.1-3.2,1.1-3.3,2.8c-0.3,3.4-2,6.5-4.7,8.8c-2.7,2.4-6.4,3.9-10.6,4.2L259.2,184.3L259.2,184.3z M259.6,216.7
		c-1.7-0.1-3.2,1.2-3.3,2.9c-0.1,1.7,1.2,3.2,2.9,3.3l5,0.3c4.1,0.3,7.8,1.8,10.6,4.2c2.6,2.3,4.4,5.4,4.7,8.8
		c0.1,1.7,1.6,2.9,3.3,2.8c1.7-0.1,2.9-1.6,2.8-3.3c-0.5-5-2.9-9.5-6.7-12.9c-3.7-3.2-8.7-5.4-14.2-5.7L259.6,216.7L259.6,216.7z
		 M264.5,201.9c-1.7,0-3.1,1.3-3.2,3c0,1.7,1.3,3.1,3,3.2l3.9,0.1c3.6,0.1,7.2-0.2,10.6-1c3.6-0.8,7.1-1.9,10.3-3.4
		c1.5-0.7,2.2-2.5,1.5-4.1c-0.7-1.5-2.5-2.2-4.1-1.5c-2.8,1.3-5.8,2.3-8.9,3c-3,0.6-6.1,0.9-9.2,0.8L264.5,201.9L264.5,201.9z
		 M241.9,216.7c1.7-0.1,3.2,1.2,3.3,2.9c0.1,1.7-1.2,3.2-2.9,3.3l-5,0.3c-4.1,0.3-7.8,1.8-10.6,4.2c-2.6,2.3-4.4,5.4-4.7,8.8
		c-0.1,1.7-1.6,2.9-3.3,2.8c-1.7-0.1-2.9-1.6-2.8-3.3c0.5-5,2.9-9.5,6.7-12.9c3.7-3.2,8.7-5.4,14.2-5.7L241.9,216.7L241.9,216.7z
		 M237,201.9c1.7,0,3.1,1.3,3.2,3c0,1.7-1.3,3.1-3,3.2l-3.9,0.1c-3.6,0.1-7.2-0.2-10.6-1c-3.6-0.8-7.1-1.9-10.3-3.4
		c-1.5-0.7-2.2-2.5-1.5-4.1c0.7-1.5,2.5-2.2,4.1-1.5c2.8,1.3,5.8,2.3,8.9,3c3,0.6,6.1,0.9,9.2,0.8L237,201.9z"/>
	<path fill-rule="evenodd" clip-rule="evenodd" fill="#F29785" d="M250.7,182.4c7.8,0,14.2-6.4,14.2-14.2c0-7.8-6.4-14.2-14.2-14.2
		c-7.8,0-14.2,6.4-14.2,14.2C236.5,176,242.9,182.4,250.7,182.4z"/>
	<path fill-rule="evenodd" clip-rule="evenodd" fill="#E68572" d="M250.7,235.9c12.2,0,22.2-14.5,22.2-32.3
		c0-17.8-10-32.3-22.2-32.3s-22.2,14.5-22.2,32.3C228.5,221.4,238.5,235.9,250.7,235.9z"/>
	<path fill-rule="evenodd" clip-rule="evenodd" fill="#F29D72" d="M312.4,341.5c-8.8-6.2-14.1-16.4-14.1-27.2
		c0-10.8,5.3-21,14.1-27.2l39.7-39.7c5.4-5.4,13.9-6.6,20.6-2.7c6.7,3.9,9.9,11.7,7.9,19.2l35.6,35.6c8.8,8.8,8.8,23.2,0,32
		L391.6,356v78l-58.1,8.7v-86.2L312.4,341.5z"/>
	<rect x="327.2" y="371.5" fill-rule="evenodd" clip-rule="evenodd" fill="#FFFFFF" width="70.2" height="83.5"/>
	<rect x="322.9" y="389" fill-rule="evenodd" clip-rule="evenodd" fill="#4D4441" width="88" height="110.9"/>
	<rect x="199.4" y="308.6" fill-rule="evenodd" clip-rule="evenodd" fill="#F0B58D" width="77.7" height="13.4"/>
</g>
</svg>
