<svg xmlns="http://www.w3.org/2000/svg" xmlns:xlink="http://www.w3.org/1999/xlink" viewBox="0 0 503.04 491.73"><defs><style>.cls-1{fill:none;}.cls-2{fill:#1a174b;}.cls-3{fill:#899fe4;}.cls-4{clip-path:url(#clip-path);}.cls-5{fill:url(#linear-gradient);}.cls-6{fill:#9eb0e9;}.cls-7{clip-path:url(#clip-path-2);}.cls-8{fill:#5d7bda;}.cls-9{clip-path:url(#clip-path-3);}.cls-10{fill:url(#linear-gradient-4);}.cls-11{fill:#ced7f4;}.cls-12{clip-path:url(#clip-path-4);}.cls-13{fill:url(#linear-gradient-5);}.cls-14{fill:#c2c8f2;}.cls-15{clip-path:url(#clip-path-5);}.cls-16{fill:url(#linear-gradient-7);}.cls-17{clip-path:url(#clip-path-6);}.cls-18{clip-path:url(#clip-path-7);}.cls-19{fill:url(#linear-gradient-10);}.cls-20{clip-path:url(#clip-path-8);}.cls-21{fill:url(#linear-gradient-11);}.cls-22{fill:#b7c4ef;}.cls-23{clip-path:url(#clip-path-9);}.cls-24{fill:url(#linear-gradient-13);}.cls-25{clip-path:url(#clip-path-10);}.cls-26{clip-path:url(#clip-path-11);}.cls-27{fill:url(#linear-gradient-16);}.cls-28{clip-path:url(#clip-path-12);}.cls-29{fill:url(#linear-gradient-17);}.cls-30{fill:#e3e6f9;}.cls-31{fill:#d4d9f6;}.cls-32{fill:#d2d9f8;}.cls-33{clip-path:url(#clip-path-13);}.cls-34{fill:url(#linear-gradient-19);}.cls-35{clip-path:url(#clip-path-14);}.cls-36{clip-path:url(#clip-path-15);}.cls-37{fill:url(#linear-gradient-22);}.cls-38{fill:#e5e9fb;}.cls-39{clip-path:url(#clip-path-16);}.cls-40{fill:url(#linear-gradient-23);}.cls-41{fill:#f8f9fe;}.cls-42{clip-path:url(#clip-path-17);}.cls-43{fill:url(#linear-gradient-25);}.cls-44{clip-path:url(#clip-path-18);}.cls-45{clip-path:url(#clip-path-19);}.cls-46{fill:url(#linear-gradient-28);}.cls-47{clip-path:url(#clip-path-20);}.cls-48{fill:url(#linear-gradient-29);}.cls-49{fill:#6bb6ff;}.cls-50{fill:#0073e3;}.cls-51{fill:#9fd0ff;}.cls-52{fill:#d1e8ff;}</style><clipPath id="clip-path" transform="translate(0 0.41)"><path class="cls-1" d="M120.43,303.89c3.82-2.18,6.19-6.86,6.19-13.52,0-13.32-9.46-29.54-21.12-36.2a25.75,25.75,0,0,0-2.68-1.34C99,234.71,86.19,215.69,71,207c-9.29-5.3-17.68-5.7-23.68-2.06h0l-15.79,9,7.27,4.15a33.25,33.25,0,0,0-.56,3.5,26.54,26.54,0,0,0-3.1-2.07c-5.12-2.93-9.76-3.21-13.13-1.31h0L5.45,227.75,15,233.19l1.65-.94c.87,11.33,8.85,24.38,18.55,29.92l.49.27v.06l68.94,39.39.51.31-1.21.69v10.45l16.53-9.45Z"/></clipPath><linearGradient id="linear-gradient" x1="-1869.83" y1="1741.58" x2="-1869.06" y2="1741.59" gradientTransform="matrix(-187.83, 57.77, 58.37, 185.89, -452702.9, -215506.24)" gradientUnits="userSpaceOnUse"><stop offset="0" stop-color="#d0e8ff"/><stop offset="0.51" stop-color="#add7ff"/><stop offset="1" stop-color="#40a2ff"/></linearGradient><clipPath id="clip-path-2" transform="translate(0 0.41)"><path class="cls-1" d="M16.84,234.25c-.1-.67-.18-1.34-.23-2l-1.64.94-9.52-5.44L22,218.26h0a10.27,10.27,0,0,1,6.54-1.08L41,224.26,20.15,236.14l-3.31-1.89Z"/></clipPath><clipPath id="clip-path-3" transform="translate(0 0.41)"><path class="cls-1" d="M126.6,289.45,104.71,302l.39.24-1.21.69v10.45l16.54-9.45c3.82-2.18,6.19-6.87,6.19-13.53C126.62,290.06,126.61,289.76,126.6,289.45Z"/></clipPath><linearGradient id="linear-gradient-4" x1="-1869.83" y1="1741.42" x2="-1869.06" y2="1741.42" xlink:href="#linear-gradient"/><clipPath id="clip-path-4" transform="translate(0 0.41)"><path class="cls-1" d="M81.34,214.81,60.76,226.56v50.29l.45.26,42.1-24.06-.49-.22a76.79,76.79,0,0,0-21.48-38Z"/></clipPath><linearGradient id="linear-gradient-5" x1="-1869.83" y1="1741.93" x2="-1869.06" y2="1741.94" xlink:href="#linear-gradient"/><clipPath id="clip-path-5" transform="translate(0 0.41)"><path class="cls-1" d="M345.91,446.76c2-1.13,3.23-3.58,3.23-7.05,0-6.95-4.94-15.42-11-18.89a12.18,12.18,0,0,0-1.4-.7c-2-9.46-8.68-19.38-16.59-23.9-4.85-2.77-9.23-3-12.36-1.08h0l-8.24,4.71,3.8,2.17a14.72,14.72,0,0,0-.29,1.82,14.6,14.6,0,0,0-1.62-1.07c-2.68-1.53-5.1-1.68-6.86-.69h0L285.91,407l5,2.84.86-.49c.46,5.91,4.62,12.72,9.69,15.61l.25.14v0l36,20.55a2.26,2.26,0,0,0,.26.16l-.63.36v5.45l8.63-4.92h0Z"/></clipPath><linearGradient id="linear-gradient-7" x1="-1865.04" y1="1734.05" x2="-1864.27" y2="1734.06" gradientTransform="matrix(-98.02, 30.15, 30.46, 97.01, -235263.36, -111588.87)" xlink:href="#linear-gradient"/><clipPath id="clip-path-6" transform="translate(0 0.41)"><path class="cls-1" d="M291.85,410.43q-.08-.54-.12-1.05l-.86.49-5-2.84,8.66-4.95h0a5.34,5.34,0,0,1,3.41-.56l6.46,3.69-10.85,6.2-1.73-1Z"/></clipPath><clipPath id="clip-path-7" transform="translate(0 0.41)"><path class="cls-1" d="M349.13,439.24l-11.42,6.52a1.37,1.37,0,0,0,.2.13l-.63.36v5.45l8.63-4.93c2-1.14,3.23-3.58,3.23-7.06,0-.16,0-.31,0-.47Z"/></clipPath><linearGradient id="linear-gradient-10" x1="-1865.03" y1="1733.89" x2="-1864.26" y2="1733.89" gradientTransform="matrix(-98.02, 30.15, 30.46, 97.01, -235263.36, -111588.87)" xlink:href="#linear-gradient"/><clipPath id="clip-path-8" transform="translate(0 0.41)"><path class="cls-1" d="M325.51,400.28l-10.74,6.13v26.25l.23.13,22-12.55-.26-.12a40,40,0,0,0-11.21-19.84Z"/></clipPath><linearGradient id="linear-gradient-11" x1="-1865.04" y1="1734.4" x2="-1864.27" y2="1734.41" gradientTransform="matrix(-98.02, 30.15, 30.46, 97.01, -235263.36, -111588.87)" xlink:href="#linear-gradient"/><clipPath id="clip-path-9" transform="translate(0 0.41)"><path class="cls-1" d="M417.51,346.59c10.86-6.2,17.58-19.5,17.58-38.41,0-37.82-26.87-83.88-60-102.79a74.89,74.89,0,0,0-7.61-3.8c-10.94-51.47-47.23-105.46-90.27-130C250.87,56.46,227,55.33,210,65.68h0L165.15,91.31l20.66,11.81a91.61,91.61,0,0,0-1.59,9.91,79.77,79.77,0,0,0-8.81-5.87c-14.54-8.31-27.73-9.12-37.3-3.72h0L91,130.36l27,15.45,4.68-2.68c2.47,32.18,25.14,69.24,52.69,85l1.38.77v.16L372.56,340.91l1.44.88-3.43,2v29.66l46.94-26.82Z"/></clipPath><linearGradient id="linear-gradient-13" x1="-1872.72" y1="1746.42" x2="-1871.95" y2="1746.42" gradientTransform="matrix(-533.37, 164.04, 165.75, 527.87, -1287805.2, -614565.72)" xlink:href="#linear-gradient"/><clipPath id="clip-path-10" transform="translate(0 0.41)"><path class="cls-1" d="M123.37,148.84c-.29-1.92-.5-3.82-.65-5.71L118,145.8,91,130.35l47.11-26.91h0c5.23-3,11.54-4,18.56-3.09l35.17,20.1-59.09,33.76-9.39-5.37Z"/></clipPath><clipPath id="clip-path-11" transform="translate(0 0.41)"><path class="cls-1" d="M435.05,305.6l-62.16,35.52,1.11.67-3.43,2v29.66l46.95-26.82c10.85-6.2,17.57-19.5,17.57-38.41,0-.86,0-1.71,0-2.58Z"/></clipPath><linearGradient id="linear-gradient-16" x1="-1872.72" y1="1746.26" x2="-1871.95" y2="1746.26" gradientTransform="matrix(-533.37, 164.04, 165.75, 527.87, -1287805.2, -614565.72)" xlink:href="#linear-gradient"/><clipPath id="clip-path-12" transform="translate(0 0.41)"><path class="cls-1" d="M306.53,93.6,248.1,127v142.8l1.27.73L368.93,202.2l-1.4-.61c-8.34-39.25-31.43-80-61-108Z"/></clipPath><linearGradient id="linear-gradient-17" x1="-1872.72" y1="1746.77" x2="-1871.95" y2="1746.78" gradientTransform="matrix(-533.37, 164.04, 165.75, 527.87, -1287805.2, -614565.72)" xlink:href="#linear-gradient"/><clipPath id="clip-path-13" transform="translate(0 0.41)"><path class="cls-1" d="M489.24,370.72c6.89-3.93,11.16-12.37,11.16-24.37,0-24-17-53.24-38.06-65.24a48.12,48.12,0,0,0-4.82-2.41c-6.95-32.67-30-66.93-57.3-82.54-16.74-9.56-31.87-10.28-42.68-3.71h0l-28.46,16.26,13.11,7.49a59.5,59.5,0,0,0-1,6.29,52.64,52.64,0,0,0-5.59-3.72c-9.24-5.27-17.6-5.79-23.68-2.36h0L282,233.49l17.15,9.81,3-1.7c1.58,20.42,16,43.94,33.45,53.94.29.16.58.33.87.48v.11l124.24,71,.92.55-2.18,1.25v18.82l29.79-17Z"/></clipPath><linearGradient id="linear-gradient-19" x1="-1871.63" y1="1744.81" x2="-1870.86" y2="1744.81" gradientTransform="matrix(-338.49, 104.11, 105.19, 335, -816530.57, -389450.24)" xlink:href="#linear-gradient"/><clipPath id="clip-path-14" transform="translate(0 0.41)"><path class="cls-1" d="M302.57,245.23c-.18-1.22-.32-2.43-.41-3.63l-3,1.7L282,233.49l29.9-17.08h0a18.44,18.44,0,0,1,11.78-1.95L346,227.21l-37.5,21.42-6-3.4Z"/></clipPath><clipPath id="clip-path-15" transform="translate(0 0.41)"><path class="cls-1" d="M500.38,344.71l-39.45,22.54.7.43-2.17,1.24v18.83l29.79-17c6.89-3.93,11.15-12.37,11.15-24.37,0-.55,0-1.09,0-1.64Z"/></clipPath><linearGradient id="linear-gradient-22" x1="-1871.63" y1="1744.64" x2="-1870.86" y2="1744.65" gradientTransform="matrix(-338.49, 104.11, 105.19, 335, -816530.57, -389450.24)" xlink:href="#linear-gradient"/><clipPath id="clip-path-16" transform="translate(0 0.41)"><path class="cls-1" d="M418.81,210.17l-37.08,21.18V322l.8.47,75.88-43.36-.89-.39c-5.29-24.91-19.94-50.75-38.71-68.53Z"/></clipPath><linearGradient id="linear-gradient-23" x1="-1871.64" y1="1745.16" x2="-1870.87" y2="1745.16" gradientTransform="matrix(-338.49, 104.11, 105.19, 335, -816530.57, -389450.24)" xlink:href="#linear-gradient"/><clipPath id="clip-path-17" transform="translate(0 0.41)"><path class="cls-1" d="M198.43,127.37c4.81-2.74,7.78-8.63,7.78-17,0-16.75-11.89-37.14-26.55-45.51a32.88,32.88,0,0,0-3.36-1.68c-4.85-22.79-20.92-46.7-40-57.58C124.65-1.08,114.09-1.58,106.55,3h0L86.7,14.35l9.15,5.23A41.07,41.07,0,0,0,95.14,24a35.24,35.24,0,0,0-3.9-2.6c-6.44-3.68-12.28-4-16.51-1.65h0L53.87,31.64l12,6.84,2.07-1.18C69,51.54,79,68,91.24,74.92l.61.34v.08l86.68,49.52.64.39-1.52.87v13.13l20.78-11.88Z"/></clipPath><linearGradient id="linear-gradient-25" x1="-1870.63" y1="1743.31" x2="-1869.86" y2="1743.31" gradientTransform="matrix(-236.14, 72.63, 73.38, 233.7, -569421.27, -271539.89)" xlink:href="#linear-gradient"/><clipPath id="clip-path-18" transform="translate(0 0.41)"><path class="cls-1" d="M68.19,39.83c-.12-.85-.21-1.7-.28-2.53l-2.07,1.18-12-6.84L74.73,19.72h0a12.89,12.89,0,0,1,8.21-1.36l15.57,8.9L72.36,42.2l-4.17-2.37Z"/></clipPath><clipPath id="clip-path-19" transform="translate(0 0.41)"><path class="cls-1" d="M206.19,109.23,178.67,125l.49.3-1.52.87v13.13l20.78-11.87c4.81-2.75,7.79-8.63,7.79-17C206.21,110,206.2,109.61,206.19,109.23Z"/></clipPath><linearGradient id="linear-gradient-28" x1="-1870.63" y1="1743.14" x2="-1869.86" y2="1743.15" gradientTransform="matrix(-236.14, 72.63, 73.38, 233.7, -569421.27, -271539.89)" xlink:href="#linear-gradient"/><clipPath id="clip-path-20" transform="translate(0 0.41)"><path class="cls-1" d="M149.29,15.37,123.42,30.15V93.37l.56.33,52.93-30.25-.62-.27C172.6,45.8,162.38,27.78,149.29,15.37Z"/></clipPath><linearGradient id="linear-gradient-29" x1="-1870.63" y1="1743.66" x2="-1869.86" y2="1743.66" gradientTransform="matrix(-236.14, 72.63, 73.38, 233.7, -569421.27, -271539.89)" xlink:href="#linear-gradient"/></defs><title>Asset 5</title><g id="Layer_2" data-name="Layer 2"><g id="Layer_1-2" data-name="Layer 1"><path class="cls-2" d="M364.76,479.7c-24,14.13-60.56,15.57-81.56,3.22L77.57,362c-21-12.35-18.54-33.86,5.48-48l11.4-6.7c24-14.14,60.57-15.58,81.57-3.23L381.64,425c21,12.35,18.54,33.85-5.48,48Z" transform="translate(0 0.41)"/><path class="cls-3" d="M120.43,303.89c3.82-2.18,6.19-6.86,6.19-13.52,0-13.32-9.46-29.54-21.12-36.2a25.75,25.75,0,0,0-2.68-1.34C99,234.71,86.19,215.69,71,207c-9.29-5.3-17.68-5.7-23.68-2.06h0l-15.79,9,7.27,4.15a33.25,33.25,0,0,0-.56,3.5,26.54,26.54,0,0,0-3.1-2.07c-5.12-2.93-9.76-3.21-13.13-1.31h0L5.45,227.75,15,233.19l1.65-.94c.87,11.33,8.85,24.38,18.55,29.92l.49.27v.06l68.94,39.39.51.31-1.21.69v10.45l16.53-9.45Z" transform="translate(0 0.41)"/><g class="cls-4"><path class="cls-5" d="M60.77,226.56l42.55-24.31v50.8L60.77,277.36Z" transform="translate(0 0.41)"/></g><path class="cls-6" d="M16.84,234.25c-.1-.67-.18-1.34-.23-2l-1.64.94-9.52-5.44L22,218.26h0a10.27,10.27,0,0,1,6.54-1.08L41,224.26,20.15,236.14l-3.31-1.89Z" transform="translate(0 0.41)"/><g class="cls-7"><path class="cls-5" d="M60.77,226.56l42.55-24.31v50.8L60.77,277.36Z" transform="translate(0 0.41)"/></g><path class="cls-8" d="M126.6,289.45,104.71,302l.39.24-1.21.69v10.45l16.54-9.45c3.82-2.18,6.19-6.87,6.19-13.53C126.62,290.06,126.61,289.76,126.6,289.45Z" transform="translate(0 0.41)"/><g class="cls-9"><path class="cls-5" d="M60.77,226.56l42.55-24.31v50.8L60.77,277.36Z" transform="translate(0 0.41)"/><path class="cls-10" d="M24.13,214.64,41,224.26,20.15,236.15,3.32,226.53Z" transform="translate(0 0.41)"/></g><path class="cls-11" d="M81.34,214.81,60.76,226.56v50.29l.45.26,42.1-24.06-.49-.22a76.79,76.79,0,0,0-21.48-38Z" transform="translate(0 0.41)"/><g class="cls-12"><path class="cls-13" d="M103.32,302.76l24.76-14.15v10.91l-24.76,14.15Z" transform="translate(0 0.41)"/><path class="cls-10" d="M24.13,214.64,41,224.26,20.15,236.15,3.32,226.53Z" transform="translate(0 0.41)"/></g><path class="cls-14" d="M86.29,262.28c-3.85-18.13-16.64-37.14-31.79-45.8-16.91-9.67-30.87-3.06-32.76,14.61a29.85,29.85,0,0,0-3.1-2.07C8.35,223.15,0,227.92,0,239.67s8.35,26.07,18.64,32l.48.27V272l68.94,39.39c.3.19.6.37.91.54s.6.34.9.49h0c11.24,5.88,20.21.41,20.21-12.56,0-13.32-9.46-29.54-21.11-36.19a24.79,24.79,0,0,0-2.68-1.34Z" transform="translate(0 0.41)"/><path class="cls-3" d="M345.91,446.76c2-1.13,3.23-3.58,3.23-7.05,0-6.95-4.94-15.42-11-18.89a12.18,12.18,0,0,0-1.4-.7c-2-9.46-8.68-19.38-16.59-23.9-4.85-2.77-9.23-3-12.36-1.08h0l-8.24,4.71,3.8,2.17a14.72,14.72,0,0,0-.29,1.82,14.6,14.6,0,0,0-1.62-1.07c-2.68-1.53-5.1-1.68-6.86-.69h0L285.91,407l5,2.84.86-.49c.46,5.91,4.62,12.72,9.69,15.61l.25.14v0l36,20.55a2.26,2.26,0,0,0,.26.16l-.63.36v5.45l8.63-4.92h0Z" transform="translate(0 0.41)"/><g class="cls-15"><path class="cls-16" d="M314.77,406.41,337,393.72v26.51l-22.21,12.69V406.41Z" transform="translate(0 0.41)"/></g><path class="cls-6" d="M291.85,410.43q-.08-.54-.12-1.05l-.86.49-5-2.84,8.66-4.95h0a5.34,5.34,0,0,1,3.41-.56l6.46,3.69-10.85,6.2-1.73-1Z" transform="translate(0 0.41)"/><g class="cls-17"><path class="cls-16" d="M314.77,406.41,337,393.72v26.51l-22.21,12.69V406.41Z" transform="translate(0 0.41)"/></g><path class="cls-8" d="M349.13,439.24l-11.42,6.52a1.37,1.37,0,0,0,.2.13l-.63.36v5.45l8.63-4.93c2-1.14,3.23-3.58,3.23-7.06,0-.16,0-.31,0-.47Z" transform="translate(0 0.41)"/><g class="cls-18"><path class="cls-16" d="M314.77,406.41,337,393.72v26.51l-22.21,12.69V406.41Z" transform="translate(0 0.41)"/><path class="cls-19" d="M295.65,400.19l8.79,5-10.86,6.21-8.78-5Z" transform="translate(0 0.41)"/></g><path class="cls-11" d="M325.51,400.28l-10.74,6.13v26.25l.23.13,22-12.55-.26-.12a40,40,0,0,0-11.21-19.84Z" transform="translate(0 0.41)"/><g class="cls-20"><path class="cls-21" d="M337,446.18l12.92-7.39v5.7L337,451.87Z" transform="translate(0 0.41)"/><path class="cls-19" d="M295.65,400.19l8.79,5-10.86,6.21-8.78-5Z" transform="translate(0 0.41)"/></g><path class="cls-14" d="M328.09,425.05c-2-9.46-8.68-19.38-16.59-23.9-8.83-5-16.11-1.59-17.1,7.63a12.67,12.67,0,0,0-1.62-1.08c-5.37-3.07-9.72-.58-9.72,5.56s4.35,13.6,9.72,16.67l.26.14v0l36,20.55.47.29.48.26h0c5.86,3.06,10.54.21,10.54-6.56,0-6.95-4.93-15.42-11-18.89a15.09,15.09,0,0,0-1.39-.7Z" transform="translate(0 0.41)"/><path class="cls-22" d="M417.51,346.59c10.86-6.2,17.58-19.5,17.58-38.41,0-37.82-26.87-83.88-60-102.79a74.89,74.89,0,0,0-7.61-3.8c-10.94-51.47-47.23-105.46-90.27-130C250.87,56.46,227,55.33,210,65.68h0L165.15,91.31l20.66,11.81a91.61,91.61,0,0,0-1.59,9.91,79.77,79.77,0,0,0-8.81-5.87c-14.54-8.31-27.73-9.12-37.3-3.72h0L91,130.36l27,15.45,4.68-2.68c2.47,32.18,25.14,69.24,52.69,85l1.38.77v.16L372.56,340.91l1.44.88-3.43,2v29.66l46.94-26.82Z" transform="translate(0 0.41)"/><g class="cls-23"><path class="cls-24" d="M248.1,127,368.93,58V202.21l-120.83,69Z" transform="translate(0 0.41)"/></g><path class="cls-6" d="M123.37,148.84c-.29-1.92-.5-3.82-.65-5.71L118,145.8,91,130.35l47.11-26.91h0c5.23-3,11.54-4,18.56-3.09l35.17,20.1-59.09,33.76-9.39-5.37Z" transform="translate(0 0.41)"/><g class="cls-25"><path class="cls-24" d="M248.1,127,368.93,58V202.21l-120.83,69Z" transform="translate(0 0.41)"/></g><path class="cls-6" d="M435.05,305.6l-62.16,35.52,1.11.67-3.43,2v29.66l46.95-26.82c10.85-6.2,17.57-19.5,17.57-38.41,0-.86,0-1.71,0-2.58Z" transform="translate(0 0.41)"/><g class="cls-26"><path class="cls-24" d="M248.1,127,368.93,58V202.21l-120.83,69Z" transform="translate(0 0.41)"/><path class="cls-27" d="M144.06,93.15l47.78,27.31-59.08,33.76L85,126.91Z" transform="translate(0 0.41)"/></g><path class="cls-11" d="M306.53,93.6,248.1,127v142.8l1.27.73L368.93,202.2l-1.4-.61c-8.34-39.25-31.43-80-61-108Z" transform="translate(0 0.41)"/><g class="cls-28"><path class="cls-29" d="M368.92,343.38l70.34-40.19v31l-70.34,40.19Z" transform="translate(0 0.41)"/><path class="cls-27" d="M144.06,93.15l47.78,27.31-59.08,33.76L85,126.91Z" transform="translate(0 0.41)"/></g><path class="cls-30" d="M320.57,228.42C309.63,177,273.33,123,230.29,98.36c-48-27.44-87.65-8.68-93,41.5a78.28,78.28,0,0,0-8.8-5.87c-29.21-16.69-52.92-3.14-52.92,30.24s23.71,74,52.92,90.72l1.38.77v.16L325.6,367.74c.85.53,1.71,1,2.57,1.53s1.72,1,2.57,1.41h0c31.9,16.69,57.39,1.16,57.39-35.67,0-37.82-26.87-83.88-60-102.79a72.75,72.75,0,0,0-7.6-3.8Z" transform="translate(0 0.41)"/><path class="cls-31" d="M189.08,289.74,172.16,257.8c-3.25-4.76-5.3-10.15-5.3-14.84,0-8.69,7.06-11.67,15.75-6.65a34.09,34.09,0,0,1,11.72,12h0v-101h0c-.05-.57-.08-1.14-.08-1.69,0-8.7,7.05-11.68,15.75-6.66s15.74,16.15,15.74,24.84c0,.55,0,1.09-.08,1.6h0v35.52c2.66-.52,6,.18,9.63,2.27,7.71,4.46,14.14,13.74,15.49,21.85,2.68-.58,6.08.11,9.77,2.24a34.78,34.78,0,0,1,13.81,16.16c2.8-.93,6.51-.33,10.59,2,8.69,5,15.74,16.15,15.74,24.84v83.23L189.08,289.74Z" transform="translate(0 0.41)"/><path class="cls-32" d="M489.24,370.72c6.89-3.93,11.16-12.37,11.16-24.37,0-24-17-53.24-38.06-65.24a48.12,48.12,0,0,0-4.82-2.41c-6.95-32.67-30-66.93-57.3-82.54-16.74-9.56-31.87-10.28-42.68-3.71h0l-28.46,16.26,13.11,7.49a59.5,59.5,0,0,0-1,6.29,52.64,52.64,0,0,0-5.59-3.72c-9.24-5.27-17.6-5.79-23.68-2.36h0L282,233.49l17.15,9.81,3-1.7c1.58,20.42,16,43.94,33.45,53.94.29.16.58.33.87.48v.11l124.24,71,.92.55-2.18,1.25v18.82l29.79-17Z" transform="translate(0 0.41)"/><g class="cls-33"><path class="cls-34" d="M381.72,231.36l76.68-43.82v91.55l-76.68,43.82Z" transform="translate(0 0.41)"/></g><path class="cls-6" d="M302.57,245.23c-.18-1.22-.32-2.43-.41-3.63l-3,1.7L282,233.49l29.9-17.08h0a18.44,18.44,0,0,1,11.78-1.95L346,227.21l-37.5,21.42-6-3.4Z" transform="translate(0 0.41)"/><g class="cls-35"><path class="cls-34" d="M381.72,231.36l76.68-43.82v91.55l-76.68,43.82Z" transform="translate(0 0.41)"/></g><path class="cls-6" d="M500.38,344.71l-39.45,22.54.7.43-2.17,1.24v18.83l29.79-17c6.89-3.93,11.15-12.37,11.15-24.37,0-.55,0-1.09,0-1.64Z" transform="translate(0 0.41)"/><g class="cls-36"><path class="cls-34" d="M381.72,231.36l76.68-43.82v91.55l-76.68,43.82Z" transform="translate(0 0.41)"/><path class="cls-37" d="M315.7,209.88,346,227.21l-37.5,21.42L278.2,231.31Z" transform="translate(0 0.41)"/></g><path class="cls-38" d="M418.81,210.17l-37.08,21.18V322l.8.47,75.88-43.36-.89-.39c-5.29-24.91-19.94-50.75-38.71-68.53Z" transform="translate(0 0.41)"/><g class="cls-39"><path class="cls-40" d="M458.41,368.69,503,343.18v19.66l-44.63,25.5Z" transform="translate(0 0.41)"/><path class="cls-37" d="M315.7,209.88,346,227.21l-37.5,21.42L278.2,231.31Z" transform="translate(0 0.41)"/></g><path class="cls-41" d="M427.72,295.73c-7-32.66-30-66.93-57.3-82.53-30.47-17.42-55.63-5.52-59,26.33a49.75,49.75,0,0,0-5.59-3.72c-18.54-10.6-33.59-2-33.59,19.19s15.05,47,33.59,57.57l.87.49v.1l124.24,71c.54.34,1.09.66,1.63,1s1.09.61,1.63.9h0c20.25,10.59,36.42.74,36.42-22.64,0-24-17.05-53.23-38.06-65.24a48.12,48.12,0,0,0-4.82-2.41Z" transform="translate(0 0.41)"/><path class="cls-32" d="M198.43,127.37c4.81-2.74,7.78-8.63,7.78-17,0-16.75-11.89-37.14-26.55-45.51a32.88,32.88,0,0,0-3.36-1.68c-4.85-22.79-20.92-46.7-40-57.58C124.65-1.08,114.09-1.58,106.55,3h0L86.7,14.35l9.15,5.23A41.07,41.07,0,0,0,95.14,24a35.24,35.24,0,0,0-3.9-2.6c-6.44-3.68-12.28-4-16.51-1.65h0L53.87,31.64l12,6.84,2.07-1.18C69,51.54,79,68,91.24,74.92l.61.34v.08l86.68,49.52.64.39-1.52.87v13.13l20.78-11.88Z" transform="translate(0 0.41)"/><g class="cls-42"><path class="cls-43" d="M123.42,30.16,176.91-.41V63.46L123.42,94Z" transform="translate(0 0.41)"/></g><path class="cls-6" d="M68.19,39.83c-.12-.85-.21-1.7-.28-2.53l-2.07,1.18-12-6.84L74.73,19.72h0a12.89,12.89,0,0,1,8.21-1.36l15.57,8.9L72.36,42.2l-4.17-2.37Z" transform="translate(0 0.41)"/><g class="cls-44"><path class="cls-43" d="M123.42,30.16,176.91-.41V63.46L123.42,94Z" transform="translate(0 0.41)"/></g><path class="cls-6" d="M206.19,109.23,178.67,125l.49.3-1.52.87v13.13l20.78-11.87c4.81-2.75,7.79-8.63,7.79-17C206.21,110,206.2,109.61,206.19,109.23Z" transform="translate(0 0.41)"/><g class="cls-45"><path class="cls-43" d="M123.42,30.16,176.91-.41V63.46L123.42,94Z" transform="translate(0 0.41)"/><path class="cls-46" d="M77.36,15.17,98.51,27.26,72.35,42.2,51.2,30.12,77.36,15.17Z" transform="translate(0 0.41)"/></g><path class="cls-38" d="M149.29,15.37,123.42,30.15V93.37l.56.33,52.93-30.25-.62-.27C172.6,45.8,162.38,27.78,149.29,15.37Z" transform="translate(0 0.41)"/><g class="cls-47"><path class="cls-48" d="M176.92,126l31.14-17.8v13.71l-31.14,17.8Z" transform="translate(0 0.41)"/><path class="cls-46" d="M77.36,15.17,98.51,27.26,72.35,42.2,51.2,30.12,77.36,15.17Z" transform="translate(0 0.41)"/></g><path class="cls-41" d="M155.5,75.06c-4.84-22.79-20.91-46.69-40-57.58C94.27,5.33,76.73,13.64,74.35,35.85a35.24,35.24,0,0,0-3.9-2.6C57.52,25.87,47,31.87,47,46.64s10.5,32.78,23.43,40.17l.61.34v.07l86.67,49.52c.38.24.76.46,1.14.68l1.14.63h0c14.13,7.38,25.41.51,25.41-15.8,0-16.74-11.9-37.13-26.55-45.51a32,32,0,0,0-3.37-1.68Z" transform="translate(0 0.41)"/><path class="cls-49" d="M169.6,154c2.89-1.66,7.16-1.31,11.91,1.43,8.69,5,14.86,15.61,15.54,24.86,0,.6.08,1,.12,1.58v35.53c2.67-.53,6,.17,9.63,2.27,7.72,4.45,14.15,13.73,15.49,21.84,2.69-.58,6.08.11,9.77,2.24a34.86,34.86,0,0,1,13.82,16.16c2.79-.92,6.51-.33,10.58,2,8.69,5,15.75,16.15,15.75,24.84v89.46c0,3.92-1.44,6.67-3.82,8.05h0L245.76,397.3l-17.59-10.16L246.1,376.8l-59.71-34.4A42.08,42.08,0,0,1,171.09,326L147,280.53l-3.25,1.87L120.35,264l21.17-12.23h0c2.87-2.17,7.45-2,12.6,1a34,34,0,0,1,11.73,12h0l-1.28-87.58L147,167,169.6,154Z" transform="translate(0 0.41)"/><path class="cls-50" d="M272.21,288.41v87.78c0,3.92-1.44,6.68-3.82,8.05L245.76,397.3l-3.14-1.81v-90l29.59-17.08Z" transform="translate(0 0.41)"/><path class="cls-50" d="M237,247.32a36.3,36.3,0,0,1,8.91,12.55l.05,0-33.8,19.52v-17.7L237,247.32Z" transform="translate(0 0.41)"/><path class="cls-50" d="M215.74,227.57a31.78,31.78,0,0,1,6.55,13.9h.05L192,259V241.28Z" transform="translate(0 0.41)"/><path class="cls-51" d="M143.23,176.81a16.28,16.28,0,0,1-.09-1.7c0-8.69,7.06-11.67,15.75-6.65s15.75,16.15,15.75,24.84a13.61,13.61,0,0,1-.09,1.59h0v35.53c2.67-.52,6,.18,9.63,2.27,7.72,4.46,14.15,13.73,15.49,21.84,2.69-.58,6.08.11,9.77,2.24a34.89,34.89,0,0,1,13.82,16.17c2.79-.93,6.51-.34,10.58,2,8.69,5,15.75,16.14,15.75,24.84v89.45c0,8.65-7,11.62-15.65,6.64l-70.17-40.43a42,42,0,0,1-15.3-16.38l-27.41-51.77h0c-3.26-4.76-5.3-10.16-5.3-14.84,0-8.69,7-11.67,15.74-6.65a34,34,0,0,1,11.73,12h0v-101Z" transform="translate(0 0.41)"/><path class="cls-52" d="M143.23,177.38v-.57h0a16.42,16.42,0,0,1-.09-1.7c0-8.69,7.06-11.67,15.75-6.65s15.75,16.14,15.75,24.83a13.66,13.66,0,0,1-.09,1.6h0v35.53c2.67-.53,6,.18,9.63,2.27,7.72,4.45,14.15,13.73,15.49,21.84,2.69-.58,6.08.11,9.77,2.24a34.89,34.89,0,0,1,13.82,16.17c2.79-.93,6.51-.34,10.58,2,8.69,5,15.75,16.15,15.75,24.84v89.46c0,8.65-7,11.53-15.65,6.64-1.58-.9-6.15-3.55-6.15-3.55,8.19,4.72,14.83,1.91,14.83-6.29v-84.8c0-8.24-6.69-18.79-14.92-23.55-3.87-2.23-7.39-2.79-10-1.91a33,33,0,0,0-13.09-15.32c-3.5-2-6.72-2.68-9.27-2.13-1.27-7.69-7.36-16.48-14.68-20.7-3.44-2-6.6-2.65-9.13-2.16V201.81h0c.06-.49.08-4.68.08-5.2,0-8.24-6.69-18.79-14.92-23.55C150.75,169.66,144.35,171.75,143.23,177.38ZM115.82,274c0-.5-.06-1-.06-1.49,0-8.69,7-11.67,15.74-6.66a33.17,33.17,0,0,1,10.3,9.79l3.2,4.83s-9.9-8.85-14.32-11.39c-7.76-4.48-14.14-2.24-14.86,4.92Z" transform="translate(0 0.41)"/><path class="cls-50" d="M197.17,181.83,174.55,194.9v35.52l22.62-13.06Z" transform="translate(0 0.41)"/></g></g></svg>