<svg xmlns="http://www.w3.org/2000/svg" xmlns:xlink="http://www.w3.org/1999/xlink" viewBox="0 0 466.19 543.81"><defs><style>.cls-1{fill:#c5a4ff;}.cls-2{fill:#6b68cf;}.cls-3{fill:#3733bd;}.cls-4{fill:#9b59ff;}.cls-5{fill:#fff;}.cls-6{fill:#2c2999;}.cls-7{fill:#c98eff;}.cls-8{fill:#debaff;}.cls-9{fill:#8e43ff;}.cls-10{fill:#1a174b;}.cls-11{fill:#fdbb62;}.cls-12{fill:#fc9c1b;}.cls-13{fill:#fd6b1f;}.cls-14{fill:url(#linear-gradient);}.cls-15{fill:#f8f9fd;}</style><linearGradient id="linear-gradient" x1="-1912.3" y1="2428.64" x2="-1911.53" y2="2428.64" gradientTransform="matrix(0, 250.89, 359.36, 0, -872343.31, 479909.96)" gradientUnits="userSpaceOnUse"><stop offset="0" stop-color="#ffb000"/><stop offset="1" stop-color="#fd0"/></linearGradient></defs><title>Asset 7</title><g id="Layer_2" data-name="Layer 2"><g id="Layer_1-2" data-name="Layer 1"><path class="cls-1" d="M188.77.63a5.54,5.54,0,0,1,5.65.32l235.2,135.63c4.11,2.38,6.91,8.44,6.24,13.54L395.31,461.25a6.83,6.83,0,0,1-3,5.26h0l-.42.22-7.18,3.09.23-6.62L152.75,329.31c-4.12-2.37-6.92-8.43-6.25-13.53L186.6,8.14l-5-4.4,7.2-3.11Z"/><path class="cls-2" d="M419.78,201.52l9.66-2.09L395.31,461.25a6.83,6.83,0,0,1-3,5.26l-.42.22-6.27,2.7Z"/><path class="cls-3" d="M428.25,153.44c.66-5.1-2.14-11.17-6.25-13.54L186.82,4.26c-4.12-2.37-8-.16-8.66,4.94L137.61,320.34c-.67,5.09,2.13,11.16,6.24,13.53L379,469.51c4.11,2.38,8,.16,8.65-4.93Z"/><path class="cls-4" d="M428.25,153.44c.66-5.1-2.14-11.17-6.25-13.54L186.82,4.26c-4.12-2.37-8-.16-8.66,4.94L172,56.73,422.05,201l6.2-47.53Z"/><path class="cls-5" d="M197,37.44c3.38,2,5.74,6.49,5.26,10.12s-3.61,5-7,3-5.74-6.49-5.27-10.12S193.6,35.49,197,37.44Z"/><path class="cls-5" d="M214.89,47.76c3.38,2,5.74,6.49,5.26,10.12s-3.61,5-7,3-5.74-6.49-5.26-10.12S211.5,45.81,214.89,47.76Z"/><path class="cls-5" d="M232.86,58.24c3.39,1.95,5.74,6.48,5.26,10.11s-3.61,5-7,3-5.74-6.49-5.26-10.12,3.61-5,7-3Z"/><path class="cls-5" d="M409.21,165.44a4.18,4.18,0,0,0-1.8-3.92L285.84,91.36c-1.19-.69-2.32,0-2.51,1.43L283,95.68a4.23,4.23,0,0,0,1.81,3.92l121.57,70.15c1.19.69,2.32.05,2.51-1.43Z"/><path class="cls-6" d="M164.23,116.05,137.61,320.34a13.47,13.47,0,0,0,.42,5.29l150,88.5c8.08,4.77,15.09.78,16.16-9.22l16.4-152.85c1-9.4-4.76-21.56-12.38-26.05l-104.2-61.46a8.12,8.12,0,0,1-3.55-4.6l-7.05-19.16c-2.35-6.39-6.38-11.27-10.66-13.79Z"/><g id="Folder9"><path id="Folder10" class="cls-7" d="M94.18,120.67c3-2,7-2,11.3.55l43.3,25.54c4.28,2.53,8.31,7.41,10.66,13.79l7.05,19.16a8,8,0,0,0,3.55,4.6l104.2,61.46c7.61,4.49,13.39,16.65,12.38,26.06l-16.4,152.85c-.5,4.63-2.27,8-4.84,9.75h0a8.24,8.24,0,0,1-1.25.72l-16.29,9.29,1.43-13.37L82.77,332.86c-8.09-4.77-13.45-16.06-12.38-26.06L88.68,136.38,77.84,130l16.34-9.31Z"/><path id="Folder11" class="cls-8" d="M174.47,186.92l-25.26,14.4L253,262.53l24.71-14.09a18.17,18.17,0,0,0-3.45-2.67Zm-69-65.7,43.3,25.54a21.46,21.46,0,0,1,4.89,4.07l-23.23,13.24L88.37,139.26l.31-2.88L77.84,130l16.34-9.31c3-2,7-2,11.3.55Z"/><path id="Folder12" class="cls-4" d="M256.7,255.78,152.5,194.31a8.07,8.07,0,0,1-3.56-4.59l-7.05-19.16c-2.35-6.39-6.38-11.27-10.66-13.79l-43.3-25.54c-8.08-4.77-15.09-.78-16.16,9.21L52.84,316.81c-1.07,10,4.3,21.28,12.38,26.05l171.29,101c8.09,4.77,15.09.77,16.16-9.22l16.41-152.85c1-9.4-4.77-21.56-12.38-26Z"/><path id="Folder13" class="cls-9" d="M65.2,201.68l12.29-6.5,12.3,20.15a36.43,36.43,0,0,1,10.17,1.1l6.28-18.29,21.57,13.53.51,22.56a91.64,91.64,0,0,1,8.81,10.8l15.52-2.69L165.21,271l-11.39,11.46a104.77,104.77,0,0,1,2.47,14.9l15.3,14.08-3.81,26.93-16.07-5.71a45.17,45.17,0,0,1-6.05,10.44l6.3,21.77L134,374.31l-11.41-18.66A36.35,36.35,0,0,1,111,354.53l-4.38,12.77-23-13.59-.38-16.63a94.19,94.19,0,0,1-10-12.4l-14.38,2.47-5.73-13,2.7-25.16,1.38-1.38q-.45-1.94-.81-3.87l5.34-49.78a41.73,41.73,0,0,1,4.37-6.53l-2.68-9.28,1.77-16.42ZM102,311.38c11.44,7.18,22.36,1.43,24.38-12.86s-5.63-31.69-17.08-38.88-22.35-1.41-24.36,12.87S90.55,304.21,102,311.38Z"/></g><path id="Shadow2" class="cls-10" d="M273.71,538c11.26,6.5,27.47,7.69,36.18,2.66l9.86-3.71c8.71-5,6.64-14.39-4.61-20.89L146.26,417.46c-11.26-6.5-27.47-7.69-36.18-2.66l-9.32,5.46c-8.71,5-6.64,14.39,4.62,20.89L273.71,538Z"/><path id="Message" class="cls-11" d="M311.19,361.41,288,374.79l42.05,46,13.87,43.59-3,1.71-14.11,30L350,482.68l12.45-26.48L374,468.82l23.17-13.38-86-94Z"/><path class="cls-12" d="M357.27,467.27,341,466.06l-14.11,30L350,482.68l7.24-15.41Z"/><path id="Message1" class="cls-13" d="M374.26,468.69l-33.07-2.76-14.34,30.13-38.61-121.4,86,94Z"/><path class="cls-11" d="M65.36,394.4l18.12-9.75,5.76-16.82-18.12,9.74Z"/><path class="cls-11" d="M92.43,327.53c-.43.08-.87.14-1.31.19s-.78,0-1.18,0l-1.06,0c-.32,0-.65-.06-1-.11s-.64-.09-1-.16l-.9-.2-.89-.26-.86-.29-.87-.35-.85-.38-.85-.43-.86-.48-.66-.4-.2-.13-.88-.59c-.29-.2-.58-.41-.86-.63s-.59-.45-.89-.69l-.88-.76c-.3-.26-.59-.54-.89-.81l-.88-.88c-.29-.3-.58-.6-.86-.92s-.55-.62-.82-.94-.53-.63-.79-1l-.74-1c-.24-.34-.49-.67-.73-1l-.72-1.07c-.28-.43-.55-.87-.82-1.31-.39-.67-.78-1.34-1.14-2-.46-.87-.9-1.76-1.31-2.66-.29-.66-.57-1.31-.83-2-.18-.45-.35-.9-.51-1.36s-.28-.78-.41-1.18-.24-.73-.35-1.09-.21-.71-.31-1.07-.19-.73-.28-1.09-.19-.74-.27-1.11l-.24-1.15c-.07-.38-.15-.77-.21-1.16s-.13-.79-.18-1.19-.11-.79-.15-1.19l-.12-1.18c0-.4-.05-.78-.07-1.18s0-.76,0-1.14,0-.75,0-1.13,0-.73,0-1.1,0-.73.07-1.09.06-.73.1-1.1.08-.67.13-1v-.06c0-.37.1-.74.17-1.09s.14-.71.21-1.06.17-.73.27-1.08.19-.73.3-1.08.24-.74.38-1.1.3-.78.46-1.15.36-.8.55-1.18.47-.87.72-1.28a16,16,0,0,1,1.06-1.54,14.14,14.14,0,0,1,4.43-3.82l-18.11,9.75a14.06,14.06,0,0,0-4.44,3.82,17.91,17.91,0,0,0-1.06,1.53c-.25.41-.49.84-.72,1.28s-.38.78-.55,1.19-.32.75-.46,1.14-.26.73-.37,1.11-.22.7-.31,1.07-.18.72-.27,1.09l-.21,1c-.06.37-.12.72-.17,1.09v.06c0,.34-.09.68-.13,1s-.07.72-.1,1.09-.05.73-.06,1.1,0,.73,0,1.1,0,.75,0,1.13,0,.76,0,1.14.05.78.08,1.18.07.78.11,1.17.09.8.15,1.19.11.8.18,1.2l.21,1.16.24,1.15c.09.36.17.73.27,1.1s.18.73.28,1.09.21.72.32,1.08.22.72.34,1.08.27.8.41,1.19l.51,1.35c.27.67.54,1.32.84,2,.41.91.84,1.8,1.3,2.67.37.69.75,1.37,1.15,2,.26.44.54.88.82,1.31s.47.72.72,1.08.48.68.72,1l.75,1c.25.32.52.64.78,1s.55.63.82.94.57.62.87.92.57.59.87.87.59.55.89.82.59.51.89.75l.88.7q.42.33.87.63c.29.2.58.4.87.58l.2.13.67.41.85.47.86.43.85.39.86.34.86.29c.3.1.6.18.9.26l.89.21,1,.16c.33,0,.66.08,1,.1s.7,0,1,0,.79,0,1.17-.05.89-.1,1.33-.18a14.46,14.46,0,0,0,1.63-.44,13.37,13.37,0,0,0,1.94-.84L96,326.25a12.4,12.4,0,0,1-1.94.85,14.61,14.61,0,0,1-1.64.43Z"/><path class="cls-11" d="M56,238.68c.77.11,1.55.24,2.34.4l1.76.39,18.12-9.74c-.59-.15-1.18-.28-1.77-.4-.78-.15-1.56-.29-2.33-.39s-1.61-.2-2.41-.25-1.67-.09-2.5-.09l-1.17,0L55.7,208.48,37.76,218,19.64,227.7l17.94-9.47,12.3,20.14c.38,0,.78,0,1.17,0,.82,0,1.66,0,2.5.09s1.59.14,2.4.25Z"/><path class="cls-11" d="M124.1,356.06a41.05,41.05,0,0,0,2.5-3.65c.62-1,1.22-2.08,1.78-3.18s1-2,1.39-3l.15-.33-18.12,9.75-.14.33c-.44,1-.91,2-1.4,3-.56,1.11-1.15,2.17-1.78,3.19A37.12,37.12,0,0,1,106,365.8l-.23.3,6.3,21.78,18.12-9.75-6.3-21.77.24-.3Z"/><path class="cls-11" d="M3.8,254.21l16.48,5.85,18.11-9.74-16.47-5.86Z"/><path class="cls-11" d="M134.49,310.62c-.06-.66-.12-1.31-.19-2-.11-.94-.22-1.89-.36-2.83s-.28-1.92-.44-2.89-.34-1.93-.53-2.89-.39-1.92-.6-2.88c-.11-.48-.23-1-.34-1.46l11.39-11.46-12.57-28.61-15.52,2.69c-.51-.73-1-1.45-1.55-2.17s-1.16-1.54-1.76-2.3-1.26-1.56-1.9-2.33-1.36-1.58-2.05-2.34c-.51-.57-1-1.12-1.54-1.67L106,225,84.45,211.43l-18.12,9.75L87.9,234.71l.51,22.56c.52.54,1,1.1,1.54,1.66.7.77,1.38,1.55,2,2.35s1.28,1.54,1.9,2.33,1.18,1.52,1.76,2.3,1,1.43,1.56,2.17l15.51-2.69L125.3,294l-11.39,11.46c.12.48.23,1,.34,1.45.21,1,.42,1.92.6,2.88s.37,1.93.53,2.9.31,1.92.45,2.88.25,1.89.35,2.84c.07.65.14,1.3.19,1.95l15.3,14.08-3.8,26.94L146,351.63l3.8-26.93-15.3-14.08Z"/><path class="cls-13" d="M62.08,334.42c11.44,7.18,22.36,1.44,24.38-12.86s-5.64-31.69-17.08-38.88S47,281.27,45,295.55s5.63,31.7,17.07,38.87Zm65.79,27-16.07-5.71a45.46,45.46,0,0,1-6,10.43l6.3,21.78-17.94,9.47L82.7,378.7a36.14,36.14,0,0,1-11.58-1.13L65.36,394.4,43.79,380.87l-.47-20.74a93.55,93.55,0,0,1-10-12.41L19,350.19,6.39,321.58l10.9-11A102.28,102.28,0,0,1,15,294.9L0,281.14l3.8-26.93,16.47,5.85a43.78,43.78,0,0,1,5.93-9.64L19.64,227.7l17.94-9.47,12.29,20.14a36.88,36.88,0,0,1,10.18,1.1l6.28-18.29L87.9,234.71l.51,22.56a91.93,91.93,0,0,1,8.81,10.81l15.51-2.69L125.3,294l-11.39,11.46a106.2,106.2,0,0,1,2.47,14.9l15.29,14.08-3.8,26.94Z"/><path class="cls-14" d="M374.19,171.05l-21.34,8.22,9.36,8.81a75.48,75.48,0,0,0-8.34,26c-6.17,42.83,16.31,93.6,50.22,113.25a56.86,56.86,0,0,0,19.49,7.25L417,342.93l17.14-6.35c15.76-6.25,27.62-22.77,31.07-46.92,6.2-43-16.26-93.68-50.16-113.36-14.5-8.43-28.76-9.81-40.81-5.25Z"/><path class="cls-13" d="M321.77,226.26c-6.18,42.83,16.31,93.6,50.21,113.25s66.37.9,72.47-41.88c6.21-43-16.25-93.68-50.15-113.37s-66.38-.9-72.53,42Z"/><path class="cls-15" d="M388.6,219.08c10.21,6,17,21.23,15.12,34.17a20.39,20.39,0,0,1-4.34,10.31c8.4,13.15,13.31,31.57,12.79,49.8l-68.65-39.92c4.41-16,13.48-26.27,24.07-28.35a35.72,35.72,0,0,1-.87-13.34C368.55,218.77,378.33,213.16,388.6,219.08Z"/></g></g></svg>