<?xml version="1.0" encoding="utf-8"?>
<!-- Generator: Adobe Illustrator 26.0.1, SVG Export Plug-In . SVG Version: 6.00 Build 0)  -->
<!DOCTYPE svg PUBLIC "-//W3C//DTD SVG 1.1//EN" "http://www.w3.org/Graphics/SVG/1.1/DTD/svg11.dtd" [
	<!ENTITY ns_extend "http://ns.adobe.com/Extensibility/1.0/">
	<!ENTITY ns_ai "http://ns.adobe.com/AdobeIllustrator/10.0/">
	<!ENTITY ns_graphs "http://ns.adobe.com/Graphs/1.0/">
	<!ENTITY ns_vars "http://ns.adobe.com/Variables/1.0/">
	<!ENTITY ns_imrep "http://ns.adobe.com/ImageReplacement/1.0/">
	<!ENTITY ns_sfw "http://ns.adobe.com/SaveForWeb/1.0/">
	<!ENTITY ns_custom "http://ns.adobe.com/GenericCustomNamespace/1.0/">
	<!ENTITY ns_adobe_xpath "http://ns.adobe.com/XPath/1.0/">
]>
<svg version="1.1" id="Publicdomainvectors.org" xmlns:x="&ns_extend;" xmlns:i="&ns_ai;" xmlns:graph="&ns_graphs;"
	 xmlns="http://www.w3.org/2000/svg" xmlns:xlink="http://www.w3.org/1999/xlink" x="0px" y="0px" viewBox="0 0 442.4 393.5"
	 enable-background="new 0 0 442.4 393.5" xml:space="preserve">
<metadata>
	<sfw  xmlns="&ns_sfw;">
		<slices></slices>
		<sliceSourceBounds  bottomLeftOrigin="true" height="393.5" width="442.4" x="78" y="145.2"></sliceSourceBounds>
		<optimizationSettings>
			<targetSettings  fileFormat="JPEGFormat" targetSettingsID="0">
				
					<JPEGFormat  blurAmount="0" embedICCProfile="false" matteColor="#FFFFFF" noMatteColor="false" optimized="true" progressive="true" quality="60">
					</JPEGFormat>
			</targetSettings>
		</optimizationSettings>
	</sfw>
</metadata>
<path fill-rule="evenodd" clip-rule="evenodd" fill="#FFFFFF" d="M44.2,75.3h354.1c24.3,0,44.2,19.9,44.2,44.2v229.9
	c0,24.3-19.9,44.2-44.2,44.2H44.2C19.9,393.5,0,373.7,0,349.4V119.4C0,95.1,19.9,75.3,44.2,75.3z"/>
<path fill-rule="evenodd" clip-rule="evenodd" fill="#EBE9F1" d="M44.2,109.5h354.1c19.3,0,35,15.8,35,35v204.8
	c0,19.3-15.8,35-35,35H44.2c-19.3,0-35-15.8-35-35V144.5C9.1,125.3,24.9,109.5,44.2,109.5z"/>
<path fill-rule="evenodd" clip-rule="evenodd" fill="#629BD4" d="M44.2,128.6h354.1c8.8,0,16,7.2,16,16v204.8c0,8.8-7.2,16-16,16
	H44.2c-8.8,0-16-7.2-16-16V144.5C28.2,135.8,35.4,128.6,44.2,128.6z"/>
<path fill-rule="evenodd" clip-rule="evenodd" fill="#FDFEFF" d="M414.2,217.6v131.7c0,8.8-7.2,16-16,16H44.2c-8.8,0-16-7.2-16-16
	V217.6H414.2z"/>
<path fill-rule="evenodd" clip-rule="evenodd" fill="#94BDE6" d="M198.7,365.4H44.2c-8.8,0-16-7.2-16-16V217.6h170.6V365.4z"/>
<path fill-rule="evenodd" clip-rule="evenodd" fill="#94BDE6" d="M44.2,128.6h354.1c8.8,0,16,7.2,16,16v18.3h-386v-18.3
	C28.2,135.8,35.4,128.6,44.2,128.6z"/>
<path fill-rule="evenodd" clip-rule="evenodd" fill="#D0E4F7" d="M90.6,179.6h261.2c6.5,0,11.8,5.3,11.8,11.8v0
	c0,6.5-5.3,11.8-11.8,11.8H90.6c-6.5,0-11.8-5.3-11.8-11.8v0C78.8,184.9,84.1,179.6,90.6,179.6z"/>
<g>
	<polygon fill-rule="evenodd" clip-rule="evenodd" fill="#FFFFFF" points="70.4,270.5 157.4,270.5 148.8,316 79.1,316 	"/>
	<path fill-rule="evenodd" clip-rule="evenodd" fill="#FFFFFF" d="M104.7,318.7c0,4.9-4,8.9-8.9,8.9c-4.9,0-8.9-4-8.9-8.9H104.7
		L104.7,318.7z M140.9,318.7c0,4.9-4,8.9-8.9,8.9c-4.9,0-8.9-4-8.9-8.9H140.9z"/>
	<path fill-rule="evenodd" clip-rule="evenodd" fill="#FFFFFF" d="M82.4,287.8c0.4,2.3-1.1,4.5-3.4,5c-2.3,0.4-4.5-1.1-5-3.4
		l-4.9-25.5H55.1c-2.4,0-4.3-1.9-4.3-4.3c0-2.4,1.9-4.3,4.3-4.3h17.6v0c2,0,3.8,1.4,4.2,3.5L82.4,287.8z"/>
</g>
<g>
	<rect x="223.9" y="231" fill-rule="evenodd" clip-rule="evenodd" fill="#629BD4" width="116.5" height="9.2"/>
	<rect x="223.9" y="245.2" fill-rule="evenodd" clip-rule="evenodd" fill="#629BD4" width="153.4" height="4.6"/>
	<rect x="223.9" y="253.3" fill-rule="evenodd" clip-rule="evenodd" fill="#629BD4" width="130.5" height="4.6"/>
	<path fill-rule="evenodd" clip-rule="evenodd" fill="#D0E4F7" d="M256.9,266.5c0.7,2.1,1.3,4.1,2,6.2c2.2,0,4.4,0,6.5,0
		c-1.8,1.3-3.5,2.6-5.3,3.8c0.7,2.1,1.4,4.1,2,6.2c-1.8-1.3-3.5-2.6-5.3-3.8c-1.8,1.3-3.5,2.6-5.3,3.8c0.7-2.1,1.4-4.1,2-6.2
		c-1.8-1.3-3.5-2.6-5.3-3.8c2.2,0,4.4,0,6.5,0C255.6,270.6,256.2,268.5,256.9,266.5L256.9,266.5z M232.4,266.5l2,6.2l6.5,0l-5.3,3.8
		l2,6.2l-5.3-3.8l-5.3,3.8l2-6.2l-5.3-3.8l6.5,0L232.4,266.5L232.4,266.5z M281.4,266.5c0.7,2.1,1.3,4.1,2,6.2c2.2,0,4.4,0,6.5,0
		c-1.8,1.3-3.5,2.6-5.3,3.8c0.7,2.1,1.4,4.1,2,6.2c-1.8-1.3-3.5-2.6-5.3-3.8c-1.8,1.3-3.5,2.6-5.3,3.8c0.7-2.1,1.4-4.1,2-6.2
		c-1.8-1.3-3.5-2.6-5.3-3.8c2.2,0,4.4,0,6.5,0C280.1,270.6,280.7,268.5,281.4,266.5L281.4,266.5z M305.9,266.5
		c0.7,2.1,1.3,4.1,2,6.2c2.2,0,4.4,0,6.5,0c-1.8,1.3-3.5,2.6-5.3,3.8c0.7,2.1,1.4,4.1,2,6.2c-1.8-1.3-3.5-2.6-5.3-3.8
		c-1.8,1.3-3.5,2.6-5.3,3.8c0.7-2.1,1.4-4.1,2-6.2c-1.8-1.3-3.5-2.6-5.3-3.8c2.2,0,4.4,0,6.5,0C304.6,270.6,305.3,268.5,305.9,266.5
		L305.9,266.5z M330.4,266.5l2,6.2l6.5,0l-5.3,3.8l2,6.2l-5.3-3.8l-5.3,3.8l2-6.2l-5.3-3.8l6.5,0L330.4,266.5z"/>
</g>
<g>
	<rect x="223.9" y="294.4" fill-rule="evenodd" clip-rule="evenodd" fill="#629BD4" width="116.5" height="9.2"/>
	<rect x="223.9" y="308.6" fill-rule="evenodd" clip-rule="evenodd" fill="#629BD4" width="153.4" height="4.6"/>
	<rect x="223.9" y="316.8" fill-rule="evenodd" clip-rule="evenodd" fill="#629BD4" width="130.5" height="4.6"/>
	<path fill-rule="evenodd" clip-rule="evenodd" fill="#D0E4F7" d="M256.9,329.9c0.7,2.1,1.3,4.1,2,6.2c2.2,0,4.4,0,6.5,0
		c-1.8,1.3-3.5,2.6-5.3,3.8c0.7,2.1,1.4,4.1,2,6.2c-1.8-1.3-3.5-2.6-5.3-3.8c-1.8,1.3-3.5,2.6-5.3,3.8c0.7-2.1,1.4-4.1,2-6.2
		c-1.8-1.3-3.5-2.6-5.3-3.8c2.2,0,4.4,0,6.5,0C255.6,334.1,256.2,332,256.9,329.9L256.9,329.9z M232.4,329.9l2,6.2l6.5,0l-5.3,3.8
		l2,6.2l-5.3-3.8l-5.3,3.8l2-6.2l-5.3-3.8l6.5,0L232.4,329.9L232.4,329.9z M281.4,329.9c0.7,2.1,1.3,4.1,2,6.2c2.2,0,4.4,0,6.5,0
		c-1.8,1.3-3.5,2.6-5.3,3.8c0.7,2.1,1.4,4.1,2,6.2c-1.8-1.3-3.5-2.6-5.3-3.8c-1.8,1.3-3.5,2.6-5.3,3.8c0.7-2.1,1.4-4.1,2-6.2
		c-1.8-1.3-3.5-2.6-5.3-3.8c2.2,0,4.4,0,6.5,0C280.1,334.1,280.7,332,281.4,329.9L281.4,329.9z M305.9,329.9c0.7,2.1,1.3,4.1,2,6.2
		c2.2,0,4.4,0,6.5,0c-1.8,1.3-3.5,2.6-5.3,3.8c0.7,2.1,1.4,4.1,2,6.2c-1.8-1.3-3.5-2.6-5.3-3.8c-1.8,1.3-3.5,2.6-5.3,3.8
		c0.7-2.1,1.4-4.1,2-6.2c-1.8-1.3-3.5-2.6-5.3-3.8c2.2,0,4.4,0,6.5,0C304.6,334.1,305.3,332,305.9,329.9L305.9,329.9z M330.4,329.9
		l2,6.2l6.5,0l-5.3,3.8l2,6.2l-5.3-3.8l-5.3,3.8l2-6.2l-5.3-3.8l6.5,0L330.4,329.9z"/>
</g>
<path fill-rule="evenodd" clip-rule="evenodd" fill="#D0E4F7" d="M379,155.8c5.1,0,9.3-4.2,9.3-9.3s-4.2-9.3-9.3-9.3
	c-5.1,0-9.3,4.2-9.3,9.3S373.9,155.8,379,155.8z"/>
<path fill-rule="evenodd" clip-rule="evenodd" fill="#D0E4F7" d="M301.1,140.6h52.5c1.6,0,2.9,1.3,2.9,2.9v0c0,1.6-1.3,2.9-2.9,2.9
	h-52.5c-1.6,0-2.9-1.3-2.9-2.9v0C298.3,141.9,299.6,140.6,301.1,140.6L301.1,140.6z M312.4,149h30c0.9,0,1.6,0.7,1.6,1.6v0
	c0,0.9-0.7,1.6-1.6,1.6h-30c-0.9,0-1.6-0.7-1.6-1.6v0C310.8,149.7,311.5,149,312.4,149z"/>
<path fill-rule="evenodd" clip-rule="evenodd" fill="#C52E18" d="M56.5,64.2l66.6-60.7c5.2-4.7,13.6-4.7,18.8,0l66.5,60.6
	c2.9,2.7,4.2,6.3,3.8,9.8h0v7.5H200l-58.1,52.9c-5.2,4.7-13.6,4.7-18.8,0L65,81.5H52.7V74h0.1C52.4,70.5,53.6,66.8,56.5,64.2z"/>
<path fill-rule="evenodd" clip-rule="evenodd" fill="#E43812" d="M56.5,72.8l66.6-60.7c5.2-4.7,13.6-4.7,18.8,0l66.5,60.6
	c5.2,4.7,5.2,12.4,0,17.1l-66.6,60.7c-5.2,4.7-13.6,4.7-18.8,0L56.6,89.9C51.4,85.2,51.4,77.5,56.5,72.8z"/>
<path fill-rule="evenodd" clip-rule="evenodd" fill="#FFFFFF" d="M104.5,97.4c6.1,0,11.2-3.1,11.2-8.4c0-3.7-2.5-6.1-6-7.1v-0.2
	c3.2-1.3,5-3.4,5-6.4c0-5.1-4.2-7.9-10.4-7.9c-3.7,0-6.7,1.4-9.5,3.7l3.5,4.1c1.9-1.6,3.5-2.6,5.6-2.6c2.4,0,3.7,1.2,3.7,3.2
	c0,2.3-1.7,3.9-7.1,3.9v4.7c6.6,0,8.1,1.6,8.1,4.2c0,2.2-1.9,3.4-4.9,3.4c-2.6,0-4.8-1.2-6.6-2.9L94,93.3
	C96.2,95.8,99.6,97.4,104.5,97.4L104.5,97.4z M130.5,97.4c6.5,0,10.8-5.3,10.8-15.2c0-9.9-4.3-14.9-10.8-14.9
	c-6.5,0-10.8,5.1-10.8,14.9C119.7,92.1,124.1,97.4,130.5,97.4L130.5,97.4z M130.5,92.2c-2.3,0-4.2-2.1-4.2-10c0-7.9,1.9-9.7,4.2-9.7
	c2.4,0,4.2,1.8,4.2,9.7C134.7,90.2,132.9,92.2,130.5,92.2L130.5,92.2z M152,85.5c4.5,0,7.7-3.5,7.7-9.5c0-5.9-3.3-9.4-7.7-9.4
	c-4.5,0-7.7,3.5-7.7,9.4C144.3,81.9,147.5,85.5,152,85.5L152,85.5z M152,81.7c-1.6,0-2.8-1.5-2.8-5.8c0-4.2,1.3-5.7,2.8-5.7
	c1.6,0,2.8,1.4,2.8,5.7C154.8,80.2,153.6,81.7,152,81.7L152,81.7z M153,97.4l16.7-30.9h4l-16.7,30.9H153L153,97.4z M174.8,97.4
	c4.5,0,7.7-3.5,7.7-9.5c0-5.9-3.3-9.4-7.7-9.4c-4.5,0-7.7,3.5-7.7,9.4C167.1,93.9,170.4,97.4,174.8,97.4L174.8,97.4z M174.8,93.7
	c1.6,0,2.8-1.5,2.8-5.8c0-4.2-1.3-5.7-2.8-5.7c-1.6,0-2.8,1.4-2.8,5.7C172,92.2,173.3,93.7,174.8,93.7z"/>
<path fill-rule="evenodd" clip-rule="evenodd" fill="#FFFFFF" d="M354.2,192.3l3.8,3.8l-2.2,2.2l-3.8-3.8c-2.5,1.5-5.7,1.2-7.8-0.9
	c-2.5-2.5-2.5-6.5,0-9c2.5-2.5,6.5-2.5,9,0C355.4,186.6,355.7,189.8,354.2,192.3L354.2,192.3z M346.5,186.7c-1.3,1.3-1.3,3.3,0,4.5
	c1.3,1.3,3.3,1.3,4.5,0c1.3-1.3,1.3-3.3,0-4.5C349.8,185.4,347.8,185.4,346.5,186.7z"/>
</svg>
