<?xml version="1.0" encoding="utf-8"?>
<!-- Generator: Adobe Illustrator 22.0.1, SVG Export Plug-In . SVG Version: 6.00 Build 0)  -->
<svg version="1.1" id="Слой_1" xmlns="http://www.w3.org/2000/svg" xmlns:xlink="http://www.w3.org/1999/xlink" x="0px" y="0px"
	 viewBox="0 0 229.8 183.9" style="enable-background:new 0 0 229.8 183.9;" xml:space="preserve">
<style type="text/css">
	.st0{fill:#1A1A1A;}
	.st1{fill:#333333;}
	.st2{fill:#212121;}
	.st3{fill:#FFFFFF;}
	.st4{fill:#E0F2F1;}
	.st5{fill:#F9F9F9;}
	.st6{fill:#F06292;}
	.st7{fill:#4D4D4D;}
	.st8{fill:#424242;}
	.st9{fill:#FCE4EC;}
	.st10{fill:#F1F1F1;}
	.st11{fill:#C3C3C3;}
	.st12{fill:#D34141;}
	.st13{fill:#E0DECD;}
	.st14{fill:#3376D2;}
	.st15{fill:#D25133;}
	.st16{fill:#CAC8B7;}
	.st17{fill:#A6A495;}
	.st18{fill:#FFBA00;}
	.st19{fill:#C38E00;}
	.st20{enable-background:new    ;}
	.st21{clip-path:url(#SVGID_2_);}
	.st22{fill:#007D7E;}
	.st23{fill:#4ED0D1;}
	.st24{fill:#3AAAAB;}
	.st25{fill:#854D37;}
	.st26{fill:#C24C28;}
	.st27{fill:#F1CDB0;}
	.st28{fill:#FFAD10;}
	.st29{fill:#00A3C6;}
	.st30{fill:#006A81;}
	.st31{fill:#B6351B;}
	.st32{fill:#7E2412;}
	.st33{fill:#44B2B6;}
	.st34{fill:#AB6125;}
	.st35{fill:#2DB466;}
	.st36{fill:#269956;}
	.st37{clip-path:url(#SVGID_4_);}
	.st38{fill:#BBBBBB;}
	.st39{fill:#ACACAD;}
	.st40{fill:#E3E7F3;}
	.st41{opacity:0.2991;fill:none;stroke:#000000;enable-background:new    ;}
	.st42{fill:#1F3C3D;stroke:#000000;stroke-width:8.826000e-02;stroke-opacity:0.298;}
	.st43{opacity:0.99;enable-background:new    ;}
	.st44{fill:#233132;}
	.st45{fill:#DDE1EA;}
	.st46{opacity:0.1709;fill:none;stroke:#020000;stroke-width:0.2;enable-background:new    ;}
	.st47{fill:none;stroke:#000000;stroke-width:2.8;}
	.st48{fill:#252E2B;}
	.st49{fill:none;stroke:#000000;}
	.st50{fill:#4F524F;}
	.st51{fill:none;stroke:#000000;stroke-width:0.9996;}
	.st52{fill:#FCFFFF;}
	.st53{fill:none;stroke:#000000;stroke-width:0.5;}
	.st54{fill:none;stroke:#000000;stroke-width:0.397;stroke-dasharray:1.588,0.397;}
	.st55{fill:none;stroke:#000000;stroke-width:0.364;stroke-dasharray:1.456,0.364;}
	.st56{fill:none;stroke:#900000;stroke-width:0.9617;}
	.st57{fill:url(#SVGID_5_);}
	.st58{fill:none;stroke:#FFFFFF;stroke-width:1.5;}
	.st59{fill:none;stroke:#AEAEAE;stroke-width:0.3;stroke-dasharray:1.2,1.2;}
	.st60{fill:none;stroke:#FDFDFD;stroke-width:1.2;}
	.st61{fill:none;stroke:#FFFFFF;stroke-width:0.7;}
	.st62{fill:none;stroke:#FFFFFF;stroke-width:0.8;stroke-dasharray:3.2,1.6;}
	.st63{fill:none;stroke:#FFFFFF;stroke-width:0.8004;stroke-dasharray:3.2015,1.6008;}
	.st64{opacity:0.765;fill:none;stroke:#2C362B;stroke-width:1.354;enable-background:new    ;}
	.st65{fill:#FBFFFE;}
	.st66{fill:#F3F3F5;}
	.st67{fill:#808C8C;}
	.st68{fill:#151E1F;}
	.st69{fill:none;stroke:#DBDBDB;}
	.st70{fill:#FAFDFD;}
	.st71{fill:#F9FDFD;}
	.st72{fill:#263C3A;}
	.st73{fill:url(#SVGID_6_);}
	.st74{fill:url(#SVGID_7_);}
	.st75{fill:url(#SVGID_8_);}
	.st76{fill:url(#SVGID_9_);}
	.st77{fill:url(#SVGID_10_);}
	.st78{fill:url(#SVGID_11_);}
	.st79{fill:url(#SVGID_12_);}
	.st80{fill:url(#SVGID_13_);}
	.st81{fill:url(#SVGID_14_);}
	.st82{opacity:0.8482;enable-background:new    ;}
	.st83{fill:url(#SVGID_15_);}
	.st84{fill:url(#SVGID_16_);}
	.st85{fill:url(#SVGID_17_);}
	.st86{fill:url(#SVGID_18_);}
	.st87{fill:url(#SVGID_19_);}
	.st88{opacity:0.563;enable-background:new    ;}
	.st89{fill:url(#SVGID_20_);}
	.st90{opacity:0.5222;enable-background:new    ;}
	.st91{fill:#0B1E1C;}
	.st92{fill:#F4F7FF;}
	.st93{fill:none;stroke:url(#SVGID_21_);}
	.st94{fill:#929294;stroke:url(#SVGID_22_);stroke-width:0.115;}
	.st95{opacity:0.3741;enable-background:new    ;}
	.st96{fill:none;stroke:url(#SVGID_23_);}
	.st97{fill:url(#SVGID_24_);}
	.st98{fill:url(#SVGID_25_);}
	.st99{fill:none;stroke:#FFFFFF;stroke-width:0.9217;stroke-dasharray:3.6868,1.8434;}
	.st100{fill:none;stroke:url(#SVGID_26_);stroke-width:8.826000e-02;stroke-linecap:round;}
	.st101{fill:url(#SVGID_27_);}
	.st102{fill:#EFEFFB;}
	.st103{fill:none;stroke:#DDDDDD;}
	.st104{fill:url(#SVGID_28_);}
	.st105{fill:none;stroke:#FFFFFF;}
	.st106{fill:none;stroke:#F6F6F6;}
	.st107{fill:none;stroke:#D2D2D2;}
	.st108{opacity:0.7815;enable-background:new    ;}
	.st109{fill:#1A3A3A;}
	.st110{stroke:#FFFFFF;stroke-width:2;}
	.st111{fill:none;stroke:#FFFFFF;stroke-width:2;}
	.st112{fill:none;stroke:#FFFFFF;stroke-width:2;stroke-linecap:round;stroke-linejoin:round;}
	.st113{fill:#CF0000;}
	.st114{fill:url(#SVGID_29_);}
</style>
<g>
	<path class="st0" d="M64.1,183.9h101.6c0.6,0,1.2-0.5,1-1l-5-12.3c-0.2-0.5-2.3-1-2.9-1H70.9c-0.6,0-2.7,0.5-2.9,1l-5,12.3
		C62.9,183.4,63.6,183.9,64.1,183.9L64.1,183.9z"/>
	<path class="st1" d="M106.7,140.5h16.4v31.7c-5.2,2.1-10.5,2.5-16.4,0V140.5z"/>
	<path class="st2" d="M121.6,140.5h1.5V172c-0.3,0.4-0.9,0.9-1.5,0.9V140.5z"/>
	<path class="st3" d="M9.9,154.1h210c5.4,0,9.8-4.4,9.8-9.8V21.9c0-5.4-4.4-9.8-9.8-9.8H9.9c-5.4,0-9.8,4.4-9.8,9.8v122.3
		C0.1,149.6,4.5,154.1,9.9,154.1z"/>
	<rect x="4.2" y="3.9" class="st4" width="221.3" height="131.9"/>
	<rect x="23.7" y="2.9" class="st5" width="182.5" height="132.9"/>
	<rect x="23.7" y="2.9" class="st6" width="182.5" height="46.1"/>
	<path class="st7" d="M0,0v141.8h229.8V0H0L0,0z M5.4,7.4h218V134H5.4V7.4L5.4,7.4z"/>
	<path class="st8" d="M64.1,183.9h101.6c0.6,0,1.2-0.1,1-0.2l-5-2.6c-0.2-0.1-2.3-0.2-2.9-0.2H70.9c-0.6,0-2.7,0.1-2.9,0.2l-5,2.6
		C62.9,183.8,63.6,183.9,64.1,183.9L64.1,183.9z"/>
	<g>
		<rect x="35.1" y="72" class="st3" width="33.1" height="32.3"/>
		<path class="st3" d="M61.6,81.2l-13.5,9.4l-6.3-5.4l-6.6,6.3v12.7h33.1V87.5L61.6,81.2L61.6,81.2z"/>
	</g>
	<g transform="translate(52.528)">
		<rect x="24.6" y="72" class="st3" width="33.1" height="32.3"/>
		<path class="st3" d="M51.1,81.2l-13.5,9.4l-6.3-5.4l-6.6,6.3v12.7h33.1V87.5L51.1,81.2L51.1,81.2z"/>
	</g>
	<g transform="translate(105.81)">
		<rect x="13.9" y="72" class="st3" width="33.1" height="32.3"/>
		<path class="st3" d="M40.4,81.2l-13.5,9.4l-6.3-5.4L14,91.5v12.7h33.1V87.5L40.4,81.2L40.4,81.2z"/>
	</g>
	<g transform="translate(157.58)">
		<rect x="3.6" y="72" class="st3" width="33.1" height="32.3"/>
		<path class="st3" d="M30.1,81.2l-13.5,9.4l-6.3-5.4l-6.6,6.3v12.7h33.1V87.5L30.1,81.2L30.1,81.2z"/>
	</g>
	<g transform="matrix(1 0 0 .19211 0 399.75)">
		<rect x="35.1" y="-1515.8" class="st6" width="33.1" height="32.3"/>
		<path class="st6" d="M61.6-1506.6l-13.5,9.4l-6.3-5.4l-6.6,6.3v12.7h33.1v-16.8L61.6-1506.6L61.6-1506.6z"/>
	</g>
	<g transform="matrix(1 0 0 .19211 52.275 399.75)">
		<rect x="24.7" y="-1515.8" class="st6" width="33.1" height="32.3"/>
		<path class="st6" d="M51.1-1506.6l-13.5,9.4l-6.3-5.4l-6.6,6.3v12.7h33.1v-16.8L51.1-1506.6L51.1-1506.6z"/>
	</g>
	<g transform="matrix(1 0 0 .19211 106.07 399.75)">
		<rect x="13.9" y="-1515.8" class="st6" width="33.1" height="32.3"/>
		<path class="st6" d="M40.4-1506.6l-13.5,9.4l-6.3-5.4l-6.6,6.3v12.7h33.1v-16.8L40.4-1506.6L40.4-1506.6z"/>
	</g>
	<g transform="matrix(1 0 0 .19211 157.84 399.75)">
		<rect x="3.5" y="-1515.8" class="st6" width="33.1" height="32.3"/>
		<path class="st6" d="M30-1506.6l-13.5,9.4l-6.3-5.4l-6.6,6.3v12.7h33.1v-16.8L30-1506.6L30-1506.6z"/>
	</g>
	<rect x="35.5" y="53.8" class="st9" width="159.6" height="10.9"/>
	<g transform="matrix(.2077 -.082044 .082044 .2077 65.86 451.72)">
		
			<rect x="559.3" y="-1681.8" transform="matrix(-1 5.055821e-06 -5.055821e-06 -1 1166.6345 -3334.7561)" class="st10" width="48" height="28.8"/>
		
			<rect x="556.1" y="-1689.8" transform="matrix(-1 5.055821e-06 -5.055821e-06 -1 1166.6343 -3371.5557)" class="st11" width="54.4" height="8"/>
		<path class="st12" d="M591.4-1705.8c-4.4,0-8,3.6-8,8c0-4.4-3.6-8-8-8s-8,3.6-8,8s3.6,8,8,8h4v36.8h8v-36.8h4c4.4,0,8-3.6,8-8
			C599.4-1702.2,595.8-1705.8,591.4-1705.8z M578.6-1694.6h-3.2c-1.8,0-3.2-1.4-3.2-3.2s1.4-3.2,3.2-3.2s3.2,1.4,3.2,3.2V-1694.6z
			 M591.4-1694.6h-3.2v-3.2c0-1.8,1.4-3.2,3.2-3.2s3.2,1.4,3.2,3.2C594.6-1696,593.1-1694.6,591.4-1694.6z"/>
	</g>
	<g transform="matrix(.2257 .10963 -.10963 .2257 199.35 261)">
		<path class="st13" d="M-774.2-522.8L-774.2-522.8l-4.8-0.1c-10.4,0-7.2-8.8-14.4-8.8h-11.2c-7.2,0-4,8.8-14.4,8.8h-4.8v0.1
			c-2.3,0.4-4,2.3-4,4.7v28.8c0,2.7,2.1,4.8,4.8,4.8h48c2.7,0,4.8-2.1,4.8-4.8v-28.8C-770.2-520.5-771.9-522.4-774.2-522.8
			L-774.2-522.8z"/>
		
			<rect x="-806.9" y="-532.6" transform="matrix(5.065266e-06 1 -1 5.065266e-06 -1302.6978 295.1973)" class="st14" width="16" height="57.6"/>
		<circle class="st15" cx="-775.8" cy="-517.3" r="2.4"/>
		<path class="st3" d="M-794.2-529.3h-9.6c-1.7,0-3.2,4-3.2,4c0,1.3,1.1,2.4,2.4,2.4h11.2c1.3,0,2.4-1.1,2.4-2.4
			C-791-525.3-792.5-529.3-794.2-529.3z"/>
		<circle class="st16" cx="-799" cy="-504.5" r="14.4"/>
		<circle class="st17" cx="-799" cy="-504.5" r="10.4"/>
		<path class="st17" d="M-817.4-525.3h-3.2c-1.3,0-2.4,1.1-2.4,2.4h8C-815-524.2-816-525.3-817.4-525.3z"/>
	</g>
	<g transform="matrix(-.19539 0 0 .19539 457.04 318.51)">
		<path class="st18" d="M1387-1250.4l-22.4-22.2c-2.4-2.4-4.8-3.2-8-3.2h-20.2c-2.7,0-4.6,2.2-4.6,4.8v19.2c0,1.1,0,6.4,2.4,8.8
			l22.8,22.6c1.9,1.9,4.9,1.9,6.8,0l23.2-23.2C1388.9-1245.5,1388.9-1248.5,1387-1250.4L1387-1250.4z"/>
		<circle class="st19" cx="1343.8" cy="-1263.8" r="5.6"/>
	</g>
	<g transform="matrix(.23537 0 0 .23537 198.17 322.72)">
		<g class="st20">
			<g>
				<g>
					<defs>
						<path id="SVGID_1_" d="M-396.8-1155.4c-6,0-11.3,4.6-13.7,9.5c-2.4-4.9-7.7-9.5-13.7-9.5c-14.6,0-15.1,11-15.1,16.1
							c0,17.6,23.8,35.1,28.8,35.1s28.8-17.6,28.8-35.1C-381.7-1144.4-382.2-1155.4-396.8-1155.4z"/>
					</defs>
					<clipPath id="SVGID_2_">
						<use xlink:href="#SVGID_1_"  style="overflow:visible;"/>
					</clipPath>
					<g class="st21">
					</g>
				</g>
			</g>
		</g>
	</g>
	<g transform="matrix(.25769 0 0 .25769 164.57 347.25)">
		<polygon class="st22" points="-151.9,-1085.1 -140.7,-1098.5 -147.1,-1102.1 		"/>
		<polygon class="st23" points="-132.7,-1086.9 -120.7,-1137.9 -147.1,-1102.1 		"/>
		<polygon class="st24" points="-151.9,-1085.1 -146.3,-1101.2 -120.7,-1137.9 -166.3,-1107.5 		"/>
		<polygon class="st23" points="-166.3,-1106.6 -120.7,-1137.9 -184.7,-1107.5 		"/>
	</g>
	<g transform="matrix(.21692 -.12246 .12246 .21692 246.39 320.14)">
		<path class="st25" d="M330.7-1020c-7.5,0-13.6,6.1-13.6,13.6s6.1,13.6,13.6,13.6h5.6v-27.2H330.7z"/>
		
			<rect x="334.6" y="-1021.7" transform="matrix(-1 5.058875e-06 -5.058875e-06 -1 678.7764 -2012.9081)" class="st26" width="9.6" height="30.4"/>
		<circle class="st3" cx="339.5" cy="-998.4" r="2.4"/>
		<path class="st27" d="M374.7-1016.8c0-2.4-1.6-3.2-3.2-3.2h-11.2c0,0,0.8-5.4,0.8-8c0-3.4,0-6.4-3.2-8s-4,0.8-4,2.4v5.6
			c0,0-0.4,8-5.6,8h-4v26.4h22.6c0,0,3.8-0.8,3.8-3.2s-2.4-3.2-2.4-3.2s4-0.6,4-3.2s-1.6-3.2-1.6-3.2s3.2-1.6,3.2-4
			s-2.4-3.2-2.4-3.2S374.7-1014.4,374.7-1016.8z"/>
	</g>
	<g transform="matrix(.2984 0 0 .2984 223.33 332.76)">
		<path class="st28" d="M-179.6-937.5h-3.6l-7.7-7.7c-0.4-0.4-1-0.4-1.3,0l-7.7,7.7h-16.4c-2.7,0-4.8,2.1-4.8,4.8v24
			c0,2.7,2.1,4.8,4.8,4.8h36.8c2.7,0,4.8-2.1,4.8-4.8v-24C-174.8-935.3-177-937.5-179.6-937.5L-179.6-937.5z"/>
		<path class="st29" d="M-190.8-929.5h-36.8c-2.7,0-4.8,2.1-4.8,4.8v24c0,2.7,2.1,4.8,4.8,4.8h3.6l7.7,7.7c0.4,0.4,0.9,0.4,1.3,0
			l7.7-7.7h16.4c2.7,0,4.8-2.1,4.8-4.8v-24C-186-927.3-188.2-929.5-190.8-929.5L-190.8-929.5z"/>
		<path class="st30" d="M-218.8-915.9c-1.8,0-3.2,1.4-3.2,3.2s1.4,3.2,3.2,3.2s3.2-1.4,3.2-3.2S-217-915.9-218.8-915.9z
			 M-209.2-915.9c-1.8,0-3.2,1.4-3.2,3.2s1.4,3.2,3.2,3.2s3.2-1.4,3.2-3.2S-207.4-915.9-209.2-915.9z M-199.6-915.9
			c-1.8,0-3.2,1.4-3.2,3.2s1.4,3.2,3.2,3.2c1.8,0,3.2-1.4,3.2-3.2S-197.8-915.9-199.6-915.9z"/>
	</g>
	<g transform="matrix(.097231 0 0 .097231 171.63 459.57)">
		<path class="st31" d="M-1092.7-3423.4c-12.8,0-23.2,10.3-23.2,23c0,14.6,19.3,33,23.2,33s23.2-18.4,23.2-33
			C-1069.5-3413.1-1079.9-3423.4-1092.7-3423.4L-1092.7-3423.4z"/>
		<circle class="st32" cx="-1092.7" cy="-3401" r="13.6"/>
	</g>
	<rect x="70" y="127.3" class="st6" width="26.6" height="4.3"/>
	<g transform="matrix(.12377 0 0 .12377 169.25 486.8)">
		<path class="st33" d="M-503-2887.9c-14.4,0-26.4,4.7-26.4,22.4c0,2.7,2.1,4.8,4.8,4.8h43.2c2.7,0,4.8-2.1,4.8-4.8
			C-476.6-2883.2-488.6-2887.9-503-2887.9z"/>
		<polygon class="st3" points="-514.2,-2886.3 -507,-2874.3 -502.2,-2881.5 		"/>
		<polygon class="st3" points="-503,-2881.5 -498.2,-2874.3 -491,-2886.3 		"/>
		<circle class="st27" cx="-503" cy="-2895.9" r="14.4"/>
		<path class="st34" d="M-488.2-2899c-0.1-0.5-0.2-1-0.4-1.5c-1.9-6.2-7.7-10.7-14.5-10.7c-0.5,0-0.9,0-1.3,0.1
			c-0.3,0-0.7,0.1-1,0.1h-0.1c-0.8,0.1-1.5,0.3-2.3,0.6h-0.1c-5.8,1.9-10,7.2-10.3,13.6c1.5-0.4,3-1,4.5-1.8
			c2.5-1.5,4.5-3.4,5.6-5.4h0.5c2.5,5.1,9.1,8.8,17,8.8c0.9,0,1.9-0.1,2.8-0.2c0-0.2,0-0.4,0-0.6C-487.8-2897-487.9-2898-488.2-2899
			L-488.2-2899z"/>
	</g>
	<rect x="112.4" y="127.3" class="st6" width="20.1" height="4.3"/>
	<g transform="matrix(.11198 0 0 .11198 233.74 464.15)">
		<path class="st35" d="M-804.3-3000.1h-51.2c-2.7,0-4.8,2.1-4.8,4.8v30.4c0,2.7,2.1,4.8,4.8,4.8h51.2c2.7,0,4.8-2.1,4.8-4.8v-30.4
			C-799.5-2998-801.7-3000.1-804.3-3000.1z"/>
		<path class="st36" d="M-842.6-2979l-14.2,14.2c-0.3,0.3-0.3,0.8,0,1.1s0.8,0.3,1.1,0l14.2-14.2c0.3-0.3,0.3-0.8,0-1.1
			C-841.8-2979.3-842.3-2979.3-842.6-2979L-842.6-2979z M-803.1-2964.8l-14.2-14.2c-0.3-0.3-0.8-0.3-1.1,0s-0.3,0.8,0,1.1l14.2,14.2
			c0.3,0.3,0.8,0.3,1.1,0S-802.7-2964.5-803.1-2964.8L-803.1-2964.8z"/>
		<g class="st20">
			<g>
				<g>
					<defs>
						<path id="SVGID_3_" d="M-800.5-2998.4l-27.2-17.9c-1.3-0.8-3.3-0.8-4.5,0l-27.2,17.9c-1.3,0.8-1.3,2.2,0,3l27.2,17.9
							c1.3,0.8,3.3,0.8,4.5,0l27.2-17.9C-799.3-2996.3-799.3-2997.6-800.5-2998.4L-800.5-2998.4z"/>
					</defs>
					<clipPath id="SVGID_4_">
						<use xlink:href="#SVGID_3_"  style="overflow:visible;"/>
					</clipPath>
					<g class="st37">
					</g>
				</g>
			</g>
		</g>
		<path class="st38" d="M-845.5-2993.7h31.2c0.2,0,0.4-0.2,0.4-0.4s-0.2-0.4-0.4-0.4h-31.2c-0.2,0-0.4,0.2-0.4,0.4
			C-845.9-2993.9-845.8-2993.7-845.5-2993.7z M-814.3-2992.1h-31.2c-0.2,0-0.4,0.2-0.4,0.4s0.2,0.4,0.4,0.4h31.2
			c0.2,0,0.4-0.2,0.4-0.4S-814.1-2992.1-814.3-2992.1z M-814.3-2989.7h-31.2c-0.2,0-0.4,0.2-0.4,0.4s0.2,0.4,0.4,0.4h31.2
			c0.2,0,0.4-0.2,0.4-0.4S-814.1-2989.7-814.3-2989.7z"/>
	</g>
	<rect x="145.7" y="127.3" class="st6" width="23.3" height="4.3"/>
	<g>
		<path class="st39" d="M66.4,97.2c-0.5,1.2-3.8,1.8-7.2,1.2s-5.8-1.9-5.3-3.2s3.8-1.8,7.2-1.2C64.5,94.6,66.9,96,66.4,97.2"/>
	</g>
	<g>
		<path class="st40" d="M38.2,89.8L38,91.7c0,0.2-0.1,0.5,0.2,0.7c0,0,0.3,0.3,0.7,0.6c0.3,0.2,0.7,0.4,1,0.5
			c0.5,0.2,1.3,0.3,1.9,0.4c0.7,0.1,1.7,0.1,2.4,0.2c1,0.1,2.4,0.2,3.4,0.3c0.4,0.1,1,0.2,1.5,0.3c0.5,0.1,1.1,0.4,1.5,0.6
			c0.7,0.3,1.5,1,2.2,1.3c0.5,0.2,1.1,0.5,1.6,0.6c0.7,0.2,1.5,0.3,2.2,0.3c0.7,0.1,1.7,0,2.4,0c0.8,0,1.9-0.2,2.6-0.3
			c0.7-0.1,1.6-0.2,2.3-0.4c0.6-0.2,1.4-0.4,1.9-0.9c0.2-0.2,0.3-0.5,0.3-0.8c0-0.2,0-0.5-0.1-0.7c-0.1-0.3-0.3-0.7-0.4-1
			c-0.1-0.3-0.4-1.1-0.4-1.1s0,0.6-0.2,0.8c-0.3,0.4-1,0.7-1.5,0.9c-0.9,0.3-3,0.6-3,0.6s-1.6,0.2-2.3,0.2c-0.9,0-3.1-0.3-3.1-0.3
			s-1.7-0.2-2.3-0.4c-0.8-0.2-1.8-0.6-2.6-0.9c-0.7-0.3-1.5-0.7-2.2-0.9c-2.2-0.6-5.3-0.4-7.5-1.1c-0.5-0.1-1.2-0.4-1.6-0.7
			C38.6,90.5,38.2,89.8,38.2,89.8L38.2,89.8z"/>
		<path class="st41" d="M38.2,89.8L38,91.7c0,0.2-0.1,0.5,0.2,0.7c0,0,0.3,0.3,0.7,0.6c0.3,0.2,0.7,0.4,1,0.5
			c0.5,0.2,1.3,0.3,1.9,0.4c0.7,0.1,1.7,0.1,2.4,0.2c1,0.1,2.4,0.2,3.4,0.3c0.4,0.1,1,0.2,1.5,0.3c0.5,0.1,1.1,0.4,1.5,0.6
			c0.7,0.3,1.5,1,2.2,1.3c0.5,0.2,1.1,0.5,1.6,0.6c0.7,0.2,1.5,0.3,2.2,0.3c0.7,0.1,1.7,0,2.4,0c0.8,0,1.9-0.2,2.6-0.3
			c0.7-0.1,1.6-0.2,2.3-0.4c0.6-0.2,1.4-0.4,1.9-0.9c0.2-0.2,0.3-0.5,0.3-0.8c0-0.2,0-0.5-0.1-0.7c-0.1-0.3-0.3-0.7-0.4-1
			c-0.1-0.3-0.4-1.1-0.4-1.1s0,0.6-0.2,0.8c-0.3,0.4-1,0.7-1.5,0.9c-0.9,0.3-3,0.6-3,0.6s-1.6,0.2-2.3,0.2c-0.9,0-3.1-0.3-3.1-0.3
			s-1.7-0.2-2.3-0.4c-0.8-0.2-1.8-0.6-2.6-0.9c-0.7-0.3-1.5-0.7-2.2-0.9c-2.2-0.6-5.3-0.4-7.5-1.1c-0.5-0.1-1.2-0.4-1.6-0.7
			C38.6,90.5,38.2,89.8,38.2,89.8L38.2,89.8z"/>
	</g>
	<path class="st42" d="M38.3,89.8c0-0.1,0.1-0.3,0.1-0.5c0-0.4,0-0.9,0-1.3c0.1-0.5,0.3-1.2,0.5-1.7c0.1-0.3,0.2-0.8,0.4-1.1
		c0.1-0.1,0.3-0.2,0.4-0.4c0.1-0.3-0.1-0.7-0.2-0.9c0-0.4,0-1-0.1-1.4c0-0.4-0.1-1-0.1-1.4s0-1-0.1-1.4c0-0.2-0.1-0.5-0.1-0.6
		s0.1-0.3,0.2-0.4c0.1-0.1,0.3,0,0.4,0c0.4,0,0.8,0.3,1.2,0.3c0.2,0,0.6,0,0.8,0c0.3,0,0.8,0,1.2,0s1-0.1,1.4-0.2
		c0.1,0,0.1,0.1,0.3,0s0.6-0.6,0.8-0.6s0.2,0.5,0.4,0.6s0.5,0.1,0.7,0.2c0.3,0.1,0.7,0.2,1,0.5c0.2,0.2,0.4,0.5,0.6,0.7
		c0.4,0.6,0.8,1.4,1.2,2c0.3,0.5,0.8,1.2,1.2,1.7c0.2,0.3,0.5,0.6,0.8,0.9c0.3,0.4,0.8,1,1.1,1.3c0.2,0.3,0.6,0.6,0.8,0.8
		c0.5,0.4,1.3,0.8,1.9,1.2c0.7,0.4,1.6,0.8,2.2,1.1c0.7,0.4,1.7,0.8,2.5,1.1c0.6,0.3,1.5,0.5,2.1,0.8c0.8,0.3,1.9,0.4,2.5,0.8
		c0.2,0.1,0.5,0.3,0.6,0.5s0,0.6,0,0.7c-0.1,0.2-0.3,0.3-0.4,0.5c-0.3,0.2-0.8,0.4-1.1,0.5c-0.7,0.2-1.7,0.4-2.5,0.5
		s-1.9,0.2-2.8,0.2c-0.9,0-2.4-0.2-3.2-0.3c-0.4,0-0.7-0.1-1.2-0.2c-0.4-0.1-1-0.2-1.5-0.4c-0.6-0.2-1.3-0.4-1.9-0.7
		c-0.3-0.1-0.7-0.3-1-0.5c-0.3-0.1-0.9-0.4-1.2-0.4c-0.5-0.1-1.1-0.3-1.6-0.3c-0.6-0.1-1.4-0.2-2.1-0.3c-0.7-0.1-1.7-0.2-2.4-0.3
		c-0.4-0.1-1-0.1-1.4-0.2s-0.9-0.2-1.2-0.4c-0.3-0.1-0.6-0.3-0.8-0.5C38.6,90.4,38.3,90,38.3,89.8L38.3,89.8z"/>
	<g class="st43">
		<path class="st44" d="M38,91.7c0,0,0.2,0.3,0.3,0.4c0.3,0.2,0.7,0.5,1,0.6c0.4,0.2,0.9,0.3,1.2,0.4c0.6,0.1,1.3,0.2,1.9,0.3
			c0.6,0.1,1.5,0.1,2.1,0.1c0.8,0.1,1.8,0.1,2.6,0.2c0.5,0.1,1.1,0.2,1.5,0.3c0.5,0.1,1.1,0.4,1.6,0.6c0.9,0.4,2.1,1.1,3,1.5
			c0.2,0.1,0.5,0.2,0.8,0.2c0.3,0.1,1.3,0.2,1.3,0.2l-0.1-0.3c0,0-0.8-0.1-1-0.1s-0.5-0.1-0.7-0.2c-0.8-0.3-1.8-0.8-2.6-1.1
			c-0.4-0.2-0.9-0.5-1.3-0.6c-0.4-0.2-0.9-0.3-1.3-0.4c-0.5-0.1-1.1-0.3-1.6-0.3c-0.7-0.1-1.6-0.2-2.2-0.2c-0.7-0.1-1.7-0.1-2.4-0.1
			c-0.4,0-1-0.1-1.4-0.2c-0.3-0.1-0.8-0.2-1.1-0.4c-0.3-0.1-0.9-0.4-1.2-0.6c-0.2-0.1-0.4-0.6-0.4-0.6L38,91.7L38,91.7z"/>
	</g>
	<g>
		<path class="st45" d="M38.1,91c0,0,0.2,0.3,0.3,0.4c0.3,0.2,0.7,0.5,1,0.6c0.4,0.2,0.9,0.3,1.2,0.4c0.6,0.1,1.3,0.2,1.9,0.3
			c0.6,0.1,1.5,0.1,2.1,0.1c0.8,0.1,1.8,0.1,2.6,0.2c0.5,0.1,1.1,0.2,1.5,0.3c0.5,0.1,1.1,0.4,1.6,0.6c0.9,0.4,2.2,0.9,3.1,1.3
			c0.2,0.1,0.6,0.1,0.9,0.2c0.3,0.1,1,0.1,1,0.1v-0.2c0,0-0.5,0-0.8,0c-0.2,0-0.7-0.1-0.9-0.2c-0.8-0.3-1.8-0.6-2.6-0.9
			c-0.4-0.2-0.9-0.5-1.3-0.6c-0.4-0.2-0.9-0.3-1.3-0.4c-0.5-0.1-1.1-0.3-1.6-0.3c-0.7-0.1-1.6-0.2-2.2-0.2c-0.7-0.1-1.7-0.1-2.4-0.1
			c-0.4,0-1-0.1-1.4-0.2c-0.3-0.1-0.8-0.2-1.1-0.4c-0.3-0.1-0.9-0.4-1.2-0.6c-0.2-0.1-0.4-0.6-0.4-0.6L38.1,91L38.1,91z"/>
		<path class="st46" d="M38.1,91c0,0,0.2,0.3,0.3,0.4c0.3,0.2,0.7,0.5,1,0.6c0.4,0.2,0.9,0.3,1.2,0.4c0.6,0.1,1.3,0.2,1.9,0.3
			c0.6,0.1,1.5,0.1,2.1,0.1c0.8,0.1,1.8,0.1,2.6,0.2c0.5,0.1,1.1,0.2,1.5,0.3c0.5,0.1,1.1,0.4,1.6,0.6c0.9,0.4,2.2,0.9,3.1,1.3
			c0.2,0.1,0.6,0.1,0.9,0.2c0.3,0.1,1,0.1,1,0.1v-0.2c0,0-0.5,0-0.8,0c-0.2,0-0.7-0.1-0.9-0.2c-0.8-0.3-1.8-0.6-2.6-0.9
			c-0.4-0.2-0.9-0.5-1.3-0.6c-0.4-0.2-0.9-0.3-1.3-0.4c-0.5-0.1-1.1-0.3-1.6-0.3c-0.7-0.1-1.6-0.2-2.2-0.2c-0.7-0.1-1.7-0.1-2.4-0.1
			c-0.4,0-1-0.1-1.4-0.2c-0.3-0.1-0.8-0.2-1.1-0.4c-0.3-0.1-0.9-0.4-1.2-0.6c-0.2-0.1-0.4-0.6-0.4-0.6L38.1,91L38.1,91z"/>
	</g>
	<g>
		<path class="st47" d="M38.2,89.8c0,0,0.3,0.6,0.5,0.8c0.2,0.2,0.6,0.4,0.9,0.6c0.3,0.2,0.8,0.3,1.1,0.4c0.5,0.1,1.2,0.2,1.8,0.3
			c0.9,0.1,2.1,0.2,3,0.3c0.6,0.1,1.3,0.1,1.9,0.3c0.3,0.1,0.6,0.1,0.9,0.2c0.5,0.2,1.1,0.5,1.5,0.6c0.6,0.3,1.5,0.6,2.1,0.8
			c0.3,0.1,0.8,0.3,1.2,0.3c0.5,0.1,1.3,0.2,1.8,0.3c0.6,0.1,1.4,0.2,2.1,0.2c0.4,0,1,0.1,1.4,0.1c0.8,0,1.9-0.1,2.8-0.3
			c0.7-0.1,1.7-0.3,2.3-0.5c0.4-0.2,1.1-0.4,1.4-0.7c0.1-0.1,0.2-0.3,0.2-0.5s0-0.5,0-0.5"/>
	</g>
	<g>
		<path class="st48" d="M48,91.8c0,0.1-0.1,0.1-0.2,0c-0.1,0-0.2-0.1-0.1-0.2c0-0.1,0.1-0.1,0.2,0C48,91.6,48.1,91.7,48,91.8"/>
		<path class="st49" d="M48,91.8c0,0.1-0.1,0.1-0.2,0c-0.1,0-0.2-0.1-0.1-0.2c0-0.1,0.1-0.1,0.2,0C48,91.6,48.1,91.7,48,91.8"/>
	</g>
	<g>
		<path class="st50" d="M50.2,92.5c0,0.1-0.1,0.1-0.2,0c-0.1-0.1-0.1-0.2-0.1-0.2c0-0.1,0.1-0.1,0.2,0
			C50.2,92.3,50.2,92.4,50.2,92.5"/>
		<path class="st51" d="M50.2,92.5c0,0.1-0.1,0.1-0.2,0c-0.1-0.1-0.1-0.2-0.1-0.2c0-0.1,0.1-0.1,0.2,0
			C50.2,92.3,50.2,92.4,50.2,92.5"/>
	</g>
	<g>
		<path class="st52" d="M39.9,84.9c0.1-0.2,0.2-0.6,0.4-0.8c0.1-0.1,0.3-0.3,0.5-0.4s0.5-0.1,0.7,0c0.2,0,0.5,0.2,0.7,0.3
			c0.2,0.1,0.5,0.4,0.7,0.6s0.4,0.5,0.5,0.7s0.3,0.6,0.4,0.8c0,0.1,0,0.4,0,0.5c-0.1,0.3-0.2,0.7-0.3,0.9c-0.1,0.2-0.3,0.4-0.4,0.5
			c-0.1,0.1-0.3,0.3-0.5,0.3c-0.1,0-0.2,0.1-0.3,0.1s-0.3,0-0.4-0.1c-0.1-0.1-0.3-0.2-0.4-0.3c-0.2-0.2-0.4-0.5-0.6-0.7
			c-0.2-0.2-0.3-0.5-0.5-0.7c-0.1-0.2-0.3-0.4-0.4-0.7c-0.1-0.2-0.1-0.5-0.1-0.8C39.8,85.2,39.9,85.1,39.9,84.9L39.9,84.9z"/>
		<path class="st53" d="M39.9,84.9c0.1-0.2,0.2-0.6,0.4-0.8c0.1-0.1,0.3-0.3,0.5-0.4s0.5-0.1,0.7,0c0.2,0,0.5,0.2,0.7,0.3
			c0.2,0.1,0.5,0.4,0.7,0.6s0.4,0.5,0.5,0.7s0.3,0.6,0.4,0.8c0,0.1,0,0.4,0,0.5c-0.1,0.3-0.2,0.7-0.3,0.9c-0.1,0.2-0.3,0.4-0.4,0.5
			c-0.1,0.1-0.3,0.3-0.5,0.3c-0.1,0-0.2,0.1-0.3,0.1s-0.3,0-0.4-0.1c-0.1-0.1-0.3-0.2-0.4-0.3c-0.2-0.2-0.4-0.5-0.6-0.7
			c-0.2-0.2-0.3-0.5-0.5-0.7c-0.1-0.2-0.3-0.4-0.4-0.7c-0.1-0.2-0.1-0.5-0.1-0.8C39.8,85.2,39.9,85.1,39.9,84.9L39.9,84.9z"/>
	</g>
	<g>
		<path class="st52" d="M40.1,85c0.1-0.2,0.2-0.5,0.4-0.7c0.1-0.1,0.3-0.3,0.4-0.3c0.2-0.1,0.4-0.1,0.6,0c0.2,0,0.5,0.2,0.6,0.3
			c0.2,0.1,0.4,0.4,0.6,0.6c0.2,0.2,0.3,0.4,0.4,0.6c0.1,0.2,0.3,0.5,0.3,0.8c0,0.1,0,0.3,0,0.5c0,0.3-0.1,0.6-0.3,0.8
			c-0.1,0.2-0.3,0.3-0.4,0.4c-0.1,0.1-0.3,0.3-0.5,0.3c-0.1,0-0.2,0-0.3,0s-0.3,0-0.4-0.1c-0.1,0-0.3-0.2-0.3-0.2
			c-0.2-0.2-0.4-0.4-0.5-0.6s-0.3-0.5-0.4-0.7c-0.1-0.2-0.3-0.4-0.4-0.6c-0.1-0.2-0.1-0.5-0.1-0.7C40,85.3,40.1,85.2,40.1,85z"/>
		<path class="st54" d="M40.1,85c0.1-0.2,0.2-0.5,0.4-0.7c0.1-0.1,0.3-0.3,0.4-0.3c0.2-0.1,0.4-0.1,0.6,0c0.2,0,0.5,0.2,0.6,0.3
			c0.2,0.1,0.4,0.4,0.6,0.6c0.2,0.2,0.3,0.4,0.4,0.6c0.1,0.2,0.3,0.5,0.3,0.8c0,0.1,0,0.3,0,0.5c0,0.3-0.1,0.6-0.3,0.8
			c-0.1,0.2-0.3,0.3-0.4,0.4c-0.1,0.1-0.3,0.3-0.5,0.3c-0.1,0-0.2,0-0.3,0s-0.3,0-0.4-0.1c-0.1,0-0.3-0.2-0.3-0.2
			c-0.2-0.2-0.4-0.4-0.5-0.6s-0.3-0.5-0.4-0.7c-0.1-0.2-0.3-0.4-0.4-0.6c-0.1-0.2-0.1-0.5-0.1-0.7C40,85.3,40.1,85.2,40.1,85z"/>
	</g>
	<g>
		<path class="st52" d="M40.2,85.1c0.1-0.2,0.2-0.5,0.3-0.6s0.3-0.3,0.4-0.3c0.2-0.1,0.4-0.1,0.6,0c0.2,0,0.4,0.1,0.6,0.3
			c0.2,0.1,0.4,0.4,0.6,0.5c0.1,0.2,0.3,0.4,0.4,0.6c0.1,0.2,0.3,0.5,0.3,0.7c0,0.1,0,0.3,0,0.4c0,0.2-0.1,0.6-0.3,0.8
			c-0.1,0.1-0.2,0.3-0.4,0.4c-0.1,0.1-0.3,0.2-0.4,0.3c-0.1,0-0.2,0-0.3,0s-0.2,0-0.3-0.1c-0.1,0-0.2-0.1-0.3-0.2
			c-0.2-0.1-0.4-0.4-0.5-0.6s-0.3-0.4-0.4-0.6c-0.1-0.2-0.3-0.4-0.3-0.6c-0.1-0.2-0.1-0.5-0.1-0.7C40.1,85.4,40.2,85.2,40.2,85.1
			L40.2,85.1z"/>
		<path class="st55" d="M40.2,85.1c0.1-0.2,0.2-0.5,0.3-0.6s0.3-0.3,0.4-0.3c0.2-0.1,0.4-0.1,0.6,0c0.2,0,0.4,0.1,0.6,0.3
			c0.2,0.1,0.4,0.4,0.6,0.5c0.1,0.2,0.3,0.4,0.4,0.6c0.1,0.2,0.3,0.5,0.3,0.7c0,0.1,0,0.3,0,0.4c0,0.2-0.1,0.6-0.3,0.8
			c-0.1,0.1-0.2,0.3-0.4,0.4c-0.1,0.1-0.3,0.2-0.4,0.3c-0.1,0-0.2,0-0.3,0s-0.2,0-0.3-0.1c-0.1,0-0.2-0.1-0.3-0.2
			c-0.2-0.1-0.4-0.4-0.5-0.6s-0.3-0.4-0.4-0.6c-0.1-0.2-0.3-0.4-0.3-0.6c-0.1-0.2-0.1-0.5-0.1-0.7C40.1,85.4,40.2,85.2,40.2,85.1
			L40.2,85.1z"/>
	</g>
	<g>
		<path class="st56" d="M40.7,84.6l-0.1,0.1v0.1v0.1c0,0,0.1,0,0.1,0.1h0.1v-0.1v-0.1"/>
	</g>
	<g>
		<path class="st56" d="M40.9,84.4c0,0,0,0.1-0.1,0.1v0.1c0,0,0,0.1,0.1,0.1H41h0.1v-0.1v-0.1C41,84.4,41,84.4,40.9,84.4L40.9,84.4z
			"/>
	</g>
	<g>
		<polyline class="st56" points="41.3,84.6 41.2,84.3 41.3,84.4 41.4,84.6 41.3,84.2 		"/>
	</g>
	<g>
		<polyline class="st56" points="41.6,84.2 41.6,84.4 41.7,84.6 41.8,84.3 		"/>
	</g>
	<g>
		<path class="st56" d="M42.2,84.5L42.2,84.5L42,84.4l-0.1,0.3l0.1,0.1h0.1"/>
	</g>
	<g>
		<line class="st56" x1="42" y1="84.6" x2="42.1" y2="84.6"/>
	</g>
	<g>
		<path class="st56" d="M42.2,85L42.2,85c0.1-0.1,0.1-0.1,0.1-0.1s0-0.1,0.1-0.1s0.1,0.1,0.1,0.1V85h-0.1l-0.1-0.1"/>
	</g>
	<g>
		<line class="st56" x1="42.4" y1="84.9" x2="42.4" y2="85.1"/>
	</g>
	<g>
		<path class="st56" d="M42.8,85.3l-0.1-0.2h-0.1v0.1c0,0,0,0,0,0.1c0,0,0,0,0,0.1v0.1l0,0h-0.1l-0.1-0.1v-0.1"/>
	</g>
	<g>
		<path class="st56" d="M40.5,86.6c0,0,0.2,0,0.3,0c0,0,0,0,0,0.1s-0.2,0.2-0.2,0.2"/>
	</g>
	<g>
		<line class="st56" x1="40.6" y1="86.6" x2="40.7" y2="86.7"/>
	</g>
	<g>
		<path class="st56" d="M40.9,86.9l-0.1,0.2l0.1,0.1"/>
	</g>
	<g>
		<path class="st56" d="M41.1,87.1c0,0-0.1,0.2,0,0.3l0.1,0.1"/>
	</g>
	<g>
		<path class="st56" d="M41.7,87.6c0,0,0-0.1-0.1-0.1h-0.1v0.1c0,0.1,0.2,0.1,0.2,0.2v0.1c-0.1,0-0.1,0-0.1-0.1v-0.1"/>
	</g>
	<g>
		<line class="st56" x1="41.9" y1="88" x2="41.9" y2="87.6"/>
	</g>
	<g>
		<line class="st56" x1="41.8" y1="87.6" x2="42" y2="87.6"/>
	</g>
	<g>
		<path class="st56" d="M42.2,87.9c0-0.3-0.1-0.3,0-0.4h0.1c0.1,0.1,0.1,0.3,0.1,0.3"/>
	</g>
	<g>
		<line class="st56" x1="42.2" y1="87.7" x2="42.3" y2="87.7"/>
	</g>
	<g>
		<path class="st56" d="M42.6,87.7c0,0-0.2-0.2-0.2-0.3c0,0,0-0.1,0.1-0.1h0.1v0.1c0,0,0,0.1-0.1,0.1h-0.1"/>
	</g>
	<g>
		<line class="st56" x1="42.6" y1="87.4" x2="42.8" y2="87.6"/>
	</g>
	<path class="st52" d="M39.4,78.6c0,0,0.1,0,0.2,0c0.1,0,0.3,0,0.5,0.1s0.7,0.2,0.9,0.3c0.3,0,0.2,0,0.5,0c0.2,0,0.8,0,1,0
		c0.3,0,0.5,0,0.8,0c0.2,0,0.6,0,0.8-0.1c0.1,0,0.3,0,0.4,0c0.1,0,0.2,0,0.2,0s-0.5,0.4-0.6,0.6c-0.2,0.2-0.4,0.4-0.6,0.6
		c-0.1,0.2-0.3,0.4-0.5,0.6c-0.1,0.1-0.2,0.2-0.2,0.3c0,0.1,0,0.2,0,0.2s-0.4,0-0.6-0.1c-0.3-0.1-0.7-0.2-0.9-0.3
		c-0.3-0.1-0.7-0.3-1-0.5c-0.2-0.1-0.5-0.3-0.6-0.5c-0.1-0.1-0.2-0.3-0.2-0.4s0-0.3,0-0.4C39.3,78.7,39.3,78.6,39.4,78.6L39.4,78.6z
		"/>
	<g>
		
			<radialGradient id="SVGID_5_" cx="1696.2003" cy="-406.5019" r="26.73" gradientTransform="matrix(1.782847e-03 0.1436 -0.1007 2.786825e-02 -2.4187 -152.1222)" gradientUnits="userSpaceOnUse">
			<stop  offset="0" style="stop-color:#979797"/>
			<stop  offset="1" style="stop-color:#656565;stop-opacity:0"/>
		</radialGradient>
		<path class="st57" d="M42,80.9c-0.3-0.1-0.7-0.2-1-0.3c-0.3-0.1-0.7-0.3-0.9-0.5C40,80,39.9,80,39.8,79.9s-0.1-0.4-0.1-0.5
			c0.1-0.2,0.3-0.1,0.5-0.2c0.3-0.1,0.7,0,0.9,0.1c0.3,0,0.8,0.2,1.1,0.2c0.2,0,1,0,1.2,0c0.1,0,0.1,0.1,0.1,0.3
			c0,0.2-0.4,0.4-0.4,0.6c0,0.1-0.3,0.3-0.3,0.4C43,81.3,42.3,81,42,80.9L42,80.9z"/>
	</g>
	<g>
		<path class="st58" d="M42.7,81c0,0-0.5,0-0.6-0.1c-0.2-0.1-0.6-0.2-0.8-0.3c-0.3-0.1-0.6-0.3-0.9-0.4c-0.2-0.1-0.5-0.2-0.6-0.4
			c-0.1-0.1-0.3-0.3-0.4-0.4c-0.1-0.1-0.1-0.3-0.1-0.4s0-0.2,0-0.3l0.1-0.1"/>
	</g>
	<g>
		<path class="st59" d="M39.4,78.6c0,0,0.5,0.2,0.8,0.3c0.3,0.1,0.8,0.2,1.1,0.2s0.7,0.1,1,0.1c0.2,0,0.5-0.1,0.7-0.1
			c0.3,0,0.6-0.1,0.9-0.1c0.2,0,0.4-0.1,0.6-0.1c0.1,0,0.2,0,0.2,0s-0.3,0.3-0.5,0.4s-0.4,0.1-0.6,0.1c-0.2,0-0.4,0-0.6,0
			c-0.2,0-0.4,0-0.6,0c-0.1,0-0.3,0-0.4,0c-0.2,0-0.5-0.1-0.7-0.2c-0.3-0.1-0.7-0.1-0.9-0.1c-0.1,0-0.3-0.1-0.5-0.1
			C39.6,78.9,39.4,78.6,39.4,78.6L39.4,78.6z"/>
	</g>
	<g>
		<path class="st60" d="M43,79c0,0,0.4,0,0.5-0.1c0.2,0,0.5-0.1,0.6-0.1s0.1,0,0.2,0c0.1,0,0.3,0,0.3,0"/>
	</g>
	<g>
		<path class="st61" d="M43.1,78.9c0,0-0.3,0-0.4,0c-0.1,0-0.2,0-0.2,0"/>
	</g>
	<g>
		<path class="st62" d="M39.3,79.6c0,0,0.3,0.3,0.4,0.4c0.2,0.2,0.6,0.4,0.8,0.6c0.3,0.2,0.7,0.4,1,0.5c0.2,0.1,0.4,0.1,0.6,0.2
			c0.2,0,0.4,0.1,0.5,0.1c0.2,0,0.5,0,0.7,0c0.4,0,0.9,0,1.3-0.1c0.4,0,0.8-0.1,1.2-0.1c0.1,0,0.3-0.1,0.5-0.1c0.1,0,0.3,0,0.4,0.1
			c0.2,0.1,0.3,0.3,0.4,0.5c0.3,0.5,0.4,1.2,0.7,1.7c0.2,0.4,0.3,0.9,0.5,1.2c0.2,0.4,0.7,1,1,1.4c0.3,0.3,0.6,0.8,0.9,1.1
			c0.2,0.2,0.6,0.5,0.8,0.7c0.5,0.4,1.2,0.8,1.8,1.1c0.5,0.3,1.3,0.7,1.8,1c0.7,0.3,1.6,0.7,2.2,1.1c0.5,0.3,1.1,0.6,1.5,0.9
			c0.2,0.1,0.4,0.4,0.6,0.5c0.1,0.1,0.3,0.3,0.4,0.5c0.1,0.2,0.2,0.4,0.3,0.6s0.1,0.4,0.1,0.6c0.1,0.2,0.2,0.8,0.2,0.8"/>
	</g>
	<g>
		<path class="st63" d="M39.3,79.8c0,0,0.3,0.3,0.4,0.4c0.2,0.2,0.6,0.4,0.8,0.5c0.3,0.2,0.7,0.3,1,0.5c0.2,0.1,0.4,0.1,0.6,0.2
			c0.2,0,0.4,0.1,0.5,0.1c0.2,0,0.5,0,0.7,0c0.4,0,0.9,0,1.3-0.1c0.4,0,0.8-0.1,1.2-0.1c0.1,0,0.3-0.1,0.5-0.1c0.1,0,0.3,0,0.4,0.1
			c0.2,0.1,0.3,0.3,0.4,0.5c0.3,0.5,0.4,1.2,0.6,1.7c0.2,0.4,0.3,0.9,0.5,1.2c0.2,0.4,0.6,1,1,1.4c0.3,0.3,0.6,0.7,0.9,1
			c0.2,0.2,0.6,0.5,0.8,0.6c0.5,0.4,1.2,0.8,1.7,1.1c0.5,0.3,1.2,0.7,1.8,1c0.7,0.3,1.5,0.7,2.2,1.1c0.5,0.3,1.1,0.6,1.5,0.9
			c0.2,0.1,0.4,0.4,0.6,0.5c0.1,0.1,0.3,0.3,0.4,0.5c0.1,0.2,0.2,0.4,0.3,0.6s0.1,0.4,0.1,0.6c0.1,0.2,0.2,0.8,0.2,0.8"/>
	</g>
	<g>
		<path class="st62" d="M43.7,81c0,0,0.2,0.7,0.3,1c0.2,0.5,0.4,1.2,0.6,1.7c0.1,0.3,0.3,0.7,0.4,1c0.2,0.4,0.6,1,0.8,1.4
			c0.3,0.5,0.6,1.1,0.9,1.5c0.3,0.3,0.7,0.7,1,1c0.4,0.3,0.9,0.7,1.2,1c0.2,0.2,0.5,0.4,0.7,0.6c0.4,0.3,1,0.6,1.4,0.9
			c0.6,0.3,1.3,0.7,1.9,1c0.6,0.3,1.3,0.6,1.9,0.9c0.5,0.2,1.2,0.5,1.7,0.7c0.2,0.1,0.5,0.2,0.8,0.2c0.1,0,0.3,0,0.4,0
			c0.3,0.1,0.7,0.3,1,0.4s0.9,0.3,0.9,0.3"/>
	</g>
	<g>
		<path class="st62" d="M44,81c0,0,0.2,0.7,0.3,1c0.2,0.5,0.3,1.1,0.5,1.6c0.1,0.3,0.3,0.7,0.4,1c0.2,0.4,0.6,1,0.8,1.4
			c0.3,0.5,0.6,1.1,0.9,1.5c0.3,0.3,0.7,0.7,1,1c0.4,0.3,0.9,0.7,1.2,1c0.2,0.2,0.5,0.4,0.7,0.6c0.4,0.3,1,0.6,1.4,0.9
			c0.6,0.3,1.3,0.7,1.9,1c0.6,0.3,1.3,0.6,1.9,0.9c0.5,0.2,1.2,0.5,1.7,0.7c0.2,0.1,0.5,0.2,0.8,0.2c0.1,0,0.3,0,0.4,0
			c0.3,0.1,0.7,0.3,1,0.4s0.9,0.3,0.9,0.3l0.2,0.1"/>
	</g>
	<g>
		<path class="st64" d="M42.7,81c0,0,0.5,0,0.7,0c0.3,0,0.8,0,1.1,0s0.9-0.1,1.2-0.1c0.2,0,0.6-0.1,0.8-0.1c0.1,0,0.3,0,0.4,0.1
			c0.2,0.1,0.4,0.4,0.4,0.4"/>
	</g>
	<path class="st65" d="M60.4,94.7c0,0-0.1-0.7-0.1-1s0-0.6,0.1-0.8c0.1-0.3,0.3-0.7,0.4-1c0.1-0.1,0.1-0.2,0.2-0.3
		c0.1-0.1,0.2-0.3,0.3-0.4s0.2-0.3,0.2-0.3s0.9,0.3,1.4,0.4c0.3,0.1,0.9,0.2,1.2,0.4c0.2,0.1,0.5,0.2,0.7,0.4
		c0.2,0.1,0.3,0.3,0.4,0.4c0.1,0.1,0,0.4,0,0.5c-0.1,0.2-0.2,0.3-0.3,0.5c-0.2,0.2-0.6,0.3-0.8,0.4c-0.4,0.1-0.7,0.3-1.1,0.4
		c-0.4,0.1-1,0.2-1.4,0.3C61.1,94.6,60.4,94.7,60.4,94.7L60.4,94.7z"/>
	<g>
		<path class="st66" d="M50.1,88.2c-0.1,0.3-0.4,0.5-0.7,0.4s-0.5-0.4-0.5-0.7c0.1-0.3,0.4-0.5,0.7-0.4S50.1,87.9,50.1,88.2"/>
	</g>
	<g>
		<path class="st67" d="M50,88.2c-0.1,0.3-0.3,0.4-0.6,0.4C49.1,88.5,49,88.3,49,88c0.1-0.3,0.3-0.4,0.6-0.4
			C49.8,87.6,50,87.9,50,88.2"/>
	</g>
	<g>
		<path class="st66" d="M49.9,88.2c-0.1,0.2-0.3,0.4-0.5,0.3S49,88.2,49.1,88c0.1-0.2,0.3-0.4,0.5-0.3C49.8,87.7,50,87.9,49.9,88.2"
			/>
	</g>
	<g>
		<path class="st68" d="M49.7,88.1c0,0.1-0.2,0.2-0.3,0.2s-0.2-0.2-0.2-0.3s0.2-0.2,0.3-0.2C49.7,87.8,49.7,88,49.7,88.1"/>
	</g>
	<g>
		<path class="st66" d="M46.5,82.6c-0.1,0.3-0.4,0.5-0.7,0.4s-0.5-0.4-0.5-0.7c0.1-0.3,0.4-0.5,0.7-0.4
			C46.3,81.9,46.5,82.2,46.5,82.6"/>
	</g>
	<g>
		<path class="st67" d="M46.4,82.5c-0.1,0.3-0.3,0.4-0.6,0.4c-0.3-0.1-0.4-0.3-0.4-0.6c0.1-0.3,0.3-0.4,0.6-0.4
			C46.3,82,46.4,82.3,46.4,82.5"/>
	</g>
	<g>
		<path class="st66" d="M46.3,82.5c-0.1,0.2-0.3,0.4-0.5,0.3s-0.4-0.3-0.3-0.5c0.1-0.2,0.3-0.4,0.5-0.3
			C46.2,82.1,46.4,82.3,46.3,82.5"/>
	</g>
	<g>
		<path class="st68" d="M46.1,82.5c0,0.1-0.2,0.2-0.3,0.2s-0.2-0.2-0.2-0.3s0.2-0.2,0.3-0.2C46.1,82.2,46.2,82.4,46.1,82.5"/>
	</g>
	<g>
		<path class="st66" d="M55.8,91.7c-0.1,0.3-0.4,0.5-0.7,0.4s-0.5-0.4-0.5-0.7c0.1-0.3,0.4-0.5,0.7-0.4C55.6,91,55.8,91.3,55.8,91.7
			"/>
	</g>
	<g>
		<path class="st67" d="M55.7,91.6c-0.1,0.3-0.3,0.4-0.6,0.4c-0.3-0.1-0.4-0.3-0.4-0.6c0.1-0.3,0.3-0.4,0.6-0.4
			C55.6,91.1,55.7,91.4,55.7,91.6"/>
	</g>
	<g>
		<path class="st66" d="M55.6,91.6c-0.1,0.2-0.3,0.4-0.5,0.3s-0.4-0.3-0.3-0.5c0.1-0.2,0.3-0.4,0.5-0.3
			C55.5,91.1,55.7,91.4,55.6,91.6"/>
	</g>
	<g>
		<path class="st66" d="M47.4,84.7c-0.1,0.3-0.4,0.5-0.7,0.4s-0.5-0.4-0.5-0.7c0.1-0.3,0.4-0.5,0.7-0.4S47.4,84.4,47.4,84.7"/>
	</g>
	<g>
		<path class="st67" d="M47.3,84.7c-0.1,0.3-0.3,0.4-0.6,0.4s-0.4-0.3-0.4-0.6c0.1-0.3,0.3-0.4,0.6-0.4
			C47.2,84.1,47.3,84.4,47.3,84.7"/>
	</g>
	<g>
		<path class="st66" d="M47.2,84.7c-0.1,0.2-0.3,0.4-0.5,0.3s-0.4-0.3-0.3-0.5c0.1-0.2,0.3-0.4,0.5-0.3
			C47.1,84.2,47.3,84.4,47.2,84.7"/>
	</g>
	<g>
		<path class="st68" d="M47,84.6c0,0.1-0.2,0.2-0.3,0.2s-0.2-0.2-0.2-0.3c0-0.1,0.2-0.2,0.3-0.2C47,84.4,47.1,84.5,47,84.6"/>
	</g>
	<g>
		<path class="st66" d="M48.6,86.5c-0.1,0.3-0.4,0.5-0.7,0.4s-0.5-0.4-0.5-0.7c0.1-0.3,0.4-0.5,0.7-0.4
			C48.5,85.8,48.7,86.2,48.6,86.5"/>
	</g>
	<g>
		<path class="st67" d="M48.5,86.4c-0.1,0.3-0.3,0.4-0.6,0.4c-0.3-0.1-0.4-0.3-0.4-0.6c0.1-0.3,0.3-0.4,0.6-0.4
			C48.4,85.9,48.6,86.2,48.5,86.4"/>
	</g>
	<g>
		<path class="st66" d="M48.5,86.4c-0.1,0.2-0.3,0.4-0.5,0.3s-0.4-0.3-0.3-0.5c0.1-0.2,0.3-0.4,0.5-0.3S48.5,86.2,48.5,86.4"/>
	</g>
	<g>
		<path class="st68" d="M48.3,86.4c0,0.1-0.2,0.2-0.3,0.2s-0.2-0.2-0.2-0.3s0.2-0.2,0.3-0.2C48.2,86.1,48.3,86.3,48.3,86.4"/>
	</g>
	<g>
		<path class="st66" d="M51.8,89.5c-0.1,0.3-0.4,0.5-0.7,0.4s-0.5-0.4-0.5-0.7c0.1-0.3,0.4-0.5,0.7-0.4
			C51.7,88.9,51.9,89.2,51.8,89.5"/>
	</g>
	<g>
		<path class="st67" d="M51.7,89.5c-0.1,0.3-0.3,0.4-0.6,0.4c-0.3-0.1-0.4-0.3-0.4-0.6s0.3-0.4,0.6-0.4
			C51.6,88.9,51.8,89.2,51.7,89.5"/>
	</g>
	<g>
		<path class="st66" d="M51.7,89.5c-0.1,0.2-0.3,0.4-0.5,0.3s-0.4-0.3-0.3-0.5c0.1-0.2,0.3-0.4,0.5-0.3C51.6,89,51.8,89.2,51.7,89.5
			"/>
	</g>
	<g>
		<path class="st68" d="M51.5,89.4c0,0.1-0.2,0.2-0.3,0.2S51,89.4,51,89.3s0.2-0.2,0.3-0.2C51.5,89.2,51.5,89.3,51.5,89.4"/>
	</g>
	<g>
		<path class="st66" d="M53.8,90.6c-0.1,0.3-0.4,0.5-0.7,0.4s-0.5-0.4-0.5-0.7c0.1-0.3,0.4-0.5,0.7-0.4C53.6,90,53.8,90.3,53.8,90.6
			"/>
	</g>
	<g>
		<path class="st67" d="M53.6,90.6C53.5,90.9,53.3,91,53,91c-0.3-0.1-0.4-0.3-0.4-0.6s0.3-0.4,0.6-0.4C53.5,90,53.7,90.3,53.6,90.6"
			/>
	</g>
	<g>
		<path class="st66" d="M53.6,90.6c-0.1,0.2-0.3,0.4-0.5,0.3s-0.4-0.3-0.3-0.5c0.1-0.2,0.3-0.4,0.5-0.3
			C53.5,90.1,53.7,90.3,53.6,90.6"/>
	</g>
	<g>
		<path class="st68" d="M53.4,90.5c0,0.1-0.2,0.2-0.3,0.2s-0.2-0.2-0.2-0.3s0.2-0.2,0.3-0.2C53.4,90.2,53.4,90.4,53.4,90.5"/>
	</g>
	<g>
		<path class="st66" d="M48.3,91.9c-0.1,0.1-0.3,0.1-0.6,0c-0.2-0.1-0.4-0.3-0.3-0.4c0.1-0.1,0.3-0.1,0.6,0
			C48.2,91.6,48.4,91.7,48.3,91.9"/>
	</g>
	<g>
		<path class="st67" d="M48.2,91.8c-0.1,0.1-0.3,0.1-0.5,0s-0.3-0.2-0.3-0.3s0.3-0.1,0.5,0C48.2,91.6,48.3,91.7,48.2,91.8"/>
	</g>
	<g>
		<path class="st66" d="M48.2,91.8c-0.1,0.1-0.2,0.1-0.4,0s-0.3-0.2-0.2-0.3s0.2-0.1,0.4,0C48.1,91.6,48.2,91.7,48.2,91.8"/>
	</g>
	<g>
		<path class="st68" d="M48,91.8c0,0.1-0.1,0.1-0.3,0s-0.2-0.1-0.1-0.2c0-0.1,0.1-0.1,0.3,0C48,91.6,48.1,91.7,48,91.8"/>
	</g>
	<g>
		<path class="st69" d="M46.5,78.7c0,0,0.2,0.1,0.3,0.1s0.2,0,0.3,0.1c0.1,0,0.1,0,0.2,0.1c0.1,0,0.1,0.1,0.2,0.1
			c0.1,0.1,0.3,0.1,0.4,0.2c0.1,0,0.2,0.1,0.3,0.2s0.2,0.2,0.3,0.3c0.1,0.2,0.3,0.5,0.3,0.5l0.6,1l0.6,1.1l1.3,1.8l0.8,1
			c0.4,0.4,0.8,0.9,1.2,1.4l0.5,0.5l0.6,0.4c0.6,0.3,1,0.6,1.5,0.9l2.3,1.2l2,0.9l1.8,0.7"/>
	</g>
	<path class="st70" d="M45.9,82.7L45.9,82.7c0-0.2-0.1-0.3-0.1-0.3c0-0.1-0.1-0.2-0.1-0.2s0.5-0.2,0.8-0.3c0.3-0.1,0.6-0.2,0.9-0.3
		c0.3-0.1,0.6-0.1,0.9-0.1c0.2,0,0.6,0.1,0.6,0.1l0.3,0.5l-0.5,0.1l-1.2,0.2L47,82.5l-0.6,0.2L45.9,82.7L45.9,82.7z"/>
	<g>
		<polygon class="st70" points="45.9,82.2 46.8,81.9 47.5,81.7 48.2,81.6 48.9,81.6 49,82 48.1,82.1 47.3,82.3 46.7,82.5 46.3,82.6 
			46.1,82.6 46,82.4 		"/>
	</g>
	<path class="st71" d="M47.1,80.3c0,0,0.1,0.3,0.2,0.4c0.1,0.1,0.2,0.2,0.2,0.4c0.1,0.2,0.1,0.4,0.1,0.5c0,0.2-0.2,0.3-0.2,0.5
		s-0.1,0.4-0.1,0.5c0,0.2,0.1,0.5,0.1,0.8c0,0.5-0.2,1.3-0.3,1.8c0,0.1-0.1,0.3-0.1,0.5c-0.1,0.4-0.3,0.9-0.4,1.3c0,0.3,0,0.6,0,0.9
		c0,0.1,0.1,0.4,0.2,0.4c0.2,0.1,0.5,0.2,0.8,0.2c0.2,0,0.3-0.1,0.4-0.3c0.1-0.1,0.2-0.3,0.2-0.5c0-0.3,0-0.6-0.1-0.9
		c0-0.4-0.1-0.9-0.1-1.3c0-0.2-0.1-0.6-0.1-0.8c0-0.3,0.2-0.7,0.2-1.1c0-0.2,0.1-0.5,0.2-0.7c0-0.1,0-0.2,0.1-0.3
		c0-0.2,0.2-0.4,0.2-0.5c0-0.2,0-0.5,0-0.7c0-0.1,0-0.4,0-0.4L48,80.1c0,0-0.2,0.3-0.2,0.4c-0.1,0.1,0,0.5-0.2,0.5
		c-0.1,0-0.2-0.3-0.3-0.3C47.3,80.6,47.1,80.3,47.1,80.3L47.1,80.3z"/>
	<g>
		<path class="st72" d="M47.5,86c0,0-0.1,0.3-0.1,0.4s-0.1,0.3-0.1,0.4s0,0.3,0,0.4s0,0.3,0,0.4s0.1,0.2,0.1,0.2s0.1-0.1,0.2-0.2
			c0-0.1,0.1-0.2,0.1-0.3c0-0.2,0-0.4,0-0.6c0-0.1,0-0.3,0-0.4C47.6,86.2,47.5,86,47.5,86z"/>
	</g>
	<g>
		
			<linearGradient id="SVGID_6_" gradientUnits="userSpaceOnUse" x1="1725.6151" y1="3993.3538" x2="1734.8302" y2="3993.3538" gradientTransform="matrix(4.121367e-02 4.568727e-03 -7.779453e-03 7.017772e-02 6.8422 -202.851)">
			<stop  offset="0" style="stop-color:#9C9C9C"/>
			<stop  offset="1" style="stop-color:#C5C5C5"/>
		</linearGradient>
		<polygon class="st73" points="46.8,88.1 46.7,87.7 46.6,87 46.9,86 47.1,84.9 47.3,83.9 47.4,83 47.4,82.5 47.6,82.8 47.3,84.7 
			47.1,85.9 46.9,86.9 46.8,87.7 		"/>
	</g>
	<path class="st52" d="M48.5,84.5l-0.4-0.7l0.8-0.3c0.2-0.1,0.6-0.2,0.8-0.2c0.1,0,0.2-0.2,0.3-0.2s0.4,0.6,0.4,0.6S50.1,83.9,50,84
		c-0.2,0.1-0.5,0.3-0.7,0.3C49,84.4,48.5,84.5,48.5,84.5L48.5,84.5z"/>
	<path class="st52" d="M49.6,86.1l-0.5-0.7c0,0,0.6-0.3,0.8-0.4s0.5-0.2,0.7-0.4c0.1,0,0.3-0.2,0.4-0.2c0.1,0,0.5,0.6,0.5,0.6
		c-0.4,0.1-0.8,0.3-1.2,0.5C50.2,85.8,49.6,86.1,49.6,86.1L49.6,86.1z"/>
	<path class="st52" d="M51.1,87.5c0,0-0.3-0.2-0.4-0.3c-0.1-0.1-0.3-0.2-0.3-0.2s0.6-0.3,0.8-0.4s0.4-0.2,0.6-0.3
		c0.1,0,0.6-0.1,0.6-0.1l0.5,0.5c0,0-0.4,0.1-0.6,0.1c-0.1,0-0.3,0.1-0.4,0.2c-0.2,0.1-0.5,0.3-0.7,0.4
		C51.2,87.4,51.1,87.5,51.1,87.5L51.1,87.5z"/>
	<path class="st52" d="M52.9,88.7c0,0-0.3-0.2-0.4-0.3c-0.1-0.1-0.3-0.2-0.3-0.2s0.4-0.4,0.6-0.5c0.2-0.1,0.2-0.1,0.4-0.2
		c0.1-0.1,0.5-0.2,0.5-0.2l0.8,0.5c0,0-0.2,0.1-0.3,0.1c-0.1,0.1-0.3,0-0.4,0.1c-0.2,0.1-0.4,0.2-0.6,0.3
		C53.1,88.3,52.9,88.7,52.9,88.7L52.9,88.7z"/>
	<path class="st52" d="M54.1,89.3c0,0,0.2,0,0.3-0.1c0.2-0.1,0.4-0.1,0.6-0.2c0.1-0.1,0.2-0.2,0.3-0.3c0.1-0.1,0.2-0.2,0.2-0.2
		l0.1-0.2l0.7,0.4c0,0-0.2,0.2-0.3,0.2c-0.1,0.1-0.2,0.2-0.3,0.3c-0.1,0.1-0.2,0.2-0.3,0.2c-0.1,0.1-0.3,0.2-0.5,0.2
		c-0.1,0-0.2,0-0.2,0L54.1,89.3L54.1,89.3z"/>
	<path class="st52" d="M55.9,89c0,0,0,0.1,0,0.2s-0.1,0.1-0.1,0.2s0.1,0.1,0.1,0.2c0.1,0.1,0.3,0.2,0.4,0.3c0.1,0,0.2,0.1,0.3,0.1
		s0.3,0,0.2,0.1c0,0.1-0.2,0-0.3,0s-0.2,0.1-0.3,0.1s-0.1,0.1-0.1,0.1l0.4,0.2l0.4,0.2l0.1-0.1v0.1l0.4,0.2c0,0,0.2-0.2,0.2-0.3
		c0-0.1,0.1-0.2,0.1-0.2c0-0.1-0.1-0.2-0.2-0.2c-0.1-0.1-0.1-0.1-0.2-0.1c-0.1,0-0.2,0-0.3-0.1c-0.1,0-0.2-0.1-0.3-0.1
		s-0.2-0.1-0.2-0.1l-0.1-0.1v-0.1c0,0,0.1-0.1,0-0.2C56.4,89.2,55.9,89.1,55.9,89L55.9,89z"/>
	<path class="st52" d="M57,92.2c0,0,0-0.2,0-0.3c0.1-0.2,0.2-0.4,0.3-0.6s0.3-0.4,0.4-0.6c0.1-0.2,0.2-0.4,0.3-0.5s0.2-0.2,0.3-0.3
		c0.1-0.1,0.2-0.1,0.2-0.1l0.7,0.3c0,0-0.2,0.2-0.3,0.4c-0.1,0.2-0.3,0.5-0.4,0.7c-0.1,0.2-0.2,0.4-0.3,0.5S58,92,57.8,92.2
		c-0.1,0.1-0.1,0.1-0.2,0.2c-0.1,0-0.2,0.1-0.2,0.1s-0.1-0.1-0.2-0.1C57.1,92.3,57,92.2,57,92.2L57,92.2z"/>
	<path class="st52" d="M47,84.6l-0.5-0.2c0,0,0.1-0.2,0.2-0.3c0.1-0.2,0.1-0.4,0.3-0.6c0-0.1,0-0.1,0.1-0.2c0-0.1,0.1-0.2,0.1-0.2
		l0.2-0.2c0,0,0,0.1,0,0.2s0,0.2,0,0.3c0,0.1,0,0.2,0,0.3c0,0.1,0,0.2,0,0.3c0,0.1,0,0.2-0.1,0.3C47.1,84.5,47,84.6,47,84.6L47,84.6
		z"/>
	<path class="st52" d="M47.9,86.2c0,0,0.2-0.6,0.3-0.8c0.1-0.2,0.2-0.4,0.3-0.6s0.2-0.4,0.2-0.5c0.1-0.2,0.2-0.4,0.2-0.6
		s0.1-0.4,0-0.6c0-0.1,0-0.3,0-0.4c-0.1-0.1-0.4-0.3-0.4-0.3l0,0c0,0,0.5,0.2,0.7,0.4c0.1,0.1,0.3,0.2,0.3,0.4c0.1,0.1,0,0.4,0,0.5
		c0,0.2-0.1,0.4-0.1,0.6s0,0.4-0.1,0.6s-0.2,0.4-0.3,0.6s-0.2,0.4-0.3,0.6c-0.1,0.1-0.2,0.3-0.3,0.4S48,86.8,48,86.8L47.9,86.2
		L47.9,86.2z"/>
	<path class="st52" d="M49.2,87.9c0,0,0-0.4,0.1-0.5c0-0.2,0.1-0.4,0.2-0.5c0-0.1,0.1-0.3,0.2-0.4c0.1-0.1,0.1-0.3,0.1-0.5
		s0.1-0.5,0.1-0.7s0.1-0.5,0.1-0.7s0-0.7,0-0.7s0.2,0.2,0.3,0.2c0.1,0.1,0.1,0.2,0.2,0.2c0.1,0.1,0.1,0.2,0.2,0.4
		c0,0.2-0.1,0.5-0.1,0.7s0,0.4-0.1,0.6c0,0.3-0.1,0.6-0.2,0.9c0,0.1-0.1,0.3-0.1,0.5c0,0.1-0.1,0.3-0.2,0.4
		c-0.1,0.1-0.2,0.3-0.2,0.3l-0.2,0.1c0,0,0-0.1-0.1-0.2l-0.1-0.1C49.4,87.9,49.2,87.9,49.2,87.9L49.2,87.9z"/>
	<path class="st52" d="M51,89.3c0,0,0-0.2,0-0.3c0-0.1,0-0.2,0.1-0.4c0-0.2,0.1-0.5,0.2-0.7c0.1-0.3,0.1-0.7,0.1-0.9
		c0-0.3,0.1-0.5,0.1-0.8c0-0.1,0-0.4,0-0.5s-0.1-0.4-0.1-0.4s0.4,0.3,0.4,0.4c0.1,0.1,0.3,0.3,0.4,0.5c0,0.1,0,0.5,0,0.5
		c0,0.3,0,0.3,0,0.6c0,0.2,0,0.5-0.1,0.6c0,0.2-0.1,0.4-0.1,0.5c0,0.2-0.1,0.5-0.1,0.7c0,0.1-0.1,0.3-0.1,0.3l-0.2,0.1
		c0,0-0.1-0.1-0.1-0.2l-0.1-0.1C51.2,89.2,51,89.3,51,89.3L51,89.3z"/>
	<path class="st52" d="M52.9,90.4c0,0,0-0.3,0-0.4s0-0.2,0-0.2c0-0.1,0-0.2,0-0.2c0-0.2,0.1-0.3,0.1-0.4s0.1-0.3,0.2-0.4
		c0-0.1,0.1-0.3,0.1-0.4s-0.1-0.2-0.1-0.3c0-0.1,0-0.2,0-0.3c0-0.1-0.2-0.3-0.2-0.3s0.4,0.1,0.5,0.1c0.2,0.1,0.2,0.2,0.3,0.4
		c0.1,0.1,0.1,0.2,0.1,0.3c0,0.1,0,0.3,0,0.5c0,0.1,0,0.2-0.1,0.3c0,0.1-0.1,0.2-0.2,0.3c0,0.1-0.1,0.2-0.1,0.3c0,0.1,0,0.2,0,0.3
		c0,0.1,0,0.2,0,0.2c0,0.1,0,0.2,0,0.3c0,0.1-0.1,0.1-0.1,0.2h-0.1c0,0,0-0.1-0.1-0.1l-0.1-0.1C53.1,90.4,52.9,90.4,52.9,90.4
		L52.9,90.4z"/>
	<path class="st52" d="M54.9,91.5c0,0-0.1-0.2-0.1-0.3c0-0.1,0-0.3,0-0.5c0-0.1,0-0.2,0-0.3c0-0.1,0-0.2,0-0.2c0-0.1,0-0.2,0-0.3
		c0-0.1,0-0.3-0.1-0.4c0-0.1-0.1-0.2-0.1-0.3c0-0.1-0.1-0.1-0.1-0.2s0.1-0.1,0-0.2c0-0.1-0.1-0.1-0.2-0.2c-0.1-0.1-0.2-0.1-0.2-0.2
		S54,88.2,54,88.2s0.2,0.1,0.3,0.1s0.2,0,0.2,0c0.1,0,0.3,0,0.3,0c0.1,0,0.1,0,0.2,0.1c0.1,0,0.1,0.1,0.1,0.2s0.1,0.2,0.1,0.2
		c0,0.1,0.1,0.2,0.1,0.3c0,0.1,0.1,0.2,0.1,0.3c0,0.1,0,0.2,0,0.3c0,0.1,0.1,0.3,0.1,0.4s0,0.2,0,0.3c0,0.1,0,0.3,0,0.4s0,0.3,0,0.4
		s0,0.2,0,0.2l-0.2,0.2v-0.1l-0.1-0.1c0,0-0.1,0-0.2,0C55,91.4,54.9,91.5,54.9,91.5L54.9,91.5z"/>
	<g>
		
			<radialGradient id="SVGID_7_" cx="-7795.0645" cy="0.202" r="12.776" gradientTransform="matrix(1.422935e-02 -3.751528e-02 0.2143 8.128393e-02 168.126 -202.5617)" gradientUnits="userSpaceOnUse">
			<stop  offset="0" style="stop-color:#353535"/>
			<stop  offset="1" style="stop-color:#000000;stop-opacity:0"/>
		</radialGradient>
		<path class="st74" d="M56.4,89.3c0,0,0,0.1-0.1,0.1v0.1c0,0,0,0.1,0.1,0.1c0.1,0.1,0.2,0.1,0.3,0.1s0.2,0.1,0.2,0.1
			c0.1,0,0.1,0,0.2,0c0.1,0,0.1,0.1,0.2,0.1l0.1,0.1c0,0.1,0.1,0.2,0.1,0.2v0.1l0.1-0.2l0.1-0.1c0,0,0.1,0,0.2,0l0.1-0.1l-0.5-0.2
			c-0.1,0-0.3-0.1-0.4-0.2c-0.1-0.1-0.3-0.1-0.4-0.2C56.7,89.4,56.4,89.3,56.4,89.3z"/>
	</g>
	<path class="st52" d="M57.6,90.4l0.1,0.1v0.1l-0.2,0.3l-0.2-0.1L57.6,90.4L57.6,90.4L57.6,90.4z"/>
	
		<radialGradient id="SVGID_8_" cx="1438.22" cy="143.7944" r="2.5291" gradientTransform="matrix(8.664014e-02 2.783925e-02 -0.1105 0.3438 -50.868 0.9867)" gradientUnits="userSpaceOnUse">
		<stop  offset="0" style="stop-color:#FCFFFF"/>
		<stop  offset="1" style="stop-color:#FCFFFF;stop-opacity:0"/>
	</radialGradient>
	<path class="st75" d="M57.7,90.6C57.7,90.5,57.7,90.5,57.7,90.6c-0.1-0.1,0-0.2,0-0.3c0,0,0-0.1,0.1-0.1l0.1-0.1c0,0,0,0,0.1,0h0.1
		c0,0-0.1,0.2-0.2,0.2C57.9,90.5,57.8,90.5,57.7,90.6C57.8,90.6,57.7,90.7,57.7,90.6L57.7,90.6L57.7,90.6z"/>
	<g>
		<path class="st66" d="M50.5,92.4c-0.1,0.2-0.4,0.2-0.6,0.1s-0.3-0.4-0.2-0.6s0.4-0.2,0.6-0.1C50.5,92,50.6,92.2,50.5,92.4"/>
	</g>
	<g>
		<path class="st67" d="M50.4,92.4c-0.1,0.2-0.3,0.2-0.5,0.1s-0.3-0.3-0.2-0.5s0.3-0.2,0.5-0.1S50.5,92.2,50.4,92.4"/>
	</g>
	<g>
		<path class="st66" d="M50.4,92.3c-0.1,0.1-0.3,0.2-0.5,0.1s-0.2-0.3-0.1-0.4c0.1-0.1,0.3-0.2,0.5-0.1C50.4,92,50.5,92.2,50.4,92.3
			"/>
	</g>
	<g>
		<path class="st68" d="M50.2,92.3c-0.1,0.1-0.2,0.1-0.3,0s-0.1-0.2-0.1-0.3c0.1-0.1,0.2-0.1,0.3,0C50.2,92.1,50.3,92.2,50.2,92.3"
			/>
	</g>
	<g>
		
			<radialGradient id="SVGID_9_" cx="1951.9736" cy="1677.9066" r="14.066" gradientTransform="matrix(8.397076e-02 4.209134e-02 -5.436097e-02 0.1065 -12.9969 -170.0811)" gradientUnits="userSpaceOnUse">
			<stop  offset="0" style="stop-color:#222C2C"/>
			<stop  offset="1" style="stop-color:#101414"/>
		</radialGradient>
		<path class="st76" d="M58.7,90.8c0,0,0.4,0.1,0.5,0.1c0.2,0,0.4,0.1,0.5,0.1s0.3,0,0.4,0c0.2,0,0.5,0,0.5,0s-0.3-0.1-0.5-0.2
			s-0.5-0.1-0.7-0.2c-0.1,0-0.3-0.2-0.4-0.2c-0.1,0-0.2-0.1-0.2-0.1s-0.1,0.1-0.1,0.2C58.8,90.7,58.7,90.8,58.7,90.8z"/>
	</g>
	<g>
		
			<linearGradient id="SVGID_10_" gradientUnits="userSpaceOnUse" x1="1214.8469" y1="4176.3823" x2="1214.1368" y2="4180.8022" gradientTransform="matrix(7.017772e-02 7.779453e-03 -7.779453e-03 7.017772e-02 3.3926 -213.1181)">
			<stop  offset="0" style="stop-color:#7F9096"/>
			<stop  offset="1" style="stop-color:#7F9096;stop-opacity:0"/>
		</linearGradient>
		<path class="st77" d="M56.5,89.7c0,0-0.2,0-0.3-0.1c-0.1,0-0.2,0-0.3-0.1c-0.1,0-0.1-0.1-0.1-0.2v-0.1l0.1-0.1V89v-0.1l0.2,0.1
			c0.1,0,0.1,0.1,0.2,0.1l0.1,0.1l-0.1,0.1v0.1C56.5,89.6,56.5,89.7,56.5,89.7z"/>
	</g>
	<g>
		
			<linearGradient id="SVGID_11_" gradientUnits="userSpaceOnUse" x1="1215.4667" y1="4180.1768" x2="1212.8567" y2="4194.1465" gradientTransform="matrix(7.017772e-02 7.779453e-03 -7.779453e-03 7.017772e-02 3.3926 -213.1181)">
			<stop  offset="0" style="stop-color:#2E3131"/>
			<stop  offset="1" style="stop-color:#2E3131;stop-opacity:0"/>
		</linearGradient>
		<path class="st78" d="M56.7,90.1c-0.1,0-0.3-0.1-0.5-0.1c-0.1,0-0.2,0-0.3,0s-0.2,0-0.2,0s0-0.1,0-0.2s0-0.2,0-0.2
			c0-0.1,0-0.1,0-0.2l-0.1-0.1c0,0,0.2-0.1,0.3-0.2c0,0,0,0,0.1,0l0,0v0.1l-0.1,0.1v0.1c0,0.1,0.1,0.1,0.2,0.2
			c0.1,0.1,0.2,0.1,0.3,0.2c0.1,0,0.2,0.1,0.2,0.1h0.1h0.1l0,0C56.8,89.9,56.8,89.9,56.7,90.1C56.8,90.1,56.7,90.1,56.7,90.1z"/>
	</g>
	<g>
		
			<linearGradient id="SVGID_12_" gradientUnits="userSpaceOnUse" x1="1189.9835" y1="4165.0034" x2="1197.5236" y2="4168.2231" gradientTransform="matrix(7.017772e-02 7.779453e-03 -7.779453e-03 7.017772e-02 3.3926 -213.1181)">
			<stop  offset="0" style="stop-color:#939B9D"/>
			<stop  offset="1" style="stop-color:#C1CBCE;stop-opacity:0"/>
		</linearGradient>
		<path class="st79" d="M54.6,88.8c0.1,0,0.1-0.1,0.2-0.1c0,0,0.1-0.1,0.1-0.2s0-0.2-0.1-0.2s-0.2,0-0.2,0s-0.1,0-0.2,0
			c-0.1,0-0.3-0.1-0.3-0.1s0.1,0.2,0.2,0.3c0.1,0.1,0.1,0.1,0.2,0.2C54.4,88.6,54.5,88.7,54.6,88.8C54.6,88.7,54.6,88.8,54.6,88.8z"
			/>
	</g>
	<g>
		
			<linearGradient id="SVGID_13_" gradientUnits="userSpaceOnUse" x1="1179.9388" y1="4163.2861" x2="1203.209" y2="4163.2861" gradientTransform="matrix(7.017772e-02 7.779453e-03 -7.779453e-03 7.017772e-02 3.3926 -213.1181)">
			<stop  offset="0" style="stop-color:#243030"/>
			<stop  offset="1" style="stop-color:#243030;stop-opacity:0"/>
		</linearGradient>
		<path class="st80" d="M54.6,88.8c0,0-0.3-0.2-0.4-0.3c-0.1,0-0.1-0.1-0.1-0.2L54,88.2v-0.1L53.9,88c0,0,0.2-0.2,0.3-0.2
			s0.2,0,0.2,0.1c0.1,0.1,0.2,0.1,0.2,0.1c0.1,0,0.2,0.1,0.2,0.1l0.1,0.1h-0.3c-0.1,0-0.2,0-0.3-0.1c-0.1,0-0.1-0.1-0.2-0.1L54,87.9
			c0,0,0,0.1,0.1,0.2c0,0.1,0.1,0.1,0.1,0.2l0.1,0.1l0.1,0.1C54.5,88.7,54.6,88.7,54.6,88.8C54.6,88.7,54.6,88.8,54.6,88.8z"/>
	</g>
	<g>
		
			<linearGradient id="SVGID_14_" gradientUnits="userSpaceOnUse" x1="1154.86" y1="4151.2305" x2="1186.91" y2="4146.2402" gradientTransform="matrix(7.017772e-02 7.779453e-03 -7.779453e-03 7.017772e-02 3.3926 -213.1181)">
			<stop  offset="0" style="stop-color:#151C1C"/>
			<stop  offset="1" style="stop-color:#243030;stop-opacity:0"/>
		</linearGradient>
		<path class="st81" d="M52.3,86.9l0.4-0.1c0,0,0.1,0.1,0.2,0.2c0.1,0.1,0.2,0.2,0.3,0.3c0.1,0.1,0.3,0.1,0.3,0.1l-0.1,0.1
			c0,0-0.2,0-0.3,0s-0.2-0.1-0.3-0.2C52.5,87.1,52.3,86.9,52.3,86.9z"/>
	</g>
	<g class="st82">
		
			<radialGradient id="SVGID_15_" cx="482.3821" cy="175.2952" r="10.765" gradientTransform="matrix(0.1841 6.944226e-02 -0.111 0.2944 -22.8337 -1.8094)" gradientUnits="userSpaceOnUse">
			<stop  offset="0" style="stop-color:#1A2926"/>
			<stop  offset="1" style="stop-color:#1A2926;stop-opacity:0"/>
		</radialGradient>
		<polygon class="st83" points="46.3,82.9 46.5,82.7 47.2,82.4 47.3,82.9 47,83.3 46.8,83.9 46.4,84 46.2,84.2 45.8,83.8 45.7,83.3 
			45.8,83.1 46.1,83.1 		"/>
	</g>
	<g>
		
			<linearGradient id="SVGID_16_" gradientUnits="userSpaceOnUse" x1="1104.077" y1="4112.4106" x2="1097.587" y2="4109.8105" gradientTransform="matrix(7.017772e-02 7.779453e-03 -7.779453e-03 7.017772e-02 3.3926 -213.1181)">
			<stop  offset="0" style="stop-color:#B0BBB7"/>
			<stop  offset="1" style="stop-color:#B0BBB7;stop-opacity:0"/>
		</linearGradient>
		<path class="st84" d="M48.7,84.4c0,0,0.1-0.3,0.2-0.4c0-0.1,0.1-0.2,0.1-0.3c0-0.1,0-0.2,0-0.2s-0.1,0.1-0.2,0.1v0.1
			c0,0.1-0.1,0.1-0.1,0.2s-0.1,0.2-0.1,0.2v0.1l-0.1,0.1v0.2L48.7,84.4C48.6,84.5,48.7,84.4,48.7,84.4z"/>
	</g>
	<g>
		
			<linearGradient id="SVGID_17_" gradientUnits="userSpaceOnUse" x1="1849.788" y1="4059.1099" x2="1843.2909" y2="4056.5098" gradientTransform="matrix(3.547126e-02 1.766803e-03 -5.917049e-03 7.032731e-02 8.291 -203.0652)">
			<stop  offset="0" style="stop-color:#B0BBB7"/>
			<stop  offset="1" style="stop-color:#B0BBB7;stop-opacity:0"/>
		</linearGradient>
		<path class="st85" d="M49.8,85.9c0,0,0.1-0.3,0.1-0.4s0-0.2,0-0.3c0-0.1,0-0.2,0-0.2l-0.1,0.1v0.1c0,0.1,0,0.1-0.1,0.2
			c0,0.1-0.1,0.2-0.1,0.2v0.1l-0.1,0.1c0,0.1,0,0.2,0,0.2h0.1C49.7,86.1,49.8,85.9,49.8,85.9z"/>
	</g>
	<g>
		
			<linearGradient id="SVGID_18_" gradientUnits="userSpaceOnUse" x1="901.289" y1="4822.5566" x2="894.7919" y2="4819.9565" gradientTransform="matrix(3.547446e-02 -1.334402e-03 9.167215e-04 6.167210e-02 14.9845 -209.3311)">
			<stop  offset="0" style="stop-color:#B0BBB7"/>
			<stop  offset="1" style="stop-color:#B0BBB7;stop-opacity:0"/>
		</linearGradient>
		<path class="st86" d="M51.3,87.2c0,0,0.1-0.3,0.1-0.4s0-0.2,0-0.3c0-0.1,0-0.2,0-0.2l-0.1,0.1v0.1c0,0.1,0,0.1,0,0.2
			s0,0.1-0.1,0.2V87l-0.1,0.1v0.2h0.1C51.3,87.4,51.3,87.2,51.3,87.2z"/>
	</g>
	<g>
		
			<radialGradient id="SVGID_19_" cx="325.3108" cy="990.2493" r="4.4487" gradientTransform="matrix(0.1803 2.663232e-02 -3.277511e-02 0.1902 27.3184 -108.8603)" gradientUnits="userSpaceOnUse">
			<stop  offset="0" style="stop-color:#A7B0AD"/>
			<stop  offset="1" style="stop-color:#BEC8C5;stop-opacity:0"/>
		</radialGradient>
		<polygon class="st87" points="53.2,88.3 53.5,88 53.8,87.9 53.8,88.1 53.6,88.2 53.3,88.3 53.2,88.4 		"/>
	</g>
	<g class="st88">
		
			<linearGradient id="SVGID_20_" gradientUnits="userSpaceOnUse" x1="1007.3234" y1="3684.8096" x2="1012.3134" y2="3684.0996" gradientTransform="matrix(7.017772e-02 7.779453e-03 -8.416814e-03 7.593052e-02 17.2234 -197.3239)">
			<stop  offset="0" style="stop-color:#B3BBB8"/>
			<stop  offset="1" style="stop-color:#B3BBB8;stop-opacity:0"/>
		</linearGradient>
		<path class="st89" d="M56.9,90c0,0,0.1,0,0.1,0.1l0.1,0.1c0,0,0,0.1,0,0.2v0.1L57,90.6h-0.1c0,0,0.1-0.1,0.1-0.2v-0.1
			c0,0,0-0.1-0.1-0.1C56.9,90.1,56.8,90.1,56.9,90C56.8,90.1,56.9,90,56.9,90z"/>
	</g>
	<g class="st90">
		<path class="st91" d="M48.4,91.6c0.1-0.2,0.5-0.1,0.7,0c0.2,0,0.4,0.1,0.6,0.1c0.2,0,0.6-0.2,0.6,0s-0.5,0-0.7,0.1
			c-0.1,0.1-0.1,0.2-0.1,0.3c0,0.1,0,0.2,0.1,0.3c0.1,0.1,0.3,0.1,0.3,0.2c-0.1,0.2-0.5-0.1-0.7-0.2c-0.1,0-0.2-0.1-0.3-0.1
			c-0.2,0-0.4,0-0.5-0.1c-0.1,0-0.2-0.1-0.2-0.2s0.3,0,0.4,0l0.1-0.1C48.5,91.8,48.3,91.7,48.4,91.6L48.4,91.6z"/>
	</g>
	<path class="st92" d="M38.3,92.6c0,0,0-0.5,0-0.7c0-0.1,0-0.3,0-0.5c0-0.1-0.1-0.3-0.1-0.4s0-0.2,0.1-0.2c0-0.1,0.1-0.1,0.1-0.2
		s-0.1-0.2-0.1-0.2c0-0.1-0.1-0.2-0.1-0.2s-0.1,0.2-0.1,0.3c0,0.1,0,0.2,0,0.2c0,0.2,0,0.4,0,0.5s0,0.2,0,0.3c0,0.2-0.1,0.1,0,0.7
		c0,0.1,0,0.2,0.1,0.3C38.1,92.4,38.3,92.6,38.3,92.6L38.3,92.6z"/>
	<g>
		
			<radialGradient id="SVGID_21_" cx="-13.7463" cy="-305.882" r="1.9505" gradientTransform="matrix(0.4353 0.5656 -0.3408 0.2623 -60.0053 179.5533)" gradientUnits="userSpaceOnUse">
			<stop  offset="0" style="stop-color:#979797"/>
			<stop  offset="1" style="stop-color:#787878;stop-opacity:0"/>
		</radialGradient>
		<polyline class="st93" points="38.3,92.6 38.3,92.2 38.3,91.9 38.2,91.5 38.2,91.3 38.2,91.1 38.2,90.9 38.2,90.8 38.3,90.6 
			38.4,90.6 38.4,90.5 		"/>
	</g>
	
		<radialGradient id="SVGID_22_" cx="258.1582" cy="-234.8549" r="0.7526" gradientTransform="matrix(0.1217 1.348722e-02 -7.833773e-02 0.7067 -11.8575 253.7636)" gradientUnits="userSpaceOnUse">
		<stop  offset="0" style="stop-color:#979797"/>
		<stop  offset="1" style="stop-color:#787878;stop-opacity:0"/>
	</radialGradient>
	<path class="st94" d="M38,91.8v-0.3v-0.2V91v-0.2"/>
	<g class="st95">
		
			<radialGradient id="SVGID_23_" cx="773.0602" cy="3155.4807" r="2.2387" gradientTransform="matrix(7.017772e-02 7.779453e-03 -9.539166e-03 8.605192e-02 14.0791 -187.215)" gradientUnits="userSpaceOnUse">
			<stop  offset="0" style="stop-color:#979797"/>
			<stop  offset="1" style="stop-color:#787878;stop-opacity:0"/>
		</radialGradient>
		<polyline class="st96" points="38.4,90.5 38.3,90.3 38.2,90.2 38.1,90.1 		"/>
	</g>
	<g>
		
			<linearGradient id="SVGID_24_" gradientUnits="userSpaceOnUse" x1="1244.5696" y1="4227.7119" x2="1269.6896" y2="4227.7119" gradientTransform="matrix(7.017772e-02 7.779453e-03 -7.779453e-03 7.017772e-02 3.3926 -213.1181)">
			<stop  offset="0" style="stop-color:#234141"/>
			<stop  offset="1" style="stop-color:#234141;stop-opacity:0"/>
		</linearGradient>
		<polyline class="st97" points="57.8,93.7 58.7,93.3 59.2,93.2 59.6,93 		"/>
		<polyline class="st62" points="57.8,93.7 58.7,93.3 59.2,93.2 59.6,93 		"/>
	</g>
	<g>
		
			<linearGradient id="SVGID_25_" gradientUnits="userSpaceOnUse" x1="1384.4424" y1="5682.0635" x2="1409.5625" y2="5682.0635" gradientTransform="matrix(5.763850e-02 6.389450e-03 -6.389450e-03 5.763850e-02 14.5412 -242.8475)">
			<stop  offset="0" style="stop-color:#234141"/>
			<stop  offset="1" style="stop-color:#234141;stop-opacity:0"/>
		</linearGradient>
		<polyline class="st98" points="58.3,93.8 58.7,93.7 59.1,93.6 59.5,93.4 		"/>
		<polyline class="st99" points="58.3,93.8 58.7,93.7 59.1,93.6 59.5,93.4 		"/>
	</g>
	<g>
		<polyline class="st62" points="57.8,93.7 57.8,94 57.8,94.2 57.9,94.9 		"/>
	</g>
	<g>
		<polyline class="st62" points="58.2,93.8 58.2,94.1 58.2,94.3 58.3,94.9 		"/>
	</g>
	
		<linearGradient id="SVGID_26_" gradientUnits="userSpaceOnUse" x1="1341.1959" y1="4204.2031" x2="1342.4359" y2="4201.4131" gradientTransform="matrix(7.017772e-02 7.779453e-03 -7.779453e-03 7.017772e-02 3.3926 -213.1181)">
		<stop  offset="0" style="stop-color:#353535"/>
		<stop  offset="1" style="stop-color:#000000;stop-opacity:0"/>
	</linearGradient>
	<path class="st100" d="M65.2,92.5c0,0,0-0.1-0.1-0.2l-0.2-0.2c-0.1-0.1-0.3-0.2-0.3-0.2"/>
	<g>
		<path class="st66" d="M57.8,92.4c-0.1,0.3-0.4,0.5-0.7,0.4s-0.5-0.4-0.5-0.7c0.1-0.3,0.4-0.5,0.7-0.4
			C57.7,91.8,57.9,92.1,57.8,92.4"/>
	</g>
	<g>
		<path class="st67" d="M57.7,92.4c-0.1,0.3-0.3,0.4-0.6,0.4c-0.3-0.1-0.4-0.3-0.4-0.6s0.3-0.4,0.6-0.4
			C57.6,91.9,57.8,92.1,57.7,92.4"/>
	</g>
	<g>
		<path class="st66" d="M57.7,92.4c-0.1,0.2-0.3,0.4-0.5,0.3s-0.4-0.3-0.3-0.5c0.1-0.2,0.3-0.4,0.5-0.3
			C57.6,91.9,57.7,92.1,57.7,92.4"/>
	</g>
	<g>
		<path class="st68" d="M57.5,92.3c0,0.1-0.2,0.2-0.3,0.2S57,92.3,57,92.2c0-0.1,0.2-0.2,0.3-0.2C57.4,92.1,57.5,92.2,57.5,92.3"/>
	</g>
	<g>
		<path class="st68" d="M55.4,91.6c0,0.1-0.2,0.2-0.3,0.2s-0.2-0.2-0.2-0.3c0-0.1,0.2-0.2,0.3-0.2C55.4,91.3,55.5,91.4,55.4,91.6"/>
	</g>
	<g>
		
			<radialGradient id="SVGID_27_" cx="215.6745" cy="10509.1211" r="33.278" gradientTransform="matrix(0.1969 -3.948749e-03 6.280065e-04 3.131163e-02 13.5597 -234.376)" gradientUnits="userSpaceOnUse">
			<stop  offset="0" style="stop-color:#D6D9D9"/>
			<stop  offset="1" style="stop-color:#E0E3E3;stop-opacity:0"/>
		</radialGradient>
		<polygon class="st101" points="60.4,94.6 62,94.4 63.7,94 64.6,93.5 65,93.1 64,93 62.4,93.1 61,93.3 60.2,93.7 60.3,94.2 		"/>
	</g>
	<path class="st102" d="M55.4,97.5c0,0-0.1-0.6-0.1-0.9c0-0.2-0.1-0.5-0.1-0.7s-0.1-0.4-0.1-0.5s0-0.3,0-0.3s1.5,0.1,2.1,0.2
		c0.2,0,0.5,0,0.6,0c0.4,0,1,0,1.5-0.1c0.5,0,1.2-0.1,1.8-0.2c0.5-0.1,1.1-0.2,1.6-0.3c0.5-0.1,1.1-0.3,1.6-0.5
		c0.2-0.1,0.4-0.2,0.6-0.3c0.1-0.1,0.3-0.2,0.4-0.3c0.1-0.1,0.1-0.2,0.1-0.3c0-0.1,0-0.2,0-0.3c0-0.2-0.1-0.5-0.1-0.6
		c-0.1-0.1-0.3-0.3-0.3-0.3s0.4,0.3,0.5,0.4s0.3,0.5,0.3,0.7c0.1,0.3,0.4,1.2,0.4,1.5s0,0.2,0,0.6c0,0.3-0.2,0.7-0.2,0.7
		s-0.2,0.2-0.4,0.3c-0.1,0.1-0.5,0.2-0.6,0.3c-0.3,0.1-0.7,0.3-1,0.4c-0.4,0.1-0.9,0.2-1.3,0.3c-0.5,0.1-1.1,0.2-1.6,0.2
		c-0.5,0.1-1.1,0.1-1.6,0.2c-0.4,0-0.8,0.1-1.2,0.1s-0.9,0-1.3,0c-0.3,0-0.7,0-1-0.1C55.7,97.6,55.4,97.5,55.4,97.5L55.4,97.5z"/>
	<g>
		<path class="st103" d="M55.2,95.5c0,0,0.9,0.1,1.2,0.1c0.4,0,0.9,0.1,1.3,0.1c0.4,0,1,0,1.5-0.1c0.6,0,1.4-0.1,2-0.2
			c0.4-0.1,1-0.2,1.4-0.3c0.3-0.1,0.8-0.2,1.1-0.3c0.3-0.1,0.7-0.2,1-0.4c0.2-0.1,0.4-0.2,0.6-0.4c0.1-0.1,0.2-0.2,0.3-0.3
			c0.1-0.1,0.1-0.2,0.2-0.3c0-0.1,0.1-0.1,0.1-0.1"/>
	</g>
	<g>
		
			<linearGradient id="SVGID_28_" gradientUnits="userSpaceOnUse" x1="1086.7361" y1="4007.4719" x2="1097.5762" y2="4004.7917" gradientTransform="matrix(6.641851e-02 7.362733e-03 -7.918414e-03 7.143132e-02 14.5188 -197.9175)">
			<stop  offset="0" style="stop-color:#B1C7C9"/>
			<stop  offset="1" style="stop-color:#535D5E;stop-opacity:0"/>
		</linearGradient>
		<polygon class="st104" points="55.4,97.5 55.1,97.3 55.1,96.4 55,95.7 55.1,95.1 55.2,95.7 55.3,96.6 55.3,97.2 		"/>
	</g>
	<g>
		<path class="st105" d="M55.1,95.1c0,0,0.5,0.1,0.7,0.1c0.3,0,0.8,0.1,1.1,0.1c0.4,0,1,0.1,1.4,0.1s0.9,0,1.3-0.1
			c0.3,0,0.7-0.1,0.9-0.1c0.4,0,0.8-0.1,1.2-0.2c0.5-0.1,1-0.2,1.5-0.4c0.3-0.1,0.9-0.3,0.9-0.3l0,0"/>
	</g>
	<g>
		<path class="st106" d="M64,94.4c0,0,0.3-0.1,0.4-0.2c0.1-0.1,0.3-0.2,0.4-0.3c0.1-0.1,0.3-0.2,0.3-0.3c0-0.1,0.1-0.2,0.1-0.3
			c0-0.1,0-0.3,0-0.4s0-0.2,0-0.3l-0.1-0.2"/>
	</g>
	<g>
		<path class="st107" d="M55.3,96.5c0,0,0.8,0.1,1.1,0.1s0.8,0.1,1.1,0.1c0.4,0,0.9,0,1.4,0s1.1-0.1,1.5-0.1c0.4-0.1,1-0.1,1.5-0.2
			c0.4-0.1,0.8-0.1,1.2-0.2s0.9-0.2,1.2-0.4c0.2-0.1,0.5-0.2,0.7-0.4c0.1-0.1,0.3-0.2,0.4-0.3c0,0,0.2-0.2,0.4-0.4
			c0.1-0.1,0.1-0.2,0.1-0.2"/>
	</g>
	<g class="st108">
		<polyline class="st49" points="38.4,88.8 38.4,88 38.5,87.6 38.7,87.1 38.8,86.6 38.9,86.2 39.1,85.8 39.2,85.4 39.4,85.2 
			39.6,85 39.7,84.8 39.8,84.5 39.7,84.3 39.7,84.5 		"/>
	</g>
	<g>
		<path class="st109" d="M42.8,81L42.8,81c0.1-0.3,0.4-0.5,0.5-0.7c0.2-0.2,0.4-0.5,0.6-0.7c0.1-0.1,0.4-0.3,0.5-0.4
			s0.3-0.3,0.4-0.4c0.1-0.1,0.3-0.4,0.5-0.4c0.1,0,0.2,0.2,0.2,0.3c0,0.2-0.2,0.3-0.4,0.4c-0.2,0.2-0.4,0.4-0.6,0.6
			c-0.2,0.2-0.5,0.5-0.7,0.7s-0.3,0.7-0.6,0.8C43.2,81,42.9,81,42.8,81L42.8,81z"/>
	</g>
	<g transform="matrix(.085989 0 0 .085989 220.73 437.24)">
		<g transform="matrix(-.59219 0 0 .59219 1087 255.12)">
			<path class="st110" d="M4136-7418.5c21.1-18.3,43.9-16.9,66.2-21c-18.6,12.6-37.3,25.2-58.9,33.9
				C4135.1-7410.5,4136.1-7414.5,4136-7418.5L4136-7418.5z"/>
			<path class="st111" d="M4144.1-7424.6c11.9,4.1,24.3,0.9,36.7-0.7"/>
			<path class="st111" d="M4167.7-7434.1c11.9,4.1,14.4,1.7,26.8,0.2"/>
			<path class="st110" d="M4526.4-7319.7c28.4-5.2,77.6-28.4,85.3-15.6c-20.4,16.5-42.7,31.8-70.2,43.8
				C4534.7-7297,4527-7307.9,4526.4-7319.7L4526.4-7319.7z"/>
			<path class="st111" d="M4526.4-7319.3c12.6,21.5,23.5,2.6,33.6,18.6"/>
			<path class="st111" d="M4550.1-7326.3c12.6,21.5,23.5,2.6,33.6,18.6"/>
			<path class="st111" d="M4572.4-7333.2c12.6,21.5,23.5,2.6,33.6,18.6"/>
			<path class="st111" d="M4591-7337.8c1.6,19.6,7.2,10.7,10.3,14.5"/>
			<path class="st110" d="M4291.7-7148.9c94.2-39.7,171.6-74,282.7-107.4c34.9-13,41.3-75.5,37.1-79
				C4506.1-7270,4401.1-7203.9,4291.7-7148.9L4291.7-7148.9z"/>
			<path class="st112" d="M4593.5-7321.7c9.8,5.1,8.6,16.7,12.9,25.1"/>
			<path class="st112" d="M4578.3-7311c9.8,5.1,19.3,25.1,17.6,36.1"/>
			<path class="st112" d="M4560.5-7301.1c9.8,5.1,25.1,28.1,23.4,39.1"/>
			<path class="st112" d="M4538.6-7290.6c9.8,5.1,29.2,25.3,27.5,36.3"/>
			<path class="st112" d="M4516.7-7276.2c9.8,5.1,21.9,14.4,29,28.5"/>
			<path class="st112" d="M4490.7-7260.6c8.5,3.4,21.9,7.3,29,21.5"/>
			<path class="st112" d="M4460-7242.3c5.3,0.6,24.7-0.7,32.4,12.2"/>
			<path class="st112" d="M4421-7219.1c5.3,0.6,24.3-9.9,43.1-0.6"/>
			<path class="st112" d="M4380.6-7196.2c5.3,0.6,31.1-13.1,44-8.2"/>
			<path class="st110" d="M4129-7152.8c-65.9,12.4-128.6,68.5-74.2,75.8c130.9,2.8,332.1-120.2,486.4-214.8
				c2.6-14.2-137.3,101.5-409.8,150L4129-7152.8z"/>
			<path class="st112" d="M4144.8-7144.6c-36.3,52.8,15.4,24,44.2,39.9"/>
			<path class="st112" d="M4158.4-7146.9c-14.4,37.8,28,15.7,56.9,31.6"/>
			<path class="st112" d="M4179.7-7151.6c-3.1,26.2,33.7,9,62.5,24.9"/>
			<path class="st112" d="M4204.6-7156.9c7.2,17.8,43-1.3,71.8,14.6"/>
			<path class="st112" d="M4232.9-7164.6c35.8,13.2,82.2-5.6,95.5-3"/>
			<path class="st112" d="M4130.8-7142.3c-36.3,52.8-16.5,47.6,21.6,48.5"/>
			<path class="st112" d="M4131-7142.3c-47.9,45.7-45.1,48.1-15.3,59.1"/>
			<path class="st112" d="M4267.4-7173.2c50.5,3.9,69.3-9.9,82.5-7.4"/>
			<path class="st112" d="M4298.1-7183.2c53.8,0.9,51.3-10.6,76.5-10"/>
			<path class="st112" d="M4329.4-7194.2c22.5,0.9,30.7-5.6,55.9-5"/>
			<path class="st112" d="M4355.3-7203.5c22.5,0.9,28-1.6,45.6-5.4"/>
			<path class="st112" d="M4381.5-7213.4c15.5,4.9,24.4-5.3,38.3-5.4"/>
			<path class="st112" d="M4406.8-7224.8c15.5,4.9,16.7-4.9,30.6-5"/>
			<path class="st112" d="M4446.1-7242c0.9,1.2,6.7,2,10.3,1.3"/>
			<path class="st112" d="M4100.8-7112c-4.7,5-30,24-2.8,31.7"/>
			<path class="st112" d="M4099.1-7110.3c-4.7,5-38.9,18.8-16.6,32.2"/>
			<path class="st112" d="M4099.1-7110.2c-6.6,1.9-53.3,16.7-41,32.8"/>
			<path class="st112" d="M4069.5-7097.8c-6.6,1.9-32.4,6.4-27.6,17.2"/>
			<path class="st112" d="M4086-7105.6c-18.5,6.9-51.3-1.7-51.7,15.3"/>
			<path class="st112" d="M4102.4-7113.1c-24.8,2.6-51.7-0.6-61.4,6.7"/>
			<path class="st112" d="M4109.2-7121.9c-30.5-2.3-54.1,0.7-60,6.9"/>
			<path class="st112" d="M4115.7-7128.5c-15.4-5.9-44.8-3.3-51.6,1.9"/>
			<path class="st112" d="M4118.9-7130.9c-9.8-10-29.7-10.6-37.5-5.5"/>
			<path class="st112" d="M4126.6-7138.9c-7.3-5.2-15.4-7.5-22.8-6.8"/>
			<path class="st112" d="M4130.6-7142.3c-2.5-4.8-9.3-7.3-14.5-7.3"/>
			<path class="st110" d="M4541.1-7291.8c-30.3-57.1-62-148-92.3-171.4c-44.6-48.4-107.6-34.2-172.9-7.9
				c-50,19.2-83.4,34.5-119.2,56.1c-15.2,9.6-16.8,0-18.9-4.7c-17.5,6-22.1,219.3-6.3,278
				C4266.3-7166.9,4404.1-7212.1,4541.1-7291.8L4541.1-7291.8z"/>
			<path class="st112" d="M4128.6-7394.8c2.7,37.7,15.7,158.9,29.9,248.3"/>
			<path class="st112" d="M4142.1-7406.4c3.5,64,23.2,165.2,37.5,254.7"/>
			<path class="st112" d="M4157.7-7411.1c6.7,55.2,32.4,164.8,46.6,254.3"/>
			<path class="st112" d="M4186.7-7428.7c6.3,54,35.6,173.2,47.4,263.9"/>
			<path class="st112" d="M4212.6-7444.6c6.3,54,36,181.2,50.2,270.6"/>
			<path class="st112" d="M4237-7454.9c6.3,54,38.8,183.1,53,272.6"/>
			<path class="st112" d="M4258.1-7464.1c11.9,64.7,43.1,174,57.4,274.6"/>
			<path class="st112" d="M4280.7-7472.9c11.9,64.7,50.3,173.6,59.4,276.2"/>
			<path class="st112" d="M4304.2-7481.2c11.9,64.7,51.9,170.4,60.9,273"/>
			<path class="st112" d="M4327-7488.8c11.9,64.7,54.7,167.2,63.7,269.8"/>
			<path class="st112" d="M4345.3-7492.4c14.7,4.6,53.9,158.5,68.9,263.9"/>
			<path class="st112" d="M4365.5-7495.1c21,5.4,51.9,150.5,71.3,255.9"/>
			<path class="st112" d="M4381.9-7495.1c30.2,16.6,52.7,139.7,75.7,245.2"/>
			<path class="st112" d="M4398.2-7492.4c21,5.4,53.1,117,77.7,232.8"/>
			<path class="st112" d="M4414.2-7488c21,7.4,50.3,99.9,78.1,219.7"/>
			<path class="st112" d="M4434.1-7476c13.5,9.4,47.9,97.1,72.1,200.6"/>
			<path class="st112" d="M4458.7-7453.3c7.5,20.6,33.6,68.1,57.8,171.5"/>
			<path class="st112" d="M4485.8-7409.5c6.3,22.5,15.7,32.6,40.6,122.5"/>
			<path class="st112" d="M4122.9-7314.4c3.4,22.9,11.4,84.4,20.8,169.3"/>
		</g>
		<path class="st113" d="M-1602.3-4064c1.9-7.5,9-18.8,10-18.3c81.3,45.8,171.8,76.4,236.1,87.4c1.2,6.4-0.1,17.5-2.8,21.5
			C-1380.9-3978.4-1489.4-3994.1-1602.3-4064L-1602.3-4064z"/>
		
			<linearGradient id="SVGID_29_" gradientUnits="userSpaceOnUse" x1="-330873.3438" y1="-33115.2266" x2="-330443.125" y2="-33061.2266" gradientTransform="matrix(5.915296e-03 0 0 5.915296e-03 -1797.7332 -8211.0088)">
			<stop  offset="0" style="stop-color:#000000"/>
			<stop  offset="1" style="stop-color:#CF0000;stop-opacity:0"/>
		</linearGradient>
		<path class="st114" d="M-1602.3-4064c1.9-7.5,9-18.8,10-18.3c81.3,45.8,171.8,76.4,236.1,87.4c1.2,6.4-0.1,17.5-2.8,21.5
			C-1380.9-3978.4-1489.4-3994.1-1602.3-4064L-1602.3-4064z"/>
	</g>
	<g transform="matrix(.084747 0 0 .084747 201.42 362.86)">
		<g>
			<path class="st3" d="M-1614.9-3953.3c7.2,8.8,25.2,20.4,25.2,20.4s20-13.2,24-20.4"/>
			<path class="st3" d="M-1626.9-4065.3c0,1.1-0.9,2-2,2s-2-0.9-2-2s0.9-2,2-2S-1626.9-4066.4-1626.9-4065.3z"/>
			<path class="st3" d="M-1557.7-4065.3c0,1.1-0.9,2-2,2s-2-0.9-2-2s0.9-2,2-2S-1557.7-4066.4-1557.7-4065.3z"/>
			<g>
				<path class="st3" d="M-1573.9-4134.1l3.5,2.7c-1,3-33.1,45.5-35.1,45.4l-2.1-3.1C-1605.7-4090-1574.5-4131-1573.9-4134.1
					L-1573.9-4134.1z"/>
				<path class="st3" d="M-1625.9-4131.7l4-2.1c-1,3.4,33.1,46.1,35.2,47l-2.3,3C-1592.7-4084.1-1624.1-4125.7-1625.9-4131.7
					L-1625.9-4131.7L-1625.9-4131.7z"/>
				<path class="st3" d="M-1570.9-4133.9c-4.1,3.8-45.3,27.7-51.9,28.6l-2.7-3.4c7.4-0.3,49.4-25.5,53.6-28.7L-1570.9-4133.9
					L-1570.9-4133.9z"/>
				<path class="st3" d="M-1624.8-4137.5c2.3,4.5,52.6,32,55.6,32.4l-2,2.4c-5.7-0.7-52.8-27.9-55.2-31.4
					C-1626.4-4134.1-1627.3-4137.9-1624.8-4137.5L-1624.8-4137.5z"/>
				<path class="st3" d="M-1462.5-3904.9c7.2,3.6,42.8,58.4,49.2,66c0,0,4,4.8-2,7.2c-4.2,1.7-6.8-1.6-7.6,6
					c-0.5,4.6-8.8,9.6-8.8,9.6l-72-87.6L-1462.5-3904.9z"/>
				<path class="st3" d="M-1753.3-3874.9c-3.8,12.4-9,26.9-10.4,40c8.6,16.7,16.6,25.6,28.8,22c2.2-8.8,6.6-36.9,12-55.6
					C-1727.5-3876-1742.3-3877.7-1753.3-3874.9z"/>
				<path class="st3" d="M-1696.1-3788.1c10.4-15.6,14.8-47.6,17.2-51.2l0.8,0.4l-14.8-16l-24.8,40.8L-1696.1-3788.1z"/>
				<path class="st3" d="M-1679.7-3957.3c-56.8,54.3-63.9,137.7-64,159.6c42.2,35,55.5,7.3,46-8.4c-6.4-10.6-2-21.4,3.6-22.4
					c10.6-1.8,14.6,8.8,19.2,16.8c6.1,10.6,12.3,25.5,21.2,36.4c8.2,10,15.3,15.2,24.4,12c7.7-2.7,7.9-17.7,5.6-24.8
					c-3.4-10.6-6.6-12.6-6.8-19.6c8.2,7.4,14.4,16.4,22,22c18.7,13.7,28,22.9,41.6,11.2c6.9-5.9,6.5-8.5,14.4-9.6
					c7.3-1,19.4,6.8,30-0.8c11.4-8.1,21.2-10.9,18.8-26.4c-1.3-8.3,7.4-28,16.4-27.2c8.7,0.8,10.9,11.6,18.4,17.6
					c10.5,8.4,32.7,14.4,45.2,6c-9.1-14.4-27.3-31.1-41.6-47.6c-30-34.6-36-57.1-66.8-100
					C-1545.2-3980.7-1664.2-3972.1-1679.7-3957.3z"/>
			</g>
			<path class="st3" d="M-1698.9-3825.3c-0.4-8,16.4-59.2,20.8-63.6"/>
			<path class="st3" d="M-1482.9-3837.3c-3.2-8.8-31.2-59.2-36.4-62.4"/>
			<path class="st3" d="M-1630.9-3807.3c7.2-14.8,21.2-91.2,20.4-98"/>
			<path class="st3" d="M-1633.3-4141.7c3.3,1.3,7.7,1.7,10,2.8c0,1.4-3.7,21.3-2.8,26.4c9.5,8.1,28.4,30.2,31.2,30.8
				c2.2-0.5,15.2-16.9,25.2-29.6c0.3-3.1-4.3-24-3.3-26.5c2.2,0.4,6.4-0.3,8.9-0.2c0.5,2.2,2.5,22.7,4.4,26.7
				c29.8,44.3,21.5,60.2,10,88c-1.9,0.1-1.3,3-0.2,3.5c0.7,1.6,1.3,0.7,2.2,2.9c0.2,1.8-1.5,2.2-2.4,4.4c-0.7,1.7,1.4,4.8,8.4,16.4
				c16.9,21.2,49.3,58.4,59.2,68.4c7.5,5,33.3,23.7,36,30.8c-8.6,16.3-25.8,18.4-42,8.8c-3.9,4.1-3.1,9.7-6,18.8
				c-9.8,9.3-13.5,8.6-25.2,6.4c-12.1,6.7-13.9,11-16,14.8c-2.9,6.4-15.8,23.5-32,28.8c-37.1,4.8-49.2-16.1-58.9-31.3
				c-7.9-6.5-11.4-2.5-16.7,2.5c-3.8,2.9-7.3,8.4-17.2,8.8c-16.2-2.6-22.4-19.6-22.8-27.6c-0.4-2.8,0-8.7-2-10
				c-2.5-1-5.1,3.6-8.4,12.8c-1.6,4.2-5.6,23.4-11.6,23.6c-18,0.1-20.1-19.7-22.4-23.2c-1.3-1.9-3.2,7.1-11.2,6.4
				c-9.1-1.6-17.2-6.4-15.6-26.8c15.8-32.1,98-114.5,111.2-126c-2.1-2.6-2.8-3.7-2.4-4.8s4.6-0.8,3.6-1.6c-0.6-1.7-0.8-9.6-0.8-9.6
				c-15.7-22.8-0.4-74.4,4-83.6C-1632.5-4113.7-1635.5-4133.7-1633.3-4141.7L-1633.3-4141.7z"/>
			<path class="st3" d="M-1727.7-3864.5c-1.6-13.6,26.4-62.8,36.4-70.4"/>
			<path class="st3" d="M-1687.7-3876.5c3.6-13.2,32.8-67.2,44-78"/>
			<path class="st3" d="M-1518.9-3862.9c-20.8-4.4-52.4-55.6-52.8-62"/>
			<path class="st3" d="M-1488.1-3888.5c-14.8-3.2-45.2-50-45.2-56.8"/>
			<g>
				<path class="st3" d="M-1687-3940.1l-25.1,34.2c0,0-6,14.7-8.5,19.8s-2.4,5.7-4,9.6c-1.6,3.9-4.4,14.2-2.3,17.4l8.6,13.5
					l10.1-9.3l2-10.4l14-50.4L-1687-3940.1L-1687-3940.1L-1687-3940.1z"/>
				<path class="st3" d="M-1650.8-3945.1l-17.9,29.9c0,0-17.1,32.4-18.4,37.4c3.1,1.8,2.5,1.5,3.7,1.6c-0.6,5.7,1.9,19.1,5.1,22.9
					c1.6,3.4,8.7,11.4,8.7,11.4l8.8-6.5l2.8-12.1l18.7-101.4L-1650.8-3945.1L-1650.8-3945.1z"/>
				<path class="st3" d="M-1602.1-3934.5l-10.6,35.2c0,0-6.8,19.1-9.2,24.1c-2.5,5.3-6,18.7-7.9,21c2.6,1.6,5.7,5.2,7.5,8.8
					c2.3,3.2,5.9,8.6,5.9,8.6l11.6-5.5l2.8-10.3l4.7-49.7L-1602.1-3934.5L-1602.1-3934.5z"/>
				<path class="st3" d="M-1538.7-3950.2l14.7,26.1c0,0,11.8,12.1,14.9,18.8c3.2,7.1,12.6,9.9,15.5,15c2.9,5.2,1.4,14.3-3.6,16.7
					l-13.1,6.1l-15.2-7.4l-3.6-13.8l-8.1-53L-1538.7-3950.2L-1538.7-3950.2z"/>
				<path class="st3" d="M-1643.1-4020.7l0.8,4.4c3.4,5.4,26.4,8.2,38.7,4.8C-1608-4012.2-1636-4013.8-1643.1-4020.7L-1643.1-4020.7
					z"/>
				<path class="st3" d="M-1644-4012.1l-0.7,3.3c3.4,5.4,26.4,8.2,38.7,4.8C-1610.5-4004.7-1637-4005.1-1644-4012.1L-1644-4012.1
					L-1644-4012.1z"/>
				<path class="st3" d="M-1548-4017.6l-0.3,3.1c-4.4,5.4-24.2,8.4-40.3,4.9C-1582.7-4010.2-1554.1-4009.1-1548-4017.6L-1548-4017.6
					L-1548-4017.6z"/>
			</g>
		</g>
	</g>
</g>
</svg>
