<?xml version="1.0" encoding="utf-8"?>
<!-- Generator: Adobe Illustrator 23.0.5, SVG Export Plug-In . SVG Version: 6.00 Build 0)  -->
<svg version="1.1" id="Слой_1" xmlns="http://www.w3.org/2000/svg" xmlns:xlink="http://www.w3.org/1999/xlink" x="0px" y="0px"
	 viewBox="0 0 1411.3 715.1" style="enable-background:new 0 0 1411.3 715.1;" xml:space="preserve">
<style type="text/css">
	.st0{fill:url(#SVGID_1_);}
	.st1{fill:url(#SVGID_2_);}
	.st2{fill:#2C66B0;}
	.st3{fill:#5090CE;}
	.st4{fill:#C1C1F9;}
	.st5{fill:#FFFFFF;}
	.st6{fill:#A2A1F3;}
	.st7{fill:#CDCDFC;}
	.st8{fill:#CBD9F9;}
	.st9{fill:#5E55CE;}
	.st10{fill:#E7E4FD;}
	.st11{fill:#725FE9;}
	.st12{fill:#ECB7AE;}
	.st13{fill:#FFB9B9;}
	.st14{fill:#4061AE;}
	.st15{fill:#203B72;}
	.st16{fill:#FFB9AF;}
	.st17{fill:#375D81;}
	.st18{fill:#E27E34;}
	.st19{fill:url(#SVGID_3_);}
	.st20{fill:url(#SVGID_4_);}
	.st21{fill:url(#SVGID_5_);}
	.st22{fill:#EE2866;}
	.st23{fill:#201B58;}
	.st24{fill:#000289;}
</style>
<g>
	<linearGradient id="SVGID_1_" gradientUnits="userSpaceOnUse" x1="0" y1="692.1649" x2="1411.3003" y2="692.1649">
		<stop  offset="0" style="stop-color:#151D81"/>
		<stop  offset="0.1191" style="stop-color:#131B6D"/>
		<stop  offset="0.2983" style="stop-color:#101857"/>
		<stop  offset="0.4923" style="stop-color:#0E1647"/>
		<stop  offset="0.71" style="stop-color:#0D143D"/>
		<stop  offset="1" style="stop-color:#0D143A"/>
	</linearGradient>
	<rect y="686.2" class="st0" width="1411.3" height="12"/>
	<linearGradient id="SVGID_2_" gradientUnits="userSpaceOnUse" x1="705.9096" y1="484.4777" x2="685.7615" y2="813.5628">
		<stop  offset="0" style="stop-color:#E5E4FD"/>
		<stop  offset="0.2926" style="stop-color:#CDD3F6"/>
		<stop  offset="0.747" style="stop-color:#AEBCED"/>
		<stop  offset="1" style="stop-color:#A2B3EA"/>
	</linearGradient>
	<path class="st1" d="M62.2,688.8c0,0-54.4-124.9,49.6-152.5c71.8-19.1-85.5-322.5,133.9-379.2C443.3,106,370.4,31.1,576.4,3
		c200.4-27.4,149,144.8,304.7,144.8c155.7,0,216.4-116.4,309.6-21.6c58.9,60,36.6,124.5,31.2,221.8c-5,89.9,49.5,59.9,113.2,173.9
		c41.6,74.3-19.4,166.9-19.4,166.9H62.2z"/>
	<rect x="326.7" y="637.7" class="st2" width="180.2" height="48.5"/>
	<path class="st3" d="M720.6,653.5H114.8c-5.2,0-9.4-4.2-9.4-9.4V213.5c0-5.2,4.2-9.4,9.4-9.4h605.8c5.2,0,9.4,4.2,9.4,9.4v430.6
		C730,649.3,725.8,653.5,720.6,653.5z"/>
	<path class="st4" d="M704.9,610.4H128.6c-3.2,0-5.8-2.6-5.8-5.8V226.3c0-3.2,2.6-5.8,5.8-5.8h576.3c3.2,0,5.8,2.6,5.8,5.8v378.3
		C710.6,607.8,708.1,610.4,704.9,610.4z"/>
	<polygon class="st3" points="570.3,711.2 263.2,711.2 263.2,683.2 570.3,683.2 570.3,683.2 	"/>
	<g>
		<g>
			<g>
				<g>
					<path class="st5" d="M669.1,594.5H166.5c-13.3,0-24.1-10.6-24.1-23.7v-316c0-13.1,10.8-23.7,24.1-23.7h502.5
						c13.3,0,24.1,10.6,24.1,23.7v316C693.2,583.9,682.4,594.5,669.1,594.5z"/>
				</g>
			</g>
		</g>
		<path class="st6" d="M669.1,231.1H166.5c-13.3,0-24.1,10.6-24.1,23.7v20.7h550.8v-20.7C693.2,241.7,682.4,231.1,669.1,231.1z"/>
		<path class="st7" d="M622.3,254.1c0,3.8-3.1,6.8-7,6.8s-7-3.1-7-6.8c0-3.8,3.1-6.8,7-6.8S622.3,250.3,622.3,254.1z"/>
		<path class="st7" d="M650.7,254.1c0,3.8-3.1,6.8-7,6.8c-3.8,0-7-3.1-7-6.8c0-3.8,3.1-6.8,7-6.8
			C647.6,247.3,650.7,250.3,650.7,254.1z"/>
		<path class="st7" d="M679.1,254.1c0,3.8-3.1,6.8-7,6.8c-3.8,0-7-3.1-7-6.8c0-3.8,3.1-6.8,7-6.8C676,247.3,679.1,250.3,679.1,254.1
			z"/>
	</g>
	<path class="st8" d="M168.3,583.1l55.9-0.1l-0.5-245.8l-65.7,0.1l0.5,236.1C158.5,578.7,162.9,583.1,168.3,583.1z"/>
	<path class="st8" d="M242.1,367.6l0.1,55.9l422.4-0.9l-0.1-65.7l-405.6,0.8C249.6,357.8,242.1,362.2,242.1,367.6z"/>
	<path class="st5" d="M217.2,564.3l-47.9,0.1c-0.6,0-1-0.5-1-1l0-5.3c0-0.6,0.5-1,1-1l47.9-0.1c0.6,0,1,0.5,1,1l0,5.3
		C218.2,563.8,217.7,564.3,217.2,564.3z"/>
	<path class="st8" d="M381.6,480.6H244.6c-0.6,0-1-0.5-1-1l0-5.3c0-0.6,0.5-1,1-1h137c0.6,0,1,0.5,1,1l0,5.3
		C382.6,480.2,382.2,480.6,381.6,480.6z"/>
	<path class="st8" d="M381.6,464.4H244.6c-0.6,0-1-0.5-1-1l0-5.3c0-0.6,0.5-1,1-1h137c0.6,0,1,0.5,1,1l0,5.3
		C382.6,464,382.2,464.4,381.6,464.4z"/>
	<path class="st8" d="M381.6,448.3H244.6c-0.6,0-1-0.5-1-1l0-5.3c0-0.6,0.5-1,1-1h137c0.6,0,1,0.5,1,1l0,5.3
		C382.6,447.8,382.2,448.3,381.6,448.3z"/>
	<path class="st5" d="M210.8,397.5l-39.1,0.1c-2.8,0-5.1-2.3-5.1-5.1l-0.1-39.1c0-2.8,2.3-5.1,5.1-5.1l39.1-0.1
		c2.8,0,5.1,2.3,5.1,5.1l0.1,39.1C215.9,395.2,213.6,397.5,210.8,397.5z"/>
	<path class="st8" d="M664,578.4l-246.1,0.5c-0.7,0-1.3-0.6-1.3-1.3l0-6.9c0-0.7,0.6-1.3,1.3-1.3l246.1-0.5c0.7,0,1.3,0.6,1.3,1.3
		l0,6.9C665.3,577.8,664.7,578.4,664,578.4z"/>
	<path class="st8" d="M664,557.3l-246.1,0.5c-0.7,0-1.3-0.6-1.3-1.3l0-6.9c0-0.7,0.6-1.3,1.3-1.3l246.1-0.5c0.7,0,1.3,0.6,1.3,1.3
		l0,6.9C665.3,556.7,664.7,557.3,664,557.3z"/>
	<path class="st8" d="M664,536.1l-246.1,0.5c-0.7,0-1.3-0.6-1.3-1.3l0-6.9c0-0.7,0.6-1.3,1.3-1.3l246.1-0.5c0.7,0,1.3,0.6,1.3,1.3
		l0,6.9C665.3,535.5,664.7,536.1,664,536.1z"/>
	<path class="st8" d="M664,515l-246.1,0.5c-0.7,0-1.3-0.6-1.3-1.3l0-6.9c0-0.7,0.6-1.3,1.3-1.3l246.1-0.5c0.7,0,1.3,0.6,1.3,1.3
		l0,6.9C665.3,514.4,664.7,515,664,515z"/>
	<path class="st8" d="M664,493.9l-246.1,0.5c-0.7,0-1.3-0.6-1.3-1.3l0-6.9c0-0.7,0.6-1.3,1.3-1.3l246.1-0.5c0.7,0,1.3,0.6,1.3,1.3
		l0,6.9C665.3,493.3,664.7,493.9,664,493.9z"/>
	<path class="st8" d="M664,472.7l-246.1,0.5c-0.7,0-1.3-0.6-1.3-1.3l0-6.9c0-0.7,0.6-1.3,1.3-1.3l246.1-0.5c0.7,0,1.3,0.6,1.3,1.3
		l0,6.9C665.3,472.1,664.7,472.7,664,472.7z"/>
	<path class="st8" d="M664,451.6l-246.1,0.5c-0.7,0-1.3-0.6-1.3-1.3l0-6.9c0-0.7,0.6-1.3,1.3-1.3L664,442c0.7,0,1.3,0.6,1.3,1.3
		l0,6.9C665.3,451,664.7,451.6,664,451.6z"/>
	<polygon class="st8" points="385.5,582.7 241.8,582.9 241.6,492.4 385.3,492.1 385.3,492.1 385.5,582.7 	"/>
	<path class="st5" d="M213.3,405.2l-42.7,0.1c-0.3,0-0.5-0.2-0.5-0.5l0-2.6c0-0.3,0.2-0.5,0.5-0.5l42.7-0.1c0.3,0,0.5,0.2,0.5,0.5
		l0,2.6C213.8,405,213.6,405.2,213.3,405.2z"/>
	<path class="st5" d="M213.3,412.9l-42.7,0.1c-0.3,0-0.5-0.2-0.5-0.5l0-2.6c0-0.3,0.2-0.5,0.5-0.5l42.7-0.1c0.3,0,0.5,0.2,0.5,0.5
		l0,2.6C213.8,412.7,213.6,412.9,213.3,412.9z"/>
	<g>
		<path class="st9" d="M172,323.6H73.1v5.8c0,26.8,22.1,48.6,49.4,48.6l0,0c27.3,0,49.4-21.7,49.4-48.6V323.6z"/>
		<path class="st10" d="M270.8,323.6H172v5.8c0,26.8,22.1,48.6,49.4,48.6l0,0c27.3,0,49.4-21.7,49.4-48.6V323.6z"/>
		<path class="st9" d="M369.7,323.6h-98.8v5.8c0,26.8,22.1,48.6,49.4,48.6l0,0c27.3,0,49.4-21.7,49.4-48.6V323.6z"/>
		<path class="st10" d="M468.5,323.6h-98.8v5.8c0,26.8,22.1,48.6,49.4,48.6l0,0c27.3,0,49.4-21.7,49.4-48.6V323.6z"/>
		<path class="st9" d="M567.3,323.6h-98.8v5.8c0,26.8,22.1,48.6,49.4,48.6l0,0c27.3,0,49.4-21.7,49.4-48.6V323.6z"/>
		<path class="st9" d="M765,323.6h-98.8v32.3c0,12.2,9.9,22.1,22.1,22.1h54.7c12.2,0,22.1-9.9,22.1-22.1V323.6z"/>
		<g>
			<path class="st11" d="M106.2,227.7l-33.1,96H172l32.3-131.5h-49.1C133.2,192.2,113.5,206.4,106.2,227.7z"/>
			<polygon class="st5" points="204.3,192.2 172,323.6 270.8,323.6 290.2,192.2 			"/>
			<polygon class="st11" points="290.2,192.2 270.8,323.6 369.7,323.6 376.1,192.2 			"/>
			<polygon class="st5" points="376.1,192.2 369.7,323.6 468.5,323.6 462,192.2 			"/>
			<polygon class="st11" points="462,192.2 468.5,323.6 567.3,323.6 547.9,192.2 			"/>
			<path class="st11" d="M633.8,192.2l32.3,131.5H765l-33.1-96c-7.3-21.3-27-35.5-49.1-35.5H633.8z"/>
			<polygon class="st5" points="547.9,192.2 567.3,323.6 666.2,323.6 633.8,192.2 			"/>
		</g>
		<path class="st10" d="M666.2,323.6h-98.8v32.3c0,12.2,9.9,22.1,22.1,22.1h54.7c12.2,0,22.1-9.9,22.1-22.1V323.6z"/>
	</g>
	<g>
		<path class="st12" d="M1041.9,343.5c-12.5,16.9-29.5,39.5-41,55.8c-12.8,18.1-63.6,45.3-63.6,45.3l6.8,3.2
			c45.7-4.2,77.7-17.2,109.4-71.3L1041.9,343.5z"/>
	</g>
	<path class="st13" d="M956.6,434.4l-6.3,1.6l-5.6,1.4c0,0-13.7,5.1-13.9,6.6s9.7-1,9.7-1s-11.8,3.3-11.9,5.4
		c0,2.1,12.7-2.4,12.7-2.4s-11.2,5.9-10.8,6.6c1,1.8,12.7-3.5,12.7-3.5s-6.8,4.3-6.5,5.9c0.3,1.6,21.9-11.4,21.9-11.4L956.6,434.4z"
		/>
	<path class="st14" d="M1046.3,700.6c-9.1,1.8-15.6,1.2-16.8,0.3c-0.2-0.2,0.3-0.6,1.2-1.3c-3.9,1.3-7.6,2.5-8.1,2.9
		c-1,0.8-8,2.5-5.4,3.9c2.4,1.3,22.9,3.1,26.3,1.5c6.9-3.1,13-1,13-1l1,1.3l2.4,0c0,0,0.5-3.2,1.2-7.8c0.3-1.7-1.5-5.7-1.5-5.7l0,0
		l0.1,0.3C1059.4,696.7,1054.6,698.9,1046.3,700.6z"/>
	<path class="st14" d="M1212.2,652.2c-1-1.4-5.1-2.9-5.1-2.9l0,0l0.3,0.2c0.9,1.5-0.9,6.5-5.5,13.5c-5.1,7.7-10.1,12-11.6,12.2
		c-0.3,0-0.3-0.7-0.1-1.8c-1.8,3.7-3.5,7.2-3.6,7.8c-0.1,1.3-3,7.3-0.2,6.4c2.6-0.8,17.5-14,18.7-17.5c2.6-7.1,7.5-11.5,7.5-11.5
		l2.5,1.8l1.7-1.7C1216.9,658.6,1215,656,1212.2,652.2z"/>
	<g>
		<path class="st12" d="M1041,664.5c1.4,14.4,2.3,24.6,2.6,27.4c-4.6,2.8-10.3,5.9-12.8,7.7c-1,0.7-1.5,1.1-1.2,1.3
			c1.2,0.9,7.7,1.5,16.8-0.3c8.3-1.7,13.1-3.8,13.5-5.6l-0.1-0.3l-1.6-6c0.8-6.9,2.3-15.9,3.9-26
			C1054.3,662.2,1046.9,663.2,1041,664.5z"/>
	</g>
	<g>
		<path class="st12" d="M1207.1,649.4l-5.6-3.3c-3.6-4.5-8-10.5-12.9-17.2l-13.4,16.2c8.6,6,15.3,10.5,18.8,12.8
			c-1.3,5.4-3.3,12.4-3.8,15.6c-0.2,1.1-0.2,1.8,0.1,1.8c1.5-0.2,6.5-4.4,11.6-12.2c4.6-7,6.5-12,5.5-13.5L1207.1,649.4z"/>
	</g>
	<g>
		<path class="st15" d="M1066.2,350c6.8,3.4,35.8,27.3,41.4,35.6c9.6,14.2,5.6,65.5,5.6,65.5s53.7-4.5,28-55.4
			c-25.3-50-22.9-70.1-22.4-80.6c1.3-26.2-0.5-45.6-34.5-48.8c-12.4-1.2-17.6,5.2-17.6,5.2s-3.5-1-9.2,1.4
			C1042.7,279.3,1032.5,333.2,1066.2,350z"/>
	</g>
	<g>
		<path class="st16" d="M1088.3,350.7c-1.9-6.9,1.2-16.2,3-23.5c1.8-7.3,1.9-8.5,2.4-16c0.5-7.5,1.8-24.2-4.2-28.6
			c-6.9-5.1-20.8-4.8-27.3,0.9s-8,22.4-7.8,32.9c0.2,8.6,8.6,11.7,13.1,16.6c4.3,4.8-2.3,13.5,1.5,18.9
			C1070.9,354.7,1088.3,350.7,1088.3,350.7z"/>
	</g>
	
		<ellipse transform="matrix(9.381495e-02 -0.9956 0.9956 9.381495e-02 630.5435 1388.1626)" class="st16" cx="1077.8" cy="347.7" rx="7.9" ry="10.2"/>
	<path class="st14" d="M1140.1,525.9c-5-18.5-11.2-53.5-11.2-53.5l-26.7-52l-42.5-0.9c0,0-46.5,28.1-49.9,105.9
		c-1.3,31,9.2,147.9,9.2,147.9s5.4-2.5,13.6-4.4c5.9-1.4,13.3-2.3,21.1-1.8c5.5,0.4,11.1,1.5,16.6,3.8c24.2,10.2,53.9,16.9,64.3,3.3
		c10.5-13.7,49.7-28.3,49.7-28.3l6.5-7.8l8.2-9.4l7.6-6.9C1206.6,621.8,1145.1,544.4,1140.1,525.9z"/>
	<g>
		<g>
			<g>
				<g>
					<circle class="st17" cx="808.1" cy="691.9" r="23.2"/>
					<path class="st18" d="M820.8,691.9c0,7-5.7,12.7-12.7,12.7c-7,0-12.7-5.7-12.7-12.7c0-7,5.7-12.7,12.7-12.7
						C815.1,679.2,820.8,684.9,820.8,691.9z"/>
					<linearGradient id="SVGID_3_" gradientUnits="userSpaceOnUse" x1="800.7489" y1="679.455" x2="815.3725" y2="679.455">
						<stop  offset="0" style="stop-color:#151D81"/>
						<stop  offset="0.1191" style="stop-color:#131B6D"/>
						<stop  offset="0.2983" style="stop-color:#101857"/>
						<stop  offset="0.4923" style="stop-color:#0E1647"/>
						<stop  offset="0.71" style="stop-color:#0D143D"/>
						<stop  offset="1" style="stop-color:#0D143A"/>
					</linearGradient>
					<path class="st19" d="M808.1,699.9L808.1,699.9c-4,0-7.3-3.3-7.3-7.3v-33.5h14.6v33.5C815.4,696.6,812.1,699.9,808.1,699.9z"/>
				</g>
			</g>
			<g>
				<g>
					<circle class="st17" cx="698.1" cy="691.9" r="23.2"/>
					<path class="st18" d="M710.8,691.9c0,7-5.7,12.7-12.7,12.7c-7,0-12.7-5.7-12.7-12.7c0-7,5.7-12.7,12.7-12.7
						C705.1,679.2,710.8,684.9,710.8,691.9z"/>
					<linearGradient id="SVGID_4_" gradientUnits="userSpaceOnUse" x1="690.7491" y1="679.455" x2="705.3727" y2="679.455">
						<stop  offset="0" style="stop-color:#151D81"/>
						<stop  offset="0.1191" style="stop-color:#131B6D"/>
						<stop  offset="0.2983" style="stop-color:#101857"/>
						<stop  offset="0.4923" style="stop-color:#0E1647"/>
						<stop  offset="0.71" style="stop-color:#0D143D"/>
						<stop  offset="1" style="stop-color:#0D143A"/>
					</linearGradient>
					<path class="st20" d="M698.1,699.9L698.1,699.9c-4,0-7.3-3.3-7.3-7.3v-33.5h14.6v33.5C705.4,696.6,702.1,699.9,698.1,699.9z"/>
				</g>
			</g>
			<linearGradient id="SVGID_5_" gradientUnits="userSpaceOnUse" x1="627.4669" y1="556.1994" x2="952.0261" y2="556.1994">
				<stop  offset="0" style="stop-color:#151D81"/>
				<stop  offset="0.1191" style="stop-color:#131B6D"/>
				<stop  offset="0.2983" style="stop-color:#101857"/>
				<stop  offset="0.4923" style="stop-color:#0E1647"/>
				<stop  offset="0.71" style="stop-color:#0D143D"/>
				<stop  offset="1" style="stop-color:#0D143A"/>
			</linearGradient>
			<path class="st21" d="M919.5,450.1c-10.5,0-19.4,7.4-21.3,17.7H627.5L644.8,578c3.1,19.6,19.9,34,39.7,34h179.3
				c6,0,10.6,5.4,9.7,11.3l0,0c-0.2,1.3-0.5,2.6-0.8,3.8c-4.5,17-19.8,28.8-37.4,28.8H651c-1.8,0-3.2,1.4-3.2,3.2
				c0,1.8,1.4,3.2,3.2,3.2h184.4c20.5,0,38.4-13.8,43.6-33.6c0.4-1.4,0.7-2.9,0.9-4.4l24.2-152.6l0.4-2.2c1.2-7.4,7.5-12.8,15-12.8
				H952v-6.5H919.5z M650.3,570.8l-4.6-28.9h44.1l2,28.9H650.3z M689.3,535.5h-44.6l-4.3-27.3h47.1L689.3,535.5z M691.5,474.3h45.8
				l0.6,27.4h-44.5L691.5,474.3z M887.5,535.5H844l1.9-27.3h45.9L887.5,535.5z M794.6,535.5l0.6-27.3h44.2l-1.9,27.3H794.6z
				 M837.1,541.9l-2,28.9h-41.3l0.7-28.9H837.1z M795.4,501.7l0.6-27.4h45.8l-1.9,27.4H795.4z M745.2,535.5l-0.6-27.3h44.2
				l-0.6,27.3H745.2z M788,541.9l-0.7,28.9H746l-0.7-28.9H788z M744.4,501.7l-0.6-27.4h45.8l-0.6,27.4H744.4z M739.6,570.8h-41.3
				l-2-28.9h42.7L739.6,570.8z M738.1,508.1l0.6,27.3h-43l-1.9-27.3H738.1z M698.7,577.3h41l0.7,28.2h-39.7L698.7,577.3z
				 M746.2,577.3h41l-0.7,28.2h-39.7L746.2,577.3z M793.6,577.3h41l-2,28.2H793L793.6,577.3z M841.1,577.3h39.7l-4.5,28.2h-37.2
				L841.1,577.3z M841.6,570.8l2-28.9h42.9l-4.6,28.9H841.6z M892.8,501.7h-46.5l1.9-27.4h48.9L892.8,501.7z M685.1,474.3l1.9,27.4
				h-47.6l-4.3-27.4H685.1z M651.3,577.3h40.9l2,28.2h-9.6C668,605.5,654,593.6,651.3,577.3z"/>
			<path class="st17" d="M960.3,442.9h-29c-1.1,0-2,1.7-2,3.9v13.7c0,2.2,0.9,3.9,2,3.9h29c3.1,0,5.6-4.8,5.6-10.8l0,0
				C965.9,447.8,963.4,442.9,960.3,442.9z"/>
			<path class="st17" d="M939.7,460.6v-13.7c0-2.2,1.7-3.9,3.9-3.9h-10.4c-2.2,0-3.9,1.7-3.9,3.9v13.7c0,2.2,1.7,3.9,3.9,3.9h10.4
				C941.5,464.5,939.7,462.7,939.7,460.6z"/>
		</g>
	</g>
	<g>
		<path class="st12" d="M1180.6,396.4c22-21.5,21-58,21-58l-10.3-0.3c0,0-15.2,28-21.1,30.6c-4.9,2.1-38.7-18-38.7-18l-2.9,34.2
			C1128.6,384.7,1171.3,405.4,1180.6,396.4z"/>
	</g>
	<path class="st22" d="M1003.6,389c0,0,6,9.6,12.7,14.1c7,4.7,15.7,10.2,15.7,10.2s25.9-38.5,28.4-40.1c5.6-12.1,25.1-30.8-1-34.1
		C1032.7,335.8,1016.9,369.2,1003.6,389z"/>
	<path class="st23" d="M1113.4,394.2c1.5-1.1,3-2,4.6-2.9c1.6-0.8,3.4-1.4,4.9-2.4c0.4-0.3,0.1-0.9-0.3-0.8
		c-3.5,0.5-6.9,3.3-9.6,5.5C1112.8,393.9,1113.2,394.4,1113.4,394.2L1113.4,394.2z"/>
	<g>
		<path class="st22" d="M1132.2,348.3c-10.6-6.2-26.1-9.3-26.1-9.3c-4.2-1.4-14.8,6.4-26.2,4.1c-6.3-1.3-9.3-1.8-15.7-2.5
			c-3.3-0.4-0.7-2.3-3.9-1.4c-7.1,2-16.5,10.6-20.2,16.6c-4.6,7.5-8.5,16.4-6.1,25.3c1.9,6.8,6.5,11.8,6.5,18.8
			c0,5.3-2.3,35.9-6.2,39.8c-6.4,6.4,2.9,10.7,17.5,13.3c7.6,1.4,40,2.1,44.5,0.8c5.5-1.4,20.2-9,21.7-10.5c3-3-3.3-44.1,4.5-54.7
			c7.3-2.5,8.7,0.3,40.2,11.1c1.7-12.8,2-33.7,2-33.7S1155.4,361.8,1132.2,348.3z"/>
	</g>
	<path class="st22" d="M1066.9,343.6c0,0-0.4,3.3,9.8,4.7c10.3,1.4,28.3-7.6,28.3-7.6l6,11.8l-25.6,19.8l-38-16l-1.7-10.2l14.7-3
		L1066.9,343.6z"/>
	<path class="st15" d="M1069.8,276.5c0,0-1.4,20.9-10.9,27.9c-9.5,7-9.5,10-9.5,10v-25l8.1-13.4L1069.8,276.5z"/>
	<path class="st15" d="M1064.7,274.2c0,0-3.8,15.2,13.2,26.5c17,11.3,15.7,27.6,15.7,27.6l15.4-5.9l0.5-22.7l-11.8-17.5l-3.6-5
		L1064.7,274.2z"/>
	<path class="st13" d="M1191.3,341.1l0.2-6.5c0,0-8.3-9.8-5.2-8.7c2.2,0.8,5.3,2.9,5.3,2.9s2-14.5,3.4-15s1.1,9.6,1.1,9.6
		s0.7-12.3,2.7-12.7c2-0.5,0.4,13,0.4,13s3.3-12.3,4.1-12c2,0.6-0.6,13.2-0.6,13.2s2.7-7.6,4.3-7.7c1.6-0.1-6.3,23.9-6.3,23.9
		L1191.3,341.1z"/>
	<path class="st13" d="M947.6,437c0,0-11,1.4-11.3,5.5c-0.3,4,12.1-3.5,12.1-3.5L947.6,437z"/>
	<path class="st24" d="M851.8,407.6c-5.9,0-10.7-4.8-10.7-10.7s4.8-10.7,10.7-10.7c5.9,0,10.7,4.8,10.7,10.7
		S857.7,407.6,851.8,407.6z M851.8,390.9c-3.3,0-5.9,2.7-5.9,5.9s2.7,5.9,5.9,5.9c3.3,0,5.9-2.7,5.9-5.9S855.1,390.9,851.8,390.9z"
		/>
	<path class="st24" d="M883.8,117.3c-5.9,0-10.7-4.8-10.7-10.7s4.8-10.7,10.7-10.7c5.9,0,10.7,4.8,10.7,10.7
		S889.7,117.3,883.8,117.3z M883.8,100.7c-3.3,0-5.9,2.7-5.9,5.9s2.7,5.9,5.9,5.9c3.3,0,5.9-2.7,5.9-5.9S887.1,100.7,883.8,100.7z"
		/>
	<path class="st24" d="M83.5,533.7c-5.9,0-10.7-4.8-10.7-10.7s4.8-10.7,10.7-10.7c5.9,0,10.7,4.8,10.7,10.7S89.4,533.7,83.5,533.7z
		 M83.5,517.1c-3.3,0-5.9,2.7-5.9,5.9s2.7,5.9,5.9,5.9s5.9-2.7,5.9-5.9S86.7,517.1,83.5,517.1z"/>
	<path class="st24" d="M327.5,158.8c-5.9,0-10.7-4.8-10.7-10.7c0-5.9,4.8-10.7,10.7-10.7c5.9,0,10.7,4.8,10.7,10.7
		C338.2,153.9,333.4,158.8,327.5,158.8z M327.5,142.1c-3.3,0-5.9,2.7-5.9,5.9c0,3.3,2.7,5.9,5.9,5.9c3.3,0,5.9-2.7,5.9-5.9
		C333.4,144.8,330.7,142.1,327.5,142.1z"/>
	<g id="XMLID_606_">
		<rect x="647.9" y="392.4" class="st24" width="4.5" height="23.3"/>
		<rect x="639.6" y="401.8" class="st24" width="21" height="4.5"/>
	</g>
	<g id="XMLID_607_">
		<rect x="1255.7" y="437.1" class="st24" width="4.5" height="23.3"/>
		<rect x="1247.4" y="446.6" class="st24" width="21" height="4.5"/>
	</g>
	<g id="XMLID_608_">
		<rect x="694.9" y="28.6" class="st24" width="4.5" height="23.3"/>
		<rect x="686.6" y="38" class="st24" width="21" height="4.5"/>
	</g>
</g>
</svg>
