<?xml version="1.0" encoding="utf-8"?>
<!-- Generator: Adobe Illustrator 23.0.5, SVG Export Plug-In . SVG Version: 6.00 Build 0)  -->
<svg version="1.1" id="Слой_1" xmlns="http://www.w3.org/2000/svg" xmlns:xlink="http://www.w3.org/1999/xlink" x="0px" y="0px"
	 viewBox="0 0 1286.2 966.7" style="enable-background:new 0 0 1286.2 966.7;" xml:space="preserve">
<style type="text/css">
	.st0{fill:#CBD9F9;}
	.st1{fill:#E3ECFF;}
	.st2{fill:#4061AE;}
	.st3{fill:#DDEAF7;}
	.st4{fill:#FFB9B9;}
	.st5{fill:#2F2E41;}
	.st6{fill:#C16241;}
	.st7{fill:#0C4C48;}
	.st8{fill:#0E858A;}
	.st9{fill:#203A71;}
	.st10{fill:url(#XMLID_7_);}
	.st11{fill:#515780;}
	.st12{fill:#517DE9;}
	.st13{fill:#FFFFFF;}
	.st14{fill:url(#SVGID_1_);}
	.st15{fill:url(#SVGID_2_);}
	.st16{fill:url(#SVGID_3_);}
	.st17{fill:#FFFEFF;}
	.st18{fill:#E1325A;}
	.st19{fill:#41B4E6;}
	.st20{fill:#FFCC0C;}
	.st21{fill:#00425F;}
	.st22{fill:#2F7F7E;}
	.st23{fill:#1E9792;}
	.st24{fill:#7EB25C;}
	.st25{fill:#8FC569;}
	.st26{fill:url(#XMLID_8_);}
	.st27{fill:#62A0EA;}
	.st28{fill:#D29474;}
	.st29{fill:#6C9AC9;}
	.st30{fill:#221950;}
	.st31{fill:url(#SVGID_4_);}
	.st32{fill:url(#SVGID_5_);}
	.st33{fill:url(#SVGID_6_);}
	.st34{fill:url(#SVGID_7_);}
	.st35{fill:url(#SVGID_8_);}
	.st36{fill:url(#SVGID_9_);}
	.st37{fill:url(#SVGID_10_);}
</style>
<g>
	<rect x="277.1" y="729.9" class="st0" width="1009.2" height="5.4"/>
	<ellipse class="st1" cx="164.8" cy="735.6" rx="164.8" ry="12.3"/>
	<g>
		<path id="XMLID_521_" class="st2" d="M159.1,325.2c0,0-12.7,52.1,20.6,84.1c33.2,32,79.6,40.8,107.2,35.5l2.8-17.8
			c0,0-66.8-22.3-78.5-48.7c-11.7-26.4-10.9-69.4-25.4-73.3C171.3,301.1,170.5,308.3,159.1,325.2z"/>
		<path class="st3" d="M389.2,458.1c0.8-6.3,0.9-12.8,0.2-19.4c-0.7-6.6-2.2-12.9-4.3-18.9l-17.1,4.4c-2.1-5.5-4.9-10.6-8.3-15.3
			l13-12c-7.9-10.3-18.2-18.6-30-24.2l-9,15.2c-5.3-2.4-10.8-4-16.7-4.9l0.7-17.6c-6.3-0.8-12.8-0.9-19.4-0.2
			c-6.6,0.7-12.9,2.2-18.9,4.3l4.4,17.1c-5.5,2.1-10.6,4.9-15.3,8.3l-12-13c-10.3,7.9-18.6,18.2-24.2,30l15.2,9
			c-2.4,5.3-4,10.8-4.9,16.7l-17.6-0.7c-0.8,6.3-0.9,12.8-0.2,19.4c0.7,6.6,2.2,12.9,4.3,18.9l17.1-4.4c2.1,5.5,4.9,10.6,8.3,15.3
			l-13,12c7.9,10.3,18.2,18.6,30,24.2l9-15.2c5.3,2.4,10.8,4,16.7,4.9l-0.7,17.6c6.3,0.8,12.8,0.9,19.4,0.2
			c6.6-0.7,12.9-2.2,18.9-4.3l-4.4-17.1c5.5-2.1,10.6-4.9,15.3-8.3l12,13c10.3-7.9,18.6-18.2,24.2-30l-15.2-9
			c2.4-5.3,4-10.8,4.9-16.7L389.2,458.1z M311.3,487.1c-21.9,2.3-41.5-13.5-43.9-35.4c-2.3-21.9,13.5-41.5,35.4-43.9
			c21.9-2.3,41.5,13.5,43.9,35.4C349.1,465.1,333.2,484.8,311.3,487.1z M310.2,476.5c-16.1,1.7-30.5-9.9-32.2-26
			c-1.7-16.1,9.9-30.5,26-32.2c16.1-1.7,30.5,9.9,32.2,26C337.9,460.4,326.3,474.8,310.2,476.5z"/>
		<g>
			<g>
				<g>
					<g>
						<g>
							<path class="st4" d="M190.7,284.1l-10.2,28.1c-2.1,8-3.7,2.6-11.5,0.4l0,0c-6.7-1.8-14,4.3-13-2.6l7.9-35.8L190.7,284.1z"/>
							<path class="st4" d="M174.6,295.3L174.6,295.3c16.9,4.6,34.3-5.7,38.4-22.7l3.4-14.1c3-12.4-4.4-24.9-16.7-28.2l0,0
								c-12.6-3.4-27.7,3.3-31.2,15.9l-6.3,28.6C160.1,283.8,165.6,292.8,174.6,295.3z"/>
							<path class="st5" d="M182.5,226.4c-1.4-0.2-4.7-1-9.3-1.2c-9.7-0.4-14.7,13.3-14.7,13.3s-2.8,26.3-1.7,28.8
								c1.7,4,0.4,9.8,4.1,16.3c1.1,2,8.8-3.4,8.8-3.4l11.6-36.2l9.5-7.5L182.5,226.4z"/>
							<g>
								<path class="st4" d="M166.8,261c-1.4,5.1,1.6,10.5,6.8,11.9c5.1,1.4,10.5-1.6,11.9-6.8c1.4-5.1-1.6-10.5-6.8-11.9
									C173.5,252.8,168.2,255.9,166.8,261z"/>
							</g>
							<path class="st5" d="M162.8,252.5c0,0,7.7,4.6,18.9-4.7c4.8-4,11.7,4,15.8,6c7,3.4,17.4,5.6,24.4-4.3
								c9.7-13.7,5.6-17.9-3.7-24.3c-6.6-4.5-21.3-6.8-26.9-7.1c-3.7-0.2-20.7,2.8-21.7,3.3l7.4,20L162.8,252.5z"/>
							<line class="st6" x1="179.2" y1="235.7" x2="201.8" y2="230.9"/>
							<polygon class="st4" points="158.5,305.4 170.1,327.6 183,311.2 							"/>
						</g>
					</g>
				</g>
			</g>
		</g>
		<g id="XMLID_550_">
			<polygon id="XMLID_552_" class="st4" points="169.5,690.5 172.7,715.7 192.1,714.4 192.2,686.8 			"/>
		</g>
		<g id="XMLID_547_">
			<polygon id="XMLID_549_" class="st4" points="91.4,662.1 78.6,694.7 94.1,699.2 111,669.5 			"/>
		</g>
		<path id="XMLID_546_" class="st7" d="M105.1,431.3c-37.1,19.3-5.2,157.8-5.2,157.8l-21.4,90.2l27.7,14.4c0,0,38-60.2,42-98.7
			C156.8,514.5,146.2,409.9,105.1,431.3z"/>
		<path id="XMLID_545_" class="st8" d="M113.1,416.1c0,0-17.1,56.3,16.5,111.2c19.3,31.6,19.6,35.8,21.3,57.8
			c1.7,22,16.8,118.3,16.8,118.3l29.8-2.2c0,0,9.9-65.9,12-123.5c2.2-60.8-54.7-162-54.7-162L113.1,416.1z"/>
		<path id="XMLID_548_" class="st9" d="M141,300c-39.2,13.8-58.3,99.3-56.3,149.3c1.2,30.7-10.8,32.7,100,27.2
			c0,0,24.7-109.2,6.7-171.3C191.3,305.2,154.8,295.2,141,300z"/>
		<g id="XMLID_520_">
			<g id="XMLID_531_">
				
					<linearGradient id="XMLID_7_" gradientUnits="userSpaceOnUse" x1="293.4443" y1="-296.8792" x2="293.4443" y2="-296.8792" gradientTransform="matrix(-0.9089 -0.4171 -0.4171 0.9089 352.6774 693.584)">
					<stop  offset="0" style="stop-color:#546AEA"/>
					<stop  offset="1" style="stop-color:#658BFD"/>
				</linearGradient>
				<path id="XMLID_543_" class="st10" d="M209.8,301.4"/>
			</g>
		</g>
		<path class="st9" d="M192.2,705.4c11.2,17.5,41.5,8.9,39.2,31.5c-45.3-3-64.1-3.8-64.1-3.8c0.4-5.2,2-17.5,3.3-22.3L192.2,705.4z"
			/>
		<path class="st9" d="M100.2,691.4c5.5,20,37.1,20.8,28.2,41.7c-42.4-16.1-60.2-22.5-60.2-22.5c1.9-4.9,7-16.1,9.7-20.3
			L100.2,691.4z"/>
		<path class="st4" d="M245.7,480.3c4.8,0.5,7.7,0.7,8.1,0.7c5.1,1.9,9.5,3,13.5,3.5c4,0.6,7.4,0.6,10.6,0.5l10,0.9
			c1.1,0.1,2-0.7,2.1-1.9c0-1.2-0.8-2.2-1.9-2.2c0,0-8.1-1.2-9-1.6c0.6-0.2,13.4,0.6,13.4,0.6c1.1,0.1,2-0.7,2-1.9
			c0.1-1.2-0.7-2.2-1.8-2.3c0,0-12-1.5-12.8-1.8c0.8-0.2,13.8,0.5,13.8,0.5c1.1,0.1,2-0.7,2-1.9c0-1.2-0.8-2.2-1.9-2.3
			c0,0-13.8-1.7-13.9-1.9c0-0.2,11.9,0.5,11.9,0.5c1.1,0.1,2-0.7,2-1.9c0.1-1.2-0.7-2.2-1.8-2.3l-12.4-1.2c-0.1-0.2-12.7-1.2-13.6-4
			c-0.6-2,0.6-6.6-0.6-8.7c-0.4-0.7-1.6-1.8-1.9-1c-0.9,2.3-2.5,8.7-6.4,12.1c-1.2,1.1-2.2,2.7-3,4.3c-1.6-0.5-3.9-1.1-6.7-1.9
			L245.7,480.3z"/>
		<path id="XMLID_537_" class="st2" d="M147.8,340c0,0-21.5,49.1,5.6,86.4c27.1,37.3,71.3,54,99.4,53.6l5.8-17.1
			c0,0-61.9-33.6-68.8-61.6c-6.9-28,10.1-68.4-3.4-74.7C172.7,320.3,161.8,325.3,147.8,340z"/>
	</g>
	<ellipse class="st1" cx="811.3" cy="945.9" rx="164.8" ry="20.8"/>
	<polygon class="st4" points="770.2,913.6 765,935.8 758.6,938.8 746.2,934.4 746.7,909.6 	"/>
	<path class="st11" d="M777,946.9L777,946.9c-0.4-3.6-1.5-9.7-4.2-15.9c-0.8-1.9-4.5-4.8-7.1-4.1c-6.3,1.8-9.3,7.3-13.6,7.3
		c-5,0-6.5-7.3-6.5-7.3s-22.8,5.2-26.7,9.4c-4,4.3-2.7,13.8-2.7,13.8H777h0.3C777.3,950.2,777.2,949,777,946.9L777,946.9z"/>
	<polygon class="st4" points="872.2,910.7 872.6,933.5 867.2,938 854.1,936.7 848.4,912.6 	"/>
	<path class="st11" d="M882.2,946.9L882.2,946.9c-0.4-3.6-1.5-9.7-4.2-15.9c-0.8-1.9-4.5-4.8-7.1-4.1c-6.3,1.8-9.3,7.3-13.6,7.3
		c-5,0-6.5-7.3-6.5-7.3s-22.8,5.2-26.7,9.4c-4,4.3-2.7,13.8-2.7,13.8h60.9h0.3C882.4,950.2,882.4,949,882.2,946.9L882.2,946.9z"/>
	<g>
		<circle class="st12" cx="988.3" cy="484.3" r="83.9"/>
	</g>
	<g>
		<path class="st13" d="M930.3,550.1L930.3,550.1c-3.2-3-3.3-8-0.3-11.2l68.5-72.6l11.5,10.9l-68.5,72.6
			C938.6,552.9,933.5,553.1,930.3,550.1z"/>
		<path class="st13" d="M1037.7,472.7c4.9-9.7,1.6-25.1,1.6-25.1l-7.7,19.4l-14.1,5l-13.8-13l5.4-13.5l17.5-9.7c0,0-17.2-3-25,3
			c-11.7,9.1-12.1,25.8-2.4,36.5l-0.1,0.1c0.1,0.1,0.2,0.2,0.4,0.3c0.2,0.2,0.4,0.4,0.7,0.6c0.2,0.2,0.4,0.4,0.6,0.6
			c0.1,0.1,0.2,0.2,0.4,0.3l0.1-0.1C1012.6,486.3,1031.1,486,1037.7,472.7z"/>
	</g>
	<g>
		<g>
			<path class="st3" d="M1014.6,357.8l2.8,3.4l3.4-2.8l39.7-32.3l3.4-2.8l-2.8-3.4l-22-27c4.1-6,7.6-12.5,10.4-19.2l34.6,3.6
				l4.4,0.4l0.4-4.4l5.2-50.9l0.4-4.4l-4.4-0.4l-34.7-3.6c-1.3-6.8-3.3-13.4-5.9-19.8l26.6-21.6l3.4-2.8l-2.8-3.4l-32.3-39.7
				l-2.8-3.4l-3.4,2.8l-26.6,21.6c-5.4-3.7-11.2-6.8-17.2-9.4l3.5-34l0.4-4.4l-4.4-0.4l-50.9-5.2l-4.4-0.4l-0.4,4.4l-3.4,33.3
				c-7.1,1.3-14,3.2-20.6,5.9l-21.3-26.2l-2.8-3.4l-3.4,2.8l-39.7,32.3l-3.4,2.8l2.8,3.4l21.1,25.9c-4.3,6.3-8,13.1-10.8,20.2
				l-33.3-3.4l-4.4-0.4l-0.4,4.4l-5.2,50.9l-0.4,4.4l4.4,0.4l34,3.5c1.4,6.9,3.5,13.7,6.3,20.1l-26.3,21.4l-3.4,2.8l2.8,3.4
				l32.3,39.7l2.8,3.4l3.4-2.8l26.9-21.9c5.3,3.5,11,6.5,16.9,9l-3.6,34.7l-0.4,4.4l4.4,0.4l50.9,5.2l4.4,0.4l0.4-4.4l3.6-34.6
				c6.7-1.3,13.3-3.2,19.5-5.7L1014.6,357.8L1014.6,357.8z M987.8,276.3c-23.3,19-57.7,15.4-76.7-7.9c-19-23.3-15.4-57.7,7.9-76.7
				s57.7-15.4,76.7,7.9C1014.6,222.9,1011.1,257.3,987.8,276.3z"/>
		</g>
		<g>
			<path class="st3" d="M777.8,230.8l1.7,2.1l2.1-1.7l25.1-20.4l2.1-1.7l-1.7-2.1l-13.9-17c2.6-3.8,4.8-7.9,6.6-12.1l21.8,2.2
				l2.8,0.3l0.3-2.8l3.3-32.1l0.3-2.8l-2.8-0.3l-21.9-2.3c-0.8-4.3-2.1-8.5-3.7-12.5l16.8-13.7l2.1-1.7l-1.7-2.1L796.8,85l-1.7-2.1
				l-2.1,1.7l-16.8,13.7c-3.4-2.3-7.1-4.3-10.9-5.9l2.2-21.5l0.3-2.8l-2.8-0.3l-32.1-3.3l-2.8-0.3l-0.3,2.8l-2.2,21
				c-4.5,0.8-8.8,2-13,3.7l-13.5-16.5l-1.7-2.1l-2.1,1.7l-25.1,20.4l-2.1,1.7l1.7,2.1l13.3,16.3c-2.7,4-5,8.3-6.8,12.8l-21-2.2
				l-2.8-0.3l-0.3,2.8l-3.3,32.1l-0.3,2.8l2.8,0.3l21.5,2.2c0.9,4.4,2.2,8.6,4,12.7l-16.6,13.5l-2.1,1.7l1.7,2.1l20.4,25.1l1.7,2.1
				l2.1-1.7l17-13.8c3.4,2.2,6.9,4.1,10.7,5.7l-2.3,21.9l-0.3,2.8l2.8,0.3l32.1,3.3l2.8,0.3l0.3-2.8l2.2-21.8
				c4.2-0.8,8.4-2,12.3-3.6L777.8,230.8L777.8,230.8z M760.9,179.4c-14.7,12-36.4,9.7-48.4-5c-12-14.7-9.7-36.4,5-48.4
				c14.7-12,36.4-9.7,48.4,5S775.7,167.4,760.9,179.4z"/>
		</g>
	</g>
	<g>
		<path id="XMLID_1157_" class="st3" d="M596,32.9C596,8.7,575.9,0,548.1,0c-27.8,0-52.6,8.7-52.6,32.9c0,22.3,19.1,34.1,43.9,36.8
			c-0.9,4.3-1.5,5.4-6.3,10.6c0,0,15.4,4,22.8-11.1C578.8,65.1,596,54.1,596,32.9z"/>
		<g id="XMLID_1153_">
			<path id="XMLID_1156_" class="st13" d="M532.6,32.6c0,4.5-3.7,8.2-8.2,8.2c-4.5,0-8.2-3.7-8.2-8.2c0-4.5,3.7-8.2,8.2-8.2
				C529,24.4,532.6,28,532.6,32.6z"/>
			<path id="XMLID_1155_" class="st13" d="M554,32.6c0,4.5-3.7,8.2-8.2,8.2s-8.2-3.7-8.2-8.2c0-4.5,3.7-8.2,8.2-8.2S554,28,554,32.6
				z"/>
			<path id="XMLID_1154_" class="st13" d="M575.3,32.6c0,4.5-3.7,8.2-8.2,8.2c-4.5,0-8.2-3.7-8.2-8.2c0-4.5,3.7-8.2,8.2-8.2
				C571.6,24.4,575.3,28,575.3,32.6z"/>
		</g>
		<path id="XMLID_1164_" class="st3" d="M352.7,81.1c0-33.6,28-45.6,66.5-45.6s73.1,12,73.1,45.6c0,31-26.6,47.3-60.9,51.1
			c1.2,6,2,7.5,8.7,14.7c0,0-21.4,5.5-31.6-15.4C376.7,125.8,352.7,110.5,352.7,81.1z"/>
		<g id="XMLID_1158_">
			<path id="XMLID_1163_" class="st13" d="M440.7,80.7c0,6.3,5.1,11.4,11.4,11.4c6.3,0,11.4-5.1,11.4-11.4c0-6.3-5.1-11.4-11.4-11.4
				C445.9,69.3,440.7,74.4,440.7,80.7z"/>
			<path id="XMLID_1162_" class="st13" d="M411.1,80.7c0,6.3,5.1,11.4,11.4,11.4S434,87,434,80.7c0-6.3-5.1-11.4-11.4-11.4
				S411.1,74.4,411.1,80.7z"/>
			<path id="XMLID_1159_" class="st13" d="M381.5,80.7c0,6.3,5.1,11.4,11.4,11.4s11.4-5.1,11.4-11.4c0-6.3-5.1-11.4-11.4-11.4
				S381.5,74.4,381.5,80.7z"/>
		</g>
	</g>
	<g>
		<g>
			<linearGradient id="SVGID_1_" gradientUnits="userSpaceOnUse" x1="629.8269" y1="746.2516" x2="625.2562" y2="665.5032">
				<stop  offset="0" style="stop-color:#EEF3FA"/>
				<stop  offset="0.2473" style="stop-color:#E6EDF8"/>
				<stop  offset="1" style="stop-color:#D2DFF1"/>
			</linearGradient>
			<polygon class="st14" points="736.8,728.9 520.9,728.9 541.6,650.7 716,650.7 			"/>
			<linearGradient id="SVGID_2_" gradientUnits="userSpaceOnUse" x1="628.8465" y1="707.9854" x2="628.8465" y2="727.6978">
				<stop  offset="0" style="stop-color:#EEF3FA"/>
				<stop  offset="0.2473" style="stop-color:#E6EDF8"/>
				<stop  offset="1" style="stop-color:#D2DFF1"/>
			</linearGradient>
			<polygon class="st15" points="789.2,732.4 468.5,732.4 478,710.7 779.7,710.7 			"/>
			<path class="st11" d="M941.7,650.7h-627c-9.7,0-17.5-7.7-17.5-17.1l1.2-438.5c0-9.4,7.9-17.1,17.6-17.1h627
				c9.7,0,17.5,7.7,17.5,17.1l-1.2,438.5C959.3,643,951.4,650.7,941.7,650.7z"/>
			<linearGradient id="SVGID_3_" gradientUnits="userSpaceOnUse" x1="630.3481" y1="528.8454" x2="627.9612" y2="646.9988">
				<stop  offset="0" style="stop-color:#EEF3FA"/>
				<stop  offset="0.2473" style="stop-color:#E6EDF8"/>
				<stop  offset="1" style="stop-color:#D2DFF1"/>
			</linearGradient>
			<path class="st16" d="M942.2,650.7h-627c-9.7,0-17.5-6.9-17.5-15.3l0.2-64.6H960l-0.2,64.6C959.8,643.9,951.9,650.7,942.2,650.7z
				"/>
		</g>
	</g>
	<path class="st17" d="M923.9,544.3H335.8c-4.3,0-7.8-3.5-7.8-7.8V216.1c0-4.3,3.5-7.8,7.8-7.8h588.1c4.3,0,7.8,3.5,7.8,7.8v320.4
		C931.7,540.8,928.2,544.3,923.9,544.3z"/>
	<path class="st12" d="M933.1,252.2H328.6v-37.5c0-4.1,3.3-7.4,7.4-7.4h589.6c4.1,0,7.4,3.3,7.4,7.4V252.2z"/>
	<g>
		<path class="st13" d="M914.6,245.5H891c-2.3,0-4.3-1.9-4.3-4.3v-17.9c0-2.3,1.9-4.3,4.3-4.3h23.6c2.3,0,4.3,1.9,4.3,4.3v17.9
			C918.9,243.6,917,245.5,914.6,245.5z M891,220.5c-1.6,0-2.9,1.3-2.9,2.9v17.9c0,1.6,1.3,2.9,2.9,2.9h23.6c1.6,0,2.9-1.3,2.9-2.9
			v-17.9c0-1.6-1.3-2.9-2.9-2.9H891z"/>
		<g>
			<path class="st13" d="M896.5,239.5c-0.2,0-0.3-0.1-0.5-0.2c-0.3-0.3-0.3-0.7,0-1l12.6-13.1c0.3-0.3,0.7-0.3,1,0
				c0.3,0.3,0.3,0.7,0,1L897,239.3C896.9,239.5,896.7,239.5,896.5,239.5z"/>
			<path class="st13" d="M909.1,239.5c-0.2,0-0.4-0.1-0.5-0.2L896,226.3c-0.3-0.3-0.3-0.7,0-1c0.3-0.3,0.7-0.3,1,0l12.6,13.1
				c0.3,0.3,0.3,0.7,0,1C909.4,239.5,909.2,239.5,909.1,239.5z"/>
		</g>
	</g>
	<g>
		<path class="st13" d="M676.6,245.8H371.3c-7.5,0-13.5-6.1-13.5-13.5v0c0-7.5,6.1-13.5,13.5-13.5h305.3c7.5,0,13.5,6.1,13.5,13.5v0
			C690.1,239.8,684,245.8,676.6,245.8z M371.3,220.4c-6.6,0-12,5.4-12,12v0c0,6.6,5.4,12,12,12h305.3c6.6,0,12-5.4,12-12v0
			c0-6.6-5.4-12-12-12H371.3z"/>
	</g>
	<rect x="356.6" y="452.6" class="st0" width="204.7" height="71.3"/>
	<rect x="367.7" y="463" class="st17" width="186.6" height="9.6"/>
	<rect x="367.7" y="479.6" class="st17" width="186.6" height="9.6"/>
	<g>
		<g>
			<g>
				<path class="st18" d="M643.7,370l31-26.3c0.5-1.1,1.6-1.8,2.8-1.8l32.6-17.5l24.5-33.9c0.6-0.9,1.6-1.4,2.6-1.4l47.9-3.4
					c1.1,0,2.1,0.6,2.6,1.5l18.8,34.7L860,307c1.7,0,3.1,1.3,3.1,3c0,1.7-1.3,3.1-3,3.1L804.9,328c-1.1,0-2.1-0.6-2.7-1.5
					l-18.8-34.8l-44.4,3.4L714.4,329c-0.6,0.9-1.5,1.4-2.6,1.4L679.5,348l-31,26.3c-0.5,1.1-1.6,1.8-2.8,1.8L643.7,370z"/>
			</g>
		</g>
		<g>
			<g>
				<rect x="627.4" y="406.4" class="st19" width="31.5" height="120.7"/>
			</g>
			<g>
				<rect x="684.3" y="374.1" class="st18" width="31.5" height="153"/>
			</g>
			<g>
				<rect x="741.3" y="313.4" class="st20" width="31.5" height="213.6"/>
			</g>
			<g>
				<rect x="798.2" y="358.2" class="st18" width="31.5" height="168.9"/>
			</g>
			<g>
				<rect x="855.2" y="333.4" class="st19" width="31.5" height="193.7"/>
			</g>
		</g>
	</g>
	<path class="st0" d="M365.2,367h192.3c1,0,1.7,0.8,1.7,1.7l0,3.1c0,1-0.8,1.7-1.7,1.7H365.2c-1,0-1.7-0.8-1.7-1.7l0-3.1
		C363.4,367.8,364.2,367,365.2,367z"/>
	<path class="st0" d="M365.2,381.7h192.3c1,0,1.7,0.8,1.7,1.7l0,3.1c0,1-0.8,1.7-1.7,1.7H365.2c-1,0-1.7-0.8-1.7-1.7l0-3.1
		C363.4,382.5,364.2,381.7,365.2,381.7z"/>
	<path class="st0" d="M365.2,396.3h192.3c1,0,1.7,0.8,1.7,1.7l0,3.1c0,1-0.8,1.7-1.7,1.7H365.2c-1,0-1.7-0.8-1.7-1.7l0-3.1
		C363.4,397.1,364.2,396.3,365.2,396.3z"/>
	<polygon class="st0" points="359.5,274.6 561.6,274.3 561.9,356.4 359.7,356.6 359.7,356.6 359.5,274.6 	"/>
	<rect x="371.5" y="285" class="st17" width="59" height="56.1"/>
	<rect x="441.5" y="286.1" class="st17" width="107.8" height="6.8"/>
	<rect x="441.5" y="301.9" class="st17" width="107.8" height="6.8"/>
	<rect x="441.5" y="317.8" class="st17" width="107.8" height="6.8"/>
	<rect x="441.5" y="333.7" class="st17" width="107.8" height="6.8"/>
	<circle class="st21" cx="712.3" cy="326.2" r="10.9"/>
	<circle class="st21" cx="737.9" cy="291.7" r="10.9"/>
	<circle class="st21" cx="784.5" cy="289.9" r="10.9"/>
	<circle class="st21" cx="805.6" cy="322.9" r="10.9"/>
	<circle class="st21" cx="861.6" cy="309.5" r="10.9"/>
	<circle class="st21" cx="679.5" cy="342.9" r="10.9"/>
	<circle class="st21" cx="641.9" cy="375.2" r="10.9"/>
	<g>
		<path class="st22" d="M417.5,681.3c-5.9-38.5-6.4-84.5,14-118.4c5.8-9.7,17.6-20.8,27.2-26.7c1.8-1.1,11.5-6.8,14-5.3
			c3.8,2.3-3.8,16.7-5,19.3c-2.5,5.5-4.2,9.6-7.6,13.9c-1,1.3-0.9,3.1,0.3,4.2c12.5,11.5-9.8,29.9-18.8,40.8c-1,1.3-0.9,3.2,0.3,4.3
			c10.5,9.1-4.1,22.9-8.5,33.3c-4.6,10.8-8.1,22.8-10,35c-0.5,3.4-5.4,3.3-5.9-0.2C417.5,681.4,417.5,681.3,417.5,681.3z"/>
		<path class="st22" d="M427.2,688.8c-19.8-33.6-37.3-76.1-30.9-115.1c1.8-11.2,8.6-25.8,15.3-34.9c1.3-1.7,8.1-10.6,11-10.1
			c4.3,0.7,2.7,16.9,2.5,19.8c-0.3,6-0.4,10.5-1.9,15.7c-0.5,1.5,0.3,3.2,1.8,3.8c15.9,6,2.1,31.4-2.3,44.9
			c-0.5,1.6,0.3,3.3,1.9,3.8c13.1,4.6,4.7,22.7,4.5,34c-0.2,11.7,1,24.2,3.7,36.2c0.8,3.4-3.8,5.1-5.5,2
			C427.3,688.9,427.3,688.9,427.2,688.8z"/>
		<path class="st23" d="M417,678.9c4.3-34.4,15.2-73.9,41.7-97.9c7.6-6.9,20.7-13.5,30.6-16.2c1.9-0.5,11.8-3.1,13.7-1.2
			c2.8,2.9-7.5,13.4-9.2,15.3c-3.6,4.1-6.1,7.2-10.1,10c-1.2,0.8-1.6,2.5-0.8,3.7c8.2,12.9-16,23.2-26.7,30.4
			c-1.2,0.8-1.6,2.5-0.8,3.7c7,10.3-9.3,18.6-15.7,26.4c-6.7,8.1-12.8,17.6-17.5,27.5c-1.3,2.8-5.6,1.5-5.1-1.6
			C417,679,417,678.9,417,678.9z"/>
		<path class="st24" d="M425.2,686.4c2.9-38.9-0.3-84.7-23.3-116.9c-6.6-9.2-19.2-19.3-29.2-24.4c-1.9-1-12-5.9-14.3-4.2
			c-3.6,2.6,5.1,16.3,6.5,18.9c3,5.2,5,9.3,8.6,13.2c1.1,1.2,1.1,3.1,0,4.2c-11.6,12.4,12.1,29.1,21.9,39.2c1.1,1.2,1.2,3.1,0,4.3
			c-9.7,9.9,5.9,22.5,11.1,32.5c5.4,10.4,9.9,22.1,12.7,34.1c0.8,3.4,5.7,2.8,5.8-0.7C425.2,686.5,425.2,686.5,425.2,686.4z"/>
		<path class="st25" d="M413.8,693.9c18.9-25.8,36.3-59.4,32.4-93.5c-1.1-9.7-6.4-23.2-11.8-31.8c-1.1-1.7-6.6-10.1-9.2-10.2
			c-3.8,0-3.1,14-3.1,16.5c0,5.2-0.2,9,0.9,13.6c0.3,1.4-0.4,2.7-1.8,3c-14.2,2.9-3.3,26.4-0.1,38.4c0.4,1.4-0.4,2.8-1.8,3
			c-11.7,2-5.2,18.7-5.5,28.3c-0.3,10-2,20.5-4.9,30.2c-0.8,2.8,3.1,4.8,4.8,2.5C413.7,694,413.8,693.9,413.8,693.9z"/>
		<g id="XMLID_518_">
			<g id="XMLID_519_">
				<g id="XMLID_524_">
					<polygon id="XMLID_527_" class="st11" points="489.3,648.1 474.3,732.4 389.8,732.4 376.6,656.1 					"/>
					
						<linearGradient id="XMLID_8_" gradientUnits="userSpaceOnUse" x1="2322.4854" y1="647.6111" x2="2446.6379" y2="647.6111" gradientTransform="matrix(-1 0 0 1 2817.5286 0)">
						<stop  offset="0.3237" style="stop-color:#4F6AD9"/>
						<stop  offset="1" style="stop-color:#658BFD"/>
					</linearGradient>
					<path id="XMLID_526_" class="st26" d="M371.6,663.3h122.8c0.4,0,0.7-0.3,0.7-0.7v-30c0-0.4-0.3-0.7-0.7-0.7H371.6
						c-0.4,0-0.7,0.3-0.7,0.7v30C370.9,663,371.2,663.3,371.6,663.3z"/>
					<path id="XMLID_525_" class="st27" d="M371.6,663.3h122.8c0.4,0,0.7-0.3,0.7-0.7v-30c0-0.4-0.3-0.7-0.7-0.7H371.6
						c-0.4,0-0.7,0.3-0.7,0.7v30C370.9,663,371.2,663.3,371.6,663.3z"/>
				</g>
			</g>
		</g>
	</g>
	<g>
		<g>
			<path class="st22" d="M1175.9,694.9c0,0-58.1-169.7-83.1-151.1c-25,18.6,76.9,153.6,76.9,153.6L1175.9,694.9z"/>
			<path class="st22" d="M1169.4,696.6c0,0,10.3-179.1-19.8-171.3c-30.2,7.8,13.2,171.3,13.2,171.3L1169.4,696.6z"/>
			<path class="st23" d="M1149.9,680.8c0,0,11.4-212.3-24.3-203c-35.7,9.3,16.4,203,16.4,203H1149.9z"/>
			<path class="st22" d="M1172.3,702.9c0,0,77.7-161.7,46.8-166c-30.8-4.3-53,163.5-53,163.5L1172.3,702.9z"/>
			<path class="st23" d="M1155,680.8c0.2-5,10.8-251,46.7-241.6c34.2,8.9-37.4,236.9-38.9,241.6H1155z"/>
			<path class="st24" d="M1136.9,684.4c0,0-19.8-107.3-37.6-102.6c-17.9,4.7,33.7,102.6,33.7,102.6H1136.9z"/>
			<path class="st25" d="M1166.2,684.4c0,0,31.5-107.3,49.4-102.6c17.9,4.7-45.5,102.6-45.5,102.6H1166.2z"/>
			<path class="st25" d="M1173.9,682.2c0,0,37.4-80.7,50.9-74.9c13.5,5.8-47.8,75.4-47.8,75.4L1173.9,682.2z"/>
			<path class="st25" d="M1167.1,678.8c0,0-23-85.8-9-90.1c14-4.2,11.7,88.5,11.7,88.5L1167.1,678.8z"/>
			<path class="st25" d="M1142.3,657.9c0,0-23-85.8-9-90.1c14-4.2,11.7,88.5,11.7,88.5L1142.3,657.9z"/>
		</g>
		<polygon id="XMLID_1166_" class="st11" points="1215.4,653 1200.4,737.3 1115.9,737.3 1102.7,660.9 		"/>
		<path id="XMLID_1165_" class="st27" d="M1097.7,668.2h122.8c0.4,0,0.7-0.3,0.7-0.7v-30c0-0.4-0.3-0.7-0.7-0.7h-122.8
			c-0.4,0-0.7,0.3-0.7,0.7v30C1097,667.9,1097.3,668.2,1097.7,668.2z"/>
	</g>
	<g>
		<path class="st28" d="M932.8,419.9c-0.9,20.9-30.4,53.1-30.4,53.1l-18.3-22.4l18.7-39.3l-22.1-73.4c4-1.5,10.1-3.3,13.2-5.5
			C905,345.6,933.9,392.9,932.8,419.9z"/>
		<path class="st28" d="M745.9,450.6l-8.8,35.6c0,0-48.7-30.7-52.6-38.5c-9-18.2-12.7-64.6-13.6-77.8c5.7-0.2,9.6-1.8,14.7-3
			c2.2,11.6,17.9,58.9,17.9,58.9L745.9,450.6z"/>
		<path class="st29" d="M765.7,588.6l-25.5,166.8v162.7l31.1,1.2l18.2-128.9l29.7-100.6l6.1,96.7l20.3,128.8l29.6,1.5
			c0,0,0.5-46.6-3.3-120.2c-4.6-88.7,11.8-167.2,3.3-185.9C872.2,604.6,765.7,588.6,765.7,588.6z"/>
		<path class="st2" d="M773.9,448.6c0,0,30.5,3.4,48.8,3c18.3-0.4,48.6,1.1,48.6,1.1l16.5-17.6l35.6,22.9c0,0-26.9,31.3-34.3,39.2
			c-7.4,7.9-5.4,147.7-5.4,147.7s-51.1,22.6-131.2-2.8c-7.5-19,8.8-125,6.7-134.6c-2.1-9.5-39.4-21.3-39.4-21.3s6.2-32.3,21.4-43.5
			C743.3,443.9,773.9,448.6,773.9,448.6z"/>
		<path class="st28" d="M672.3,378.2c-0.9-4.9-1.4-7.9-1.4-8.2c-2.4-5.1-3.8-9.6-4.8-13.6c-0.9-4-1.3-7.6-1.4-10.8l-1.8-10.2
			c-0.2-1.1,0.6-2.1,1.8-2.3c1.2-0.1,2.3,0.6,2.5,1.7c0,0,1.9,8.3,2.4,9.1c0.1-0.6-1.8-13.7-1.8-13.7c-0.2-1.1,0.6-2.1,1.7-2.3
			c1.2-0.2,2.3,0.6,2.5,1.7c0,0,2.6,12.2,3,13c0.2-0.9-1.6-14.2-1.6-14.2c-0.2-1.1,0.6-2.1,1.7-2.3c1.2-0.1,2.3,0.6,2.5,1.7
			c0,0,2.9,14.1,3.1,14.1c0.2,0-1.5-12.2-1.5-12.2c-0.2-1.1,0.6-2.1,1.8-2.2c1.2-0.2,2.3,0.6,2.5,1.7l2.3,12.7
			c0.2,0,0.2,7.7,3.1,8.4c2.1,0.5,0.8-3.6,2.2-5.6c1.6-2.5,4.7-2.6,5.1,2.6c0.3,4.5-3.7,13.4-6.8,17.7c-1,1.4-2.6,2.5-4.2,3.5
			c0.6,1.6,1.5,3.9,2.5,6.7L672.3,378.2z"/>
		<path class="st28" d="M895.5,333.6c-2.1-4.5-3.4-7.2-3.6-7.5c-1-5.5-2.4-10-3.9-13.9c-1.6-3.8-3.3-6.9-5.1-9.7l-4.4-9.4
			c-0.5-1-1.7-1.4-2.8-0.9c-1.1,0.6-1.5,1.8-1,2.8c0,0,3.2,7.9,3.3,8.8c-0.4-0.4-6.4-12.2-6.4-12.2c-0.5-1-1.7-1.4-2.7-0.8
			c-1.1,0.5-1.5,1.8-1.1,2.8c0,0,4.9,11.5,5.1,12.4c-0.6-0.6-6.8-12.5-6.8-12.5c-0.5-1-1.7-1.4-2.7-0.8c-1.1,0.6-1.5,1.8-1,2.9
			c0,0,5.7,13.2,5.6,13.3c-0.2,0.1-5.8-10.8-5.8-10.8c-0.5-1-1.7-1.4-2.8-0.8c-1.1,0.5-1.5,1.8-1,2.8l5.4,11.7
			c-0.1,0.1,4.3,6.4,2.3,8.6c-1.4,1.6-2.7-2.4-5-3.4c-2.7-1.1-5.3,0.6-2.6,5c2.3,3.9,10.7,8.8,15.7,10.5c1.6,0.5,3.6,0.5,5.4,0.4
			c0.4,1.7,1.1,4.1,1.8,6.9L895.5,333.6z"/>
		<path class="st28" d="M795.4,383.3c0,0-13.4,19.5-10.5,37s17.5,20.2,24.6,19.5c7.1-0.7,23.7-13.2,23.7-13.2l-7.4-37.8L795.4,383.3
			z"/>
		<path class="st28" d="M808.8,425.2c0,0-4.2,24.2,0,28.7c6.4,6.9,17.2,6.5,20.9,2c3.7-4.5,7.4-35.7,7.4-35.7L808.8,425.2z"/>
		<path class="st30" d="M794.7,390c0,0-17.3-14.5-5.8-23.2c11.5-8.7,17.2,1.9,21.6,0c4.4-1.9,14.5-8.6,20.6-5.6
			c6.1,3,16.9,9.5,17.9,18.9c1,9.5,8.4,14.5,1.7,32.5c-6.7,17.9-11.2,25.9-29.1,17.5c-17.9-8.4-7.6-17.3-7.7-23.8
			C813.9,399.8,794.7,390,794.7,390z"/>
	</g>
	<linearGradient id="SVGID_4_" gradientUnits="userSpaceOnUse" x1="224.3541" y1="622.5526" x2="252.5759" y2="622.5526">
		<stop  offset="0" style="stop-color:#EEF3FA"/>
		<stop  offset="0.2473" style="stop-color:#E6EDF8"/>
		<stop  offset="1" style="stop-color:#D2DFF1"/>
	</linearGradient>
	<polygon class="st31" points="252.6,627 243.2,621.4 248.7,611.9 242.9,608.4 237.3,617.9 227.8,612.3 224.4,618.2 233.8,623.7 
		228.2,633.2 234.1,636.7 239.7,627.2 249.1,632.8 	"/>
	<linearGradient id="SVGID_5_" gradientUnits="userSpaceOnUse" x1="42.4274" y1="284.0254" x2="70.6492" y2="284.0254">
		<stop  offset="0" style="stop-color:#EEF3FA"/>
		<stop  offset="0.2473" style="stop-color:#E6EDF8"/>
		<stop  offset="1" style="stop-color:#D2DFF1"/>
	</linearGradient>
	<polygon class="st32" points="70.6,288.4 61.2,282.8 66.8,273.4 60.9,269.9 55.3,279.3 45.9,273.7 42.4,279.6 51.9,285.2 
		46.3,294.6 52.1,298.1 57.7,288.7 67.2,294.3 	"/>
	<linearGradient id="SVGID_6_" gradientUnits="userSpaceOnUse" x1="1102.1223" y1="370.3189" x2="1130.3441" y2="370.3189">
		<stop  offset="0" style="stop-color:#EEF3FA"/>
		<stop  offset="0.2473" style="stop-color:#E6EDF8"/>
		<stop  offset="1" style="stop-color:#D2DFF1"/>
	</linearGradient>
	<polygon class="st33" points="1130.3,374.7 1120.9,369.1 1126.5,359.7 1120.6,356.2 1115,365.6 1105.6,360 1102.1,365.9 
		1111.5,371.5 1106,380.9 1111.8,384.4 1117.4,375 1126.9,380.6 	"/>
	<linearGradient id="SVGID_7_" gradientUnits="userSpaceOnUse" x1="1010.5643" y1="644.8164" x2="1038.7861" y2="644.8164">
		<stop  offset="0" style="stop-color:#EEF3FA"/>
		<stop  offset="0.2473" style="stop-color:#E6EDF8"/>
		<stop  offset="1" style="stop-color:#D2DFF1"/>
	</linearGradient>
	<polygon class="st34" points="1038.8,649.2 1029.4,643.6 1035,634.2 1029.1,630.7 1023.5,640.1 1014.1,634.5 1010.6,640.4 
		1020,646 1014.4,655.4 1020.3,658.9 1025.9,649.5 1035.3,655.1 	"/>
	<linearGradient id="SVGID_8_" gradientUnits="userSpaceOnUse" x1="552.9785" y1="127.5518" x2="581.2003" y2="127.5518">
		<stop  offset="0" style="stop-color:#EEF3FA"/>
		<stop  offset="0.2473" style="stop-color:#E6EDF8"/>
		<stop  offset="1" style="stop-color:#D2DFF1"/>
	</linearGradient>
	<polygon class="st35" points="581.2,132 571.8,126.4 577.4,116.9 571.5,113.4 565.9,122.9 556.5,117.3 553,123.2 562.4,128.7 
		556.8,138.2 562.7,141.7 568.3,132.2 577.7,137.8 	"/>
	<linearGradient id="SVGID_9_" gradientUnits="userSpaceOnUse" x1="256.5681" y1="60.8294" x2="284.7899" y2="60.8294">
		<stop  offset="0" style="stop-color:#EEF3FA"/>
		<stop  offset="0.2473" style="stop-color:#E6EDF8"/>
		<stop  offset="1" style="stop-color:#D2DFF1"/>
	</linearGradient>
	<polygon class="st36" points="284.8,65.2 275.4,59.6 281,50.2 275.1,46.7 269.5,56.1 260.1,50.6 256.6,56.4 266,62 260.4,71.5 
		266.3,74.9 271.9,65.5 281.3,71.1 	"/>
	<linearGradient id="SVGID_10_" gradientUnits="userSpaceOnUse" x1="841.0454" y1="60.8294" x2="869.2672" y2="60.8294">
		<stop  offset="0" style="stop-color:#EEF3FA"/>
		<stop  offset="0.2473" style="stop-color:#E6EDF8"/>
		<stop  offset="1" style="stop-color:#D2DFF1"/>
	</linearGradient>
	<polygon class="st37" points="869.3,65.2 859.8,59.6 865.4,50.2 859.6,46.7 854,56.1 844.5,50.6 841,56.4 850.5,62 844.9,71.5 
		850.8,74.9 856.4,65.5 865.8,71.1 	"/>
</g>
</svg>
