<?xml version="1.0" encoding="utf-8"?>
<!-- Generator: Adobe Illustrator 23.0.5, SVG Export Plug-In . SVG Version: 6.00 Build 0)  -->
<svg version="1.1" id="Слой_1" xmlns="http://www.w3.org/2000/svg" xmlns:xlink="http://www.w3.org/1999/xlink" x="0px" y="0px"
	 viewBox="0 0 1406.7 933.5" style="enable-background:new 0 0 1406.7 933.5;" xml:space="preserve">
<style type="text/css">
	.st0{fill:#D9F0F9;}
	.st1{fill:#E3ECFF;}
	.st2{fill:#7EC18C;}
	.st3{fill:#263238;}
	.st4{fill:#E0E0E0;}
	.st5{fill:#455A64;}
	.st6{fill:#FFFFFF;}
	.st7{fill:#7A9DE2;}
	.st8{fill:#A3D5F4;}
	.st9{fill:#EEC2AC;}
	.st10{fill:#1B2F51;}
	.st11{fill:#315786;}
	.st12{fill:#162747;}
	.st13{fill:#203B72;}
	.st14{fill:#4061AE;}
	.st15{fill:#99D2A6;}
	.st16{fill:#2F2E41;}
	.st17{fill:#282D5A;}
	.st18{fill:#F79B20;}
	.st19{fill:#203972;}
	.st20{fill:#6991F0;}
	.st21{fill:#29459F;}
	.st22{fill:#3157E6;}
	.st23{fill:url(#SVGID_1_);}
	.st24{fill:url(#SVGID_2_);}
</style>
<g>
	<g>
		<path class="st0" d="M54.6,740.6c34.7,36.1,77.6,64.5,124.4,82.8c7.6,2.9,15.2,5.6,23,8c7.5,2.3,15,4.3,22.5,6.2h1009.6
			c15.1,0,28.9-0.7,39-1.9c2.6-3.1,5.1-6.1,7.4-9.2c60.5-76.8,66.2-142,68.1-185c6.9-157.8-21.2-236.2-189.8-322
			c-81.9-41.7-373.9-26.6-425.2-91.1C631.5,100,473.1,48.3,331.4,89.6c-150.8,44-199.4,150.2-181.3,256.6
			C161.2,411.4,34.3,482.3,11,546.9C-13.7,615.1,4.3,688.2,54.6,740.6z"/>
	</g>
	<ellipse class="st1" cx="260.4" cy="920.6" rx="145.9" ry="12.9"/>
	<g>
		<g>
			<path class="st2" d="M1079.2,480.7l2,2.4l2.4-2l28.2-22.9l2.4-2l-2-2.4l-15.6-19.2c2.9-4.3,5.4-8.8,7.4-13.6l24.5,2.5l3.1,0.3
				l0.3-3.1l3.7-36.1l0.3-3.1l-3.1-0.3l-24.6-2.5c-0.9-4.8-2.3-9.5-4.2-14.1l18.9-15.4l2.4-2l-2-2.4l-22.9-28.2l-2-2.4l-2.4,2
				l-18.9,15.4c-3.8-2.6-7.9-4.8-12.2-6.7l2.5-24.1l0.3-3.1l-3.1-0.3l-36.1-3.7l-3.1-0.3l-0.3,3.1l-2.4,23.6
				c-5,0.9-9.9,2.3-14.6,4.2L993,305.6l-2-2.4l-2.4,2l-28.2,22.9l-2.4,2l2,2.4l14.9,18.4c-3.1,4.5-5.7,9.3-7.7,14.4l-23.6-2.4
				l-3.1-0.3l-0.3,3.1l-3.7,36.1l-0.3,3.1l3.1,0.3l24.1,2.5c1,4.9,2.5,9.7,4.5,14.3l-18.7,15.2l-2.4,2l2,2.4l22.9,28.2l2,2.4l2.4-2
				l19.1-15.6c3.8,2.5,7.8,4.6,12,6.4l-2.5,24.6l-0.3,3.1l3.1,0.3l36.1,3.7l3.1,0.3l0.3-3.1l2.5-24.5c4.8-0.9,9.4-2.3,13.9-4.1
				L1079.2,480.7L1079.2,480.7z M1060.2,422.8c-16.5,13.5-41,11-54.4-5.6c-13.5-16.5-11-41,5.6-54.4c16.5-13.5,41-11,54.4,5.6
				C1079.2,384.9,1076.7,409.3,1060.2,422.8z"/>
		</g>
		<g>
			<path class="st2" d="M911.2,390.5l1.2,1.5l1.5-1.2l17.8-14.5l1.5-1.2l-1.2-1.5l-9.8-12.1c1.9-2.7,3.4-5.6,4.7-8.6l15.5,1.6l2,0.2
				l0.2-2l2.3-22.8l0.2-2l-2-0.2l-15.6-1.6c-0.6-3-1.5-6-2.7-8.9l11.9-9.7l1.5-1.2l-1.2-1.5L924.6,287l-1.2-1.5l-1.5,1.2l-11.9,9.7
				c-2.4-1.6-5-3.1-7.7-4.2l1.6-15.2l0.2-2l-2-0.2l-22.8-2.3l-2-0.2l-0.2,2l-1.5,14.9c-3.2,0.6-6.3,1.4-9.2,2.6l-9.6-11.7l-1.2-1.5
				l-1.5,1.2l-17.8,14.5l-1.5,1.2l1.2,1.5l9.4,11.6c-1.9,2.8-3.6,5.9-4.9,9.1l-14.9-1.5l-2-0.2l-0.2,2l-2.3,22.8l-0.2,2l2,0.2
				l15.2,1.6c0.6,3.1,1.6,6.1,2.8,9l-11.8,9.6l-1.5,1.2l1.2,1.5l14.5,17.8l1.2,1.5l1.5-1.2l12.1-9.8c2.4,1.6,4.9,2.9,7.6,4
				l-1.6,15.6l-0.2,2l2,0.2l22.8,2.3l2,0.2l0.2-2l1.6-15.5c3-0.6,5.9-1.4,8.8-2.6L911.2,390.5L911.2,390.5z M899.2,354
				c-10.4,8.5-25.9,6.9-34.4-3.5c-8.5-10.4-6.9-25.9,3.5-34.4c10.4-8.5,25.9-6.9,34.4,3.5C911.2,330.1,909.6,345.5,899.2,354z"/>
		</g>
	</g>
	<path class="st2" d="M746.9,359.2c0.7-5.8,0.9-11.8,0.2-17.8c-0.6-6.1-2-11.9-4-17.4l-15.7,4c-1.9-5.1-4.5-9.8-7.7-14l11.9-11
		c-7.3-9.5-16.8-17.1-27.6-22.3l-8.3,14c-4.8-2.2-10-3.7-15.3-4.5l0.6-16.2c-5.8-0.7-11.8-0.9-17.8-0.2c-6.1,0.6-11.9,2-17.4,4
		l4,15.7c-5.1,1.9-9.8,4.5-14,7.7l-11-11.9c-9.5,7.3-17.1,16.8-22.3,27.6l14,8.3c-2.2,4.8-3.7,10-4.5,15.3l-16.2-0.6
		c-0.7,5.8-0.9,11.8-0.2,17.8c0.6,6.1,2,11.9,4,17.4l15.7-4c1.9,5.1,4.5,9.8,7.7,14l-11.9,11c7.3,9.5,16.8,17.1,27.6,22.3l8.3-14
		c4.8,2.2,10,3.7,15.3,4.5l-0.6,16.2c5.8,0.7,11.8,0.9,17.8,0.2c6.1-0.6,11.9-2,17.4-4l-4-15.7c5.1-1.9,9.8-4.5,14-7.7l11,11.9
		c9.5-7.3,17.1-16.8,22.3-27.6l-14-8.3c2.2-4.8,3.7-10,4.5-15.3L746.9,359.2z M675.2,385.9c-20.2,2.1-38.2-12.5-40.4-32.6
		c-2.1-20.2,12.5-38.2,32.6-40.4c20.2-2.1,38.2,12.5,40.4,32.6C710,365.7,695.4,383.8,675.2,385.9z M674.2,376.2
		c-14.8,1.6-28-9.1-29.6-23.9c-1.6-14.8,9.1-28,23.9-29.6c14.8-1.6,28,9.1,29.6,23.9C699.7,361.4,689,374.6,674.2,376.2z"/>
	<g>
		<g>
			<g>
				<path class="st3" d="M1025.6,830.1H326.8c-8,0-14.6-6.5-14.6-14.6V363.3c0-8,6.5-14.6,14.6-14.6h698.8c8,0,14.6,6.5,14.6,14.6
					v452.3C1040.2,823.6,1033.7,830.1,1025.6,830.1z"/>
			</g>
			<g>
				<path class="st3" d="M1052.7,836.6H299.6c-9.8,0-17.8-8-17.8-17.8v-24.3h788.7v24.3C1070.5,828.7,1062.5,836.6,1052.7,836.6z"/>
			</g>
			<g>
				<path class="st4" d="M1011.1,788.3H339.3c-4.1,0-7.5-3.4-7.5-7.5V375.3c0-4.1,3.4-7.5,7.5-7.5h671.9c4.1,0,7.5,3.4,7.5,7.5
					v405.5C1018.6,784.9,1015.3,788.3,1011.1,788.3z"/>
			</g>
			<g>
				<polygon class="st5" points="576.3,794.5 588.3,810.1 756.9,810.1 768,794.5 				"/>
			</g>
		</g>
		<g>
			<rect x="350.8" y="387.3" class="st6" width="644.9" height="390"/>
		</g>
		<path class="st7" d="M376.4,762.4l66-0.1l-0.7-357.1l-77.5,0.2l0.7,342.9C364.8,756.1,370,762.4,376.4,762.4z"/>
		<path class="st7" d="M463.3,431l0.3,142l509.3-1.1l-0.3-166.8l-489.1,1C472.3,406.1,463.2,417.3,463.3,431z"/>
		<path class="st6" d="M434.1,749.3l-56.9,0.1c-0.6,0-1-0.5-1-1l0-6.6c0-0.6,0.5-1,1-1l56.9-0.1c0.6,0,1,0.5,1,1l0,6.6
			C435.2,748.8,434.7,749.3,434.1,749.3z"/>
		<path class="st7" d="M628.3,640.4H466.1c-0.6,0-1-0.5-1-1l0-6.6c0-0.6,0.5-1,1-1h162.1c0.6,0,1,0.5,1,1l0,6.6
			C629.3,640,628.8,640.4,628.3,640.4z"/>
		<path class="st7" d="M628.3,621.3H466.1c-0.6,0-1-0.5-1-1l0-6.6c0-0.6,0.5-1,1-1h162.1c0.6,0,1,0.5,1,1l0,6.6
			C629.3,620.9,628.8,621.3,628.3,621.3z"/>
		<path class="st7" d="M628.3,602.2H466.1c-0.6,0-1-0.5-1-1l0-6.6c0-0.6,0.5-1,1-1h162.1c0.6,0,1,0.5,1,1l0,6.6
			C629.3,601.8,628.8,602.2,628.3,602.2z"/>
		<path class="st6" d="M757.7,483.2H595.6c-0.6,0-1-0.5-1-1l0-6.6c0-0.6,0.5-1,1-1h162.1c0.6,0,1,0.5,1,1l0,6.6
			C758.7,482.7,758.2,483.2,757.7,483.2z"/>
		<path class="st6" d="M757.7,464H595.6c-0.6,0-1-0.5-1-1l0-6.6c0-0.6,0.5-1,1-1h162.1c0.6,0,1,0.5,1,1l0,6.6
			C758.7,463.6,758.2,464,757.7,464z"/>
		<path class="st6" d="M757.7,444.9H595.6c-0.6,0-1-0.5-1-1l0-6.6c0-0.6,0.5-1,1-1h162.1c0.6,0,1,0.5,1,1l0,6.6
			C758.7,444.5,758.2,444.9,757.7,444.9z"/>
		<path class="st6" d="M427.3,476.4l-48,0.1c-2.8,0-5.1-2.3-5.1-5.1l-0.1-48c0-2.8,2.3-5.1,5.1-5.1l48-0.1c2.8,0,5.1,2.3,5.1,5.1
			l0.1,48C432.4,474.1,430.1,476.4,427.3,476.4z"/>
		<polygon class="st7" points="632.6,760.9 463.1,761.2 462.9,654.3 632.4,653.9 632.4,653.9 632.6,760.9 		"/>
		<path class="st6" d="M429.5,485.5l-50.6,0.1c-0.3,0-0.5-0.2-0.5-0.5l0-3.3c0-0.3,0.2-0.5,0.5-0.5l50.6-0.1c0.3,0,0.5,0.2,0.5,0.5
			l0,3.3C430,485.3,429.8,485.5,429.5,485.5z"/>
		<path class="st6" d="M429.5,494.6l-50.6,0.1c-0.3,0-0.5-0.2-0.5-0.5l0-3.3c0-0.3,0.2-0.5,0.5-0.5l50.6-0.1c0.3,0,0.5,0.2,0.5,0.5
			l0,3.3C430,494.4,429.8,494.6,429.5,494.6z"/>
		<rect x="647.8" y="591.4" class="st7" width="326.7" height="169.5"/>
		<rect x="647.8" y="591.4" class="st8" width="326.7" height="28.1"/>
		<rect x="656.6" y="659.5" class="st6" width="208.6" height="14.3"/>
		<rect x="656.6" y="684.9" class="st6" width="187.1" height="14.3"/>
		<rect x="656.6" y="710.4" class="st6" width="126.2" height="14.3"/>
		<rect x="656.6" y="636.1" class="st6" width="75.2" height="14.3"/>
		<rect x="483.8" y="434" class="st8" width="98.7" height="92.6"/>
		<g>
			<circle class="st6" cx="666.5" cy="606.2" r="7.1"/>
			<circle class="st6" cx="689.2" cy="606.2" r="7.1"/>
			<circle class="st6" cx="715.6" cy="606.2" r="7.1"/>
		</g>
		<g>
			<circle class="st6" cx="898.7" cy="419.6" r="7.1"/>
			<circle class="st6" cx="921.4" cy="419.6" r="7.1"/>
			<circle class="st6" cx="947.8" cy="419.6" r="7.1"/>
		</g>
		<rect x="281.8" y="794.5" class="st5" width="790.6" height="3.4"/>
	</g>
	<g>
		<polygon class="st9" points="198.6,885.1 199.8,901.2 217.2,902.3 225,876.7 		"/>
		<polygon class="st9" points="265.8,877.2 270.7,900.7 291,898.3 289.2,867.7 		"/>
		<g>
			<path class="st9" d="M236.1,530.6c0,0,45.4-3.6,48.8-5.7c20.2-12.5,45.8-49.4,53.2-57.1c7.5-7.7,13.5-15,14.4-16.1
				c0.9-1.2,1.4-7.8,1.3-7.7c-0.1,0.1-1.1-4.4-1.6-4.4c-0.3,0-1,0.9-1,0.9l-0.2-3.8c0,0-1-1.7-1.6-1.8c-0.3,0-1,0.6-1,0.6
				s-0.7-2.8-1.2-3.6c-0.4-0.7-3.5-0.7-3.5-0.7s-2.1,4.6-4.2,8.3c-2.1,3.7-4.9,6.8-4.9,6.8l-0.6-4.3c-0.4-2.8-3.3-4.6-6-3.7h0
				c0,0-0.3,14.8-0.8,16c-0.5,1.2-0.8,9.4-10.7,16c-17.7,11.9-38.8,28.9-38.8,28.9c0.7-0.3-43.4,2.4-43.4,2.4L236.1,530.6z"/>
		</g>
		<g>
			<g>
				<path class="st8" d="M340.1,465.2c0,0,21.1,49.8,30.8,53.5c0,0,5.1,5.5,16.6-2.3c0,0-27.1-41.2-29.2-52.1L340.1,465.2z"/>
				<path class="st10" d="M366.1,450.5l1.9,8.2c1.2,5.1-2.2,10.2-7.4,11.4l-20.3,4.7c-5.3,1.2-10.5-1.9-11.7-7l-1.9-8.2L366.1,450.5
					z"/>
				<path class="st10" d="M321,415.4l11.4,49.7c-13.9,2.6-27.4-5.8-30.5-19.2C298.9,432.7,307.3,419.2,321,415.4z"/>
				
					<rect x="326.4" y="412.2" transform="matrix(0.9745 -0.2242 0.2242 0.9745 -89.5639 86.8845)" class="st11" width="22.7" height="51.1"/>
				<path class="st8" d="M434,345c-1.3,8.2,2.7,35.9,10.2,68.3c7.4,32.3,15.9,58.9,20.7,65.8c-13.7-10-57.4-31.2-110.4-19
					l-11.5-49.8C396,398.1,426.1,360,434,345z"/>
				<path class="st12" d="M442.5,413.7c8.5,37,18.5,66.3,22.4,65.4c3.9-0.9,0.1-31.6-8.4-68.6c-8.5-37-18.6-66.3-22.4-65.4
					C433.2,345.2,434,376.6,442.5,413.7z"/>
				<path class="st11" d="M465.1,410.6C465.1,410.6,465.1,410.6,465.1,410.6c-0.1-0.1-0.1-0.2-0.1-0.3
					C465.1,410.4,465.1,410.5,465.1,410.6z"/>
				<path class="st8" d="M432.8,392.7c11.6-2,22.8,5,25.4,16.2c2.6,11.2-4.4,22.4-15.7,25.7L432.8,392.7z"/>
				<path class="st11" d="M434,345c-1.3,8.2,2.7,35.9,10.2,68.3c7.4,32.3,15.9,58.9,20.7,65.8c-3.1-2.3-7.8-5.1-13.8-8
					c-8.4-17.2-14.8-35.2-19.2-53.7c-4.5-19.3-6.8-39.1-6.8-59.1C429.2,353.1,432.2,348.4,434,345z"/>
			</g>
		</g>
		<g>
			<g>
				<path class="st13" d="M245.9,697.1c0,0,0.5,55.9,1.3,71.1c0.8,15.2,14.3,122.4,14.3,122.4s34.3-3.4,34.3-3.9
					c0-0.5,6.3-86.3,5-119.2c-1.2-29.2-8.7-122.7-8.7-122.7l-33.4-7.1L245.9,697.1z"/>
				<path class="st14" d="M201.3,638.5c0,0,1.3,85.3,1.1,136.1c-0.2,50.8-7,114.9-7,114.9h30.4c0,0,20.5-95,28.2-127.7
					c7.7-32.7,20.7-123.1,20.7-123.1L201.3,638.5z"/>
				<path class="st9" d="M232.8,459.2c0,0-1.3,10.3-2.4,15.6c-1.1,5.3-2,8-2.8,9.6c-1.8,3.6-12.7,14.4-12.7,14.4s34,18,44,18
					c10,0,6.5-20.1,6.5-20.1s-10.9-8.6-12.5-13c-1.6-4.4-2.5-17-2.5-17L232.8,459.2z"/>
				<path class="st15" d="M221.8,488.8c0,0-14.8,11.4-18.2,21.4c-9.4,28.1-10.2,154.8-10.2,154.8s15.9,9.5,67.5,2.8
					c19.9-2.6,34.4-8.9,34.4-8.9s-10.2-115.5-11.8-126.7c-0.5-3.8-1.5-8.4-2.5-12.8c-2.4-10-8.5-18.8-17.1-24.4l-2.6-1.7l-6.9,10.3
					L221.8,488.8z"/>
				<polygon class="st15" points="227.6,484.5 254.5,503.5 245.9,513.3 221.8,488.8 				"/>
				<polygon class="st15" points="254.5,503.5 262.9,510.3 261.3,493.2 258.2,488.8 				"/>
				<g>
					<path class="st9" d="M235.5,544.3c0,0,44.1,11.3,48,10.5c23.2-5.3,59.3-31.9,68.9-36.8c9.5-4.9,17.6-9.8,18.8-10.6
						c1.2-0.8,3.9-6.9,3.8-6.9c-0.1,0,0.4-4.6-0.1-4.7c-0.3-0.1-1.2,0.5-1.2,0.5l1-3.7c0,0-0.4-1.9-0.9-2.2
						c-0.3-0.1-1.1,0.2-1.1,0.2s0.2-2.9,0-3.8c-0.2-0.8-3.1-1.8-3.1-1.8s-3.5,3.6-6.7,6.5c-3.2,2.9-6.9,4.9-6.9,4.9l0.8-4.3
						c0.6-2.8-1.6-5.4-4.5-5.4l0,0c0,0-5,13.9-5.9,14.8c-0.9,0.9-3.8,8.6-15.3,11.7C310.5,518.8,285,528,285,528
						c0.8,0-41.8-11.8-41.8-11.8L235.5,544.3z"/>
					<path class="st15" d="M212.5,533c9.3,9.4,48.4,21.8,48.4,21.8s7.6-25.8,16.2-31.4c0,0-27.5-9.4-37-14.6
						c-10.6-5.8-13.5-6-20.5,2.7C212.8,520,205.1,525.4,212.5,533z"/>
				</g>
				<path class="st9" d="M260,420.1c3.3,1.3,8.9,4.2,9.6,7c0.6,2.7,2.9,10.6,3.2,15.4c0.3,4.8,1,13.8,1,19.4c0,5.6-3.4,17-4.7,18.2
					c-1.3,1.2-10.7,3.2-13.9,2.2c-3.2-0.9-21.9-10.6-23.1-22.5c0,0-3.3,1.7-9.4-8.2c-1.6-2.6,3.9-21.8,4.6-25.2
					c1.8-8.3,22.3-1.8,26.9-3.1C258.8,422.1,260,420.1,260,420.1z"/>
				<path class="st16" d="M269.6,427.1c0,0-0.6,9.2-6.3,9.7c-5.6,0.5-27.3,0.4-27.2,2.8c0.1,2.4-8.1,10.3-8.1,10.3s2.1-4.3-0.8-3.8
					c-5.7,1.1-2.3,8.1,0.7,9.7c3.1,1.5,3.4,2.9,3.4,2.9s-1.2,3.4-1.4,6.1c-0.2,2.6,2,6.5,2,6.5s0-12.7-5.9-17.9
					c-14.1-12.4-10.5-36.6,3.4-40.9c5.6-1.7,21.1-2.9,28.6,0.5C268,417.4,269.6,427.1,269.6,427.1z"/>
				<path class="st17" d="M239.5,446.7c0.2,0.6,1.7,0.7,2,0.8c0.6,0.3,0.3,0.3,2.9,4.3c1.9,2.9,5.1,3.9,11.1,1.9
					c4.6-1.5,3.9-5.4,4.2-7.3c0.3-1.9,0.7-2.2,1.4-2.3c0.7-0.1,1.1,0,2.1,1.7c0.9,1.6,1.4,5.9,6.1,5.2c3.3-0.5,4.2-1.4,4.6-4
					c0.4-2.3,0.5-4.6,0.4-6.3c-0.1-1.7-0.2-2.8-1-2.9c-1.1-0.1-2.5,0.2-3.9,0.4c-2.8,0.5-4.9,0.6-6.4,1.7c-1.5,1.1-1.4,1.8-2.2,2
					c-0.8,0.2-1-0.6-2.8-1.1c-1.8-0.5-9.4,0.8-12.3,1.3c-2.8,0.5-6.7,1.6-6.7,2.6C239.1,445.3,239.3,446.1,239.5,446.7z
					 M264.1,442.5c0.1-1.4,0.3-1.2,3.8-2c3.5-0.8,3.9-0.6,4.6-0.1c0.7,0.6,1.2,2.8,0.9,5.7c-0.2,1.6-0.5,3.6-3.4,4.1
					c-3.1,0.5-3.8-1-4.7-3.1C264.3,444.8,264,443,264.1,442.5z M243.6,444.8c0.5-0.8,5.2-1.4,8.8-1.9c3.6-0.4,4.8-0.6,5.4,0.7
					c0.2,0.5,0.5,2.3,0.5,4.6c-0.1,2.3-0.5,4.3-6.1,5.3c-3.9,0.7-5.8-0.4-7.5-3.3C243.2,447.7,243.1,445.6,243.6,444.8z
					 M231.6,448.3l7.9-1.6l2.7-3.9c0,0-3,0.4-8,1.5c-2.4,0.5-4.7,2.2-4.7,2.2S230.6,447.2,231.6,448.3z"/>
			</g>
		</g>
		<path class="st16" d="M231.7,415.8c-1.5,0.3-2.4,1.2-7.2,2.9c-10,3.6-7.6,12.8-7.6,12.8s3.5,17,5.6,19.1
			c3.4,3.3,4.5,19.3,9.1,23.3c1.9,1.7,1.9-15.2,1.9-15.2l-3-19.2l13.9-17.1L231.7,415.8z"/>
		<path class="st16" d="M227.3,450.9c0,0,3.1,5.7,2.8-10.3c-0.3-14.7,23.4-3.7,28.4-3.4c8.5,0.5,20-1.7,23-14.6
			c4.1-18-1.9-20.5-14-23.1c-8.6-1.8-24.5,2-30.3,4.2c-3.8,1.4-15.2,8.3-16,9.1l11.3,20.5L227.3,450.9z"/>
		
			<ellipse transform="matrix(0.8868 -0.4621 0.4621 0.8868 -183.657 158.4104)" class="st9" cx="231.6" cy="454.2" rx="4.8" ry="7.6"/>
		<path id="XMLID_1038_" class="st18" d="M332.8,916.7c0.9,1.9,0.3,5.7-6.1,9.1c-6.4,3.4-18.3,2.4-23,1.5c-4.7-0.9-7.6-2.4-14.5-0.5
			c-6.9,1.9-18.3,1.5-21.8-1.8c-1.2-1.6-0.5-4.9-0.5-4.9L332.8,916.7z"/>
		<g>
			<path class="st19" d="M292.1,893.7c0,0,1.2,6.9,14.2,11.1c11.6,3.8,28.5,7.2,26.4,12.4c-1.9,4.8-9.8,8.1-19.5,7.8
				c-9.8-0.4-15.4-4.9-23.2-2.3c-7.8,2.5-18.2,2.5-23.2-2.1c-1.3-6.3,0.6-19.7,1.4-25.2L292.1,893.7z"/>
		</g>
		<path id="XMLID_697_" class="st18" d="M259.7,918.4c0.9,1.9,0.3,5.7-6.1,9.1c-6.4,3.4-18.3,2.4-23,1.5c-4.7-0.9-7.6-2.4-14.5-0.5
			c-6.9,1.9-18.3,1.5-21.8-1.8c-1.2-1.6-0.5-4.9-0.5-4.9L259.7,918.4z"/>
		<g>
			<path class="st19" d="M219.7,896.1c0,0,0.6,6.2,13.5,10.4c11.6,3.8,28.5,7.2,26.4,12.4c-1.9,4.8-9.8,8.1-19.5,7.8
				c-9.8-0.4-15.4-4.9-23.2-2.3c-7.8,2.5-18.2,2.5-23.2-2.1c-1.3-6.3,2.3-19.5,3.1-25.1L219.7,896.1z"/>
		</g>
	</g>
	
		<rect x="1386.3" y="320.2" transform="matrix(-0.9987 -5.066945e-02 5.066945e-02 -0.9987 2774.0376 730.6342)" class="st1" width="19.9" height="19.9"/>
	
		<rect x="1331.7" y="318.2" transform="matrix(-0.4266 0.9044 -0.9044 -0.4266 2203.1594 -746.9434)" class="st1" width="13.3" height="13.3"/>
	
		<rect x="1334.5" y="366.4" transform="matrix(-0.8339 0.5518 -0.5518 -0.8339 2691.9678 -41.6857)" class="st1" width="35.5" height="35.5"/>
	
		<rect x="1184.2" y="558.7" transform="matrix(-0.9987 -5.066945e-02 5.066945e-02 -0.9987 2357.9761 1197.0094)" class="st8" width="19.9" height="19.9"/>
	
		<rect x="1109.8" y="585" transform="matrix(-0.4266 0.9044 -0.9044 -0.4266 2127.8145 -165.658)" class="st8" width="13.3" height="13.3"/>
	
		<rect x="1126" y="641.6" transform="matrix(-0.8339 0.5518 -0.5518 -0.8339 2461.457 577.9653)" class="st8" width="35.5" height="35.5"/>
	
		<rect x="1029.6" y="648.8" transform="matrix(-0.8339 0.5518 -0.5518 -0.8339 2288.5293 644.397)" class="st8" width="35.5" height="35.5"/>
	
		<rect x="131.2" y="503.2" transform="matrix(-0.9987 -5.066945e-02 5.066945e-02 -0.9987 256.1133 1032.8121)" class="st8" width="19.9" height="19.9"/>
	
		<rect x="76.5" y="501.2" transform="matrix(-0.4266 0.9044 -0.9044 -0.4266 578.074 649.3138)" class="st8" width="13.3" height="13.3"/>
	
		<rect x="79.4" y="549.4" transform="matrix(-0.8339 0.5518 -0.5518 -0.8339 491.1136 986.574)" class="st8" width="35.5" height="35.5"/>
	
		<rect x="864" y="167.1" transform="matrix(-0.887 -0.4617 0.4617 -0.887 1567.4767 737.6588)" class="st1" width="19.9" height="19.9"/>
	
		<rect x="793.7" y="190.1" transform="matrix(-0.988 0.1547 -0.1547 -0.988 1645.3267 287.6755)" class="st1" width="35.5" height="35.5"/>
	
		<rect x="121.9" y="337.9" transform="matrix(0.1118 -0.9937 0.9937 0.1118 -228.561 439.9116)" class="st0" width="19.9" height="19.9"/>
	
		<rect x="114.7" y="219.7" transform="matrix(-0.8766 -0.4812 0.4812 -0.8766 118.7893 483.2377)" class="st0" width="13.3" height="13.3"/>
	
		<rect x="77.9" y="283.1" transform="matrix(-0.4997 -0.8662 0.8662 -0.4997 -117.0813 534.0486)" class="st0" width="35.5" height="35.5"/>
	<g>
		<polygon class="st13" points="1216.6,417.1 1207.1,432.7 1289.1,488.6 		"/>
		<polygon class="st13" points="1198.7,451.4 1203.6,469.3 1285.5,486.1 		"/>
		<polygon class="st20" points="1289.1,488.6 1150.9,441.5 1198.7,424.7 		"/>
		<polygon class="st20" points="1216.6,417.1 1289.1,488.6 1246.7,404.4 		"/>
	</g>
	<g>
		<polygon class="st21" points="812.3,89.3 797.7,53.6 938.8,0 		"/>
		<polygon class="st20" points="819.4,67.3 938.8,0 855.7,84.4 		"/>
		<polygon class="st20" points="765.4,39 938.8,0 797.7,53.6 		"/>
		<polygon class="st22" points="819.4,67.3 812.3,89.3 833.8,74.1 		"/>
	</g>
	<linearGradient id="SVGID_1_" gradientUnits="userSpaceOnUse" x1="479.889" y1="230.847" x2="797.178" y2="230.847">
		<stop  offset="0" style="stop-color:#151D81"/>
		<stop  offset="0.1191" style="stop-color:#131B6D"/>
		<stop  offset="0.2983" style="stop-color:#101857"/>
		<stop  offset="0.4923" style="stop-color:#0E1647"/>
		<stop  offset="0.71" style="stop-color:#0D143D"/>
		<stop  offset="1" style="stop-color:#0D143A"/>
	</linearGradient>
	<path class="st23" d="M482,386.3c-0.5,0-0.9-0.1-1.3-0.5c-0.9-0.7-1-2-0.3-2.9c0-0.1,4.1-5.1,11.1-12.7c0.8-0.8,2.1-0.9,2.9-0.1
		c0.8,0.8,0.9,2.1,0.1,2.9c-6.8,7.4-10.9,12.4-10.9,12.5C483.2,386,482.6,386.3,482,386.3z M504.5,361.6c-0.5,0-1.1-0.2-1.5-0.6
		c-0.8-0.8-0.8-2.1,0-2.9c4-4,8.1-7.9,12.1-11.6c0.8-0.8,2.2-0.7,2.9,0.1c0.8,0.8,0.7,2.2-0.1,2.9c-4,3.6-8,7.5-12,11.4
		C505.6,361.4,505,361.6,504.5,361.6z M529.1,339.2c-0.6,0-1.2-0.3-1.6-0.8c-0.7-0.9-0.6-2.2,0.3-2.9c4.4-3.7,8.9-7.1,13.3-10.3
		c0.9-0.7,2.2-0.5,2.9,0.5c0.7,0.9,0.5,2.2-0.5,2.9c-4.3,3.1-8.7,6.5-13,10.1C530.1,339,529.6,339.2,529.1,339.2z M556.1,319.7
		c-0.7,0-1.4-0.4-1.8-1c-0.6-1-0.3-2.3,0.7-2.9c5-3.1,9.9-5.8,14.7-8.2c1-0.5,2.3-0.1,2.8,0.9c0.5,1,0.1,2.3-0.9,2.8
		c-4.7,2.3-9.5,5-14.4,8C556.9,319.6,556.5,319.7,556.1,319.7z M586,305.2c-0.9,0-1.7-0.5-2-1.4c-0.4-1.1,0.2-2.3,1.3-2.6
		c5.6-1.9,11.2-3.3,16.5-4.1c1.1-0.2,2.2,0.6,2.4,1.7c0.2,1.1-0.6,2.2-1.7,2.4c-5.1,0.8-10.4,2.1-15.8,3.9
		C586.4,305.2,586.2,305.2,586,305.2z M635.3,301.5L635.3,301.5c-5.1-0.1-10.4-0.4-16-0.9l-0.8-0.1c-1.1-0.1-2-1.1-1.9-2.2
		c0.1-1.1,1.1-2,2.2-1.9l0.8,0.1c5.5,0.5,10.7,0.8,15.7,0.9c1.1,0,2.1,1,2.1,2.1C637.3,300.6,636.4,301.5,635.3,301.5z M651.9,300.7
		c-1,0-1.9-0.8-2.1-1.8c-0.1-1.1,0.7-2.2,1.8-2.3c5.7-0.6,11.1-1.7,15.9-3.2c1.1-0.3,2.3,0.3,2.6,1.4c0.3,1.1-0.3,2.3-1.4,2.6
		c-5,1.6-10.6,2.7-16.6,3.4C652,300.7,651.9,300.7,651.9,300.7z M683.2,290.6c-0.7,0-1.4-0.3-1.7-1c-0.6-1-0.3-2.3,0.6-2.9
		c4.5-2.9,8.4-6.5,11.7-10.7c0.7-0.9,2-1.1,2.9-0.4c0.9,0.7,1.1,2,0.4,2.9c-3.5,4.5-7.8,8.5-12.7,11.6
		C684,290.5,683.6,290.6,683.2,290.6z M703.4,264.9c-0.2,0-0.5,0-0.7-0.1c-1.1-0.4-1.6-1.6-1.2-2.7c1.8-4.7,3.2-9.8,4.2-15.6
		c0.2-1.1,1.3-1.9,2.4-1.7c1.1,0.2,1.9,1.3,1.7,2.4c-1,6.1-2.5,11.5-4.4,16.4C705,264.4,704.3,264.9,703.4,264.9z M709.5,232.4
		c0,0-0.1,0-0.1,0c-1.1-0.1-2-1-2-2.2c0.2-3.6,0.3-7.4,0.3-11.6c0-1.6,0-3.3,0-4.9c0-1.1,0.9-2.1,2-2.1c1.2,0,2.1,0.9,2.1,2
		c0,1.7,0,3.3,0,4.9c0,4.3-0.1,8.1-0.3,11.8C711.5,231.5,710.5,232.4,709.5,232.4z M709.2,199.1c-1.1,0-2-0.9-2.1-2l-0.2-4.7
		c-0.2-4-0.4-8-0.5-12c0-1.1,0.9-2.1,2-2.1c1.1-0.1,2.1,0.9,2.1,2c0.1,3.9,0.3,7.9,0.5,11.9l0.2,4.7
		C711.3,198.1,710.4,199.1,709.2,199.1C709.2,199.1,709.2,199.1,709.2,199.1z M708.3,165.9C708.3,165.9,708.2,165.9,708.3,165.9
		c-1.2,0-2.1-1-2.1-2.1c0.1-6.4,0.5-12,1.3-16.8c0.2-1.1,1.2-1.9,2.4-1.8c1.1,0.2,1.9,1.2,1.8,2.4c-0.7,4.7-1.1,10-1.2,16.3
		C710.3,164.9,709.4,165.9,708.3,165.9z M714,133.3c-0.3,0-0.6-0.1-0.8-0.2c-1-0.5-1.5-1.7-1-2.7c2.3-5,5.3-9.9,9.1-14.5
		c0.7-0.9,2-1,2.9-0.3c0.9,0.7,1,2,0.3,2.9c-3.6,4.3-6.4,8.9-8.5,13.5C715.5,132.9,714.8,133.3,714,133.3z M734.7,107.7
		c-0.6,0-1.2-0.3-1.6-0.8c-0.7-0.9-0.6-2.2,0.3-2.9c4.2-3.4,8.9-6.6,13.9-9.6c1-0.6,2.3-0.3,2.8,0.7c0.6,1,0.3,2.3-0.7,2.8
		c-4.9,2.9-9.4,6-13.4,9.3C735.6,107.5,735.1,107.7,734.7,107.7z M763.2,90.6c-0.8,0-1.5-0.5-1.9-1.2c-0.5-1,0-2.3,1-2.8
		c5-2.3,10.3-4.4,15.7-6.2c1.1-0.4,2.3,0.2,2.6,1.3c0.4,1.1-0.2,2.3-1.3,2.6c-5.3,1.8-10.4,3.9-15.3,6.1
		C763.7,90.5,763.4,90.6,763.2,90.6z M794.6,79.7c-0.9,0-1.8-0.6-2-1.6c-0.3-1.1,0.4-2.2,1.6-2.5c0.7-0.2,1.2-0.3,1.9,0.1
		c1,0.5,1.4,1.8,0.9,2.8c-0.3,0.6-0.8,1-1.5,1.1l-0.4,0.1C794.9,79.7,794.8,79.7,794.6,79.7z"/>
	
		<linearGradient id="SVGID_2_" gradientUnits="userSpaceOnUse" x1="-43.2604" y1="227.0473" x2="472.4211" y2="227.0473" gradientTransform="matrix(-0.7508 -0.6606 0.6606 -0.7508 896.03 725.5981)">
		<stop  offset="0" style="stop-color:#151D81"/>
		<stop  offset="0.1191" style="stop-color:#131B6D"/>
		<stop  offset="0.2983" style="stop-color:#101857"/>
		<stop  offset="0.4923" style="stop-color:#0E1647"/>
		<stop  offset="0.71" style="stop-color:#0D143D"/>
		<stop  offset="1" style="stop-color:#0D143A"/>
	</linearGradient>
	<path class="st24" d="M1211.2,431.8c-0.5,0-1.1-0.2-1.5-0.6c0,0-4.7-4.6-12.4-10.8c-0.9-0.7-1-2-0.3-2.9c0.7-0.9,2-1,2.9-0.3
		c7.9,6.4,12.5,10.9,12.7,11.1c0.8,0.8,0.8,2.1,0,2.9C1212.2,431.6,1211.7,431.8,1211.2,431.8z M640.3,413.4
		C640.3,413.4,640.3,413.4,640.3,413.4c-5.5-0.1-11.1-0.4-16.8-0.9c-1.1-0.1-2-1.1-1.9-2.3c0.1-1.1,1.1-2,2.3-1.9
		c5.6,0.5,11.2,0.8,16.5,0.9c1.1,0,2.1,1,2,2.1C642.3,412.5,641.4,413.4,640.3,413.4z M656.9,413.1c-1.1,0-2-0.8-2.1-1.9
		c-0.1-1.1,0.8-2.1,1.9-2.2c5.7-0.4,11.1-1,16.3-1.9c1.1-0.2,2.2,0.6,2.4,1.7c0.2,1.1-0.6,2.2-1.7,2.4c-5.3,0.9-10.9,1.6-16.7,2
		C657,413.1,657,413.1,656.9,413.1z M1185.3,410.8c-0.4,0-0.8-0.1-1.2-0.4c-4.6-3.2-9.3-6.2-13.9-8.9c-1-0.6-1.3-1.9-0.7-2.8
		s1.9-1.3,2.8-0.7c4.7,2.8,9.4,5.8,14.1,9.1c0.9,0.7,1.2,2,0.5,2.9C1186.6,410.5,1185.9,410.8,1185.3,410.8z M607.2,410.5
		c-0.1,0-0.2,0-0.3,0c-5.4-0.8-11-1.8-16.5-2.9c-1.1-0.2-1.8-1.3-1.6-2.5c0.2-1.1,1.3-1.9,2.5-1.6c5.5,1.1,10.9,2.1,16.3,2.9
		c1.1,0.2,1.9,1.2,1.7,2.4C609.1,409.8,608.2,410.5,607.2,410.5z M689.6,407.2c-0.9,0-1.7-0.6-2-1.4c-0.4-1.1,0.3-2.3,1.3-2.6
		c5.3-1.7,10.4-3.8,15-6.2c1-0.5,2.3-0.1,2.8,0.9c0.5,1,0.1,2.3-0.9,2.8c-4.8,2.5-10.1,4.7-15.7,6.5
		C690,407.1,689.8,407.2,689.6,407.2z M574.6,403.8c-0.2,0-0.3,0-0.5-0.1c-7.2-1.9-12.7-3.5-16.1-4.6c-1.1-0.4-1.7-1.5-1.3-2.6
		c0.4-1.1,1.5-1.7,2.6-1.3c3.3,1.1,8.8,2.7,15.9,4.6c1.1,0.3,1.8,1.4,1.5,2.5C576.3,403.2,575.5,403.8,574.6,403.8z M959.9,396.5
		C959.9,396.5,959.8,396.5,959.9,396.5c-6.7-0.3-12.2-1.1-17-2.6c-1.1-0.3-1.7-1.5-1.4-2.6c0.3-1.1,1.5-1.7,2.6-1.4
		c4.5,1.4,9.7,2.1,15.9,2.4c1.1,0,2,1,2,2.2C961.9,395.6,961,396.5,959.9,396.5z M976.5,396.1c-1.1,0-2-0.8-2.1-1.9
		c-0.1-1.1,0.8-2.1,1.9-2.2c4.9-0.4,10.2-0.9,16.4-1.8c1.1-0.1,2.2,0.7,2.3,1.8c0.1,1.1-0.7,2.2-1.8,2.3c-6.3,0.8-11.7,1.4-16.7,1.8
		C976.6,396.1,976.6,396.1,976.5,396.1z M1156.6,394c-0.3,0-0.6-0.1-0.9-0.2c-5.1-2.4-10.2-4.5-15.2-6.2c-1.1-0.4-1.7-1.6-1.3-2.6
		c0.4-1.1,1.6-1.7,2.6-1.3c5.1,1.8,10.3,3.9,15.6,6.4c1,0.5,1.5,1.7,1,2.8C1158.2,393.5,1157.4,394,1156.6,394z M1009.5,391.9
		c-1,0-1.9-0.7-2.1-1.8c-0.2-1.1,0.6-2.2,1.7-2.4c4.1-0.6,8.3-1.3,12.5-2l3.9-0.6c1.1-0.2,2.2,0.6,2.4,1.7c0.2,1.1-0.6,2.2-1.7,2.4
		l-3.9,0.6c-4.2,0.7-8.4,1.4-12.5,2C1009.7,391.9,1009.6,391.9,1009.5,391.9z M718.8,391.8c-0.6,0-1.2-0.3-1.6-0.8
		c-0.7-0.9-0.6-2.2,0.3-2.9c4.2-3.4,8-7.3,11.3-11.5c0.7-0.9,2-1.1,2.9-0.4c0.9,0.7,1.1,2,0.4,2.9c-3.5,4.5-7.5,8.6-11.9,12.2
		C719.8,391.6,719.3,391.8,718.8,391.8z M1042.4,386.7c-1,0-1.9-0.7-2.1-1.8c-0.2-1.1,0.6-2.2,1.7-2.4c6.1-0.9,11.5-1.7,16.5-2.3
		c1.1-0.1,2.2,0.7,2.3,1.8c0.1,1.1-0.7,2.2-1.8,2.3c-5,0.6-10.4,1.4-16.4,2.3C1042.6,386.7,1042.5,386.7,1042.4,386.7z M929.3,385.7
		c-0.5,0-1-0.2-1.4-0.5c-4.3-3.7-8.5-7.2-12.7-10.6c-0.9-0.7-1.1-2-0.3-2.9c0.7-0.9,2-1.1,2.9-0.3c4.2,3.4,8.6,7,12.9,10.7
		c0.9,0.8,1,2.1,0.2,2.9C930.5,385.4,929.9,385.7,929.3,385.7z M1125.2,383.3c-0.1,0-0.3,0-0.4,0c-3.6-0.7-7.2-1.1-10.7-1.4
		c-1.8-0.1-3.7-0.2-5.5-0.3c-1.1,0-2-1-2-2.2s0.9-2.1,2.2-2c1.9,0.1,3.8,0.2,5.6,0.3c3.6,0.2,7.4,0.7,11.2,1.4
		c1.1,0.2,1.9,1.3,1.7,2.4C1127,382.7,1126.2,383.3,1125.2,383.3z M1075.4,382.6c-1.1,0-2-0.8-2.1-1.9c-0.1-1.1,0.7-2.2,1.9-2.3
		c5.8-0.5,11.4-0.9,16.7-1c1.1,0,2.1,0.9,2.1,2c0,1.1-0.9,2.1-2,2.1c-5.2,0.2-10.7,0.5-16.5,1
		C1075.6,382.6,1075.5,382.6,1075.4,382.6z M740.4,366.6c-0.5,0-0.9-0.2-1.3-0.5c-0.9-0.7-1-2-0.3-2.9c3.7-4.5,7.5-8.7,11.5-12.4
		c0.8-0.8,2.2-0.7,2.9,0.1c0.8,0.8,0.7,2.2-0.1,2.9c-3.8,3.6-7.5,7.6-11.1,12C741.6,366.3,741,366.6,740.4,366.6z M903.2,365
		c-0.4,0-0.8-0.1-1.2-0.4c-4.6-3.3-9.2-6.4-13.7-9.2c-1-0.6-1.3-1.9-0.7-2.9c0.6-1,1.9-1.3,2.9-0.7c4.6,2.9,9.3,6,13.9,9.3
		c0.9,0.7,1.2,2,0.5,2.9C904.5,364.7,903.8,365,903.2,365z M875,347.4c-0.3,0-0.7-0.1-1-0.2c-5-2.7-10-5-14.8-7.1
		c-1.1-0.4-1.6-1.7-1.1-2.7c0.4-1.1,1.7-1.6,2.7-1.1c5,2.1,10.1,4.5,15.2,7.3c1,0.5,1.4,1.8,0.9,2.8
		C876.4,347,875.7,347.4,875,347.4z M764.6,344c-0.7,0-1.3-0.3-1.7-0.9c-0.6-1-0.4-2.2,0.6-2.9c4.8-3.2,9.8-5.9,14.9-8.1
		c1.1-0.4,2.3,0,2.7,1.1c0.4,1.1,0,2.3-1.1,2.7c-4.9,2.1-9.7,4.7-14.2,7.7C765.4,343.9,765,344,764.6,344z M844.4,334.6
		c-0.2,0-0.4,0-0.6-0.1c-5.4-1.6-10.8-2.9-15.9-3.7c-1.1-0.2-1.9-1.2-1.7-2.4c0.2-1.1,1.3-1.9,2.4-1.7c5.4,0.9,10.9,2.1,16.5,3.8
		c1.1,0.3,1.7,1.5,1.4,2.6C846.1,334,845.2,334.6,844.4,334.6z M795.1,331.2c-1,0-1.8-0.7-2-1.7c-0.2-1.1,0.5-2.2,1.6-2.4
		c5.5-1.1,11.1-1.7,16.9-1.7c0,0,0,0,0,0c1.1,0,2.1,0.9,2.1,2.1c0,1.1-0.9,2.1-2.1,2.1c-5.5,0-10.9,0.6-16.1,1.6
		C795.4,331.2,795.2,331.2,795.1,331.2z"/>
	<polygon class="st20" points="449.3,338 443.8,274.1 457.1,279.5 464.6,216.5 472.8,300.2 456.8,293.9 	"/>
	<polygon class="st20" points="467.3,343.9 490.1,284.1 499.8,294.7 533.9,241.2 504.9,320.2 493.2,307.6 	"/>
</g>
</svg>
