<svg xmlns="http://www.w3.org/2000/svg" viewBox="0 0 375.31 587.44"><defs><style>.cls-1{fill:#1a174b;}.cls-2{fill:#a333ff;}.cls-3{fill:#b2bcf1;}.cls-4{fill:#eff1fc;}.cls-5{fill:#7200cf;}.cls-6{fill:#fdbb62;}.cls-7{fill:#fd6b1f;}</style></defs><title>Asset 1</title><g id="Layer_2" data-name="Layer 2"><g id="Layer_1-2" data-name="Layer 1"><path class="cls-1" d="M5.41,434.93c-6.54-3.78-7.25-9.5-1.58-12.78l31-17.9c5.67-3.28,15.58-2.87,22.13.91L288.34,538.75c6.54,3.78,7.26,9.5,1.59,12.77l-31,17.91c-5.67,3.27-15.58,2.86-22.12-.92Z"/><path class="cls-2" d="M96.19.85a8,8,0,0,1,7.94.45L366.37,152.52c5.8,3.34,9.74,11.88,8.8,19.06L334,487.25c-.47,3.57-2.06,6.14-4.25,7.4h0c-.19.11-.59.3-.59.3l-19.29,8.31.33-9.32-258-148.76c-5.79-3.34-9.74-11.88-8.8-19.06L83.94,15.38l-7.08-6.2Z"/><path class="cls-3" d="M365.07,249,334,487.58c-.47,3.57-2.05,6.14-4.24,7.41l-.6.3-19.24,8,30.52-244.45Z"/><path class="cls-4" d="M355.26,180.21c.94-7.18-3-15.72-8.79-19.06L84.25,9.91c-5.79-3.34-11.25-.22-12.19,7L30.92,332.54c-.94,7.18,3,15.72,8.8,19.06L301.93,502.84c5.79,3.34,11.25.22,12.19-7Z"/><path class="cls-5" d="M91.84,305.55l1.89-23.79,21.54,12.44L113.38,318Z"/><path class="cls-5" d="M143,211.45l21.54,12.44-10.4,130.8q-1.4,17.49-12,20.62t-25.83-5.65l1.77-22.39q7.82,4.51,11.13,1.79a9.58,9.58,0,0,0,2.74-5.36,75.47,75.47,0,0,0,1.37-10.31L143,211.45Zm1.9-24,1.89-23.78,21.55,12.44-1.89,23.78Z"/><path class="cls-5" d="M221.21,291.23a19,19,0,0,0-2.77-11.1,20.79,20.79,0,0,0-7.25-7.36q-5.07-2.92-8.1-.9t-3.41,6.69a19.66,19.66,0,0,0,1,7.27q1.23,4,7.15,10.1L220,308.84q11.63,12.07,15.46,23.56a55.3,55.3,0,0,1,3,22A29.17,29.17,0,0,1,235,366.85a19.19,19.19,0,0,1-7.56,7.46,18.35,18.35,0,0,1-10.74,1.84,33.19,33.19,0,0,1-13.11-4.63,57.48,57.48,0,0,1-21.24-21.78,62.08,62.08,0,0,1-6.3-15.22,54.21,54.21,0,0,1-1.72-17.21L194.57,329a35.47,35.47,0,0,0,2.34,10.86,17.79,17.79,0,0,0,8.22,9.14q4.65,2.69,8.61,1.44c2.64-.84,4.12-3.27,4.45-7.31a20.59,20.59,0,0,0-1.66-9.74q-2-4.83-8-10.94l-10-10.17a73.79,73.79,0,0,1-15-21.68,47.87,47.87,0,0,1-4.21-23.52A27.63,27.63,0,0,1,183,254.68a17.25,17.25,0,0,1,7.85-7.05,17.68,17.68,0,0,1,10.49-1.38,35,35,0,0,1,12.44,4.62,51,51,0,0,1,11.94,9.58,58.08,58.08,0,0,1,9,12.77A62.93,62.93,0,0,1,240.24,288a48.74,48.74,0,0,1,1.24,15l-20.27-11.71Z"/><path class="cls-5" d="M355.26,180.21c.94-7.18-3-15.72-8.79-19.06L84.25,9.91c-5.79-3.34-11.25-.22-12.19,7l-10,76.68,283.2,163.34Z"/><path class="cls-6" d="M262.77,583.51l24.15-13,7.69-22.43-24.15,13Z"/><path class="cls-6" d="M298.86,494.37a17.36,17.36,0,0,1-1.76.26c-.52,0-1,.07-1.57.07s-.93,0-1.41-.05-.87-.07-1.31-.14-.86-.12-1.29-.21l-1.19-.27c-.4-.11-.8-.22-1.19-.35l-1.15-.39-1.15-.46-1.14-.5-1.14-.58c-.37-.2-.75-.41-1.14-.64l-.88-.54-.27-.16-1.17-.78-1.15-.85c-.4-.3-.79-.61-1.18-.92s-.79-.66-1.18-1-.79-.72-1.18-1.09-.78-.77-1.17-1.17-.78-.8-1.15-1.22-.74-.83-1.09-1.25-.71-.85-1.05-1.28-.67-.86-1-1.3-.66-.89-1-1.35-.65-.95-1-1.43-.73-1.16-1.09-1.75c-.52-.89-1-1.79-1.52-2.71-.62-1.16-1.2-2.35-1.74-3.55-.39-.87-.76-1.74-1.11-2.63-.24-.6-.47-1.2-.68-1.81s-.38-1.05-.55-1.58-.31-1-.46-1.45-.28-.95-.41-1.43-.26-1-.39-1.45-.24-1-.35-1.48-.22-1-.32-1.52-.2-1-.28-1.56-.17-1-.25-1.58-.14-1.06-.19-1.59-.11-1.05-.15-1.57-.08-1-.1-1.57-.05-1-.06-1.52,0-1,0-1.51,0-1,0-1.46l.09-1.46c0-.49.08-1,.13-1.46s.12-.9.18-1.35v-.09c.07-.48.14-1,.23-1.44s.18-.95.28-1.42.23-1,.35-1.44.27-1,.42-1.43.32-1,.49-1.47.4-1,.61-1.53.49-1.07.75-1.58.62-1.16.95-1.71c.45-.72.92-1.4,1.42-2.05a18.63,18.63,0,0,1,5.9-5.08l-24.14,13a18.56,18.56,0,0,0-5.91,5.08,22.63,22.63,0,0,0-1.42,2.06c-.33.54-.65,1.11-1,1.7s-.51,1-.75,1.58-.41,1-.6,1.53-.35,1-.5,1.47-.29.94-.41,1.43-.25.95-.36,1.44-.19.93-.28,1.41-.16,1-.23,1.45v.09c-.07.45-.12.9-.17,1.35s-.1,1-.13,1.45-.07,1-.09,1.46,0,1,0,1.47,0,1,0,1.51,0,1,.06,1.52.06,1,.1,1.57.09,1.05.14,1.57.13,1.06.21,1.59.15,1.06.24,1.58.18,1,.28,1.56.21,1,.32,1.53.23,1,.35,1.46.25,1,.39,1.46.27,1,.41,1.43.3,1,.46,1.45.36,1.06.55,1.59.45,1.2.68,1.79c.35.89.72,1.77,1.12,2.64.54,1.2,1.12,2.39,1.73,3.55.49.92,1,1.82,1.53,2.7.36.6.72,1.18,1.09,1.75s.63,1,1,1.44.64.91,1,1.36.66.86,1,1.29.69.86,1,1.28.72.84,1.08,1.25.77.83,1.16,1.23.77.78,1.17,1.16.79.74,1.18,1.09.79.68,1.19,1l1.17.93c.38.28.77.57,1.16.84l1.16.77.27.18.89.53,1.14.64,1.14.57,1.13.51,1.15.46,1.15.39c.4.13.79.24,1.19.34s.8.2,1.2.28.85.16,1.28.22.88.1,1.32.13.94.05,1.4.05,1.05,0,1.57-.08a16.2,16.2,0,0,0,3.94-.82,18,18,0,0,0,2.59-1.13l24.15-13A16.51,16.51,0,0,1,301,493.8a15.86,15.86,0,0,1-2.18.57Z"/><path class="cls-6" d="M250.22,376c1,.14,2.07.32,3.12.53.78.15,1.56.33,2.35.52l24.15-13c-.78-.19-1.57-.36-2.35-.52-1.05-.21-2.09-.39-3.11-.53s-2.15-.26-3.21-.33-2.23-.12-3.33-.12c-.53,0-1,0-1.56,0L249.89,335.7,226,348.32l-24.14,13,23.91-12.62,16.39,26.85c.52,0,1,0,1.56,0,1.1,0,2.22,0,3.33.11s2.13.19,3.2.34Z"/><path class="cls-6" d="M341.06,532.41a55.47,55.47,0,0,0,3.34-4.86q1.25-2,2.37-4.24c.66-1.29,1.28-2.61,1.86-4l.19-.44-24.15,13-.19.43c-.58,1.37-1.2,2.7-1.86,4-.74,1.48-1.54,2.89-2.37,4.25a55.47,55.47,0,0,1-3.34,4.86l-.31.39,8.4,29,24.15-13-8.4-29,.31-.39Z"/><path class="cls-6" d="M180.72,396.65l22,7.8,24.14-13-21.95-7.8-24.15,13Z"/><path class="cls-6" d="M354.92,471.84c-.08-.88-.16-1.74-.26-2.61-.14-1.26-.29-2.52-.48-3.78s-.37-2.56-.58-3.84-.45-2.57-.71-3.86-.52-2.56-.8-3.83l-.45-1.95,15.17-15.27-16.74-38.14-20.69,3.58c-.68-1-1.36-1.94-2.07-2.88s-1.55-2.06-2.34-3.07-1.68-2.09-2.54-3.11-1.81-2.1-2.73-3.12c-.67-.76-1.36-1.49-2.05-2.22L317,357.67l-28.75-18-24.15,13,28.75,18,.69,30.07c.69.72,1.38,1.46,2.05,2.22.93,1,1.84,2.06,2.74,3.12s1.7,2.06,2.53,3.11,1.57,2,2.34,3.07,1.4,1.91,2.08,2.88l20.68-3.58,16.75,38.14L327.48,465c.16.64.31,1.3.46,1.94.28,1.29.56,2.56.8,3.84s.49,2.57.71,3.86.41,2.56.59,3.84.33,2.52.47,3.78c.1.87.18,1.74.26,2.6l20.39,18.77-5.07,35.9,24.15-13,5.07-35.9-20.39-18.78Z"/><path class="cls-7" d="M258.39,503.57c15.26,9.56,29.81,1.9,32.5-17.15s-7.51-42.24-22.76-51.82-29.79-1.88-32.48,17.15S243.15,494,258.39,503.57Zm87.7,35.92-21.42-7.61a60.37,60.37,0,0,1-8.07,13.91l8.4,29-23.91,12.63-15.21-24.87a48.13,48.13,0,0,1-15.43-1.5l-7.68,22.44-28.75-18-.63-27.65a124.47,124.47,0,0,1-13.32-16.54l-19.16,3.3-16.75-38.14,14.54-14.63a136,136,0,0,1-3.13-20.93l-19.92-18.33,5.06-35.9,22,7.8a57.87,57.87,0,0,1,7.89-12.85l-8.74-30.29,23.91-12.63,16.39,26.85A49,49,0,0,1,255.69,377l8.37-24.38,28.75,18,.68,30.06a122.37,122.37,0,0,1,11.74,14.41l20.69-3.59,16.74,38.14L327.48,465a138.49,138.49,0,0,1,3.29,19.86l20.39,18.77-5.07,35.9Z"/></g></g></svg>