<svg xmlns="http://www.w3.org/2000/svg" viewBox="0 0 316.62 583.46"><defs><style>.cls-1{fill:#dbdbfa;}.cls-2{fill:#cacaf8;}.cls-3{fill:#fafafe;}.cls-4{fill:#302da7;}.cls-5{fill:#000549;}.cls-6{fill:#cbe6ff;}.cls-7{fill:#eff7ff;}.cls-8{fill:#9fd0ff;}.cls-9{fill:#ffb7cb;}.cls-10{fill:#ff90af;}.cls-11{fill:#fa0069;}.cls-12{fill:#9e0042;}.cls-13{fill:#730030;}.cls-14{fill:#1a174b;}</style></defs><title>Asset 2</title><g id="Layer_2" data-name="Layer 2"><g id="Layer_1-2" data-name="Layer 1"><g id="computer-screen"><path class="cls-1" d="M107.54,1c2.56-1.48,5.82-1.42,9.18.52l157.53,95c6.69,3.86,11.24,13.72,10.16,22l-51.1,392.07c-.54,4.12-2.37,7.08-4.9,8.54h0a6.38,6.38,0,0,1-.69.35L214,526.61l.37-10.76L61.7,423.64c-6.69-3.86-11.24-13.72-10.16-22L101.9,15.26,93.73,8.11,107.54,1Z"/><path class="cls-2" d="M233.3,510.65c-.54,4.12-2.37,7.09-4.9,8.55h0c-.22.13-.45.24-.68.35l-12.37,6.34-1.39.54L264.12,134.3l19.22-7.56-50,383.91Z"/><path class="cls-3" d="M270,126c1.08-8.29-3.48-18.15-10.16-22L102.26,9c-6.68-3.85-13-.25-14.07,8L37.09,409c-1.08,8.29,3.47,18.15,10.16,22l157.53,95c6.69,3.86,13,.26,14.07-8L270,126Z"/><path class="cls-4" d="M265.34,127.19c1.07-8.22-3.44-18-10.07-21.81L101.67,12.6c-6.63-3.82-12.88-.25-14,8L37.07,409.18c-1.07,8.21,3.44,18,10.07,21.81l153.6,92.77c6.63,3.82,12.88.26,13.95-8Z"/><path class="cls-5" d="M199,86.23a5.1,5.1,0,0,0-2.2-4.75l-51.66-31.2c-1.45-.84-2.81-.06-3,1.73L142,53a5.1,5.1,0,0,0,2.2,4.75l51.66,31.21c1.45.83,2.81,0,3-1.74Z"/></g><g id="computer-screen1"><path class="cls-6" d="M212.84,102.89l24.23,14.62c6.68,3.86,11.23,13.72,10.15,22l-51.1,392.06c-.88,6.75-5.22,10.39-10.41,9.43l.28-8.4q-76.31-46.11-152.62-92.22c-7.15-4.32-11.23-13.8-10.16-22Q48.36,225.18,73.57,32l-6.82-6c.57-1.19-2.16-.75-1.31-1.53l5.25-2.36c2.53-1.46,5.76-1.42,9.08.47L103.58,37,101.1,56c-1.07,8.29,3.48,18.15,10.16,22l85.11,51.35c6.69,3.85,13,.26,14.07-8L212,109l-5.13-3.1,5.93-3Z"/><path class="cls-7" d="M196.12,531.57c-.54,4.12-2.37,7.09-4.9,8.55h0c-.23.13-.45.24-.69.35l-3.84,2-1.4.55,50.16-392.14,10.71-3.19-50,383.91Z"/><path class="cls-8" d="M206.9,105.93l-2.39,18.38c-1.08,8.28-7.39,11.88-14.07,8L105.33,81c-6.69-3.86-11.24-13.72-10.16-22l2.48-19L73.6,25.5c-6.69-3.85-13-.26-14.07,8L8.42,425.59c-1.08,8.29,3.47,18.15,10.16,22l157.54,95c6.68,3.85,13,.26,14.07-8l51.1-392.06c1.08-8.29-3.47-18.15-10.16-22L206.9,105.93Z"/></g><path class="cls-9" d="M78.69,214.94h0L60,225.62l15.79,38.25,13.6-7.78,23.89,45.26a15,15,0,0,0,5.32,5.94l169.7,99.32-1.42,17.57,18.65-10.68h0c2.06-1.18,3.52-3.84,3.82-7.6l7.17-88.59c.56-6.87-3-14.77-7.89-17.64L127.82,193.83a5.93,5.93,0,0,0-5.91-.46L79.2,214.64a5.24,5.24,0,0,0-.51.3Zm10.4,15.64c.48-6,4.32-8.76,8.58-6.27s7.32,9.34,6.84,15.29-4.33,8.76-8.58,6.27S88.61,236.53,89.09,230.58Z"/><path class="cls-10" d="M61.64,229.51l63.92-36.59a5.26,5.26,0,0,0-3.65.45L79.2,214.63c-.17.1-.35.2-.51.31L60,225.62Z"/><path class="cls-10" d="M315.59,309.41l-36.94,21.15-5.44,67.2,15.13,8.85-1.42,17.58,18.65-10.68h0c2.06-1.18,3.52-3.85,3.83-7.6l7.16-88.6a21,21,0,0,0-1-7.9Z"/><path class="cls-11" d="M109.17,204.51a6,6,0,0,0-5.91-.46L60.55,225.32c-2.25,1.18-3.72,4.05-4,7.81a22,22,0,0,0,2.58,11.58L94.67,312a15.17,15.17,0,0,0,5.32,6L280.84,423.82c4.92,2.87,9.35-.37,9.9-7.23l7.17-88.6c.56-6.87-3-14.76-7.89-17.64L109.17,204.51ZM70.44,241.26c.48-5.95,4.33-8.76,8.58-6.26s7.32,9.34,6.84,15.29-4.33,8.75-8.58,6.26S70,247.21,70.44,241.26Z"/><path class="cls-3" d="M139.89,254.06l-1,12.83-15.11.6,13.69,17.28-1,12.71L111,265.67l.85-10.72Z"/><path class="cls-3" d="M158.29,288.67l-1.73,21.8-9.87-5.7,1.73-21.8-3.27-1.88.72-9.1,3.27,1.89.74-9.27,9.87,5.7-.74,9.27,5.62,3.25-.72,9.09Z"/><path class="cls-3" d="M177.47,306.3a9.59,9.59,0,0,0,.27,3.08,13.41,13.41,0,0,0,1.15,3,12.83,12.83,0,0,0,1.9,2.67,11,11,0,0,0,2.5,2,6.54,6.54,0,0,0,2.52.89,3.76,3.76,0,0,0,2.14-.34,4.07,4.07,0,0,0,1.54-1.44,5.15,5.15,0,0,0,.73-2.41,9,9,0,0,0-.3-3,14.27,14.27,0,0,0-1.18-3.05,12.47,12.47,0,0,0-1.9-2.67,10.41,10.41,0,0,0-2.44-2,6.64,6.64,0,0,0-2.58-.93,3.76,3.76,0,0,0-2.14.34,4,4,0,0,0-1.51,1.43,5.39,5.39,0,0,0-.7,2.4Zm13.65-8.18,9.93,5.73-2.45,30.89L188.67,329l.27-3.43q-3.51,2.57-8.91-.55a22.63,22.63,0,0,1-5.52-4.48,28.88,28.88,0,0,1-6.75-13,23.92,23.92,0,0,1-.55-7.17,14.48,14.48,0,0,1,1.54-5.7,8.56,8.56,0,0,1,3.31-3.54,8.16,8.16,0,0,1,4.69-1,13.79,13.79,0,0,1,5.78,2,21.59,21.59,0,0,1,8.35,9l.24-3.07Z"/><path class="cls-3" d="M216.34,328.68a9.59,9.59,0,0,0,.27,3.08,13.08,13.08,0,0,0,1.16,3,12.13,12.13,0,0,0,1.9,2.67,10.28,10.28,0,0,0,2.49,2,6.54,6.54,0,0,0,2.52.89,3.66,3.66,0,0,0,2.14-.34,3.93,3.93,0,0,0,1.54-1.47,5.32,5.32,0,0,0,.74-2.44,9,9,0,0,0-.3-3.07,14,14,0,0,0-1.21-3,13.09,13.09,0,0,0-1.93-2.69,10.1,10.1,0,0,0-2.38-1.94,5.83,5.83,0,0,0-2.5-.84,4.18,4.18,0,0,0-2.14.34,3.58,3.58,0,0,0-1.56,1.39,5.12,5.12,0,0,0-.74,2.41Zm23.36-2.51L237.41,355a30.24,30.24,0,0,1-.64,4.48,15.26,15.26,0,0,1-1.05,3.17,6,6,0,0,1-2.34,2.53,7.87,7.87,0,0,1-3.59,1,13.94,13.94,0,0,1-4.6-.58,23.74,23.74,0,0,1-5.43-2.38,32.71,32.71,0,0,1-10.5-9.62,28,28,0,0,1-3.06-5.67,19.85,19.85,0,0,1-1.37-5.67L216,348.67a8.65,8.65,0,0,0,4.45,5.78c2.07,1.2,3.71,1.47,4.92.83s1.91-2.11,2.09-4.4l.24-2.95a9.36,9.36,0,0,1-2.25.68,8.15,8.15,0,0,1-2.15.06,8.93,8.93,0,0,1-2.23-.57,17.69,17.69,0,0,1-2.53-1.24,23.32,23.32,0,0,1-5.42-4.32,27.21,27.21,0,0,1-4.08-5.7,26.33,26.33,0,0,1-2.45-6.54,23.17,23.17,0,0,1-.5-6.94,14.64,14.64,0,0,1,1.62-6,8.91,8.91,0,0,1,3.39-3.58,8.13,8.13,0,0,1,4.75-1,13.65,13.65,0,0,1,5.75,2,20.68,20.68,0,0,1,8,8.91l.26-3.25,9.87,5.7Z"/><path class="cls-3" d="M246.5,361l1-12.83,15-.63-13.63-17.25,1-12.71,25.43,31.75-.86,10.78-28,.89Z"/><path class="cls-12" d="M79.33,235.11c5,2.89,8.58,10.13,8.09,16.14s-4.9,8.53-9.85,5.64S69,246.76,69.48,240.75,74.38,232.21,79.33,235.11Z"/><path class="cls-13" d="M86.67,245.12a16.48,16.48,0,0,1,.75,6.12c-.48,6-4.9,8.54-9.85,5.64a14.89,14.89,0,0,1-4.35-4.06Z"/><path class="cls-14" d="M3.44,496.64c-4.16-2.4-4.61-6-1-8.11l19.7-11.37c3.6-2.08,9.89-1.82,14.05.58l146.94,84.83c4.16,2.4,4.61,6,1,8.12l-19.7,11.37c-3.6,2.08-9.89,1.82-14.05-.58Z"/></g></g></svg>