<svg xmlns="http://www.w3.org/2000/svg" xmlns:xlink="http://www.w3.org/1999/xlink" viewBox="0 0 297.93 605.5"><defs><style>.cls-1{fill:none;}.cls-2{fill:#e2e2fc;}.cls-3{fill:#34319b;}.cls-4{fill:#2c2982;}.cls-5{fill:#a8a8f7;}.cls-6{fill:#cbcbfa;}.cls-7{fill:#1a174b;}.cls-8{fill:#ff90af;}.cls-9{clip-path:url(#clip-path);}.cls-10{fill:#ffb7cb;}.cls-11{fill:#fa0069;}.cls-12{fill:#fff;}.cls-13{fill:#ffa0c8;}.cls-14{fill:#fef0b0;}.cls-15{fill:#fde884;}.cls-16{fill:#f0f0fd;}.cls-17{fill:#fdd51f;}.cls-18{fill:#ff76b0;}.cls-19{fill:#dedefc;}.cls-20{fill:#414493;}.cls-21{fill:#44479a;}.cls-22{fill:#8082c7;}.cls-23{fill:#6366ba;}.cls-24{fill:#afaff8;}.cls-25{fill:#efb185;}.cls-26{fill:#dd9569;}.cls-27{fill:#e6a376;}.cls-28{fill:#414141;}</style><clipPath id="clip-path"><path class="cls-1" d="M285.59,551.94c.39,8.88-5.28,17.84-17,24.61-22.6,13.05-59.13,13-81.64-.06-11.18-6.47-16.76-15-16.76-23.49h0V532.92l7,4.06a43.59,43.59,0,0,1,10-7.7c22.58-13.07,59.16-13,81.6,0a43.54,43.54,0,0,1,9.4,7.17l7.39-4.26v19.75Z"/></clipPath></defs><title>Asset 6</title><g id="Layer_2" data-name="Layer 2"><g id="Layer_1-2" data-name="Layer 1"><path class="cls-2" d="M73.19,8.1c-5.21-3-9.44-.61-9.44,5.41l-.94,323.72c0,6.06,4.23,13.39,9.4,16.32L263.47,464c5.25,3,9.44.61,9.44-5.41l1-323.8c0-6-4.24-13.26-9.45-16.32Z"/><path class="cls-3" d="M74.73,33.75,74,304l180.59,104.3L255.33,138Z"/><path class="cls-4" d="M74.73,33.75,74,102.2,254.55,206.5l.78-68.5Z"/><path class="cls-5" d="M272.91,458.61l1-323.79L285.6,128l-.93,323.8-2.73,6-11.72,6.84,2.69-6Z"/><path class="cls-6" d="M78.19.65l.08-.08.49-.24.45-.17.37-.08h.2L80.35,0h1l1.13.24.41.09.29.16.49.16,1.26.65L276.16,111.66l1.75,1.31.61.44.78.73.36.41.7.69.77,1,.2.33.21.12,1.26,2,0,.08.41.65.4.86.37.73v.08l.36.86.29.89.2.61.12.33.25,1.14.2,1,0,.25.12,1.83-11.71,6.84-.17-2.16-.08-.33-.49-2.07,0-.12-.81-2.32h0l-1.18-2.32-1.3-2-.13-.12-1.38-1.75-.28-.24-1.27-1.22-.53-.37-1.75-1.3L73.19,8.1l-1.75-.78-.33-.16-1.55-.32h-.12l-1.54.08h0l-1.39.49L78.19.65Z"/><path id="Shadow3" class="cls-7" d="M211.43,494.29c8.79,5.08,21.45,6,28.25,2.08l7.7-2.9c6.8-3.93,5.19-11.24-3.6-16.31l-131.87-77c-8.79-5.08-21.45-6-28.25-2.08l-7.27,4.26c-6.81,3.93-5.19,11.24,3.6,16.31l131.44,75.66Z"/><path class="cls-7" d="M268.81,548.44c-22.44-13-59-13.05-81.6,0s-22.71,34.21-.26,47.22,59,13.1,81.64.05S291.3,561.5,268.81,548.44Z"/><path class="cls-8" d="M285.59,551.94c.39,8.88-5.28,17.84-17,24.61-22.6,13.05-59.13,13-81.64-.06-11.18-6.47-16.76-15-16.76-23.49h0V532.92l7,4.06a43.59,43.59,0,0,1,10-7.7c22.58-13.07,59.16-13,81.6,0a43.54,43.54,0,0,1,9.4,7.17l7.39-4.26v19.75Z"/><g class="cls-9"><path class="cls-10" d="M208.42,588.9V553l-38.23-22.08v35.9l38.23,22.08Z"/></g><path class="cls-11" d="M268.81,509.19c-22.44-13-59-13.06-81.6,0s-22.71,34.21-.26,47.22,59,13.1,81.64.05S291.3,522.25,268.81,509.19Z"/><path class="cls-12" d="M257.82,514.59h0c-7.69-4.44-17.78-6.66-27.86-6.66-9.79,0-19.57,2.09-27.17,6.27h0l0,0h0l0,0-.05,0,0,0,0,0,0,0h-.08l0,0h0l0,0h0l0,0,0,0h-.08l0,0h-.05l0,0,0,0,0,0,0,0,0,0h0l0,0h0l0,0h0l0,0h0l0,0h0l0,0h-.06l0,0h-.06l0,0h0l0,0,0,0,0,0h0c-7.21,4.38-10.81,10-10.81,15.66,0,5.82,3.84,11.64,11.53,16.08h0c7.69,4.44,17.78,6.66,27.86,6.66,9.76,0,19.53-2.08,27.12-6.24h0l.05,0h0l0,0h.06l0,0h.09l0,0h.06l0,0h.06l0,0h0l.06,0,0,0,0,0,0,0,.05,0,0,0,0,0h0l0,0H258l0,0,0,0,0,0h0l0,0h0l0,0h0l0,0,.05,0,0,0,0,0h0l0,0,0,0h0c7.23-4.39,10.85-10,10.85-15.68,0-5.83-3.84-11.65-11.53-16.09Zm-44.54,23.83-9.37,5.41c-2.31-2.05-2.65-4.87-1.45-8a15.42,15.42,0,0,1,.84-1.75l1.16.4A64.58,64.58,0,0,1,213.28,538.42Zm3.27,1.89a42.55,42.55,0,0,1,6.72,5.09l.7.67c-1,.19-2,.35-3,.48-5.32.69-10.2.5-13.76-.83Zm9.56,8.16a18.8,18.8,0,0,1,1.52,2.23,56.83,56.83,0,0,1-9.64-1.17c1.29-.07,2.62-.2,4-.38S224.71,548.75,226.11,548.47Zm-27-15.57a16.69,16.69,0,0,0-1.19,2.4,11.25,11.25,0,0,0-.64,2.29,13.26,13.26,0,0,1-2-5.57C196.55,532.26,197.84,532.56,199.14,532.9Zm4.5-15.35,7.39,4.27a40.55,40.55,0,0,0-10.15,8.6c-1.88-.48-3.76-.89-5.6-1.19a11.63,11.63,0,0,1,.3-1.54v-.05h0v0C196.56,524,199.24,520.49,203.64,517.55ZM245.3,541.6l7.39,4.27a48.92,48.92,0,0,1-17.41,4.64h-.15c-.88.07-1.77.13-2.66.17a20.84,20.84,0,0,0-2.07-3.24,70.85,70.85,0,0,0,14.9-5.86Zm-31-17.89,12.23,7.06-10,5.76a69.31,69.31,0,0,0-9.67-4.27l-1.87-.64a37.08,37.08,0,0,1,9.29-7.91Zm5.52,14.71,10-5.76L242,539.72a65.42,65.42,0,0,1-13.7,5.36c-.36-.36-.72-.72-1.11-1.08A46.7,46.7,0,0,0,219.82,538.42Zm37.61-5.67a62.29,62.29,0,0,0,6.81,1.27,8.45,8.45,0,0,1-.28.85h0v0h0v0c-1.23,3.27-3.88,6.4-8,9.06l-7.4-4.28a44.31,44.31,0,0,0,8.85-7Zm-29.09-15.52q.48.51,1,1a45.17,45.17,0,0,0,8.08,6.24l-7.61,4.39-12.24-7.07a64.37,64.37,0,0,1,10.78-4.58ZM222.69,511l1.47-.16a17.84,17.84,0,0,0,2.2,3.94,68.92,68.92,0,0,0-12.07,5.11l-7.4-4.28a47.53,47.53,0,0,1,15.69-4.59h.11Zm30.56,20.57a41.16,41.16,0,0,1-7.94,6.22l-12.24-7.06,7.61-4.39a70.38,70.38,0,0,0,10.8,4.66l1.77.57Zm-.5-16-12.07,7a41.92,41.92,0,0,1-7.35-5.69q-.44-.43-.84-.87A58.64,58.64,0,0,1,239,514.8C244.3,514.11,249.19,514.3,252.75,515.64Zm3.26,1.88c2.31,2.06,2.65,4.88,1.44,8a15.83,15.83,0,0,1-2.14,3.74l-1.5-.48a64.81,64.81,0,0,1-9.86-4.24l12.06-7Zm-14.08-5.7c-1.29.08-2.62.2-4,.38a63.27,63.27,0,0,0-7.45,1.43,15.77,15.77,0,0,1-1.71-3H230a58.64,58.64,0,0,1,12,1.22Zm20.68,11.94a12.87,12.87,0,0,1,2.12,6.92c0,.22,0,.44,0,.66-1.71-.24-3.46-.57-5.23-1a18.34,18.34,0,0,0,2.49-4.3,11.51,11.51,0,0,0,.64-2.3Z"/><path class="cls-13" d="M11.47,204.66c1.22-.69,2.91-.58,4.78.5l157.23,90.76a14.77,14.77,0,0,1,6.73,11.53V350.6c0,2.09-.75,3.57-2,4.25h0a2,2,0,0,1-.33.16l-9.18,3.68-.54-5.5L13.7,264S7,256.69,7,252.48V212.22l-4.71-3.87L8,206.06l3.49-1.4Z"/><path class="cls-14" d="M126.09,277.91l8.1-4.68,39.29,22.68a14.78,14.78,0,0,1,6.73,11.53v43.15c0,2.1-.75,3.57-2,4.26h0l-.33.16-9.18,3.68-.54-5.5-42.11-75.28Z"/><path class="cls-15" d="M180.21,307.44v43.15c0,2.1-.75,3.58-2,4.26l-.33.16-8.9,3.57-.19-46.9,11.38-4.24Z"/><path class="cls-11" d="M170.68,311.3a14.75,14.75,0,0,0-6.74-11.53L6.73,209C3,206.85,0,208.54,0,212.75v43.16a14.77,14.77,0,0,0,6.73,11.52l157.21,90.78c3.72,2.14,6.74.46,6.74-3.76Z"/><path class="cls-16" d="M115.21,302.59a7.6,7.6,0,0,0-3.5-5.9L15.31,241.3c-1.94-1.12-3.5-.29-3.5,1.85v2.91a7.56,7.56,0,0,0,3.5,5.89l96.4,55.4c1.93,1.12,3.5.28,3.5-1.85Z"/><path class="cls-17" d="M170.68,311.3a14.75,14.75,0,0,0-6.74-11.53l-37.85-21.85v58.43l37.85,21.86c3.72,2.14,6.74.46,6.74-3.76V311.3Z"/><path class="cls-13" d="M74,74.81c1.22-.69,2.91-.58,4.77.5L291.2,198a14.78,14.78,0,0,1,6.73,11.53V313.89c0,2.1-.75,3.57-2,4.26h0a2.53,2.53,0,0,1-.33.16L286.46,322l-.54-5.5L76.19,195.42s-6.73-7.31-6.73-11.53V82.37L64.75,78.5l5.71-2.29,3.5-1.4Z"/><path class="cls-18" d="M297.93,209.48V313.89c0,2.1-.75,3.57-2,4.26l-.33.16-8.9,3.57-.19-108.17,11.38-4.23Z"/><path class="cls-11" d="M288.4,213.33a14.78,14.78,0,0,0-6.73-11.53L69.22,79.15c-3.72-2.15-6.73-.47-6.73,3.75V187.32a14.74,14.74,0,0,0,6.73,11.52L281.67,321.5c3.71,2.15,6.73.46,6.73-3.75V213.33Z"/><path class="cls-16" d="M175.65,182.3a11.84,11.84,0,0,0-5.31-9.3l-64.76-36.86c-2.93-1.7-5.32-.28-5.32,3.17V144a11.85,11.85,0,0,0,5.32,9.3l64.76,36.86c2.93,1.69,5.31.27,5.31-3.17Z"/><path class="cls-16" d="M254,258.69a11.84,11.84,0,0,0-5.31-9.3l-146.39-84.1c-2.94-1.7-5.32-.28-5.32,3.17v4.67a11.83,11.83,0,0,0,5.32,9.31l146.39,84.1c2.93,1.69,5.31.27,5.31-3.17Z"/><path class="cls-13" d="M13.33,149.85a1.93,1.93,0,0,1,1.92.2l19.58,11.3a5.94,5.94,0,0,1,2.7,4.63V186.7a1.84,1.84,0,0,1-.78,1.71h0l-.14.07-2.28.91-.22-2.21L15.63,176.51a5.92,5.92,0,0,1-2.7-4.63V152.32L11,150.77l2.29-.92Z"/><path class="cls-18" d="M37.53,166V186.7a1.86,1.86,0,0,1-.78,1.71l-.14.06-2,.8-.26-22.76Z"/><path class="cls-11" d="M35.11,167a6,6,0,0,0-2.71-4.63L12.83,151c-1.49-.86-2.7-.18-2.7,1.51v20.73a5.94,5.94,0,0,0,2.7,4.63l19.57,11.3c1.49.87,2.71.19,2.71-1.5V167Z"/><path class="cls-13" d="M211.44,353.37a3.46,3.46,0,0,1,3.45.36l35.21,20.36a10.67,10.67,0,0,1,4.86,8.33v37.33a3.33,3.33,0,0,1-1.41,3.08h0l-.24.11-4.11,1.65-.39-4L215.58,401.4a10.69,10.69,0,0,1-4.86-8.34V357.82l-3.4-2.8,4.13-1.65Z"/><path class="cls-18" d="M255,382.42v37.33a3.33,3.33,0,0,1-1.41,3.08l-.24.11-3.6,1.44-.45-41,5.7-1Z"/><path class="cls-11" d="M250.67,384.2a10.7,10.7,0,0,0-4.87-8.34l-35.26-20.37c-2.68-1.55-4.86-.33-4.86,2.72v37.32a10.67,10.67,0,0,0,4.86,8.34l35.26,20.37c2.68,1.55,4.87.33,4.87-2.72Z"/><path class="cls-7" d="M123.23,525.54c-28.18-16.26-73.93-16.26-102.1,0s-28.17,42.68,0,59,73.92,16.26,102.1,0S151.4,541.81,123.23,525.54Z"/><path class="cls-19" d="M34.64,257c8.06,1.56,6.48,32.21,9.67,54.6,0,0,34.43,44.72,30.33,45.2-22.09,13.47-54.77-58.06-52.87-75.94.93-8.76,1-14.63,6.74-21a12.19,12.19,0,0,1,4.23-2.51A4.87,4.87,0,0,1,34.64,257Z"/><path class="cls-20" d="M68.61,521.29S75.84,523,74,527.37s-13,14.38-14.2,17.19-7.79,12.92-10.11,12-17.28,2.33-10.56-20.11c3.27-10.94,19.27-15.64,29.51-15.16Z"/><path class="cls-20" d="M76.27,569s5.18,8.29,14.41,5.49,4.83-6.75,24.66-13.2,14.52-19,12.86-20.76-15.27,1.95-19.63,3.33S96,548,96,548l-19.74,6.73V569Z"/><path class="cls-21" d="M39.46,368.82s2.27,78.26,2.27,85.7-7.63,56.34-2.63,81.92c0,0,11.33,12,24.06-2.47,0,0,1.41-25.48,3.33-49.8,1.34-16.95,2.92-33.33,4.43-40.13,3.68-16.56,2.45-67.22,2.45-67.22l-33.91-8Z"/><path class="cls-22" d="M64.73,378.22S77.63,442.5,77,485c0,0-3.44,62.1-1.47,74.2,0,0,27.08,6.72,29.8-6,0,0-.7-73.89,0-89.33s2.26-58.5-3.85-83.35-36.72-2.28-36.72-2.28Z"/><path class="cls-23" d="M75.5,559.21C71.31,523.23,77,485,77,485c2.28-70.07-28.49-58.67-27.28-99.52l32.72,9s12,31.65,10.21,79.12c-1.43,36.73-2,72.85-2.21,87.35a69.44,69.44,0,0,1-14.91-1.76Z"/><path class="cls-23" d="M39.1,536.45c-4.68-35.54,2.63-73.65,2.63-81.09,0-7.09-10-50.05-2.27-86.05L54,380.49s4.61,47.22,0,74.12c-4.2,24.48-1.5,72.12-3.54,85.8-8,0-11.35-4-11.35-4Z"/><path class="cls-19" d="M27.09,261.53s-5.21,6.14.42,22.88c7.17,21.33,9.92,77.66,8.35,83.12,0,0-1.76,17.6,38.61,27.27,0,0,31,2.77,28.72-19.53-4.14-40.89,5.8-86-14.11-93.63-8.39-3.2-12.93-7.67-18.37-12.18-18.31-15.17-36-18.29-43.62-7.93Z"/><path class="cls-24" d="M101.77,310c.43,2.23.17,46.9,1.54,67.56.77,11.63-12.19,16.63-21.58,17.24-2.09-14.33-2.28-37-5.46-61.61-1.22-9.44-12-45.35,9.09-31.79C96.43,308.47,101.05,306.27,101.77,310Z"/><path class="cls-25" d="M47,245.87s1.55,11.13-2.13,18.18c-3.35,6.4,23,11.65,23.53,5.77,0-.62-5.17-10.13.94-21.63,3.2-6-22.34-2.32-22.34-2.32Z"/><path class="cls-26" d="M45,264.43c2.73-5.26,2.59-12.72,2.32-16.22l19.37,9.13v.06c-.7.17-13.57,3.72-16.2,13.08-4-1.54-6.7-3.71-5.49-6.05Z"/><path class="cls-25" d="M73.38,215.85s3.41,14.28,4,23.52c.44,6.54,1,17.2-2,19.22-3.53,2.37-9.29,4.22-17.9,1.28C47.05,256.29,35.87,242.28,40,229.4s17.59-23.66,33.36-13.55Z"/><path class="cls-27" d="M40.77,243.23c3.92-11.58,13.93-25.6,13.82-26.32-.06-.45,3.31-2.66,7.15-5a23.06,23.06,0,0,1,11.64,4,53.85,53.85,0,0,1,2.29,6.85c-2.41,2.8-7.36,6-8.09,8.39-1.66,5.55-.48,13.87,1.22,17.54s-4.81,9.18-3.37,12.42l.06.45a30.24,30.24,0,0,1-8-1.64c-6.67-2.3-13.6-8.85-16.69-16.64Z"/><path class="cls-28" d="M74.31,216.35s8.71,8-3.08,14.42c-5.32,2.88-6.88,5.89-6.58,7.51s2,9,1.39,9.95c-1.23,1.83-5.6-3.76-7.6-3.34-5.12,1.1-3,5.85,1.75,10.79,5.07,5.25-8,7.69-14.1,3.41-3.28-2.28-4.46-3.66-8.86-12-6.38-12.11-7-26.81,7.33-35s25.35-2,29.75,4.18Z"/><path class="cls-24" d="M66.9,266.38,75,273.5s-25.88,8.06-33.92-4.82c-1.14-1.84.08-8.05,4.69-9.29,0,0,1.11,10.59,21.15,7Z"/><path class="cls-25" d="M153.86,251.43c-7.75,2.88-8.33-4.73-8.33-4.73.58-2.59,1.7-8,1.64-11a12.07,12.07,0,0,1,2.85-8.56,19.8,19.8,0,0,1,7.68-5.85c3.26-.75-2.49,4.39-.19,4.79.71.13,6.45,2.35,7.9,4.34s-1.39,3.72-2.55,8.16c-1.63,6.34-6.14,9.81-9,12.81Z"/><path class="cls-19" d="M69.8,291.73c1.91-12.44,28.3-9.56,50.65-13.08l22.82-32.47c2.41-4.28,14-.84,13.26,3.23a115.92,115.92,0,0,1-16.78,42.83c-12.81,10.66-29,17.83-48.94,19.06-24.25,1.5-21-19.57-21-19.57Z"/></g></g></svg>