<?xml version="1.0" encoding="utf-8"?>
<!-- Generator: Adobe Illustrator 24.0.3, SVG Export Plug-In . SVG Version: 6.00 Build 0)  -->
<svg version="1.1" id="Layer_1" xmlns="http://www.w3.org/2000/svg" xmlns:xlink="http://www.w3.org/1999/xlink" x="0px" y="0px"
	 viewBox="0 0 2000 2000" enable-background="new 0 0 2000 2000" xml:space="preserve">
<g id="cone1">
</g>
<g id="cone">
</g>
<g>
	<g>
		<path fill="#DEDEFC" d="M536.09,647.969l352.337-203.423V632.07L536.09,835.492V647.969L536.09,647.969z"/>
		<path fill="#D0D0FB" d="M555.078,671.271l315.803-182.33v122.267L555.078,793.536V671.271z"/>
		<path fill="#FF4A67" d="M555.078,671.271L865.439,492.08v115.586L555.078,786.854V671.271z"/>
		<g transform="matrix(0.866025,-0.5,5.55112e-17,1.1547,-1268.54,-4842.43)">
			
				<text transform="matrix(0.866 0 0 0.866 2131.4163 5762.5557)" fill="#F2F2FE" font-family="'HelveticaNeueLTStd-Blk'" font-size="61.8841px">O</text>
			
				<text transform="matrix(0.866 0 0 0.866 2197.6282 5762.5542)" fill="#F2F2FE" font-family="'HelveticaNeueLTStd-Blk'" font-size="61.8841px">N</text>
			
				<text transform="matrix(0.866 0 0 0.866 2259.2708 5762.5547)" fill="#F2F2FE" font-family="'HelveticaNeueLTStd-Blk'" font-size="61.8841px">L</text>
			
				<text transform="matrix(0.866 0 0 0.866 2303.6138 5762.5547)" fill="#F2F2FE" font-family="'HelveticaNeueLTStd-Blk'" font-size="61.8841px">I</text>
			
				<text transform="matrix(0.866 0 0 0.866 2335.3042 5762.5547)" fill="#F2F2FE" font-family="'HelveticaNeueLTStd-Blk'" font-size="61.8841px">N</text>
			
				<text transform="matrix(0.866 0 0 0.866 2396.9487 5762.5547)" fill="#F2F2FE" font-family="'HelveticaNeueLTStd-Blk'" font-size="61.8841px">E</text>
		</g>
		<path fill="#C9C9FA" d="M536.09,647.969l-29.673-17.132v187.521l29.673,17.133V647.969z"/>
		<path fill="#F2F2FE" d="M888.42,444.546l-29.672-17.132L506.41,630.837l29.675,17.132L888.42,444.546z"/>
	</g>
	<g>
		<g>
			<path fill="#6161EF" d="M427.459,1123.377L834.352,888.46v401.042L427.459,1524.42V1123.377z"/>
			<path fill="#A9A9F6" d="M413.665,1115.413l13.808,7.971v401.043l-13.808-7.971V1115.413z"/>
			<path fill="#DEDEFC" d="M516.638,1309.711L296.88,1182.834v401.039l219.758,126.878V1309.711z"/>
			<path fill="#C8C8F9" d="M530.443,1301.731l-13.805,7.971v401.04l13.805-7.971V1301.731z"/>
		</g>
		<path fill="#8888F3" d="M834.362,937.788l614.866,354.995v328.554l-614.866-354.994V937.788z"/>
		<path fill="#DEDEFC" d="M1393.51,1526.234l-109.633-63.299v277.568l109.633,63.301V1526.234z"/>
		<path fill="#BABAFC" d="M1379.673,1542.518l-79.948-46.159v24.205l79.948,46.159V1542.518z"/>
		<path fill="#BABAFC" d="M1379.673,1580.547l-79.948-46.156v24.203l79.948,46.162V1580.547z"/>
		<path fill="#8C8CFF" d="M1393.51,1526.234l133.378-77.008v277.57l-133.378,77.008V1526.234z"/>
		<path fill="#BABAFC" d="M1283.877,1462.935l133.379-77.006l109.636,63.298l-133.378,77.008L1283.877,1462.935z"/>
		<g>
			<path fill="#DEDEFC" d="M1443.909,1431.849l219.759-126.874v401.04l-219.759,126.877V1431.849z"/>
			<path fill="#C8C8F9" d="M1430.1,1423.886l13.806,7.973v401.036l-13.806-7.969V1423.886z"/>
		</g>
		<g>
			<path fill="#C1C1F9" d="M1705.591,1307.363c0.264,3.829-1.9,7.518-6.606,10.233l-244.766,141.314
				c-9.821,5.669-26.999,4.959-38.336-1.588L610.991,992.617c-6.425-3.712-9.607-8.503-9.367-12.989l0,0v-26.788l18.174,10.493
				v0.478l233.206-134.642c9.82-5.67,26.996-4.958,38.336,1.589l796.68,459.966l17.593-10.16v26.786L1705.591,1307.363
				L1705.591,1307.363z"/>
			<path fill="#DEDEFC" d="M1416.869,1431.09c10.179,5.875,25.599,6.514,34.415,1.426l248.395-143.412
				c8.815-5.093,7.706-13.994-2.473-19.869L890.304,803.37c-10.178-5.876-25.599-6.517-34.413-1.427L607.496,945.354
				c-8.815,5.089-7.707,13.991,2.471,19.868L1416.869,1431.09L1416.869,1431.09z"/>
		</g>
		<path fill="#C7C7F9" d="M1042.395,1051.21l113.689-65.636l223.588,129.087l-113.687,65.636L1042.395,1051.21z"/>
		<g>
			<path fill="#A5A5F6" d="M259.56,1179.52c-0.264,3.828,1.903,7.516,6.608,10.231l244.766,141.321
				c9.818,5.67,26.996,4.953,38.333-1.592l322.761-186.347c-0.093-12.437-0.438-34.114-0.438-34.114l-18.174,10.493v0.479
				L620.207,985.347c-9.818-5.668-26.995-4.958-38.333,1.589l-304.743,175.942l-17.592-10.158v26.787L259.56,1179.52L259.56,1179.52
				z"/>
			<path fill="#DEDEFC" d="M548.286,1303.245c-10.179,5.875-25.597,6.515-34.414,1.427l-248.394-143.411
				c-8.815-5.088-7.707-13.99,2.471-19.868l585.468-338.02c10.178-5.876,25.599-6.513,34.413-1.427l248.394,143.41
				c8.815,5.089,7.706,13.991-2.473,19.869l-585.464,338.02H548.286z"/>
		</g>
		<g>
			<path fill="#EAEAFD" d="M666.365,1005.723l262.315-151.449v100.692l-262.315,151.446V1005.723z"/>
			<path fill="#BABAFC" d="M681.208,1025.643l79.952-46.16v5.704l-79.952,46.159V1025.643z"/>
			<path fill="#BABAFC" d="M681.208,1039.493l79.952-46.16v15.834l-79.952,46.16V1039.493z"/>
			<path fill="#8C8CFF" d="M666.365,1005.723l-133.379-77.008v100.692l133.379,77.005V1005.723z"/>
			<path fill="#BABAFC" d="M928.69,854.279l-133.382-77.006L532.992,928.72l133.38,77.009L928.69,854.279z"/>
			<g>
				<g>
					<path fill="#5454F7" d="M771.218,916.856l-84.427-48.744l-11.028,6.368l84.425,48.745L771.218,916.856z"/>
					<path fill="#3838B8" d="M687.361,881.181l-0.575-13.069l-11.03,6.368L687.361,881.181z"/>
				</g>
				<g>
					<path fill="#5454F7" d="M836.908,878.924l-84.427-48.742l-11.027,6.369l84.424,48.742L836.908,878.924z"/>
					<path fill="#3838B8" d="M753.25,843.357l-0.577-13.069l-11.03,6.369L753.25,843.357z"/>
				</g>
				<g>
					<path fill="#5454F7" d="M793.388,904.05l-84.427-48.742l-11.029,6.369l84.427,48.742L793.388,904.05z"/>
					<path fill="#3838B8" d="M709.575,868.393L709,855.321l-11.031,6.368L709.575,868.393z"/>
				</g>
				<g>
					<path fill="#5454F7" d="M859.094,866.121l-84.427-48.742l-11.031,6.366l84.427,48.744L859.094,866.121z"/>
					<path fill="#3838B8" d="M775.237,830.446l-0.575-13.067l-11.034,6.366L775.237,830.446z"/>
				</g>
				<g>
					<path fill="#5454F7" d="M815.571,891.247l-84.424-48.742l-11.03,6.366l84.427,48.745L815.571,891.247z"/>
					<path fill="#3838B8" d="M731.746,855.587l-0.576-13.069l-11.031,6.368L731.746,855.587z"/>
				</g>
				<g>
					<path fill="#5454F7" d="M881.261,853.318l-84.423-48.745l-11.031,6.368l84.427,48.745L881.261,853.318z"/>
					<path fill="#3838B8" d="M797.42,817.643l-0.576-13.07l-11.029,6.368L797.42,817.643z"/>
				</g>
				<g>
					<path fill="#E0E0FC" d="M863.804,846.804l13.031-7.481l4.424,8.694l-17.455,10.077V846.804z"/>
					<path fill="#8C8CFF" d="M863.804,846.804l-11.097-6.408l-3.862,9.064l14.959,8.635V846.804z"/>
					<path fill="#CECEFD" d="M876.835,839.322l-11.135-6.431l-12.992,7.505l11.133,6.428L876.835,839.322z"/>
				</g>
				<g>
					<path fill="#E0E0FC" d="M822.281,849.124l13.027-7.481l4.424,8.694l-17.451,10.079V849.124L822.281,849.124z"/>
					<path fill="#8C8CFF" d="M822.281,849.124l-11.1-6.406l-3.858,9.062l14.958,8.635V849.124z"/>
					<path fill="#CECEFD" d="M835.308,841.642l-11.134-6.429l-12.993,7.505l11.135,6.427L835.308,841.642z"/>
				</g>
				<g>
					<path fill="#E0E0FC" d="M818.882,873.919l13.031-7.479l4.424,8.695l-17.455,10.076V873.919z"/>
					<path fill="#8C8CFF" d="M818.882,873.919l-11.096-6.406l-3.858,9.063l14.955,8.635V873.919z"/>
					<path fill="#CECEFD" d="M831.913,866.44l-11.133-6.429l-12.995,7.502l11.135,6.427L831.913,866.44z"/>
				</g>
				<g>
					<path fill="#E0E0FC" d="M748.61,857.644l13.031-7.481l4.424,8.694l-17.455,10.078V857.644L748.61,857.644z"/>
					<path fill="#8C8CFF" d="M748.61,857.644l-11.098-6.409l-3.86,9.064l14.958,8.636V857.644z"/>
					<path fill="#CECEFD" d="M761.641,850.163l-11.136-6.428l-12.994,7.499l11.135,6.429L761.641,850.163z"/>
				</g>
				<g>
					<path fill="#E0E0FC" d="M751.99,885.18l13.031-7.479l4.427,8.695l-17.458,10.076V885.18z"/>
					<path fill="#8C8CFF" d="M751.99,885.18l-11.096-6.407l-3.859,9.065l14.956,8.633V885.18z"/>
					<path fill="#CECEFD" d="M765.021,877.701l-11.133-6.43l-12.995,7.503l11.135,6.427L765.021,877.701z"/>
				</g>
				<g>
					<path fill="#E0E0FC" d="M719.336,892.421l13.031-7.481l4.424,8.697l-17.455,10.076V892.421L719.336,892.421z"/>
					<path fill="#8C8CFF" d="M719.336,892.421l-11.096-6.407l-3.861,9.063l14.957,8.635V892.421z"/>
					<path fill="#CECEFD" d="M732.367,884.939l-11.135-6.427l-12.992,7.502l11.135,6.427L732.367,884.939z"/>
				</g>
			</g>
		</g>
		<g>
			<path fill="#EAEAFD" d="M1265.993,1130.113l-223.588-129.088v42.829l223.588,129.086V1130.113z"/>
			<path fill="#BABAFC" d="M1253.33,1131.571l-68.148-39.344v4.861l68.148,39.343V1131.571z"/>
			<path fill="#BABAFC" d="M1253.33,1143.373l-68.148-39.346v13.495l68.148,39.345V1143.373z"/>
			<path fill="#8C8CFF" d="M1265.993,1130.113l113.687-65.638v42.827l-113.687,65.637V1130.113L1265.993,1130.113z"/>
			<path fill="#BABAFC" d="M1042.395,1001.026l113.689-65.639l223.588,129.088l-113.687,65.638L1042.395,1001.026L1042.395,1001.026
				z"/>
		</g>
		<g>
			<path fill="#EAEAFD" d="M1265.993,1083.184l-223.588-129.086v42.825l223.588,129.087V1083.184z"/>
			<path fill="#BABAFC" d="M1253.33,1084.64l-68.148-39.343v4.86l68.148,39.344V1084.64z"/>
			<path fill="#BABAFC" d="M1253.33,1096.439l-68.148-39.342v13.493l68.148,39.346V1096.439z"/>
			<path fill="#1F165C" d="M1146.315,1025.274l-87.963-50.783v22.871l87.963,50.786V1025.274z"/>
			<path fill="#8C8CFF" d="M1265.993,1083.184l113.687-65.638v42.828l-113.687,65.636V1083.184z"/>
			<path fill="#BABAFC" d="M1042.395,954.091l113.689-65.636l223.588,129.088l-113.687,65.634L1042.395,954.091z"/>
		</g>
		<g>
			<path fill="#EAEAFD" d="M450.41,953.533l109.634-63.297v277.57l-109.634,63.297V953.533z"/>
			<path fill="#BABAFC" d="M464.247,969.814l79.949-46.16v24.207l-79.949,46.162V969.814z"/>
			<path fill="#BABAFC" d="M464.247,1007.858l79.949-46.159v24.204l-79.949,46.159V1007.858z"/>
			<path fill="#8C8CFF" d="M450.41,953.533l-133.381-77.006v277.57l133.381,77.005V953.533L450.41,953.533z"/>
			<path fill="#BABAFC" d="M560.042,890.236l-133.379-77.007l-109.634,63.299l133.378,77.006L560.042,890.236z"/>
		</g>
		<path fill="#BFBFF8" d="M1047.602,1080.028c-6.445-3.721-16.209-4.125-21.792-0.905l-72.205,41.487
			c-5.583,3.221-4.881,8.861,1.565,12.582l148.465,85.714c6.447,3.726,16.212,4.128,21.793,0.908l72.202-41.484
			c5.583-3.224,4.885-8.861-1.562-12.584L1047.602,1080.028z"/>
		<g>
			<path fill="#D7D7FB" d="M957.293,1117.988l69.696-44.133c5.581-3.224,15.347-2.819,21.795,0.901l114.137,70l30.934,17.857
				l8.727,2.942v2.297l-0.009-0.006c-0.096,1.958-1.333,3.811-3.762,5.212l-72.203,41.484c-5.584,3.223-15.347,2.818-21.795-0.903
				l-148.463-85.719c-3.902-2.253-5.244-5.029-5.271-7.906l0,0v-1.594L957.293,1117.988L957.293,1117.988z"/>
			<path fill="#F1F7FF" d="M1048.834,1072.007c-6.448-3.722-16.213-4.129-21.795-0.905l-72.202,41.484
				c-5.583,3.223-4.882,8.864,1.562,12.584l148.466,85.715c6.445,3.721,16.212,4.125,21.793,0.903l72.204-41.484
				c5.583-3.224,4.879-8.857-1.566-12.584L1048.834,1072.007z"/>
			<path fill="#E9E9FC" d="M1047.828,1072.658c-5.628-3.251-14.161-3.604-19.037-0.79l-72.629,41.73
				c-4.875,2.817-4.264,7.74,1.367,10.992l148.348,85.648c5.631,3.249,14.16,3.604,19.035,0.79l72.631-41.732
				c4.877-2.813,4.262-7.737-1.366-10.991L1047.828,1072.658z"/>
			<path fill="#B7B7F7" d="M1097.701,1197.233c-0.028-0.29,0.129-0.574,0.486-0.782l6.566-3.789
				c0.725-0.418,1.994-0.363,2.833,0.118l7.581,4.38c0.507,0.29,0.741,0.672,0.685,1.023v0.921l-0.005,0.005
				c0.065,0.314-0.089,0.626-0.477,0.854l-6.566,3.789c-0.723,0.418-1.994,0.363-2.832-0.12l-7.58-4.375
				c-0.412-0.241-0.647-0.535-0.688-0.828l-0.004-0.003v-0.025c-0.005-0.047-0.005-0.093,0-0.14V1197.233L1097.701,1197.233z
				 M1119.595,1194.133c-0.031-0.294,0.127-0.574,0.486-0.782l6.564-3.789c0.724-0.418,1.993-0.366,2.832,0.118l7.581,4.378
				c0.507,0.29,0.741,0.675,0.687,1.022v0.921l-0.009,0.007c0.067,0.317-0.085,0.628-0.472,0.852l-6.566,3.789
				c-0.726,0.419-1.994,0.367-2.835-0.116l-7.58-4.378c-0.414-0.238-0.647-0.539-0.687-0.826l-0.003-0.003v-0.027
				c-0.006-0.047-0.006-0.093,0-0.136V1194.133z M1083.106,1188.807c-0.027-0.294,0.132-0.574,0.489-0.782l6.563-3.789
				c0.728-0.419,1.999-0.363,2.836,0.118l7.583,4.38c0.505,0.292,0.735,0.672,0.683,1.022v0.921l-0.008,0.006
				c0.067,0.314-0.087,0.626-0.477,0.85l-6.562,3.792c-0.728,0.419-1.998,0.367-2.835-0.12l-7.582-4.374
				c-0.411-0.241-0.643-0.535-0.685-0.829l-0.005-0.003v-0.024c-0.001-0.047-0.001-0.093,0-0.14V1188.807z M1105.058,1185.74
				c-0.034-0.294,0.129-0.577,0.485-0.782l6.564-3.792c0.728-0.419,1.997-0.363,2.832,0.118l7.585,4.38
				c0.503,0.292,0.739,0.675,0.685,1.022v0.921l-0.01,0.006c0.069,0.317-0.087,0.628-0.472,0.85l-6.566,3.794
				c-0.727,0.417-1.995,0.365-2.836-0.116l-7.581-4.38c-0.411-0.238-0.641-0.537-0.685-0.829l-0.005-0.002v-0.025
				c-0.004-0.047-0.004-0.093,0-0.14v-1.024H1105.058z M1125.159,1181.379c-0.03-0.292,0.129-0.572,0.486-0.78l6.566-3.789
				c0.728-0.42,1.997-0.369,2.835,0.118l7.58,4.378c0.506,0.29,0.742,0.672,0.688,1.022v0.922l-0.008,0.005
				c0.067,0.314-0.087,0.626-0.475,0.854l-6.567,3.789c-0.723,0.418-1.995,0.363-2.832-0.118l-7.581-4.378
				c-0.417-0.24-0.644-0.535-0.688-0.828l-0.004-0.004v-0.023c-0.004-0.047-0.004-0.093,0-0.137V1181.379L1125.159,1181.379z
				 M1068.645,1180.457c-0.031-0.29,0.127-0.574,0.486-0.779l6.564-3.789c0.724-0.424,1.995-0.37,2.833,0.115l7.58,4.376
				c0.507,0.292,0.741,0.675,0.688,1.026v0.918l-0.008,0.005c0.065,0.318-0.088,0.63-0.475,0.854l-6.566,3.789
				c-0.726,0.419-1.994,0.37-2.835-0.115l-7.58-4.376c-0.413-0.238-0.644-0.539-0.685-0.832l-0.004-0.003v-0.025
				c-0.006-0.046-0.006-0.09,0-0.137V1180.457L1068.645,1180.457z M1147.054,1178.279c-0.035-0.294,0.128-0.574,0.484-0.78
				l6.567-3.792c0.724-0.419,1.994-0.366,2.832,0.118l7.582,4.376c0.504,0.292,0.738,0.675,0.685,1.023v0.921l-0.006,0.006
				c0.065,0.317-0.088,0.629-0.476,0.852l-6.566,3.789c-0.724,0.422-1.994,0.366-2.833-0.118l-7.581-4.376
				c-0.412-0.238-0.644-0.537-0.687-0.826l-0.001-0.003v-0.027c-0.008-0.044-0.008-0.09,0-0.137V1178.279L1147.054,1178.279z
				 M1090.462,1177.311c-0.03-0.292,0.129-0.574,0.485-0.778l6.568-3.789c0.725-0.419,1.994-0.37,2.831,0.118l7.583,4.376
				c0.504,0.29,0.737,0.672,0.687,1.023v0.921l-0.01,0.005c0.07,0.314-0.087,0.627-0.473,0.853l-6.566,3.789
				c-0.727,0.418-1.997,0.363-2.835-0.118l-7.582-4.38c-0.411-0.234-0.64-0.535-0.685-0.825l-0.003-0.003v-0.025
				c-0.004-0.046-0.004-0.093,0-0.14V1177.311z M1110.565,1172.953c-0.029-0.292,0.13-0.57,0.485-0.778l6.566-3.792
				c0.729-0.419,1.998-0.363,2.836,0.12l7.582,4.374c0.505,0.295,0.74,0.675,0.684,1.026v0.921l-0.008,0.004
				c0.067,0.319-0.087,0.628-0.476,0.855l-6.564,3.789c-0.724,0.419-1.997,0.366-2.832-0.118l-7.581-4.379
				c-0.411-0.233-0.646-0.534-0.685-0.826l-0.006-0.003v-0.025c-0.003-0.047-0.005-0.093,0-0.14V1172.953L1110.565,1172.953z
				 M1054.05,1172.029c-0.03-0.29,0.132-0.574,0.488-0.78l6.566-3.789c0.724-0.42,1.994-0.366,2.832,0.118l7.583,4.378
				c0.503,0.292,0.737,0.675,0.683,1.024v0.919l-0.005,0.005c0.067,0.317-0.091,0.629-0.477,0.854l-6.566,3.789
				c-0.726,0.42-1.994,0.366-2.835-0.118l-7.578-4.378c-0.414-0.238-0.644-0.535-0.688-0.828h-0.003v-0.027
				c-0.004-0.047-0.004-0.093,0-0.14V1172.029L1054.05,1172.029z M1132.513,1169.883c-0.027-0.29,0.131-0.574,0.486-0.776
				l6.568-3.794c0.724-0.416,1.994-0.363,2.832,0.118l7.582,4.379c0.506,0.292,0.738,0.675,0.685,1.026v0.918l-0.009,0.006
				c0.067,0.317-0.085,0.628-0.472,0.852l-6.569,3.789c-0.726,0.419-1.993,0.37-2.831-0.118l-7.583-4.376
				c-0.411-0.238-0.641-0.537-0.684-0.829h-0.005v-0.027c-0.001-0.047-0.001-0.093,0-0.14V1169.883L1132.513,1169.883z
				 M1076,1168.962c-0.032-0.292,0.129-0.572,0.485-0.78l6.565-3.789c0.727-0.42,1.997-0.366,2.835,0.118l7.582,4.375
				c0.504,0.292,0.737,0.675,0.685,1.022v0.922l-0.006,0.005c0.065,0.317-0.089,0.629-0.476,0.854l-6.566,3.792
				c-0.726,0.418-1.995,0.366-2.832-0.118l-7.581-4.38c-0.412-0.238-0.645-0.535-0.687-0.823l-0.004-0.009v-0.021
				c-0.007-0.049-0.007-0.093,0-0.137V1168.962L1076,1168.962z M1152.446,1165.626c-0.031-0.29,0.127-0.572,0.485-0.78l6.566-3.792
				c0.725-0.415,1.995-0.366,2.833,0.118l7.58,4.38c0.507,0.29,0.744,0.672,0.687,1.022v0.922l-0.005,0.005
				c0.065,0.317-0.089,0.629-0.476,0.854l-6.564,3.789c-0.727,0.418-1.997,0.369-2.835-0.12l-7.582-4.375
				c-0.412-0.238-0.643-0.535-0.685-0.828h-0.003v-0.029c-0.005-0.045-0.005-0.092,0-0.138V1165.626L1152.446,1165.626z
				 M1096.104,1164.604c-0.031-0.29,0.129-0.574,0.485-0.779l6.563-3.789c0.728-0.422,2.001-0.37,2.835,0.118l7.583,4.374
				c0.506,0.292,0.737,0.675,0.684,1.026v0.921l-0.006,0.002c0.066,0.317-0.088,0.633-0.476,0.854l-6.564,3.792
				c-0.725,0.415-1.997,0.366-2.835-0.118l-7.581-4.376c-0.413-0.238-0.644-0.539-0.688-0.829v-0.005v-0.025
				c-0.005-0.047-0.005-0.088,0-0.137V1164.604L1096.104,1164.604z M1039.511,1163.639c-0.03-0.292,0.129-0.574,0.486-0.782
				l6.567-3.789c0.727-0.42,1.997-0.366,2.835,0.118l7.578,4.377c0.507,0.292,0.741,0.675,0.689,1.022v0.922l-0.009,0.005
				c0.069,0.317-0.089,0.629-0.475,0.854l-6.567,3.789c-0.724,0.42-1.996,0.366-2.831-0.118l-7.585-4.377
				c-0.411-0.238-0.641-0.535-0.687-0.828h-0.003v-0.027c-0.003-0.044-0.003-0.09,0-0.137V1163.639L1039.511,1163.639z
				 M1174.336,1162.525c-0.028-0.292,0.131-0.573,0.486-0.778l6.566-3.792c0.726-0.422,1.994-0.366,2.834,0.118l7.582,4.376
				c0.504,0.294,0.737,0.676,0.687,1.026v0.918l-0.009,0.006c0.067,0.314-0.089,0.631-0.476,0.852l-6.564,3.789
				c-0.727,0.422-1.996,0.37-2.835-0.118l-7.578-4.374c-0.415-0.238-0.645-0.539-0.685-0.832h-0.006v-0.027
				c-0.004-0.044-0.004-0.093,0-0.137V1162.525L1174.336,1162.525z M1117.918,1161.457c-0.027-0.29,0.133-0.574,0.489-0.776
				l6.566-3.792c0.727-0.419,1.995-0.367,2.832,0.116l7.581,4.377c0.508,0.292,0.74,0.673,0.688,1.023v0.921l-0.009,0.005
				c0.066,0.314-0.087,0.629-0.473,0.854l-6.566,3.789c-0.725,0.42-1.995,0.366-2.833-0.115l-7.582-4.38
				c-0.411-0.238-0.643-0.535-0.686-0.828h-0.006v-0.027c-0.001-0.047-0.001-0.093,0-0.14V1161.457z M1061.404,1160.536
				c-0.031-0.29,0.131-0.574,0.486-0.78l6.566-3.792c0.727-0.418,1.994-0.366,2.835,0.118l7.581,4.376
				c0.504,0.292,0.738,0.675,0.687,1.023v0.925l-0.008,0.003c0.067,0.317-0.088,0.631-0.477,0.852l-6.566,3.792
				c-0.724,0.419-1.993,0.367-2.832-0.118l-7.581-4.376c-0.411-0.24-0.645-0.538-0.687-0.829h-0.003v-0.027
				c-0.006-0.049-0.006-0.096,0-0.14v-1.027H1061.404z M1137.85,1157.2c-0.031-0.29,0.129-0.57,0.486-0.776l6.566-3.794
				c0.728-0.419,1.995-0.363,2.836,0.118l7.578,4.379c0.506,0.291,0.74,0.672,0.688,1.023v0.921l-0.008,0.006
				c0.066,0.317-0.091,0.629-0.476,0.852l-6.567,3.789c-0.725,0.419-1.995,0.367-2.832-0.118l-7.581-4.376
				c-0.415-0.238-0.644-0.537-0.689-0.829l-0.001-0.002v-0.025c-0.005-0.047-0.005-0.093,0-0.136v-1.028V1157.2z M1081.51,1156.176
				c-0.031-0.287,0.128-0.572,0.485-0.777l6.567-3.792c0.723-0.42,1.994-0.366,2.833,0.118l7.58,4.38
				c0.507,0.29,0.74,0.67,0.687,1.022v0.922l-0.01,0.005c0.068,0.314-0.084,0.626-0.473,0.851l-6.563,3.789
				c-0.728,0.418-1.995,0.366-2.836-0.118l-7.582-4.375c-0.41-0.238-0.644-0.538-0.684-0.828l-0.002-0.003v-0.028
				c-0.006-0.047-0.006-0.089,0-0.136V1156.176L1081.51,1156.176z M1024.918,1155.214c-0.03-0.294,0.127-0.574,0.486-0.782
				l6.564-3.792c0.727-0.415,1.997-0.364,2.835,0.118l7.582,4.379c0.503,0.293,0.74,0.675,0.684,1.026v0.922l-0.006,0.003
				c0.066,0.317-0.089,0.629-0.476,0.85l-6.566,3.794c-0.722,0.419-1.995,0.363-2.832-0.118l-7.581-4.379
				c-0.413-0.238-0.644-0.535-0.687-0.826l-0.004-0.003v-0.027c-0.005-0.044-0.005-0.091,0-0.137V1155.214L1024.918,1155.214z
				 M1159.799,1154.132c-0.032-0.292,0.127-0.573,0.486-0.779l6.564-3.794c0.727-0.416,1.997-0.363,2.835,0.118l7.582,4.379
				c0.503,0.294,0.74,0.672,0.684,1.023v0.923l-0.006,0.004c0.066,0.317-0.087,0.629-0.475,0.85l-6.567,3.794
				c-0.722,0.419-1.995,0.365-2.832-0.116l-7.581-4.38c-0.415-0.238-0.644-0.537-0.687-0.829h-0.004v-0.027
				c-0.005-0.047-0.005-0.093,0-0.137v-1.031V1154.132z M1103.457,1153.108c-0.03-0.29,0.128-0.572,0.486-0.78l6.566-3.789
				c0.727-0.423,1.997-0.366,2.832,0.118l7.581,4.375c0.506,0.292,0.74,0.678,0.689,1.024v0.922l-0.009,0.005
				c0.065,0.314-0.089,0.626-0.476,0.851l-6.566,3.792c-0.726,0.418-1.994,0.366-2.835-0.118l-7.578-4.378
				c-0.415-0.238-0.643-0.538-0.688-0.828l-0.003-0.003v-0.026c-0.004-0.049-0.004-0.092,0-0.136V1153.108L1103.457,1153.108z
				 M1046.866,1152.143c-0.027-0.294,0.129-0.574,0.485-0.782l6.568-3.789c0.725-0.418,1.994-0.366,2.835,0.118l7.58,4.376
				c0.507,0.292,0.74,0.675,0.685,1.026v0.922l-0.008,0.003c0.067,0.317-0.087,0.629-0.475,0.852l-6.566,3.792
				c-0.724,0.419-1.993,0.363-2.832-0.12l-7.581-4.376c-0.411-0.238-0.645-0.535-0.687-0.826l-0.005-0.005v-0.025
				c-0.004-0.044-0.004-0.093,0-0.137V1152.143z M1123.386,1148.851c-0.028-0.29,0.131-0.574,0.486-0.778l6.566-3.792
				c0.725-0.419,1.995-0.367,2.835,0.116l7.581,4.378c0.507,0.292,0.741,0.675,0.687,1.023v0.923l-0.008,0.003
				c0.066,0.318-0.088,0.63-0.476,0.854l-6.564,3.792c-0.728,0.419-1.997,0.366-2.832-0.118l-7.585-4.376
				c-0.41-0.238-0.643-0.537-0.685-0.829l-0.004-0.003v-0.025c-0.004-0.049-0.004-0.093,0-0.142V1148.851L1123.386,1148.851z
				 M1066.971,1147.785c-0.031-0.292,0.128-0.574,0.486-0.782l6.566-3.789c0.727-0.418,1.995-0.363,2.836,0.118l7.578,4.378
				c0.506,0.295,0.737,0.675,0.684,1.022v0.922l-0.004,0.005c0.066,0.317-0.091,0.629-0.477,0.854l-6.564,3.789
				c-0.727,0.42-1.997,0.369-2.835-0.118l-7.582-4.377c-0.41-0.238-0.643-0.533-0.685-0.825l-0.003-0.002v-0.026
				c-0.005-0.049-0.005-0.092,0-0.138V1147.785L1066.971,1147.785z M1010.547,1146.916c-0.028-0.293,0.131-0.574,0.488-0.782
				l6.566-3.789c0.726-0.422,1.998-0.366,2.833,0.118l7.581,4.379c0.505,0.29,0.74,0.672,0.684,1.02v0.925l-0.005,0.005
				c0.068,0.314-0.089,0.626-0.476,0.85l-6.566,3.789c-0.726,0.422-1.994,0.366-2.835-0.118l-7.58-4.374
				c-0.413-0.241-0.643-0.542-0.688-0.829l-0.003-0.003v-0.027c-0.003-0.047-0.003-0.09,0-0.137V1146.916L1010.547,1146.916z
				 M1145.204,1145.707c-0.027-0.292,0.131-0.574,0.486-0.782l6.566-3.789c0.727-0.418,1.997-0.366,2.835,0.122l7.582,4.374
				c0.507,0.29,0.737,0.675,0.685,1.023v0.921l-0.008,0.005c0.066,0.317-0.087,0.63-0.476,0.851l-6.567,3.794
				c-0.723,0.415-1.994,0.363-2.831-0.118l-7.582-4.38c-0.411-0.237-0.644-0.538-0.685-0.828h-0.005v-0.03
				c-0.001-0.044-0.001-0.091,0-0.135V1145.707z M1088.862,1144.681c-0.028-0.292,0.132-0.574,0.488-0.778l6.564-3.792
				c0.727-0.417,1.997-0.367,2.835,0.118l7.582,4.376c0.506,0.292,0.736,0.675,0.685,1.025v0.918l-0.008,0.009
				c0.067,0.317-0.09,0.626-0.476,0.85l-6.565,3.792c-0.727,0.419-1.997,0.367-2.835-0.118l-7.579-4.376
				c-0.414-0.238-0.645-0.539-0.685-0.832h-0.007v-0.027c-0.004-0.044-0.004-0.09,0-0.137V1144.681L1088.862,1144.681z
				 M1032.272,1143.714c-0.03-0.29,0.13-0.572,0.49-0.776l6.561-3.792c0.728-0.419,2.001-0.365,2.835,0.116l7.582,4.375
				c0.506,0.295,0.741,0.678,0.688,1.028v0.921l-0.009,0.003c0.065,0.318-0.089,0.629-0.477,0.854l-6.563,3.792
				c-0.727,0.418-1.995,0.363-2.835-0.12l-7.581-4.378c-0.411-0.234-0.641-0.533-0.685-0.825l-0.005-0.003v-0.024
				c-0.003-0.047-0.003-0.093,0-0.14V1143.714L1032.272,1143.714z M1108.793,1140.423c-0.032-0.29,0.13-0.569,0.486-0.777
				l6.563-3.794c0.729-0.415,1.998-0.363,2.836,0.118l7.582,4.38c0.504,0.292,0.74,0.672,0.684,1.024v0.919l-0.006,0.008
				c0.066,0.314-0.09,0.626-0.476,0.85l-6.564,3.79c-0.727,0.423-1.997,0.369-2.835-0.118l-7.581-4.377
				c-0.412-0.235-0.644-0.535-0.688-0.828h-0.001v-0.027c-0.006-0.047-0.006-0.093,0-0.14V1140.423L1108.793,1140.423z
				 M1052.377,1139.359c-0.032-0.292,0.128-0.577,0.486-0.778l6.566-3.794c0.727-0.417,1.996-0.365,2.835,0.118l7.578,4.379
				c0.506,0.292,0.742,0.675,0.685,1.026v0.918l-0.005,0.005c0.067,0.318-0.089,0.63-0.475,0.854l-6.567,3.789
				c-0.726,0.422-1.995,0.37-2.832-0.118l-7.583-4.376c-0.413-0.238-0.641-0.534-0.685-0.829h-0.003v-0.027
				c-0.006-0.047-0.006-0.093,0-0.14V1139.359L1052.377,1139.359z M995.954,1138.49c-0.03-0.292,0.127-0.574,0.486-0.779
				l6.566-3.792c0.726-0.422,1.995-0.367,2.835,0.116l7.578,4.377c0.508,0.292,0.74,0.675,0.687,1.026v0.918l-0.009,0.005
				c0.07,0.318-0.087,0.629-0.473,0.854l-6.563,3.789c-0.729,0.42-1.998,0.366-2.836-0.118l-7.582-4.378
				c-0.411-0.238-0.643-0.535-0.684-0.828h-0.004v-0.027c-0.005-0.049-0.005-0.09,0-0.137V1138.49L995.954,1138.49z
				 M1130.743,1137.355c-0.031-0.292,0.127-0.572,0.486-0.78l6.563-3.789c0.726-0.42,1.998-0.366,2.835,0.118l7.58,4.375
				c0.507,0.292,0.741,0.675,0.688,1.024v0.92l-0.009,0.005c0.067,0.317-0.087,0.628-0.477,0.856l-6.562,3.789
				c-0.725,0.418-1.997,0.363-2.835-0.118l-7.581-4.38c-0.412-0.238-0.647-0.533-0.684-0.825l-0.007-0.004v-0.023
				c-0.005-0.047-0.005-0.093,0-0.137v-1.031H1130.743z M1074.325,1136.288c-0.03-0.292,0.127-0.574,0.486-0.778l6.566-3.789
				c0.725-0.422,1.995-0.37,2.833,0.115l7.578,4.379c0.507,0.29,0.744,0.672,0.689,1.023v0.921l-0.006,0.002
				c0.065,0.318-0.088,0.63-0.476,0.854l-6.564,3.792c-0.724,0.419-1.997,0.363-2.834-0.118l-7.581-4.379
				c-0.415-0.238-0.645-0.537-0.688-0.826l-0.004-0.003v-0.027c-0.004-0.044-0.004-0.09,0-0.137V1136.288z M1017.903,1135.419
				c-0.031-0.29,0.128-0.574,0.485-0.781l6.567-3.789c0.726-0.419,1.994-0.367,2.835,0.116l7.578,4.378
				c0.506,0.292,0.741,0.675,0.688,1.026v0.921l-0.008,0.005c0.067,0.318-0.087,0.626-0.476,0.851l-6.566,3.789
				c-0.724,0.42-1.995,0.366-2.832-0.115l-7.583-4.378c-0.414-0.24-0.643-0.538-0.687-0.828l-0.001-0.002v-0.027
				c-0.005-0.044-0.005-0.093,0-0.137V1135.419L1017.903,1135.419z M1094.253,1132.03c-0.027-0.29,0.132-0.572,0.486-0.78
				l6.569-3.789c0.724-0.42,1.993-0.366,2.828,0.118l7.586,4.375c0.5,0.295,0.735,0.675,0.684,1.027v0.922h-0.008
				c0.067,0.319-0.09,0.631-0.473,0.855l-6.57,3.789c-0.723,0.422-1.993,0.367-2.831-0.116l-7.582-4.378
				c-0.41-0.235-0.643-0.535-0.685-0.825l-0.005-0.004v-0.027c-0.004-0.045-0.004-0.089,0-0.136V1132.03L1094.253,1132.03z
				 M1038.005,1131.061c-0.027-0.292,0.132-0.574,0.488-0.781l6.566-3.789c0.725-0.419,1.995-0.363,2.831,0.118l7.585,4.379
				c0.504,0.287,0.736,0.672,0.685,1.02v0.923l-0.008,0.006c0.067,0.314-0.089,0.626-0.475,0.852l-6.567,3.789
				c-0.724,0.416-1.994,0.363-2.832-0.12l-7.582-4.376c-0.41-0.238-0.644-0.539-0.684-0.826l-0.007-0.003v-0.025
				c-0.004-0.047-0.004-0.093,0-0.14V1131.061z M981.416,1130.094c-0.03-0.29,0.128-0.574,0.488-0.776l6.564-3.796
				c0.724-0.418,1.995-0.364,2.832,0.118l7.583,4.38c0.504,0.292,0.737,0.675,0.684,1.026v0.918l-0.005,0.005
				c0.066,0.318-0.09,0.628-0.477,0.854l-6.566,3.789c-0.726,0.418-1.994,0.366-2.834-0.12l-7.578-4.375
				c-0.415-0.238-0.645-0.535-0.688-0.828l-0.004-0.003v-0.025c-0.004-0.046-0.004-0.093,0-0.14V1130.094L981.416,1130.094z
				 M1116.148,1128.93c-0.03-0.294,0.129-0.572,0.486-0.78l6.566-3.792c0.724-0.419,1.995-0.366,2.832,0.118l7.582,4.376
				c0.507,0.292,0.738,0.675,0.685,1.026v0.925h-0.006c0.066,0.319-0.088,0.631-0.475,0.852l-6.566,3.792
				c-0.727,0.419-1.995,0.366-2.835-0.118l-7.581-4.379c-0.413-0.238-0.644-0.537-0.687-0.829h-0.003v-0.027
				c-0.004-0.046-0.004-0.093,0-0.137v-1.031V1128.93z M1059.731,1127.863c-0.029-0.292,0.13-0.572,0.486-0.78l6.564-3.792
				c0.728-0.418,1.998-0.366,2.836,0.115l7.582,4.38c0.506,0.292,0.736,0.675,0.684,1.024v0.922l-0.008,0.003
				c0.067,0.317-0.085,0.629-0.476,0.85l-6.566,3.796c-0.724,0.418-1.995,0.363-2.832-0.118l-7.582-4.38
				c-0.41-0.235-0.643-0.533-0.688-0.825l-0.001-0.003v-0.025c-0.003-0.047-0.003-0.093,0-0.14V1127.863L1059.731,1127.863z
				 M1003.307,1126.994c-0.027-0.294,0.128-0.574,0.485-0.782l6.567-3.789c0.727-0.418,1.994-0.366,2.836,0.118l7.58,4.38
				c0.506,0.29,0.741,0.672,0.687,1.022v0.922l-0.008,0.005c0.067,0.314-0.088,0.626-0.477,0.852l-6.564,3.789
				c-0.724,0.419-1.997,0.365-2.834-0.116l-7.58-4.38c-0.413-0.238-0.647-0.533-0.689-0.826l-0.003-0.003v-0.025
				c-0.005-0.045-0.005-0.092,0-0.138V1126.994z M1079.658,1123.607c-0.027-0.294,0.132-0.574,0.491-0.782l6.566-3.789
				c0.726-0.422,1.994-0.366,2.831,0.118l7.581,4.376c0.507,0.29,0.741,0.675,0.685,1.026v0.918l-0.008,0.006
				c0.067,0.317-0.085,0.629-0.473,0.85l-6.564,3.792c-0.727,0.422-1.994,0.366-2.835-0.118l-7.582-4.374
				c-0.411-0.241-0.643-0.539-0.684-0.832h-0.008v-0.027c-0.001-0.044-0.001-0.091,0-0.137V1123.607z M1023.412,1122.636
				c-0.03-0.292,0.129-0.574,0.489-0.782l6.564-3.789c0.724-0.418,1.995-0.363,2.832,0.118l7.581,4.378
				c0.507,0.295,0.741,0.675,0.685,1.021v0.922l-0.008,0.005c0.066,0.317-0.087,0.629-0.472,0.856l-6.566,3.786
				c-0.725,0.42-1.994,0.369-2.835-0.118l-7.58-4.375c-0.414-0.24-0.643-0.535-0.688-0.828l-0.004-0.003v-0.025
				c-0.004-0.049-0.004-0.093,0-0.14V1122.636L1023.412,1122.636z M966.822,1121.669c-0.031-0.291,0.131-0.574,0.486-0.777
				l6.566-3.792c0.727-0.418,1.997-0.366,2.835,0.118l7.582,4.378c0.502,0.292,0.737,0.673,0.683,1.022v0.922l-0.006,0.005
				c0.067,0.314-0.085,0.629-0.475,0.852l-6.567,3.789c-0.727,0.419-1.994,0.367-2.835-0.116l-7.578-4.378
				c-0.415-0.238-0.644-0.535-0.685-0.829h-0.005v-0.027c-0.005-0.047-0.005-0.093,0-0.138V1121.669L966.822,1121.669z
				 M1101.609,1120.536c-0.029-0.292,0.128-0.573,0.486-0.779l6.567-3.792c0.725-0.415,1.995-0.366,2.835,0.118l7.578,4.376
				c0.506,0.292,0.741,0.675,0.687,1.026v0.921l-0.006,0.004c0.067,0.314-0.089,0.631-0.475,0.852l-6.567,3.789
				c-0.727,0.422-1.995,0.369-2.835-0.118l-7.582-4.374c-0.411-0.238-0.64-0.539-0.684-0.829l-0.004-0.003v-0.027
				c-0.003-0.044-0.003-0.093,0-0.137V1120.536L1101.609,1120.536z M1045.36,1119.566c-0.029-0.292,0.13-0.574,0.486-0.78
				l6.566-3.792c0.726-0.418,1.995-0.363,2.835,0.118l7.578,4.38c0.509,0.29,0.742,0.672,0.688,1.021v0.922l-0.006,0.005
				c0.067,0.314-0.088,0.626-0.476,0.851l-6.565,3.789c-0.728,0.42-1.997,0.366-2.835-0.118l-7.582-4.375
				c-0.411-0.241-0.643-0.538-0.685-0.828l-0.004-0.003v-0.027c-0.004-0.044-0.004-0.091,0-0.137V1119.566L1045.36,1119.566z
				 M988.77,1118.601c-0.031-0.294,0.129-0.577,0.485-0.78l6.566-3.792c0.727-0.418,1.995-0.366,2.835,0.118l7.581,4.378
				c0.504,0.292,0.741,0.675,0.685,1.022v0.922l-0.005,0.005c0.065,0.317-0.089,0.629-0.477,0.852l-6.566,3.792
				c-0.724,0.419-1.992,0.365-2.832-0.116l-7.58-4.38c-0.413-0.238-0.647-0.535-0.688-0.826l-0.001-0.003v-0.025
				c-0.009-0.049-0.009-0.096,0-0.141v-1.026H988.77z M1065.292,1115.306c-0.032-0.29,0.128-0.57,0.485-0.779l6.564-3.789
				c0.724-0.419,1.997-0.366,2.832,0.118l7.586,4.379c0.504,0.29,0.736,0.67,0.682,1.023v0.921l-0.004,0.006
				c0.066,0.314-0.09,0.626-0.476,0.85l-6.566,3.789c-0.724,0.419-1.995,0.366-2.833-0.118l-7.581-4.376
				c-0.414-0.238-0.647-0.536-0.688-0.826l-0.001-0.003v-0.027c-0.006-0.047-0.006-0.091,0-0.137V1115.306L1065.292,1115.306z
				 M1008.875,1114.24c-0.031-0.287,0.129-0.572,0.486-0.777l6.567-3.792c0.723-0.42,1.996-0.366,2.831,0.118l7.582,4.378
				c0.506,0.292,0.74,0.672,0.684,1.022v0.925l-0.006,0.002c0.066,0.317-0.088,0.626-0.473,0.854l-6.567,3.789
				c-0.725,0.418-1.995,0.366-2.835-0.118l-7.581-4.375c-0.411-0.238-0.644-0.538-0.684-0.828l-0.004-0.005v-0.025
				c-0.005-0.047-0.005-0.093,0-0.137V1114.24L1008.875,1114.24z M1087.015,1112.108c-0.03-0.287,0.128-0.572,0.488-0.776
				l6.563-3.793c0.728-0.418,1.998-0.366,2.836,0.118l7.578,4.377c0.508,0.29,0.745,0.675,0.688,1.026v0.921l-0.007,0.005
				c0.066,0.314-0.089,0.629-0.476,0.849l-6.566,3.794c-0.725,0.418-1.995,0.366-2.832-0.12l-7.582-4.375
				c-0.414-0.238-0.644-0.535-0.687-0.828l-0.004-0.003v-0.025c-0.005-0.047-0.005-0.093,0-0.14v-1.026V1112.108z M1030.769,1111.14
				c-0.034-0.294,0.127-0.574,0.485-0.78l6.563-3.789c0.729-0.42,1.998-0.369,2.836,0.118l7.58,4.374
				c0.507,0.294,0.742,0.675,0.688,1.026v0.922l-0.008,0.003c0.066,0.317-0.09,0.629-0.476,0.855l-6.564,3.789
				c-0.727,0.419-1.997,0.363-2.835-0.118l-7.581-4.379c-0.414-0.238-0.644-0.535-0.688-0.826v-0.003v-0.024
				c-0.008-0.047-0.008-0.093,0-0.14V1111.14L1030.769,1111.14z M974.176,1110.172c-0.028-0.292,0.129-0.572,0.486-0.779
				l6.568-3.789c0.723-0.419,1.992-0.367,2.832,0.118l7.58,4.376c0.504,0.29,0.74,0.672,0.687,1.023v0.921l-0.008,0.005
				c0.067,0.314-0.088,0.632-0.473,0.854l-6.57,3.789c-0.724,0.418-1.993,0.369-2.827-0.115l-7.586-4.376
				c-0.411-0.24-0.645-0.539-0.685-0.832h-0.004v-0.027c-0.003-0.047-0.003-0.093,0-0.137V1110.172L974.176,1110.172z
				 M1050.695,1106.883c-0.027-0.292,0.129-0.574,0.486-0.779l6.568-3.793c0.725-0.42,1.994-0.366,2.835,0.118l7.58,4.377
				c0.504,0.292,0.736,0.675,0.688,1.026v0.921l-0.012,0.003c0.068,0.317-0.087,0.628-0.475,0.854l-6.564,3.789
				c-0.724,0.42-1.998,0.366-2.832-0.118l-7.582-4.378c-0.415-0.235-0.645-0.535-0.685-0.825l-0.006-0.003v-0.027
				c-0.004-0.044-0.004-0.09,0-0.137V1106.883L1050.695,1106.883z M994.281,1105.815c-0.028-0.291,0.128-0.572,0.485-0.777
				l6.567-3.792c0.724-0.418,1.994-0.366,2.834,0.118l7.58,4.374c0.507,0.296,0.74,0.675,0.687,1.028v0.922h-0.005
				c0.066,0.319-0.089,0.631-0.477,0.855l-6.564,3.789c-0.727,0.419-1.996,0.366-2.835-0.118l-7.583-4.374
				c-0.41-0.238-0.641-0.538-0.684-0.831h-0.003v-0.027c-0.005-0.047-0.005-0.091,0-0.14V1105.815L994.281,1105.815z
				 M1072.645,1103.813c-0.029-0.292,0.131-0.574,0.486-0.778l6.567-3.793c0.724-0.42,1.994-0.366,2.828,0.118l7.586,4.378
				c0.502,0.292,0.737,0.675,0.685,1.025v0.918l-0.007,0.008c0.065,0.312-0.092,0.626-0.475,0.851l-6.568,3.789
				c-0.724,0.42-1.993,0.366-2.833-0.118l-7.58-4.375c-0.412-0.238-0.644-0.538-0.687-0.83h-0.004v-0.027
				c-0.007-0.044-0.007-0.091,0-0.137V1103.813L1072.645,1103.813z M1016.228,1102.744c-0.03-0.29,0.132-0.573,0.486-0.776
				l6.566-3.792c0.728-0.418,1.998-0.366,2.832,0.118l7.586,4.376c0.502,0.292,0.734,0.675,0.684,1.026v0.918l-0.008,0.009
				c0.067,0.314-0.091,0.626-0.475,0.85l-6.568,3.792c-0.725,0.422-1.994,0.367-2.835-0.12l-7.578-4.376
				c-0.414-0.235-0.643-0.533-0.685-0.829h-0.005v-0.027c-0.004-0.046-0.004-0.093,0-0.14V1102.744z M1036.156,1098.488
				c-0.028-0.29,0.132-0.574,0.486-0.776l6.566-3.796c0.727-0.415,1.995-0.363,2.836,0.118l7.581,4.38
				c0.506,0.29,0.741,0.672,0.685,1.023v0.921l-0.008,0.005c0.067,0.314-0.088,0.629-0.476,0.854l-6.565,3.789
				c-0.728,0.418-1.997,0.369-2.832-0.118l-7.582-4.377c-0.41-0.238-0.645-0.535-0.688-0.828l0,0v-0.027
				c-0.008-0.047-0.008-0.093,0-0.14v-1.028H1036.156z M1058.048,1095.388c-0.026-0.294,0.132-0.574,0.49-0.78l6.564-3.792
				c0.727-0.419,1.997-0.366,2.833,0.12l7.582,4.374c0.507,0.294,0.739,0.677,0.684,1.026v0.922l-0.008,0.003
				c0.068,0.317-0.087,0.631-0.473,0.852l-6.564,3.792c-0.727,0.419-1.997,0.367-2.835-0.116l-7.582-4.378
				c-0.411-0.238-0.643-0.539-0.684-0.829l-0.008-0.003v-0.027c-0.001-0.044-0.001-0.091,0-0.136V1095.388L1058.048,1095.388z
				 M1001.633,1094.321c-0.029-0.292,0.132-0.574,0.488-0.778l6.566-3.792c0.725-0.417,1.995-0.367,2.835,0.116l7.581,4.378
				c0.506,0.292,0.741,0.675,0.685,1.026v0.918l-0.008,0.005c0.067,0.314-0.085,0.632-0.476,0.854l-6.563,3.789
				c-0.726,0.42-1.998,0.369-2.833-0.118l-7.582-4.375c-0.414-0.237-0.645-0.538-0.684-0.83h-0.008v-0.027
				c-0.004-0.044-0.004-0.093,0-0.137V1094.321z M1021.566,1090.061c-0.032-0.29,0.128-0.57,0.484-0.776l6.568-3.794
				c0.724-0.417,1.993-0.363,2.831,0.118l7.582,4.38c0.504,0.292,0.74,0.672,0.685,1.022v0.921l-0.006,0.006
				c0.065,0.317-0.091,0.628-0.475,0.852l-6.567,3.792c-0.725,0.416-1.993,0.367-2.833-0.116l-7.581-4.38
				c-0.413-0.238-0.644-0.537-0.687-0.829l-0.001-0.003v-0.024c-0.005-0.047-0.005-0.093,0-0.136v-1.028V1090.061z
				 M1043.514,1086.995c-0.03-0.294,0.128-0.572,0.486-0.78l6.564-3.792c0.724-0.419,1.997-0.366,2.833,0.115l7.58,4.379
				c0.508,0.294,0.741,0.674,0.688,1.025v0.922l-0.005,0.003c0.063,0.317-0.089,0.628-0.476,0.85l-6.566,3.794
				c-0.727,0.419-1.995,0.365-2.835-0.116l-7.578-4.38c-0.416-0.238-0.648-0.537-0.688-0.829h-0.004v-0.027
				c-0.005-0.047-0.005-0.093,0-0.14v-1.028V1086.995z M1028.92,1078.568c-0.031-0.292,0.129-0.572,0.486-0.781l6.564-3.787
				c0.729-0.422,1.997-0.37,2.836,0.118l7.581,4.374c0.505,0.292,0.739,0.675,0.683,1.023v0.921l-0.005,0.005
				c0.067,0.317-0.089,0.63-0.476,0.853l-6.566,3.792c-0.725,0.418-1.995,0.366-2.835-0.118l-7.58-4.379
				c-0.414-0.238-0.644-0.537-0.684-0.829h-0.005v-0.027c-0.005-0.046-0.005-0.09,0-0.137V1078.568L1028.92,1078.568z"/>
		</g>
		<g id="mouse">
			<path fill="#BFBFF8" d="M1265.228,1241.038c0-5.982-35.337-26.018-58.425-9.946c-16.809,11.704-17.153,24.433-16.565,26.945
				c1.707,7.294,16.744,15.345,22.397,15.81c7.971,0.653,14.189-4.218,25.306-10.572
				C1251.494,1255.533,1265.228,1247.213,1265.228,1241.038z"/>
			<path fill="#E9E9FC" d="M1266.575,1235.986c0-6.194-36.607-26.946-60.518-10.302c-17.408,12.123-17.765,25.306-17.155,27.91
				c1.765,7.555,17.34,15.895,23.197,16.373c8.257,0.679,14.698-4.369,26.211-10.946
				C1252.349,1250.997,1266.575,1242.383,1266.575,1235.986L1266.575,1235.986z"/>
			<path fill="#CDD6F3" d="M1265.626,1239.067c-7.461,6.725-27.224-3.293-39.9,4.477c-12.447,7.627-11.145,26.224-5.891,25.134
				c0.599-0.124,1.19-0.252,1.771-0.383c4.732-1.943,9.807-5.332,16.701-9.269
				C1250.201,1252.231,1262.228,1245.007,1265.626,1239.067L1265.626,1239.067z"/>
			<g>
				<path fill="#CDD6F3" d="M1248.549,1221.313c-0.936-0.541-2.178-0.85-3.656-0.85c-3.157,0-6.417,1.458-8.82,3.472l0,0l0,0
					c-0.113,0.096-0.224,0.191-0.332,0.283v0.006l0,0l2.251,1.298l0.332-0.29c0,0,12.123-1.298,12.147-1.305
					c-0.043-0.24-0.106-0.475-0.195-0.7l0.581,0.336v-0.918L1248.549,1221.313L1248.549,1221.313z"/>
				<path fill="#AABAEB" d="M1247.15,1221.752c-3.307,0-6.722,1.595-9.152,3.759c-0.005,0.019,14.701-0.283,14.732-0.292
					C1252.374,1223.163,1250.307,1221.752,1247.15,1221.752L1247.15,1221.752z"/>
			</g>
		</g>
		<g>
			<path fill="#DEDEFC" d="M815.331,1796.521l-82.824-44.199l-13.554,8.593l-0.018-0.012l-0.091,12.609l79.668,61.512l-0.105,14.44
				l-90.449,55.641l-0.089,12.578l14.228,8.677l0,0l0,0l0.005,0.006v-0.006l100.628-39.895l0.003-0.343
				c16.815,6.444,38.45,6.89,55.922,1.313l99.671,39.948v0.003l0.001-0.003l0,0l0,0l14.334-8.641l0.062-12.582l-86.042-53.536
				l0.1-14.019l82.074-62.282l0.088-12.606l-0.018,0.009l-13.429-8.656l-82.457,43.271c-0.625-0.401-1.27-0.795-1.935-1.181
				c-20.837-12.158-54.571-12.381-75.769-0.643H815.331z"/>
			<g>
				<path fill="#2F302F" d="M957.959,1915.465c-3.854-1.548-6.355-6.184-6.355-13.043c0-11.444,6.955-24.745,15.538-29.692
					c4.063-2.346,7.759-2.404,10.526-0.601l10.672,5.964l-6.939,15.379c-1.139,4.147-2.974,8.199-5.278,11.706l-7.378,16.357
					L957.959,1915.465L957.959,1915.465z"/>
				<path fill="#494A4A" d="M994.362,1890.988c0,11.444-6.956,24.734-15.539,29.687c-8.581,4.957-15.539-0.303-15.539-11.748
					c0-11.438,6.959-24.73,15.539-29.687C987.406,1874.287,994.362,1879.547,994.362,1890.988z"/>
				<path fill="#979696" d="M988.905,1894.512c0,7.417-4.517,16.032-10.079,19.244c-5.562,3.215-10.073-0.198-10.073-7.615
					c0-7.423,4.511-16.04,10.073-19.25C984.388,1883.677,988.905,1887.095,988.905,1894.512z"/>
				<path fill="#FFFFFF" d="M986.045,1896.153c0,5.319-3.238,11.503-7.229,13.812c-3.993,2.302-7.228-0.146-7.228-5.465
					c0-5.326,3.234-11.507,7.228-13.812C982.807,1888.382,986.045,1890.826,986.045,1896.153L986.045,1896.153z"/>
				<path fill="#383838" d="M982.321,1898.304c0,2.567-1.565,5.556-3.496,6.67c-1.927,1.113-3.489-0.068-3.489-2.641
					s1.562-5.563,3.489-6.676C980.756,1894.544,982.321,1895.724,982.321,1898.304z"/>
			</g>
			<g>
				<path fill="#2F302F" d="M712.333,1910.568c-3.853-1.548-6.356-6.187-6.356-13.046c0-11.443,6.957-24.739,15.539-29.691
					c4.06-2.345,7.757-2.403,10.526-0.601l10.669,5.966l-6.936,15.382c-1.139,4.146-2.976,8.199-5.279,11.704l-7.379,16.357
					L712.333,1910.568L712.333,1910.568z"/>
				<path fill="#494A4A" d="M748.738,1886.077c0,11.45-6.96,24.737-15.544,29.687c-8.579,4.96-15.539-0.297-15.539-11.746
					c0-11.437,6.96-24.732,15.539-29.688C741.778,1869.377,748.738,1874.636,748.738,1886.077z"/>
				<path fill="#979696" d="M743.275,1889.601c0,7.418-4.511,16.032-10.073,19.244c-5.563,3.215-10.074-0.197-10.074-7.615
					c0-7.419,4.511-16.04,10.074-19.25C738.764,1878.767,743.275,1882.185,743.275,1889.601z"/>
				<path fill="#FFFFFF" d="M740.433,1891.243c0,5.319-3.236,11.503-7.229,13.805c-3.991,2.308-7.228-0.142-7.228-5.459
					c0-5.325,3.236-11.507,7.228-13.812c3.992-2.304,7.229,0.14,7.229,5.468V1891.243z"/>
				<path fill="#383838" d="M736.696,1893.41c0,2.567-1.565,5.556-3.497,6.67c-1.925,1.113-3.493-0.069-3.493-2.641
					c0-2.572,1.568-5.561,3.493-6.676C735.131,1889.651,736.696,1890.833,736.696,1893.41L736.696,1893.41z"/>
			</g>
			<g>
				<path fill="#2F302F" d="M720.002,1774.988c-3.854-1.549-6.356-6.189-6.356-13.049c0-11.441,6.954-24.738,15.539-29.69
					c4.06-2.346,7.757-2.403,10.525-0.601l10.67,5.966l-6.938,15.38c-1.139,4.147-2.975,8.199-5.28,11.704l-7.377,16.358
					L720.002,1774.988L720.002,1774.988z"/>
				<path fill="#494A4A" d="M756.405,1750.496c0,11.444-6.958,24.739-15.541,29.69c-8.582,4.954-15.538-0.303-15.538-11.748
					c0-11.441,6.956-24.733,15.538-29.69C749.447,1733.794,756.405,1739.055,756.405,1750.496z"/>
				<path fill="#979696" d="M750.93,1754.02c0,7.417-4.512,16.035-10.075,19.244c-5.563,3.215-10.074-0.198-10.074-7.615
					c0-7.422,4.511-16.037,10.074-19.247C746.418,1743.185,750.93,1746.603,750.93,1754.02z"/>
				<path fill="#FFFFFF" d="M748.085,1755.677c0,5.318-3.234,11.505-7.229,13.807c-3.991,2.304-7.225-0.142-7.225-5.463
					c0-5.323,3.234-11.505,7.225-13.809C744.852,1747.904,748.085,1750.351,748.085,1755.677L748.085,1755.677z"/>
				<path fill="#383838" d="M744.35,1757.823c0,2.572-1.566,5.559-3.495,6.673c-1.93,1.116-3.496-0.066-3.496-2.641
					c0-2.572,1.566-5.561,3.496-6.674C742.784,1754.067,744.35,1755.247,744.35,1757.823z"/>
			</g>
			<g>
				<path fill="#2F302F" d="M956.787,1777.253c-3.856-1.551-6.356-6.189-6.356-13.046c0-11.444,6.954-24.742,15.538-29.694
					c4.062-2.345,7.758-2.403,10.527-0.6l10.669,5.962l-6.936,15.382c-1.141,4.146-2.98,8.202-5.284,11.706l-7.375,16.357
					L956.787,1777.253L956.787,1777.253z"/>
				<path fill="#494A4A" d="M993.176,1752.76c0,11.449-6.961,24.738-15.543,29.69c-8.579,4.953-15.539-0.304-15.539-11.748
					c0-11.439,6.96-24.732,15.539-29.69C986.215,1736.056,993.176,1741.318,993.176,1752.76z"/>
				<path fill="#979696" d="M987.712,1756.283c0,7.418-4.51,16.032-10.072,19.244c-5.563,3.218-10.077-0.197-10.077-7.617
					c0-7.419,4.513-16.037,10.077-19.246C983.203,1745.452,987.712,1748.864,987.712,1756.283z"/>
				<path fill="#FFFFFF" d="M984.871,1757.924c0,5.323-3.234,11.507-7.229,13.809c-3.99,2.302-7.228-0.142-7.228-5.463
					c0-5.326,3.238-11.507,7.228-13.809C981.637,1750.155,984.871,1752.601,984.871,1757.924L984.871,1757.924z"/>
				<path fill="#383838" d="M981.136,1760.089c0,2.567-1.567,5.561-3.496,6.67c-1.931,1.119-3.497-0.065-3.497-2.641
					c0-2.57,1.566-5.561,3.497-6.673C979.569,1756.332,981.136,1757.512,981.136,1760.089L981.136,1760.089z"/>
			</g>
			<g>
				<g>
					<path fill="#5454EE" d="M897.703,1780.946l92.899-57.516l-0.093,12.606l-92.991,70.57L897.703,1780.946z"/>
					
						<linearGradient id="SVGID_1_" gradientUnits="userSpaceOnUse" x1="-33.6815" y1="1479.72" x2="-31.0617" y2="1480.9946" gradientTransform="matrix(8.2829 4.881 0.0715 -9.9081 1085.174 16613.0293)">
						<stop  offset="0" style="stop-color:#260096"/>
						<stop  offset="0.57" style="stop-color:#8800DF"/>
						<stop  offset="1" style="stop-color:#B300FF"/>
					</linearGradient>
					<path fill="url(#SVGID_1_)" d="M897.718,1780.973l-21.699-13.112l-0.188,25.642l21.7,13.105L897.718,1780.973z"/>
					<path fill="#8888F3" d="M876.014,1767.87l101.148-53.079l13.426,8.658l-92.874,57.532L876.014,1767.87z"/>
				</g>
				<g>
					<path fill="#5454EE" d="M812.672,1778.578l-92.067-57.956l-0.09,12.609l91.97,71.012L812.672,1778.578z"/>
					
						<linearGradient id="SVGID_2_" gradientUnits="userSpaceOnUse" x1="124.8695" y1="1557.618" x2="127.4888" y2="1558.9137" gradientTransform="matrix(-8.353 4.8409 0.0715 -9.9081 1729.9366 16613.2969)">
						<stop  offset="0" style="stop-color:#260096"/>
						<stop  offset="0.57" style="stop-color:#8800DF"/>
						<stop  offset="1" style="stop-color:#B300FF"/>
					</linearGradient>
					<path fill="url(#SVGID_2_)" d="M812.659,1778.609l21.887-13.006l-0.184,25.638l-21.886,13.002L812.659,1778.609z"/>
					<path fill="#8888F3" d="M834.546,1765.609l-100.378-53.564l-13.552,8.59l92.041,57.978L834.546,1765.609z"/>
				</g>
				<g>
					<path fill="#4040EC" d="M800.01,1818.636c-0.436,8.33,4.828,16.747,15.781,23.125c21.114,12.3,55.394,12.371,76.605,0.135
						c10.531-6.051,15.83-14.017,15.886-22.003l0,0l0.295-40.716l-6.63,3.794c-2.427-2.599-5.534-5.046-9.32-7.247
						c-21.099-12.31-55.42-12.384-76.567-0.191c-3.548,2.042-6.504,4.3-8.868,6.704l-6.901-4.017l-0.292,40.407L800.01,1818.636z"/>
					<path fill="#7272F1" d="M816.211,1756.694c21.142-12.194,55.463-12.12,76.562,0.192c21.12,12.274,21.074,32.152-0.072,44.299
						c-21.211,12.239-55.489,12.165-76.605-0.135C794.989,1788.765,795.016,1768.889,816.211,1756.694z"/>
				</g>
				<g>
					<g>
						<g>
							<path fill="#5454EE" d="M723.85,1873.472l100.728-52.956l-0.187,25.667l-100.631,39.895L723.85,1873.472L723.85,1873.472z"/>
							<path fill="#4040EC" d="M723.85,1873.5l-14.233-8.68l-0.091,12.582l14.234,8.679L723.85,1873.5z"/>
							<path fill="#8888F3" d="M709.617,1864.83l93.678-57.627l21.7,13.109l-101.142,53.198L709.617,1864.83z"/>
						</g>
					</g>
				</g>
				<g>
					<g>
						<g>
							<path fill="#5454EE" d="M980.016,1874.607l-99.958-53.44l-0.184,25.663l100.052,40.384L980.016,1874.607z"/>
							<path fill="#4040EC" d="M980.004,1874.617l14.359-8.612l-0.092,12.582l-14.357,8.612L980.004,1874.617z"/>
							<path fill="#8888F3" d="M994.362,1866.017l-92.842-58.076l-21.887,13.005l100.37,53.683L994.362,1866.017L994.362,1866.017z"
								/>
						</g>
					</g>
				</g>
			</g>
			<path fill="#8888F3" d="M830.979,1772.285c-0.243,3.679,2.068,7.406,6.932,10.216c9.265,5.348,24.305,5.348,33.569,0
				c4.383-2.532,6.694-5.809,6.928-9.131l0.072,0.003l0.269-269.592l-47.529-0.189l-0.241,268.69V1772.285z"/>
			<path fill="#4F56FF" d="M1090.344,1631.963c0,0,19.548-0.938,46.786-7.92c27.24-6.983,37.493-14.665,51.029-8.547
				c13.535,6.118,9.901,27.476,5.24,35.953c-4.663,8.479-30.874,29.127-48.225,34.956c-17.354,5.826-53.896,18.481-53.896,18.481
				s-16.384,11.179-30.894,9.112c-14.511-2.067-20.044-19.198-18.897-48.932C1042.636,1635.336,1090.344,1631.963,1090.344,1631.963
				z"/>
			<path fill="#9CA0FF" d="M1047.731,1705.449c-2.276-3.657,14.55,7.021,34.462-3.709c25.724-13.861,47.236-16.165,68.692-26.467
				c26.717-12.825,43.943-26.409,42.519-23.824c-4.661,8.479-30.871,29.13-48.222,34.956c-17.355,5.829-53.901,18.481-53.901,18.481
				s-16.383,11.179-30.893,9.112C1054.946,1713.225,1050.767,1710.332,1047.731,1705.449L1047.731,1705.449z"/>
			<path fill="#2B1E7D" d="M1099.117,1659.469c0,0-12.936-47.001-28.681-115.136c-13.239-57.288-17.43-134.468-57.161-167.869
				c-39.73-33.401-73.93-9.82-91.891-3.554c-17.962,6.267-195.872,69.004-195.872,69.004s-31.535,70.671,36.612,136.187
				c29.33,28.193,202.729-105.152,202.729-105.152s3.845,56.13,15.133,81.225c11.285,25.096,51.17,125.807,51.17,125.807
				S1069.558,1689.555,1099.117,1659.469L1099.117,1659.469z"/>
			<path fill="#3400CC" d="M964.679,1502.267L767.022,1616.39l-7.006,3.224l-1.325,0.429l-6.22,1.38l-0.568,0.054l-6.086-0.325
				l-0.354-0.081l-5.462-2.081h-0.029H740h-0.029l20.503,11.93l0.193,0.105l1.922,0.948l2.001,0.703l1.376,0.297l0.3,0.081
				l0.488,0.107l2.298,0.27l2.515,0.03l0.839-0.084l0.515-0.052l1.489-0.137l3.326-0.731l2.787-0.948l1.675-0.591l5.304-2.627
				l197.656-114.124L964.679,1502.267L964.679,1502.267z"/>
			<path fill="#5454EE" d="M985.169,1514.179l-197.657,114.128c-20.966,12.09-38.091,2.327-38.146-21.778l-0.618-213.187
				l-13.717,7.926l0.625,213.214c0.051,32.812,23.396,46.039,51.909,29.594l197.656-114.125L985.169,1514.179z"/>
			<g>
				<path fill="#D5D5FB" d="M1089.709,1563.401c0.264,3.828-1.905,7.519-6.608,10.233l-176.813,102.084
					c-9.82,5.667-26.995,4.956-38.336-1.589l-199.245-115.036c-6.428-3.708-9.605-8.503-9.369-12.989l0,0v-26.786l18.174,10.493
					v0.479l165.256-95.41c9.818-5.671,26.997-4.959,38.336,1.588l191.035,110.292l17.592-10.156v26.786L1089.709,1563.401
					L1089.709,1563.401z"/>
				<path fill="#A9A9F6" d="M868.926,1647.893c10.178,5.878,25.599,6.518,34.414,1.428l180.441-104.178
					c8.816-5.09,7.709-13.992-2.471-19.87l-201.256-116.195c-10.177-5.878-25.599-6.515-34.413-1.425L665.198,1511.83
					c-8.813,5.09-7.708,13.991,2.47,19.869L868.926,1647.893z"/>
			</g>
			<g>
				<path fill="#4F56FF" d="M1181.008,1737.436c0,0,18.854,5.249,46.979,6.89c28.128,1.642,40.363-2.786,51.208,7.605
					c10.842,10.396,0.418,30.581-6.779,37.575c-7.192,6.999-38.808,19.334-57.178,19.665c-18.37,0.331-57.179,1.411-57.179,1.411
					s-19.199,5.986-32.29-0.67c-13.093-6.658-12.744-25.518-1.936-54.859c10.805-29.343,57.173-17.618,57.173-17.618H1181.008z"/>
				<path fill="#9CA0FF" d="M1116.548,1797.371c-0.967-4.374,11.508,11.613,33.908,7.193c28.937-5.706,50.099-1.205,73.825-4.702
					c29.542-4.366,50.324-12.486,48.127-10.351c-7.193,6.994-38.811,19.334-57.179,19.665c-18.368,0.331-57.18,1.411-57.18,1.411
					s-19.197,5.985-32.287-0.672C1120.854,1807.421,1117.831,1803.212,1116.548,1797.371L1116.548,1797.371z"/>
				<path fill="#402CBC" d="M1185.533,1756.057c15.158-21.166-3.566-39.417,3.762-112.469c6.157-61.42,27.401-139.85,0.621-185.788
					c-26.78-45.939-66.937-33.197-86.029-32.623c-19.088,0.579-194.851,1.406-194.851,1.406s-164.264-114.176-171.761-103.806
					c-36.622,50.65-34.779,117.286-34.779,165.372c0,66.015,127.813,112.839,216.202,96.764
					c69.912-12.714,193.743-46.045,193.743-46.045s-14.698,57.295-12.186,85.937c2.509,28.641,9.263,135.839,9.263,135.839
					S1171.999,1774.948,1185.533,1756.057L1185.533,1756.057z"/>
				<path fill="#2B1E7D" d="M1133.367,1764.587c8.005,0.923,15.268-159.947,5.236-200.175
					c-8.884-35.628-26.157-25.537-26.157-25.537s-14.695,57.291-12.187,85.931c2.51,28.644,9.265,135.841,9.265,135.841
					S1120.035,1763.053,1133.367,1764.587L1133.367,1764.587z"/>
				<path fill="#FBC3B2" d="M987.331,1159.951c0,0,34.736,0.66,44.568-1.05c5.615-0.972,14.419-9.188,14.419-9.188
					s2.517-5.752-8.295-2.584c-10.814,3.175-15.26,0.758-15.26,0.758l24.119-12.619l15.714-4.115c0,0,4.995-4.459,3.687-6.624
					c-2.201-3.652-14.251-13.593-16.897-15.274c-2.642-1.679-16.437-2.192-23.998,0.427c-10.62,3.682-39.74,21.655-39.74,21.655
					L987.331,1159.951L987.331,1159.951z"/>
				<path fill="#FAB5A1" d="M987.331,1159.951c0,0,6.022,0.115,13.761,0.125c1.557,0.003,5.526-21.179-5.831-34.529
					c-5.668,3.18-9.613,5.789-9.613,5.789L987.331,1159.951z"/>
				<path fill="#CDD6F3" d="M991.718,1173.055c10.041-3.718,9.407-32.197-6.067-41.725c-43.606-0.424-124.802,4.865-124.802,4.865
					s-69.4-0.978-81.633-23.694c-12.232-22.721-35.961-40.032-48.293-36.417c-12.333,3.616-23.271,24.093-8.846,69.65
					c24.192,76.38,99.349,60.714,99.349,60.714S943.425,1190.923,991.718,1173.055z"/>
				<path fill="#F5F5FE" d="M859.363,1099.256c0,0,79.125,36.866,73.423,121.205c-5.702,84.338-3.395,132.85,20.111,197.403
					c17.805,48.907-106.946,87.79-176.065,49.602c-42.223-23.331-53.908-50.348-55.367-71.867
					c-5.273-77.765,22.94-60.621,3.334-146.101c-14.756-64.338-20.538-91.031-20.81-124.584
					c-0.395-48.527,14.17-69.463,37.589-73.014C787.208,1044.971,861.547,1099.889,859.363,1099.256L859.363,1099.256z"/>
				<path fill="#CDD6F3" d="M865.375,1246.114c0,0,15.671-99.865,67.423-56.359c-5.316,84.365-3.396,163.553,20.107,228.105
					c8.627,23.689-16.822,43.212-51.94,56.395C891.56,1414.722,867.56,1246.747,865.375,1246.114z"/>
				<path fill="#FBC3B2" d="M896.104,990.598c-2.965,20.747-10.826,55.875-22.068,65.096c-3.69,3.027-14.301,0.643-14.301,0.643
					s-4.626-1.692-10.934,17.014c-6.304,18.703-0.059,9.13-2.948,26.499c-0.685,4.116-58.426-30.352-69.175-36.651
					c1.948-13.957,5.052-21.091,1.607-27.705c-8.295-15.925-17.554-46.125-17.633-63.556c-0.067-14.825,6.506-30.724,17.163-41.025
					c11.396-11.014,32.205-25.118,51.21-25.067c19.003,0.052,51.636,11.241,62.815,25.367
					C903.021,945.336,898.916,970.954,896.104,990.598z"/>
				<path fill="#FAB5A1" d="M855.754,1001.958c-3.075,37.338,6.965,45.387,18.282,53.748c-3.43,3.318-14.301,0.641-14.301,0.641
					s-4.626-1.689-10.934,17.011c-6.304,18.705,0.548,17.614-2.948,26.499c-1.527,3.887-55.353-26.904-69.175-36.647
					c1.922-13.831,5.238-21.22,1.607-27.709C769.513,1019.839,839.788,998.627,855.754,1001.958L855.754,1001.958z"/>
				<path fill="#FBC3B2" d="M1152.201,1249.311c0,0,8.755-10.061,14.103-16.428c3.784-4.505,15.373-16.243,23.597-23.441
					c4.506-3.942,10.564-4.648,11.935-4.013c3.295,1.522-9.349,11.395-11.038,14.97c-1.686,3.578,13.281-6.334,19.437-8.013
					c5.666-1.544,12.949-4.268,17.497-2.056c4.546,2.206,25.206,19.115,25.206,19.115s2.837,6.299-0.654,8.888
					c-3.495,2.587-6.158-1.419-12.436-0.66c-6.277,0.766-19.038,3.055-23.125,9.031c-4.085,5.979-7.665,12.406-17.208,17.561
					c-5.817,3.137-12.637,7.859-18.351,7.581c-3.666-0.179-14.51,2.916-14.51,2.916L1152.201,1249.311L1152.201,1249.311z"/>
				<path fill="#FAB5A1" d="M1152.201,1249.311c0,0,5.316-6.111,10.197-11.821c14.474,2.994,20.231,27.41,18.765,34.36
					c-3.664-0.181-14.507,2.914-14.507,2.914L1152.201,1249.311L1152.201,1249.311z"/>
				<path fill="#F5F5FE" d="M1178.698,1286.962c8.159-7.644-4.885-41.29-22.726-46.002c-41.163,15.29-102.291,52.008-115.693,50.333
					c-13.4-1.671-110.027-126.894-129.382-147.032c-19.353-20.138-35.73-14.266-46.078-5.9c-10.35,8.363-52.595,51.87,6.908,115.137
					c59.504,63.266,122.912,131.443,155.673,119.693C1075.844,1355.814,1139.457,1323.717,1178.698,1286.962L1178.698,1286.962z"/>
				<path fill="#CDD6F3" d="M1178.698,1286.962c2.808-2.63,2.959-8.295,1.566-14.87c-17.708,10.288-98.126,63.142-156.876,73.486
					c-33.975,5.982-97.594-70.067-160.299-101.993c68.287,75.595,131.551,141.356,164.312,129.606
					C1075.844,1355.814,1139.457,1323.717,1178.698,1286.962z"/>
				<path fill="#292929" d="M898.141,946.117c0,0,4.786-39.513-44.604-45.663c-49.395-6.147-66.947,9.317-76.46,20.28
					c-9.51,10.964-19.499,33.112-17.406,50.938c4.918,41.915,17.878,62.371,17.878,62.371s13.197,4.036,27.239,4.282
					c14.676,0.26,30.608-28.168,30.608-28.168l19.93-15.086l0.135,11.627l9.141,1.121l3.585-48.952l29.958-12.755L898.141,946.117z"
					/>
				<path fill="#FAB09A" d="M854.621,992.353c0,0-1.711-9.893-14.825-9.055c-12.253,0.779-11.784,12.359-10.063,18.183
					c3.794,12.84,17.984,18.948,24.24,16.486C859.07,1015.963,854.621,992.353,854.621,992.353L854.621,992.353z"/>
			</g>
			<g>
				<path fill="#E9E9FD" d="M885.237,1523.686L885.237,1523.686l-32.169,18.575v-29.857L674.22,1409.146
					c-7.551-4.358-12.2-12.412-12.2-21.131v-127.137l-25.466-14.7l32.187-18.585l0.059-0.032l0.078-0.044l0,0
					c4.183-2.378,9.312-2.365,13.483,0.044c43.853,25.319,146.866,84.792,190.84,110.179c12.669,7.318,20.48,20.84,20.48,35.474
					c0,35.163,0,100.976,0,137.171c0,5.25-2.806,10.104-7.355,12.73C885.972,1523.323,885.606,1523.512,885.237,1523.686
					L885.237,1523.686z"/>
				<path fill="#D5D5FB" d="M629.85,1257.873c0-4.847,2.585-9.323,6.779-11.745c4.196-2.422,9.367-2.422,13.561,0
					c43.852,25.316,146.864,84.792,190.84,110.179c12.672,7.318,20.479,20.838,20.479,35.472c0,35.167,0,100.976,0,137.171
					c0,5.254-2.802,10.107-7.354,12.734c-4.55,2.624-10.152,2.624-14.705,0c-47.92-27.667-160.219-92.504-197.402-113.97
					c-7.549-4.358-12.198-12.412-12.198-21.13C629.85,1374.774,629.85,1297.097,629.85,1257.873z"/>
			</g>
			<path fill="#8888F3" d="M735.65,1614.476l-0.625-181.631l-20.502-11.876l0.622,181.604c0.053,10.172,2.297,18.476,6.248,24.592
				c2.38,3.677,5.358,6.541,8.846,8.546l20.505,11.931C741.438,1642.256,735.675,1630.787,735.65,1614.476L735.65,1614.476z"/>
			<path fill="#081D31" d="M735.026,1457.248l-20.502-11.874l13.742-7.927l20.477,11.875l-13.715,7.926H735.026z"/>
			<path fill="#5454EE" d="M787.503,1628.299c-20.966,12.089-38.088,2.327-38.141-21.775l-0.622-157.202l-13.715,7.929
				l0.622,157.225c0.054,32.813,23.398,46.036,51.91,29.595L787.503,1628.299L787.503,1628.299z"/>
			<g>
				<path fill="#5454EE" d="M785.764,1467.421L785.764,1467.421l-13.846,7.991v-12.849l-76.973-44.439
					c-3.247-1.875-5.248-5.342-5.248-9.093v-54.716l-10.962-6.327l13.852-8l0.026-0.016l0.033-0.017l0,0
					c1.799-1.023,4.01-1.019,5.803,0.017c18.871,10.897,63.206,36.495,82.131,47.421c5.455,3.148,8.815,8.965,8.815,15.266
					c0,15.135,0,43.458,0,59.033c0,2.261-1.208,4.352-3.166,5.478C786.078,1467.262,785.922,1467.345,785.764,1467.421
					L785.764,1467.421z"/>
				<path fill="#8888F3" d="M675.86,1353.031c0-2.083,1.111-4.013,2.917-5.055c1.807-1.041,4.03-1.041,5.836,0
					c18.872,10.898,63.208,36.492,82.131,47.42c5.455,3.149,8.815,8.967,8.815,15.266c0,15.135,0,43.457,0,59.033
					c0,2.263-1.207,4.352-3.165,5.481c-1.957,1.129-4.37,1.129-6.328,0c-20.626-11.906-68.955-39.811-84.957-49.051
					c-3.249-1.872-5.25-5.342-5.25-9.091C675.86,1403.344,675.86,1369.913,675.86,1353.031z"/>
			</g>
		</g>
		<g>
			<path fill="#BFBFF8" d="M1340.937,1192.167c13.763-6.584,36.007-6.589,49.678,0c13.676,6.583,13.603,17.258-0.16,23.842
				c-13.763,6.587-36.007,6.587-49.679,0C1327.102,1209.426,1327.173,1198.752,1340.937,1192.167z"/>
			<path fill="#F5F5FE" d="M1410.855,1125.698c-2.245,0-4.919,0.842-7.731,2.455c-11.116,6.43-20.509,22.686-20.509,35.53
				c0,5.129,1.542,8.95,4.199,10.495c2.641,1.509,6.722,0.927,11.166-1.632c11.127-6.411,20.522-22.669,20.522-35.513
				c0-5.125-1.541-8.948-4.198-10.492L1410.855,1125.698z M1390.244,1185.324c-3.087,0-5.983-0.754-8.572-2.246
				c-6.021-3.481-9.332-10.359-9.332-19.394c0-16.617,11.251-36.131,25.64-44.431c7.834-4.544,15.482-5.077,21.467-1.613
				c6.019,3.463,9.329,10.359,9.329,19.393c0,16.617-11.269,36.116-25.652,44.434
				C1398.682,1184.039,1394.292,1185.324,1390.244,1185.324L1390.244,1185.324z"/>
			<path fill="#F5F5FE" d="M1400.825,1122.516l-0.203,69.88c-0.018,5.178-3.395,10.341-10.153,14.249
				c-13.7,7.975-35.856,7.907-49.543,0c-6.907-3.977-10.374-9.223-10.355-14.456l0.204-69.879
				c-0.017,5.231,3.449,10.461,10.342,14.439c13.7,7.905,35.838,7.974,49.558,0
				C1397.431,1132.823,1400.807,1127.68,1400.825,1122.516L1400.825,1122.516z"/>
			<path fill="#FAFCFF" d="M1390.513,1108.07c13.684,7.905,13.753,20.802,0.171,28.689c-13.72,7.974-35.857,7.907-49.559,0
				c-13.685-7.887-13.856-20.732-0.154-28.689C1354.568,1100.163,1376.826,1100.163,1390.513,1108.07z"/>
			<path fill="#CDD6F3" d="M1391.545,1131.117c-1.199,1.372-2.573,2.572-4.44,3.6c-11.834,6.69-30.715,6.69-42.375,0
				c-1.885-1.2-3.602-2.398-4.785-3.77c-6.515-6.69-5.143-15.092,4.631-20.748c11.661-6.69,30.695-6.69,42.356,0
				C1396.707,1115.856,1398.232,1124.43,1391.545,1131.117z"/>
			<path fill="#49271B" d="M1391.545,1131.117c-1.199,1.372-2.573,2.572-4.44,3.6c-11.834,6.69-30.715,6.69-42.375,0
				c-1.885-1.2-3.602-2.398-4.785-3.77c1.183-1.373,2.744-2.573,4.631-3.604c11.661-6.687,30.695-6.687,42.356,0
				C1388.819,1128.547,1390.532,1129.747,1391.545,1131.117z"/>
		</g>
	</g>
	<g>
		<g>
			<g>
				<path fill="#CCCCFA" d="M1433.494,1402.493c2.695,1.556,6.775,1.725,9.109,0.375l191.974-110.834
					c2.333-1.349,2.038-3.705-0.656-5.258l-127.448-73.582c-2.693-1.556-6.771-1.725-9.106-0.378l-191.976,110.837
					c-2.333,1.345-2.04,3.705,0.656,5.257L1433.494,1402.493L1433.494,1402.493z"/>
			</g>
			<g>
				<path fill="#BE8EFF" d="M1634.059,1274.692c-0.047-0.027-0.094-0.054-0.141-0.081c0,0-25.138-14.511-33.008-19.058
					c-4.004-2.31-0.899-7.63-1.076-11.184v-4.137h-2.884v0.635l-51.53-29.748c-5.476-3.163-15.039,3.715-20.656,0.476
					c-7.966-4.604-18.295-10.564-18.295-10.564c-2.696-1.554-6.773-1.725-9.107-0.38l-190.899,110.218l-2.625-1.52v3.775
					c-0.008,0.098-0.008,0.206,0.004,0.307c-0.188,1.129,0.562,2.373,2.196,3.316l127.451,73.586
					c2.695,1.553,6.776,1.723,9.108,0.374l191.974-110.837c1.09-0.626,1.604-1.473,1.575-2.359c0.001-0.08,0.001-0.162-0.004-0.246
					h0.005v-3.774l-2.089,1.205V1274.692z"/>
				<path fill="#B37BFF" d="M1330.383,1299.694l105.82,61.097v30.163c-1.067-0.238-2.088-0.616-2.976-1.129l-126.914-73.274
					c-1.702-0.982-2.541-2.25-2.48-3.44v-3.772l4.811,2.778v0.125L1330.383,1299.694L1330.383,1299.694z"/>
				<path fill="#9647FF" d="M1433.494,1386.183c2.695,1.553,6.775,1.723,9.109,0.375l191.974-110.836
					c2.333-1.348,2.038-3.701-0.656-5.26c0,0-25.135-14.511-33.006-19.056c-5.288-3.051,1.822-11.351-2.601-13.898
					c-9.284-5.362-43.606-25.179-52.889-30.538c-5.475-3.161-15.04,3.715-20.654,0.476c-7.97-4.601-18.299-10.564-18.299-10.564
					c-2.693-1.556-6.771-1.725-9.106-0.379l-191.976,110.837c-2.333,1.348-2.04,3.704,0.656,5.26L1433.494,1386.183
					L1433.494,1386.183z"/>
			</g>
		</g>
		<g>
			<g>
				<path fill="#7E1CFF" d="M1439.96,1369.728c2.136,1.233,5.37,1.37,7.219,0.298l152.176-87.857
					c1.847-1.068,1.617-2.936-0.522-4.169l-101.023-58.322c-2.136-1.239-5.37-1.369-7.219-0.304l-152.172,87.856
					c-1.849,1.069-1.619,2.937,0.515,4.169L1439.96,1369.728z"/>
			</g>
			<g>
				<path fill="#B2D9FF" d="M1600.584,1274.594c0.054,0.802-0.401,1.578-1.388,2.147l-151.409,87.418
					c-2.06,1.187-5.666,1.04-8.044-0.332l-100.6-58.085c-1.349-0.779-2.016-1.782-1.966-2.725l0,0v-2.991l3.812,2.204v0.098
					l148.984-86.016c2.062-1.187,5.663-1.04,8.044,0.334l98.88,57.088l3.69-2.133v2.994H1600.584z"/>
				<path fill="#9DCFFF" d="M1358.226,1292.378l83.881,48.429v23.91c-0.844-0.186-1.655-0.488-2.36-0.891l-100.599-58.085
					c-1.349-0.779-2.016-1.782-1.966-2.725v-2.991l3.812,2.204v0.098l17.231-9.946V1292.378z"/>
				<path fill="#EAEAFD" d="M1439.96,1360.941c2.136,1.234,5.37,1.367,7.219,0.301l152.176-87.859
					c1.847-1.067,1.617-2.937-0.522-4.167l-101.023-58.327c-2.136-1.234-5.37-1.368-7.219-0.301l-152.172,87.859
					c-1.849,1.066-1.619,2.936,0.515,4.167L1439.96,1360.941z"/>
				<g>
					<path fill="#8C8CFF" d="M1551.929,1263.628c0.557-0.331,1.461-0.336,2.011-0.012l10.086,5.933
						c0.548,0.322,0.542,0.859-0.016,1.186l-1.095,0.651c-0.557,0.331-1.46,0.336-2.012,0.012l-10.082-5.932
						c-0.55-0.323-0.544-0.859,0.014-1.187L1551.929,1263.628L1551.929,1263.628z"/>
					<path fill="#8C8CFF" d="M1491.092,1301.588c0.557-0.334,1.461-0.339,2.01-0.014l10.086,5.936
						c0.55,0.32,0.542,0.856-0.017,1.186l-1.093,0.652c-0.56,0.327-1.46,0.332-2.012,0.013l-10.081-5.935
						c-0.555-0.326-0.548-0.856,0.012-1.187L1491.092,1301.588L1491.092,1301.588z"/>
					<path fill="#8C8CFF" d="M1523.76,1258.04c0.555-0.334,1.455-0.348,2.008-0.027l29.041,16.901
						c0.554,0.319,0.55,0.85-0.004,1.188l-1.09,0.656c-0.557,0.336-1.453,0.35-2.01,0.028l-29.041-16.898
						c-0.552-0.319-0.548-0.854,0.009-1.19L1523.76,1258.04z"/>
					<path fill="#8C8CFF" d="M1462.625,1296.681c0.559-0.334,1.46-0.336,2.011-0.013l28.935,17.111
						c0.55,0.326,0.543,0.859-0.016,1.192l-1.095,0.645c-0.56,0.331-1.46,0.336-2.01,0.014l-28.933-17.115
						c-0.55-0.326-0.545-0.856,0.014-1.187L1462.625,1296.681z"/>
					<path fill="#8C8CFF" d="M1496.014,1275.484c0.56-0.33,1.463-0.332,2.012-0.013l28.938,17.103
						c0.552,0.323,0.543,0.859-0.014,1.187l-1.094,0.65c-0.559,0.33-1.458,0.339-2.011,0.01l-28.938-17.1
						c-0.552-0.326-0.544-0.856,0.013-1.19L1496.014,1275.484z"/>
					<path fill="#8C8CFF" d="M1492.972,1240.158c0.557-0.336,1.455-0.349,2.011-0.027l25.84,14.979
						c0.556,0.322,0.551,0.852-0.006,1.188l-1.086,0.657c-0.555,0.339-1.456,0.352-2.01,0.03l-25.843-14.982
						c-0.551-0.319-0.548-0.852,0.008-1.188L1492.972,1240.158L1492.972,1240.158z"/>
					<path fill="#8C8CFF" d="M1430.608,1276.745c0.561-0.331,1.461-0.336,2.012-0.014l25.747,15.173
						c0.551,0.326,0.546,0.856-0.017,1.187l-1.09,0.648c-0.562,0.332-1.461,0.336-2.015,0.013l-25.747-15.171
						c-0.551-0.325-0.543-0.857,0.016-1.188L1430.608,1276.745z"/>
					<path fill="#8C8CFF" d="M1463.942,1256.641c0.559-0.331,1.459-0.338,2.01-0.014l25.751,15.162
						c0.554,0.326,0.546,0.856-0.012,1.19l-1.095,0.648c-0.557,0.334-1.459,0.336-2.011,0.013l-25.751-15.162
						c-0.552-0.326-0.544-0.859,0.013-1.19L1463.942,1256.641z"/>
					<path fill="#8C8CFF" d="M1519.372,1263.702c0.56-0.331,1.461-0.339,2.011-0.014l26.621,15.676
						c0.55,0.326,0.545,0.856-0.013,1.19l-1.095,0.648c-0.56,0.331-1.461,0.336-2.011,0.013l-26.62-15.675
						c-0.55-0.326-0.546-0.859,0.012-1.19L1519.372,1263.702L1519.372,1263.702z"/>
					<path fill="#8C8CFF" d="M1458.748,1301.772c0.56-0.328,1.461-0.333,2.011-0.012l26.62,15.676
						c0.55,0.325,0.544,0.856-0.016,1.186l-1.095,0.652c-0.557,0.332-1.459,0.339-2.008,0.013l-26.62-15.679
						c-0.55-0.322-0.546-0.856,0.013-1.189L1458.748,1301.772L1458.748,1301.772z"/>
					<path fill="#8C8CFF" d="M1491.275,1281.229c0.561-0.331,1.462-0.334,2.011-0.011l26.62,15.676
						c0.551,0.323,0.543,0.856-0.014,1.187l-1.093,0.65c-0.56,0.331-1.461,0.336-2.015,0.01l-26.616-15.675
						c-0.553-0.323-0.546-0.856,0.013-1.19L1491.275,1281.229L1491.275,1281.229z"/>
					<path fill="#8C8CFF" d="M1520.236,1271.865c0.559-0.334,1.459-0.339,2.012-0.013l19.389,11.414
						c0.55,0.325,0.543,0.856-0.016,1.188l-1.097,0.648c-0.556,0.334-1.459,0.34-2.01,0.014l-19.388-11.417
						c-0.551-0.322-0.547-0.856,0.014-1.187L1520.236,1271.865z"/>
					<path fill="#8C8CFF" d="M1458.735,1310.588c0.559-0.334,1.459-0.339,2.011-0.013l19.389,11.414
						c0.551,0.325,0.546,0.855-0.017,1.188l-1.09,0.648c-0.561,0.331-1.461,0.336-2.011,0.014l-19.389-11.414
						c-0.553-0.326-0.547-0.859,0.012-1.192L1458.735,1310.588z"/>
					<path fill="#8C8CFF" d="M1492.323,1289.491c0.557-0.328,1.46-0.338,2.01-0.012l19.389,11.414
						c0.555,0.325,0.546,0.859-0.014,1.19l-1.093,0.648c-0.56,0.33-1.461,0.336-2.011,0.013l-19.392-11.417
						c-0.55-0.322-0.543-0.856,0.014-1.186L1492.323,1289.491z"/>
					<path fill="#8C8CFF" d="M1477.367,1238.968c0.561-0.33,1.46-0.339,2.014-0.013l36.914,21.726
						c0.55,0.326,0.545,0.856-0.013,1.19l-1.094,0.648c-0.563,0.332-1.461,0.339-2.012,0.013l-36.917-21.726
						c-0.552-0.325-0.546-0.856,0.017-1.186L1477.367,1238.968L1477.367,1238.968z"/>
					<path fill="#8C8CFF" d="M1416.503,1276.929c0.559-0.331,1.46-0.336,2.008-0.014l36.918,21.726
						c0.55,0.326,0.544,0.859-0.014,1.19l-1.093,0.648c-0.561,0.331-1.461,0.339-2.014,0.01l-36.915-21.724
						c-0.551-0.325-0.546-0.856,0.013-1.186L1416.503,1276.929L1416.503,1276.929z"/>
					<path fill="#8C8CFF" d="M1446.099,1254.814c0.562-0.33,1.463-0.334,2.012-0.013l36.916,21.729
						c0.551,0.325,0.544,0.859-0.017,1.186l-1.09,0.652c-0.559,0.33-1.461,0.336-2.011,0.01l-36.918-21.724
						c-0.553-0.326-0.546-0.859,0.014-1.19L1446.099,1254.814z"/>
					<path fill="#8C8CFF" d="M1465.425,1239.622c0.561-0.334,1.462-0.341,2.011-0.014l49.486,29.122
						c0.55,0.322,0.544,0.857-0.017,1.188l-1.093,0.648c-0.56,0.331-1.46,0.336-2.012,0.012l-49.483-29.122
						c-0.551-0.322-0.546-0.859,0.016-1.189L1465.425,1239.622z"/>
					<path fill="#8C8CFF" d="M1404.632,1277.396c0.559-0.331,1.459-0.339,2.012-0.01l49.484,29.121
						c0.551,0.322,0.542,0.856-0.016,1.186l-1.095,0.652c-0.557,0.327-1.461,0.336-2.011,0.008l-49.483-29.121
						c-0.552-0.326-0.544-0.856,0.014-1.187L1404.632,1277.396z"/>
					<path fill="#8C8CFF" d="M1437.527,1257.25c0.557-0.334,1.459-0.339,2.011-0.014l49.484,29.122
						c0.551,0.327,0.544,0.859-0.014,1.188l-1.095,0.652c-0.557,0.327-1.459,0.336-2.011,0.01l-49.484-29.125
						c-0.551-0.322-0.543-0.855,0.014-1.186L1437.527,1257.25z"/>
				</g>
			</g>
		</g>
		<path fill="#AED6FF" d="M1511.592,1218.85l3.361,1.94c-2.361,2.868-1.489,6.4,2.618,8.771l44.915,25.932l0.047,0.027l0.022,0.01
			c4.107,2.341,10.189,2.83,15.122,1.47l3.362,1.945c-6.836,2.329-15.789,1.814-21.691-1.548l-0.082-0.047l-44.911-25.93
			C1508.455,1228.014,1507.535,1222.814,1511.592,1218.85L1511.592,1218.85z"/>
		<path fill="#FFFFFF" d="M1559.344,1254.661l-0.084-0.049l-44.914-25.928c-6.987-4.036-6.987-10.589,0-14.626
			c0.891-0.512,2.332-0.512,3.22,0c0.887,0.511,0.887,1.345,0,1.858c-5.216,3.011-5.216,7.898,0,10.908l44.912,25.928l0.048,0.034
			l0.014,0.008c0.004,0,0.004,0.003,0.009,0.003c5.219,2.969,13.635,2.952,18.823-0.044c0.888-0.508,2.329-0.508,3.216,0
			c0.891,0.515,0.891,1.349,0,1.86c-6.963,4.018-18.25,4.035-25.245,0.047V1254.661z"/>
	</g>
	<g>
		<path fill="#E8E8FD" d="M1377.921,671.432c1.76-0.995,4.199-0.834,6.894,0.719l358.948,207.234
			c5.36,3.095,9.716,10.551,9.716,16.641v287.999c0,3.035-1.08,5.156-2.822,6.143l0,0h-0.004c-0.153,0.088-0.312,0.167-0.472,0.235
			l-9.585,4.714l-0.771-7.939l-355.01-204.962c-5.363-3.096-9.719-10.552-9.719-16.642V681.746l-6.796-5.588l9.62-4.728V671.432
			L1377.921,671.432z"/>
		<path fill="#C9C9FA" d="M1753.483,902.013v282.012c0,3.035-1.08,5.156-2.823,6.143h-0.003c-0.153,0.088-0.31,0.167-0.472,0.235
			l-8.613,4.233l-0.988,0.352l-0.71-288.09L1753.483,902.013L1753.483,902.013z"/>
		<path fill="#FFFFFF" d="M1743.423,900.972c0-6.089-3.708-13.173-8.27-15.808l-361.836-208.899
			c-4.569-2.635-8.275,0.166-8.275,6.253v288.004c0,6.088,3.706,13.172,8.275,15.807l361.836,208.898
			c4.562,2.635,8.27-0.167,8.27-6.251V900.972L1743.423,900.972z"/>
		<path fill="#402CBC" d="M1740.084,901.678c0-6.034-3.674-13.055-8.198-15.666l-358.659-207.066
			c-4.522-2.612-8.198,0.167-8.198,6.2V970.62c0,6.034,3.675,13.054,8.198,15.666l358.659,207.065
			c4.524,2.614,8.198-0.167,8.198-6.197V901.678z"/>
	</g>
	<g>
		<path fill="#3DB1FF" d="M1446.78,824.635c31.714,18.945,57.366,59.458,57.431,90.912c0.012,5.799-0.848,10.891-2.465,15.223
			l-26.965-26.797c0.358-1.596,0.542-3.351,0.537-5.262c-0.031-15.697-12.71-35.873-28.479-45.526L1446.78,824.635z"/>
		<path fill="#F05EFF" d="M1446.78,824.635l0.058,28.549l-0.907-0.55c-16.187-9.434-29.303-4.104-29.266,11.89
			c0.001,1.911,0.194,3.886,0.559,5.902l-26.922-4.608c-1.637-6.227-2.521-12.335-2.529-18.133
			c-0.067-31.753,25.969-42.33,58.102-23.601L1446.78,824.635L1446.78,824.635z"/>
		<path fill="#FFC050" d="M1474.777,903.973l26.969,26.797c-7.185,19.417-29.373,23.688-55.637,8.382
			c-26.267-15.308-48.526-45.488-55.807-73.333l26.919,4.608c2.663,14.864,14.576,31.866,28.828,40.173
			C1460.303,918.905,1472.175,915.769,1474.777,903.973z"/>
	</g>
	<g>
		<path fill="#E8E8FD" d="M1377.921,310.702c1.76-0.996,4.199-0.834,6.894,0.721l358.948,207.231
			c5.36,3.098,9.716,10.555,9.716,16.642V823.3c0,3.029-1.08,5.153-2.822,6.14l0,0h-0.004c-0.153,0.087-0.312,0.164-0.472,0.233
			l-9.585,4.714l-0.771-7.943l-355.01-204.955c-5.363-3.099-9.719-10.555-9.719-16.641V321.016l-6.796-5.585L1377.921,310.702
			L1377.921,310.702L1377.921,310.702z"/>
		<path fill="#C9C9FA" d="M1753.483,541.285V823.3c0,3.029-1.08,5.153-2.823,6.14h-0.003c-0.153,0.087-0.31,0.164-0.472,0.233
			l-8.613,4.235l-0.988,0.353l-0.71-288.091L1753.483,541.285L1753.483,541.285z"/>
		<path fill="#FFFFFF" d="M1743.423,540.241c0-6.087-3.708-13.169-8.27-15.804l-361.836-208.901
			c-4.569-2.635-8.275,0.165-8.275,6.254v288.005c0,6.087,3.706,13.17,8.275,15.805l361.836,208.902
			c4.562,2.635,8.27-0.169,8.27-6.256V540.241L1743.423,540.241z"/>
		<path fill="#402CBC" d="M1740.084,540.95c0-6.036-3.674-13.054-8.198-15.667l-358.659-207.064
			c-4.522-2.613-8.198,0.164-8.198,6.199V609.89c0,6.036,3.675,13.054,8.198,15.669l358.659,207.064
			c4.524,2.61,8.198-0.167,8.198-6.2V540.95L1740.084,540.95z"/>
		<path fill="#67B4FF" d="M1558.437,479.907c0-2.682-1.884-5.946-4.208-7.289l-147.667-85.254c-2.32-1.341-4.205-0.251-4.205,2.431
			v5.247c0,2.679,1.885,5.946,4.205,7.287l147.667,85.253c2.324,1.341,4.208,0.251,4.208-2.428V479.907z"/>
		<path fill="#67B4FF" d="M1699.72,596.8c0-2.681-1.885-5.946-4.207-7.287l-288.954-166.828c-2.319-1.338-4.206-0.25-4.206,2.432
			v5.248c0,2.68,1.887,5.945,4.206,7.286l288.954,166.828c2.321,1.338,4.207,0.25,4.207-2.431V596.8z"/>
		<path fill="#67B4FF" d="M1699.72,667.446c0-2.681-1.885-5.946-4.207-7.287l-288.954-166.828c-2.319-1.34-4.206-0.25-4.206,2.431
			v5.246c0,2.684,1.887,5.949,4.206,7.286l288.954,166.828c2.321,1.341,4.207,0.253,4.207-2.427V667.446z"/>
		<path fill="#67B4FF" d="M1699.72,738.092c0-2.681-1.885-5.946-4.207-7.289l-288.954-166.825c-2.319-1.341-4.206-0.253-4.206,2.427
			v5.248c0,2.682,1.887,5.946,4.206,7.287l288.954,166.828c2.321,1.34,4.207,0.25,4.207-2.429V738.092z"/>
		<path fill="#67B4FF" d="M1699.72,632.125c0-2.682-1.885-5.949-4.207-7.29L1406.559,458.01c-2.319-1.341-4.206-0.253-4.206,2.431
			v5.245c0,2.681,1.887,5.947,4.206,7.287l288.954,166.828c2.321,1.341,4.207,0.25,4.207-2.431V632.125z"/>
		<path fill="#67B4FF" d="M1699.72,702.77c0-2.681-1.885-5.948-4.207-7.289l-288.954-166.827c-2.319-1.341-4.206-0.251-4.206,2.43
			v5.248c0,2.682,1.887,5.947,4.206,7.287l288.954,166.826c2.321,1.341,4.207,0.252,4.207-2.43V702.77z"/>
	</g>
	<g>
		<path fill="#E8E8FD" d="M946.968,429.469c1.759-0.998,4.199-0.837,6.892,0.721l358.948,207.231
			c5.363,3.095,9.716,10.551,9.716,16.638v288.005c0,3.029-1.076,5.153-2.824,6.14l0,0v0.003c-0.154,0.087-0.312,0.164-0.473,0.231
			l-9.588,4.716l-0.769-7.942L953.86,740.252c-5.363-3.096-9.717-10.551-9.717-16.638V439.782l-6.796-5.585L946.968,429.469
			L946.968,429.469z"/>
		<path fill="#C9C9FA" d="M1322.529,660.049v282.014c0,3.029-1.077,5.153-2.822,6.14v0.003c-0.155,0.087-0.316,0.164-0.475,0.231
			l-8.614,4.236l-0.984,0.354l-0.711-288.093L1322.529,660.049L1322.529,660.049z"/>
		<path fill="#FDFDFE" d="M1312.456,659.008c0-6.088-3.708-13.172-8.271-15.807l-361.84-208.9c-4.564-2.638-8.27,0.166-8.27,6.253
			v288.005c0,6.087,3.706,13.169,8.27,15.806l361.84,208.899c4.564,2.635,8.271-0.166,8.271-6.255V659.008L1312.456,659.008z"/>
		<path fill="#402CBC" d="M1309.131,659.714c0-6.033-3.673-13.054-8.199-15.667L942.274,436.986
			c-4.523-2.615-8.199,0.164-8.199,6.197v285.473c0,6.033,3.677,13.054,8.199,15.669l358.659,207.061
			c4.526,2.614,8.199-0.163,8.199-6.198V659.714z"/>
	</g>
	<g>
		<path fill="#E8E8FD" d="M946.968,61.891c1.759-0.997,4.199-0.836,6.892,0.72l358.948,207.232
			c5.363,3.096,9.716,10.551,9.716,16.64V574.49c0,3.029-1.076,5.152-2.824,6.138l0,0l0,0c-0.154,0.086-0.312,0.165-0.473,0.234
			l-9.588,4.713l-0.769-7.941L953.86,372.675c-5.363-3.096-9.717-10.551-9.717-16.639V72.205l-6.796-5.587L946.968,61.891
			L946.968,61.891z"/>
		<path fill="#C9C9FA" d="M1322.529,292.472V574.49c0,3.029-1.077,5.152-2.822,6.14l0,0c-0.155,0.084-0.316,0.163-0.475,0.232
			l-8.614,4.235l-0.984,0.354l-0.711-288.093L1322.529,292.472L1322.529,292.472z"/>
		<path fill="#FDFDFE" d="M1312.456,291.43c0-6.086-3.708-13.169-8.271-15.805l-361.84-208.9c-4.564-2.636-8.27,0.166-8.27,6.255
			v288.003c0,6.089,3.706,13.172,8.27,15.806l361.84,208.899c4.564,2.639,8.271-0.166,8.271-6.253V291.43z"/>
		<path fill="#402CBC" d="M1309.131,292.138c0-6.035-3.673-13.054-8.199-15.667L942.274,69.408
			c-4.523-2.613-8.199,0.164-8.199,6.199v285.472c0,6.035,3.677,13.054,8.199,15.669l358.659,207.061
			c4.526,2.612,8.199-0.164,8.199-6.197V292.138z"/>
	</g>
	<g>
		<g>
			<path fill="#55ACFF" d="M1211.82,353.631l13.285-7.907l3.89,17.696l-13.285,7.906L1211.82,353.631z"/>
			<path fill="#DAECFF" d="M1267.721,358.592c4.169-2.451,6.725-7.655,6.669-15.029l-0.147-20.045
				c-0.11-14.752-10.615-32.64-23.445-39.92l-153.804-87.485c-6.346-3.601-12.083-3.936-16.244-1.569v-0.001l-16.055,9.43
				l0.182,24.567l9.172-5.386l0.048,6.539c0.111,14.751,10.614,32.638,23.443,39.918l51.667,29.319l-6.366,11.697l26.294-0.391
				l82.213,46.859c0.075,0.045,0.158,0.09,0.238,0.134l0.08,10.79L1267.721,358.592z"/>
			<path fill="#B7DCFF" d="M1249.948,320.001l0.273,36.458l1.117,0.637c0.079,0.045,0.159,0.09,0.24,0.134l0.079,10.79l16.055-9.429
				c3.585-2.105,5.975-6.246,6.542-12.047l-0.194-26.184c-0.418-4.129-1.57-8.418-3.285-12.588L1249.948,320.001L1249.948,320.001z"
				/>
			<path fill="#8EC8FF" d="M1258.185,332.947c-0.111-14.75-10.616-32.636-23.444-39.917l-153.804-87.486
				c-12.83-7.279-23.156-1.216-23.049,13.536l0.151,20.043c0.107,14.754,10.612,32.64,23.442,39.919l110.417,63.281l24.007,29.23
				l-4.08-17.923l23.46,12.898c12.831,7.279,23.157,1.216,23.047-13.537l-0.15-20.045H1258.185z"/>
			<path fill="#0085DE" d="M1183.17,289.636c-0.014-2.141-1.543-4.737-3.402-5.793l-85.926-48.877
				c-1.862-1.056-3.361-0.177-3.346,1.964l0.022,2.908c0.014,2.141,1.542,4.737,3.402,5.795l85.927,48.876
				c1.861,1.055,3.362,0.176,3.346-1.965L1183.17,289.636z"/>
			<path fill="#0085DE" d="M1234.854,336.247c-0.016-2.141-1.543-4.737-3.404-5.794l-137.74-78.346
				c-1.861-1.057-3.358-0.177-3.343,1.964l0.022,2.909c0.017,2.141,1.542,4.737,3.401,5.794l137.74,78.346
				c1.862,1.055,3.361,0.176,3.346-1.965L1234.854,336.247z"/>
		</g>
	</g>
	<g>
		<g>
			<path fill="#DAECFF" d="M1270.931,494.337c4.199-2.466,6.771-7.706,6.714-15.129l-0.15-20.174
				c-0.111-14.845-10.683-32.85-23.595-40.178l-154.808-88.054c-6.391-3.626-12.158-3.964-16.35-1.581v-0.002l-16.159,9.493
				l0.182,24.726l9.234-5.421l0.048,6.583c0.109,14.849,10.681,32.851,23.597,40.178l52.002,29.512l-6.409,11.772l26.463-0.391
				l82.75,47.163c0.078,0.047,0.16,0.092,0.24,0.136l0.082,10.861L1270.931,494.337L1270.931,494.337z"/>
			<path fill="#B7DCFF" d="M1253.047,455.496l0.274,36.697l1.125,0.64c0.08,0.047,0.159,0.092,0.239,0.136l0.08,10.861l16.163-9.493
				c3.605-2.118,6.015-6.284,6.584-12.125l-0.197-26.353c-0.42-4.156-1.578-8.474-3.307-12.673l-20.958,12.31H1253.047z"/>
			<path fill="#8EC8FF" d="M1261.339,468.525c-0.113-14.847-10.683-32.849-23.596-40.177l-154.805-88.056
				c-12.917-7.326-23.31-1.223-23.198,13.625l0.149,20.175c0.11,14.847,10.686,32.85,23.599,40.178l6.343,3.6l-6.407,11.772
				l26.461-0.391l128.408,73.074c12.912,7.327,23.308,1.223,23.195-13.625L1261.339,468.525L1261.339,468.525z"/>
			<path fill="#0085DE" d="M1188.364,431.93c-0.016-2.155-1.552-4.766-3.424-5.829l-86.488-49.195
				c-1.872-1.064-3.383-0.178-3.366,1.975l0.023,2.93c0.013,2.155,1.548,4.766,3.421,5.83l86.491,49.192
				c1.875,1.065,3.38,0.18,3.365-1.978L1188.364,431.93z"/>
			<path fill="#0085DE" d="M1240.809,479.078c-0.015-2.155-1.551-4.767-3.423-5.832l-138.638-78.856
				c-1.875-1.065-3.38-0.177-3.366,1.978l0.023,2.926c0.016,2.155,1.548,4.767,3.425,5.829l138.635,78.859
				c1.876,1.064,3.384,0.177,3.365-1.978L1240.809,479.078z"/>
		</g>
	</g>
	<g>
		<path fill="#84C2FF" d="M1522.742,986.396l-34.789-20.084v28.124l34.789,20.086V986.396z"/>
		<path fill="#84C2FF" d="M1601.902,926.51l-34.79-20.086v133.717l34.79,20.085V926.51z"/>
		<path fill="#84C2FF" d="M1681.272,994.29l-34.79-20.086v111.751l34.79,20.086V994.29z"/>
		<path fill="#84C2FF" d="M1562.581,970.664l-34.789-20.086v66.857l34.789,20.086V970.664L1562.581,970.664z"/>
		<path fill="#84C2FF" d="M1641.741,1004.535l-34.79-20.085v78.691l34.79,20.08V1004.535z"/>
		<path fill="#84C2FF" d="M1721.111,995.339l-34.789-20.088v133.715l34.789,20.086V995.339z"/>
		<path fill="#F05EFF" d="M1507.318,979.519l39.845-15.727c0.184-0.072,0.338-0.183,0.466-0.323l37.123-41.701l37.313,73.067
			c0.458,0.9,1.16,1.72,1.94,2.266c0.777,0.548,1.561,0.768,2.161,0.612l39.306-10.189l39.605,1.032
			c1.367,0.035,1.864-1.399,1.11-3.201c-0.751-1.796-2.47-3.29-3.837-3.326l-39.847-1.04c-0.158-0.004-0.309,0.014-0.448,0.049
			l-37.19,9.643l-38.067-74.55c-0.557-1.095-1.472-2.061-2.425-2.564c-0.954-0.504-1.818-0.48-2.299,0.061l-39.124,43.942
			l-39.573,15.622c-1.117,0.44-1.143,2.216-0.054,3.964C1504.409,978.902,1506.201,979.965,1507.318,979.519L1507.318,979.519z"/>
		<path fill="#F05EFF" d="M1505.352,968.599c4.282,2.47,7.757,7.953,7.757,12.236c0,4.279-3.475,5.748-7.757,3.277
			c-4.279-2.473-7.757-7.952-7.757-12.237C1497.595,967.596,1501.073,966.128,1505.352,968.599z"/>
		<path fill="#F05EFF" d="M1545.195,951.784c4.281,2.471,7.756,7.953,7.756,12.234c0,4.28-3.475,5.751-7.756,3.281
			c-4.283-2.476-7.759-7.955-7.759-12.237C1537.436,950.781,1540.912,949.312,1545.195,951.784z"/>
		<path fill="#F05EFF" d="M1584.513,907.624c4.279,2.473,7.754,7.955,7.754,12.235c0,4.281-3.475,5.749-7.754,3.278
			c-4.282-2.472-7.759-7.952-7.759-12.235C1576.754,906.621,1580.231,905.153,1584.513,907.624z"/>
		<path fill="#F05EFF" d="M1624.352,985.66c4.283,2.471,7.758,7.953,7.758,12.234c0,4.284-3.475,5.753-7.758,3.281
			c-4.279-2.471-7.754-7.955-7.754-12.234C1616.598,984.657,1620.073,983.189,1624.352,985.66L1624.352,985.66z"/>
		<path fill="#F05EFF" d="M1663.866,975.418c4.285,2.471,7.759,7.955,7.759,12.235c0,4.281-3.475,5.748-7.759,3.277
			c-4.275-2.47-7.754-7.955-7.754-12.235C1656.112,974.414,1659.591,972.947,1663.866,975.418z"/>
	</g>
	<g>
		<path fill="#B8DCFF" d="M966.251,477.253c1.192-0.675,2.846-0.565,4.67,0.488l156.648,90.427c3.634,2.099,6.583,7.15,6.583,11.274
			v224.691c0,2.054-0.727,3.492-1.91,4.163l0,0h-0.001c-0.105,0.059-0.21,0.11-0.32,0.159l-5.568,2.228l-0.523-5.381
			l-153.978-88.885c-3.635-2.098-6.585-7.151-6.585-11.276V483.279l-4.607-3.785L966.251,477.253L966.251,477.253z"/>
		<path fill="#81C2FF" d="M1128.26,581.84c0-4.127-2.949-9.178-6.583-11.276l-156.633-90.435c-3.634-2.098-6.585-0.453-6.585,3.675
			v224.691c0,4.124,2.951,9.177,6.585,11.276l156.633,90.434c3.634,2.099,6.583,0.45,6.583-3.674V581.84z"/>
		<path fill="#518BFF" d="M1128.26,581.84c0-4.127-2.949-9.178-6.583-11.276l-156.633-90.435c-3.634-2.098-6.585-0.453-6.585,3.675
			v143.953l169.8,98.035V581.84z"/>
		<path fill="#81C2FF" d="M958.439,541.388c16.811,9.712,16.763,56.292,33.571,66.004c16.807,9.71,17.024-51.801,33.832-42.089
			c16.808,9.71,12.583,66.77,33.538,78.881c20.955,12.107,15.574-20.047,30.739-11.285c15.166,8.764,9.644,45.313,38.208,61.819
			c0.11,0.061-0.104,42.061-0.104,42.061l-169.774-98.399C958.449,638.381,958.373,541.35,958.439,541.388L958.439,541.388z"/>
	</g>
	<g>
		<path id="rectangle" fill="#E9F4FF" d="M1266.22,803.314c1.535-0.885,2.487-2.806,2.487-5.539l0.243-123.213
			c0-5.378-3.691-11.875-8.237-14.5l-72.801-41.913c-2.296-1.325-4.375-1.413-5.867-0.478l-1.862,1.075l1.682,0.97
			c-0.178,0.688-0.27,1.461-0.27,2.315l-0.964,123.562c1.805-77.002,5.266-59.965,8.235,14.496l73.522,41.568
			c0.594,0.343,1.174,0.603,1.732,0.783v2.087L1266.22,803.314L1266.22,803.314L1266.22,803.314z"/>
		
			<linearGradient id="rectangle1_1_" gradientUnits="userSpaceOnUse" x1="41.0406" y1="787.8554" x2="43.6605" y2="914.4274" gradientTransform="matrix(35.6489 -92.7023 0.5921 0.5947 -752.795 4092.8303)">
			<stop  offset="0" style="stop-color:#A4D2FF"/>
			<stop  offset="0.17" style="stop-color:#BCDEFF"/>
			<stop  offset="0.36" style="stop-color:#D1E8FF"/>
			<stop  offset="1" style="stop-color:#D9ECFF"/>
		</linearGradient>
		<path id="rectangle1" fill="url(#rectangle1_1_)" d="M1258.608,661.275c4.547,2.623,8.236,9.122,8.236,14.499l-0.242,123.214
			c0,5.378-3.691,7.614-8.235,4.989l-73.52-41.566c-4.548-2.626-8.236-9.122-8.236-14.498l0.962-123.564
			c0-5.378,3.69-7.612,8.237-4.989L1258.608,661.275L1258.608,661.275z"/>
		<g>
			<path id="screen" fill="#94CBFF" d="M1247.6,695.603c0.809,0.466,1.463,1.617,1.463,2.574v3.869c0,0.954-0.653,1.351-1.463,0.885
				l-55.781-32.159c-0.806-0.466-1.461-1.62-1.461-2.573l0.127-3.931c0-0.954,0.657-1.351,1.463-0.885L1247.6,695.603
				L1247.6,695.603z"/>
			<path id="screen1" fill="#94CBFF" d="M1247.6,716.076c0.809,0.466,1.463,1.62,1.463,2.574v3.868c0,0.954-0.653,1.351-1.463,0.885
				l-55.781-32.159c-0.806-0.466-1.461-1.62-1.461-2.572l0.127-3.932c0-0.955,0.657-1.351,1.463-0.886L1247.6,716.076
				L1247.6,716.076z"/>
			<path id="screen2" fill="#94CBFF" d="M1247.6,676.324c0.809,0.464,1.463,1.617,1.463,2.572v3.871c0,0.952-0.653,1.35-1.463,0.882
				l-55.781-32.159c-0.806-0.466-1.461-1.617-1.461-2.572l0.127-3.933c0-0.954,0.657-1.351,1.463-0.885L1247.6,676.324
				L1247.6,676.324z"/>
			<path id="screen3" fill="#94CBFF" d="M1247.6,736.693c0.809,0.466,1.463,1.62,1.463,2.574v3.871c0,0.953-0.653,1.352-1.463,0.886
				l-55.781-32.162c-0.806-0.466-1.461-1.616-1.461-2.572l0.127-3.932c0-0.954,0.657-1.351,1.463-0.885L1247.6,736.693
				L1247.6,736.693z"/>
			<path id="screen4" fill="#94CBFF" d="M1247.6,757.485c0.809,0.465,1.463,1.616,1.463,2.57v3.872c0,0.954-0.653,1.351-1.463,0.885
				l-55.781-32.159c-0.806-0.466-1.461-1.62-1.461-2.575l0.127-3.93c0-0.957,0.657-1.351,1.463-0.885L1247.6,757.485L1247.6,757.485
				z"/>
			<path id="screen5" fill="#94CBFF" d="M1247.6,776.062c0.809,0.466,1.463,1.62,1.463,2.574v3.869c0,0.954-0.653,1.35-1.463,0.884
				l-55.781-32.158c-0.806-0.466-1.461-1.62-1.461-2.572l0.127-3.933c0-0.954,0.657-1.351,1.463-0.885L1247.6,776.062
				L1247.6,776.062z"/>
		</g>
		<path id="Folder" fill="#73C7FF" d="M1166.773,716.188c1.459-1.036,3.595-0.956,6.039,0.453l24.459,14.124
			c2.421,1.397,4.838,4.035,6.449,7.448l4.839,10.242c0.537,1.243,1.344,2.019,2.149,2.484l58.87,33.986
			c4.297,2.482,8.062,9.002,8.062,13.968v80.699c0,2.446-0.749,4.193-2.015,5.1l0,0c-0.197,0.14-0.403,0.26-0.623,0.36l-8.127,4.69
			v-7.053l-94.064-54.31c-4.57-2.639-8.064-8.69-8.064-13.967v-89.979l-6.127-3.539L1166.773,716.188L1166.773,716.188z"/>
		<g>
			<defs>
				<path id="SVGID_3_" d="M1166.773,716.188c1.459-1.036,3.595-0.956,6.039,0.453l24.459,14.124
					c2.421,1.397,4.838,4.035,6.449,7.448l4.839,10.242c0.537,1.243,1.344,2.019,2.149,2.484l58.87,33.986
					c4.297,2.482,8.062,9.002,8.062,13.968v80.699c0,2.446-0.749,4.193-2.015,5.1l0,0c-0.197,0.14-0.403,0.26-0.623,0.36
					l-8.127,4.69v-7.053l-94.064-54.31c-4.57-2.639-8.064-8.69-8.064-13.967v-89.979l-6.127-3.539L1166.773,716.188
					L1166.773,716.188z"/>
			</defs>
			<clipPath id="SVGID_4_">
				<use xlink:href="#SVGID_3_"  overflow="visible"/>
			</clipPath>
			<g clip-path="url(#SVGID_4_)">
				<path fill="#96D5FF" d="M1168.103,713.916l-12.096,6.982l32.523,18.776l12.093-6.98L1168.103,713.916z"/>
				<path fill="#96D5FF" d="M1213.222,752.382l-12.6,7.272l58.625,33.848l12.599-7.274L1213.222,752.382z"/>
			</g>
			<path id="Folder2" clip-path="url(#SVGID_4_)" fill="#3DB1FF" d="M1260.831,789.979l-58.866-33.986
				c-0.808-0.466-1.613-1.243-2.152-2.484l-4.838-10.242c-1.613-3.413-4.03-6.054-6.451-7.448l-24.461-14.123
				c-4.569-2.638-8.064-0.62-8.064,4.656v93.113c0,5.276,3.495,11.33,8.064,13.967l96.768,55.869c4.57,2.64,8.062,0.621,8.062-4.654
				v-80.699C1268.893,798.98,1265.131,792.46,1260.831,789.979L1260.831,789.979z"/>
			<path id="Folder1" clip-path="url(#SVGID_4_)" fill="#95D4FF" d="M1213.222,752.382l56.366,32.543
				c0.68,0.395,1.346,0.888,1.986,1.459l-12.328,7.118l-58.625-33.848L1213.222,752.382L1213.222,752.382z M1164.757,725.952v-1.52
				l-6.123-3.539l8.15-4.705c1.459-1.036,3.595-0.956,6.039,0.453l24.459,14.124c0.962,0.555,1.922,1.305,2.833,2.221l-11.589,6.688
				L1164.757,725.952L1164.757,725.952z"/>
		</g>
	</g>
	<g id="cone1_1_">
	</g>
</g>
</svg>
