<?xml version="1.0" encoding="utf-8"?>
<!-- Generator: Adobe Illustrator 24.0.3, SVG Export Plug-In . SVG Version: 6.00 Build 0)  -->
<svg version="1.1" id="Layer_1" xmlns="http://www.w3.org/2000/svg" xmlns:xlink="http://www.w3.org/1999/xlink" x="0px" y="0px"
	 viewBox="0 0 2000 1800" enable-background="new 0 0 2000 1800" xml:space="preserve">
<g id="cone1">
</g>
<g id="cone">
</g>
<path fill="#EBF5FF" d="M260.61,1588.193c-18.278-11.317-17.867-29.075,1.234-40.106c19.101-11.027,49.862-11.264,69.465-0.711
	l0.02-0.012l134.312,77.542l-0.004,0.001c19.147,11.286,19.023,29.427-0.373,40.625c-19.396,11.197-50.814,11.27-70.365,0.215
	l-0.002,0.001l-134.308-77.543L260.61,1588.193L260.61,1588.193z"/>
<path fill="#EBF5FF" d="M609.68,682.138c-8.885-5.501-8.683-14.13,0.599-19.489c9.282-5.361,24.23-5.474,33.755-0.346l0.01-0.006
	l65.268,37.682l0,0c9.305,5.485,9.243,14.299-0.184,19.74c-9.424,5.443-24.691,5.476-34.191,0.105l-0.003,0.002l-65.265-37.682
	L609.68,682.138z"/>
<path fill="#EBF5FF" d="M1718.468,1423.519c-8.885-5.498-8.686-14.13,0.597-19.488c9.281-5.359,24.232-5.474,33.757-0.346
	l0.01-0.005l65.266,37.682h-0.001c9.304,5.483,9.245,14.299-0.181,19.742c-9.424,5.441-24.694,5.477-34.193,0.105h-0.003
	l-65.267-37.682L1718.468,1423.519z"/>
<g>
	<path id="Shadow" fill="#EBF5FF" d="M242.787,1120.754c-14.97,8.644-36.527,10.229-48.107,3.542l-114.226-63.319
		c-11.582-6.687-8.833-19.134,6.137-27.776l224.544-131.147c14.97-8.641,36.527-10.229,48.11-3.542L472.74,964.15
		c11.583,6.687,8.831,19.133-6.138,27.774L242.787,1120.754L242.787,1120.754z"/>
	<path id="rectangle" fill="#E9F4FF" d="M150.648,882.43c-3.981-2.296-6.454-7.286-6.454-14.382l-0.628-320.049
		c0-13.967,9.585-30.839,21.39-37.656l189.096-108.871c5.963-3.443,11.358-3.665,15.239-1.243l4.839,2.794l-4.366,2.519
		c0.453,1.787,0.694,3.797,0.694,6.01l2.5,320.949c-4.681-200.012-13.667-155.755-21.39,37.656L160.6,878.127
		c-1.542,0.892-3.046,1.567-4.498,2.037v5.414l-5.454-3.147l0,0V882.43z"/>
	
		<linearGradient id="rectangle1_1_" gradientUnits="userSpaceOnUse" x1="44.4357" y1="1745.9338" x2="46.5446" y2="1847.8213" gradientTransform="matrix(-115.0378 -299.1481 -1.9106 1.9189 8830.4023 10704.0225)">
		<stop  offset="0" style="stop-color:#A4D2FF"/>
		<stop  offset="0.17" style="stop-color:#BCDEFF"/>
		<stop  offset="0.36" style="stop-color:#D1E8FF"/>
		<stop  offset="1" style="stop-color:#D9ECFF"/>
	</linearGradient>
	<path id="rectangle1" fill="url(#rectangle1_1_)" d="M170.407,513.492c-11.805,6.815-21.387,23.688-21.387,37.656l0.626,320.049
		c0,13.967,9.588,19.773,21.392,12.956l190.967-107.971c11.805-6.817,21.389-23.69,21.389-37.656l-2.5-320.949
		c0-13.967-9.583-19.774-21.39-12.957L170.407,513.492L170.407,513.492z"/>
	<g>
		<path id="screen" fill="#94CBFF" d="M199.017,602.658c-2.094,1.211-3.795,4.204-3.795,6.683v10.054
			c0,2.478,1.701,3.508,3.795,2.298l144.892-83.535c2.096-1.209,3.797-4.204,3.797-6.681l-0.333-10.213
			c0-2.479-1.701-3.509-3.794-2.3L199.017,602.658z"/>
		<path id="screen1" fill="#94CBFF" d="M199.017,655.834c-2.094,1.211-3.795,4.203-3.795,6.683v10.054
			c0,2.477,1.701,3.508,3.795,2.298l144.892-83.535c2.096-1.209,3.797-4.204,3.797-6.681l-0.333-10.213
			c0-2.479-1.701-3.509-3.794-2.3L199.017,655.834z"/>
		<path id="screen2" fill="#94CBFF" d="M199.017,552.578c-2.094,1.211-3.795,4.203-3.795,6.683v10.054
			c0,2.477,1.701,3.507,3.795,2.298l144.892-83.535c2.096-1.209,3.797-4.203,3.797-6.681l-0.333-10.213c0-2.48-1.701-3.51-3.794-2.3
			L199.017,552.578z"/>
		<path id="screen3" fill="#94CBFF" d="M199.017,709.389c-2.094,1.209-3.795,4.203-3.795,6.681v10.054
			c0,2.477,1.701,3.51,3.795,2.298l144.892-83.533c2.096-1.21,3.797-4.203,3.797-6.682l-0.333-10.213c0-2.48-1.701-3.51-3.794-2.298
			L199.017,709.389z"/>
		<path id="screen4" fill="#94CBFF" d="M199.017,763.392c-2.094,1.208-3.795,4.203-3.795,6.681v10.054
			c0,2.478,1.701,3.508,3.795,2.298l144.892-83.535c2.096-1.209,3.797-4.204,3.797-6.681l-0.333-10.215
			c0-2.477-1.701-3.508-3.794-2.298L199.017,763.392z"/>
		<path id="screen5" fill="#94CBFF" d="M199.017,811.649c-2.094,1.209-3.795,4.204-3.795,6.681v10.054
			c0,2.477,1.701,3.508,3.795,2.298l144.892-83.535c2.096-1.209,3.797-4.203,3.797-6.681l-0.333-10.213
			c0-2.479-1.701-3.51-3.794-2.3L199.017,811.649z"/>
	</g>
	<path id="Folder" fill="#B15CFF" d="M408.941,607.7c-3.79-2.696-9.338-2.49-15.685,1.174l-63.533,36.682
		c-6.286,3.629-12.569,10.481-16.757,19.351l-12.569,26.602c-1.396,3.226-3.49,5.241-5.585,6.45l-152.903,88.28
		c-11.171,6.448-20.945,23.379-20.945,36.278v209.613c0,6.355,1.95,10.891,5.229,13.245h0.002c0.511,0.367,1.052,0.681,1.627,0.939
		l21.106,12.186v-18.329l244.328-141.063c11.871-6.854,20.948-22.574,20.948-36.28V629.106l15.907-9.184L408.941,607.7
		L408.941,607.7L408.941,607.7z"/>
	<g>
		<defs>
			<path id="SVGID_1_" d="M408.941,607.7c-3.79-2.696-9.338-2.49-15.685,1.174l-63.533,36.682
				c-6.286,3.629-12.569,10.481-16.757,19.351l-12.569,26.602c-1.396,3.226-3.49,5.241-5.585,6.45l-152.903,88.28
				c-11.171,6.448-20.945,23.379-20.945,36.278v209.613c0,6.355,1.95,10.891,5.229,13.245h0.002
				c0.511,0.367,1.052,0.681,1.627,0.939l21.106,12.186v-18.329l244.328-141.063c11.871-6.854,20.948-22.574,20.948-36.28V629.106
				l15.907-9.184L408.941,607.7L408.941,607.7L408.941,607.7z"/>
		</defs>
		<clipPath id="SVGID_2_">
			<use xlink:href="#SVGID_1_"  overflow="visible"/>
		</clipPath>
		<g clip-path="url(#SVGID_2_)">
			<path fill="#C17EFF" d="M405.512,601.795l31.417,18.138l-84.47,48.771l-31.42-18.14L405.512,601.795z"/>
			<path fill="#C17EFF" d="M288.321,701.705l32.723,18.894l-152.275,87.914l-32.723-18.892L288.321,701.705z"/>
		</g>
	</g>
	<path id="Folder1" fill="#771EFF" d="M164.638,799.362l152.903-88.278c2.094-1.209,4.191-3.226,5.588-6.451l12.567-26.604
		c4.189-8.868,10.472-15.72,16.756-19.349l63.535-36.682c11.869-6.852,20.946-1.612,20.946,12.094v241.86
		c0,13.704-9.076,29.426-20.946,36.278l-251.348,145.116c-11.869,6.851-20.945,1.612-20.945-12.093V835.64
		C143.693,822.743,153.468,805.812,164.638,799.362L164.638,799.362z"/>
	<path id="Folder2" fill="#6300FA" d="M383.398,931.048L336.42,751.475c2.096-1.208,4.19-3.225,5.586-6.45l71.349,33.286
		c4.189-8.868,17.298,1.734,23.581-1.894v99.537c0,13.705-9.078,29.426-20.945,36.278L383.398,931.048L383.398,931.048z"/>
</g>
<g>
	<path fill="#ECA16D" d="M517.674,850.829c-5.509-7.023-11.778-6.405-11.778-6.405c-4.416,3.005-5.203,5.279-8.759,7.923
		c-5.468,4.07-3.487,5.706-5.921,8.825c-1.339,1.715,1.981,2.265,3.82,0.076c1.596-1.901,3.573-2.721,3.414-1.401
		c-0.332,2.634-3.487,12.073-0.941,14.997c1.17,1.343,7.267,1.439,11.088-2.291C514.418,866.87,516.319,855.792,517.674,850.829
		L517.674,850.829z"/>
	<path fill="#68B5FF" d="M534.677,714.211c-6.382,8.37,1.59,39.103,0.896,69.246c0,0-30.452,53.221-32.486,62.777
		c1.835,2.721,10.106,6.915,14.281,5.7c8.963-11.117,27.869-33.669,44.04-58.129c6.228-23.629,1.213-45.63-0.834-54.599
		c-2.615-11.453-3.579-19.224-12.237-26.808c-1.646-1.44-3.921-1.982-6.001-2.655C541.521,709.482,537.678,710.277,534.677,714.211z
		"/>
	<g>
		<path fill="#3D96DC" d="M496.46,1079.175c0,0-9.099,2.097-6.754,7.658c2.334,5.587,16.411,18.092,17.868,21.626
			c1.483,3.51,9.81,16.266,12.732,15.103c2.947-1.183,21.747,2.935,13.286-25.307C529.471,1084.49,509.34,1078.574,496.46,1079.175
			L496.46,1079.175z"/>
		<path fill="#3D96DC" d="M483.26,1146.628c0,0-6.514,10.438-18.126,6.911c-11.618-3.535-6.079-8.492-31.037-16.618
			c-25.004-8.152-18.271-23.924-16.185-26.114c2.045-2.148,19.215,2.449,24.707,4.19c5.475,1.732,15.797,5.124,15.797,5.124
			l24.844,8.48V1146.628L483.26,1146.628z"/>
		<path fill="#3400CC" d="M536.055,849.017c0,0-3.332,114.844-3.332,125.763c0,10.919,11.199,82.693,3.862,120.24
			c0,0-16.63,17.582-35.308-3.633c0,0-2.078-37.397-4.891-73.086c-1.961-24.875-4.28-48.919-6.502-58.895
			c-5.403-24.3-3.596-98.662-3.596-98.662l49.768-11.728V849.017z"/>
		<path fill="#3400CC" d="M498.964,862.792c0,0-18.931,94.337-17.961,156.736c0,0,5.044,91.129,2.148,108.894
			c0,0-39.739,9.866-43.733-8.847c0,0,1.029-108.442,0-131.104c-0.966-22.665-3.314-85.86,5.662-122.332
			C454.026,829.676,498.964,862.792,498.964,862.792z"/>
		
			<linearGradient id="SVGID_3_" gradientUnits="userSpaceOnUse" x1="271.6389" y1="1414.0928" x2="273.7479" y2="1414.0928" gradientTransform="matrix(-0.1775 -13.1311 44.723 -0.6044 -62767.8047 -7.7017)">
			<stop  offset="0" style="stop-color:#260096"/>
			<stop  offset="0.57" style="stop-color:#8800DF"/>
			<stop  offset="1" style="stop-color:#B300FF"/>
		</linearGradient>
		<path fill="url(#SVGID_3_)" d="M511.878,915.88c-0.461,19.979-0.035,42.214,2.849,59.033c6.167,35.924,2.202,105.85,5.205,125.922
			c11.797,0,16.653-5.816,16.653-5.816c6.862-52.147-3.86-108.086-3.86-119.005c0-10.411,14.649-73.448,3.332-126.291l-21.33,16.416
			c0,0-0.342,3.501-0.795,9.381l-40.92,11.179c0,0-17.672,46.446-14.974,116.106c2.097,53.914,2.957,106.931,3.248,128.207
			c10.973,0.092,21.87-2.59,21.87-2.59c6.149-52.801-2.15-108.894-2.15-108.894c-0.747-22.973,1.022-39.032,4.176-50.995
			C491.422,944.896,503.387,931.137,511.878,915.88z"/>
		<path fill="#87C5FF" d="M543.23,709.904c0,0,16.562,8.689,6.508,36.945c-10.047,28.279-9.206,133.317-7.113,140.601
			c0,0-10.749,26.869-58.457,30.116c-14.589,0.995-47.379-6.879-44.368-36.616c6.382-63.004,7.397-90.405,9.016-101.498
			c3.077-21.066,5.472-31.133,33.667-45.64C510.686,719.299,525.408,708.456,543.23,709.904L543.23,709.904z"/>
		<path fill="#ECA16D" d="M359.688,762.979c5.359-7.14,3.139-13.037,3.139-13.037c-4.045-3.487-6.447-3.66-9.921-6.409
			c-5.345-4.228-6.414-1.891-10.057-3.435c-2.004-0.849-1.676,2.5,0.917,3.709c2.249,1.05,3.553,2.749,2.239,2.937
			c-2.632,0.36-12.565-0.245-14.732,2.972c-0.994,1.479,0.491,7.393,5.081,10.118C343.353,763.984,354.546,762.952,359.688,762.979
			L359.688,762.979z"/>
		<path fill="#A4D3FF" d="M496.05,744.042c-20.023-17.991-37.361,11.657-66.657,18.789c0,0-59.289-15.64-69.045-15.131
			c-2.154,2.475-4.065,11.55-1.812,15.269c13.062,5.778,39.736,18.204,67.55,27.494c24.433-0.1,59.398-3.496,71.349-15.788
			C504.504,767.405,506.666,753.584,496.05,744.042L496.05,744.042z"/>
		<path fill="#EFB185" d="M523.698,695.453c0,0-2.069,14.839,2.846,24.236c4.465,8.536-30.707,15.543-31.387,7.698
			c-0.056-0.83,6.904-13.502-1.246-28.839C489.646,690.53,523.698,695.453,523.698,695.453z"/>
		<path fill="#DD9569" d="M526.375,720.207c-3.649-7.014-3.462-16.966-3.102-21.633l-25.834,12.174l0.006,0.076
			c0.935,0.237,18.101,4.963,21.598,17.45C524.353,726.217,527.989,723.316,526.375,720.207L526.375,720.207z"/>
		
			<linearGradient id="SVGID_4_" gradientUnits="userSpaceOnUse" x1="41.7421" y1="1447.5316" x2="43.8529" y2="1447.5316" gradientTransform="matrix(-25.7665 57.4079 -125.8648 -56.4916 183797 80062.5781)">
			<stop  offset="0" style="stop-color:#D0E8FF"/>
			<stop  offset="1" style="stop-color:#40A2FF"/>
		</linearGradient>
		<path fill="url(#SVGID_4_)" d="M497.221,722.796l-11.591,9.389c0,0,35.326,10.864,46.046-6.323
			c1.53-2.443-0.098-10.732-6.246-12.386C525.431,713.477,523.941,727.609,497.221,722.796L497.221,722.796z"/>
	</g>
	<path fill="#EFB185" d="M488.578,655.426c0,0-6.049,14.157-5.149,26.483c0.278,3.759-1.011,4.844-2.096,7.579
		c-2.206,5.553,1.081,4.006,1.605,8.222c0.317,2.519-1.018,12.011,2.997,14.709c4.709,3.166,12.4,5.633,23.875,1.708
		c13.877-4.776,28.788-23.45,23.252-40.632C527.465,656.314,509.603,641.937,488.578,655.426L488.578,655.426z"/>
	<path fill="#E6A376" d="M532.058,691.927c-5.221-15.445-18.579-34.134-18.433-35.1c0.089-0.601-4.416-3.544-9.529-6.687
		c-4.869,0.169-10.069,1.794-15.525,5.286c0,0-1.627,3.773-3.054,9.14c3.215,3.728,9.822,8.034,10.794,11.183
		c2.206,7.404,0.638,18.507-1.631,23.392c-2.278,4.871,6.413,12.246,4.488,16.566l-0.072,0.593
		c3.163-0.177,6.731-0.828,10.708-2.174C518.7,711.057,527.943,702.321,532.058,691.927z"/>
	<path fill="#414141" d="M487.336,656.088c0,0-1.82,6.401,6.976,11.725c6.9,4.195,6.298,15.355,5.903,17.516
		c-0.382,2.161-2.702,11.982-1.86,13.263c1.641,2.447,7.47-5.009,10.144-4.444c6.825,1.458,4.028,7.799-2.336,14.383
		c-6.761,7.001,10.61,10.261,18.797,4.54c4.374-3.03,5.955-4.869,11.821-15.949c8.504-16.157,9.301-35.761-9.784-46.615
		C507.924,639.675,493.203,647.841,487.336,656.088z"/>
	<path fill="#292929" d="M508.791,684.422c16.116,6.955,32.442,7.144,33.728,2.208c2.832-10.86,1.083-23.997-7.82-32.091
		c-2.376-2.161-5.134-3.963-8.073-5.254c-6.026-2.65-13.426-4.191-20.09-4.064c-9.94,0.188-17.961,4.84-23.493,13.045
		c-2.376,3.523-3.814,7.309-0.366,10.456C488.225,673.785,495.38,678.633,508.791,684.422z"/>
</g>
<g>
	<path fill="#EBF5FF" d="M1130.075,1720.318c-10.618,6.131-26.699,6.796-35.894,1.488L353.84,1294.386
		c-9.194-5.309-8.039-14.595,2.578-20.725l502.238-289.955c10.617-6.129,26.698-6.796,35.893-1.489l740.341,427.422
		c9.193,5.307,8.039,14.594-2.577,20.722L1130.075,1720.318z"/>
	<g>
		<path fill="#96CCFF" d="M992.767,211.474c4.149-2.397,9.457-2.305,14.918,0.845l727.868,419.793
			c10.875,6.271,18.277,22.307,16.519,35.786l-83.12,637.668c-0.872,6.707-3.854,11.527-7.967,13.902l0,0l-0.002,0.001
			c-0.362,0.209-0.731,0.397-1.108,0.569l-22.395,11.475l0.602-17.495L918.198,898.831c-10.874-6.273-18.275-22.308-16.519-35.788
			l81.914-628.426l-13.3-11.63L992.767,211.474L992.767,211.474L992.767,211.474z"/>
		<path fill="#65B4FF" d="M1750.352,681.158l-81.391,624.409c-0.873,6.707-3.853,11.527-7.969,13.902l-0.001,0.001
			c-0.361,0.209-0.729,0.397-1.108,0.569l-20.118,10.309l-2.267,0.892l81.585-637.788L1750.352,681.158L1750.352,681.158z"/>
		<path fill="#D7EBFF" d="M1728.566,679.945c1.76-13.479-5.645-29.515-16.519-35.785L984.18,224.367
			c-10.875-6.272-21.13-0.421-22.888,13.058l-83.119,637.667c-1.757,13.477,5.645,29.515,16.519,35.785l727.867,419.793
			c10.877,6.271,21.13,0.422,22.888-13.057L1728.566,679.945L1728.566,679.945z"/>
		<path fill="#000864" d="M1721.075,681.875c1.739-13.36-5.599-29.255-16.375-35.471L983.228,230.3
			c-10.779-6.216-20.944-0.418-22.685,12.943l-82.39,632.063c-1.74,13.36,5.597,29.256,16.375,35.471l721.471,416.103
			c10.779,6.218,20.945,0.418,22.686-12.943L1721.075,681.875z"/>
	</g>
	<g>
		<path fill="#B2DAFF" d="M346.526,1234.749c-0.27,3.911,1.944,7.683,6.749,10.456l737.317,425.677
			c10.033,5.79,27.581,5.061,39.166-1.625l489.895-282.833c6.564-3.789,9.811-8.684,9.571-13.271l0,0v-27.363l-18.567,10.719v0.487
			l-725.51-418.858c-10.032-5.791-27.581-5.064-39.163,1.623L364.479,1217.75l-17.975-10.375v27.361L346.526,1234.749
			L346.526,1234.749z"/>
		<path fill="#9FD0FF" d="M1600.292,1351.011l-464.568,268.209v46.594l483.932-279.389c6.563-3.789,9.814-8.687,9.57-13.271v-27.365
			l-18.568,10.72v0.488L1600.292,1351.011L1600.292,1351.011z"/>
		<path fill="#D7EBFF" d="M1129.687,1642.924c-10.4,6.005-26.151,6.658-35.157,1.458l-741.024-427.817
			c-9.004-5.197-7.873-14.292,2.525-20.296L847.98,912.251c10.398-6.003,26.151-6.656,35.157-1.456l741.025,427.814
			c9.003,5.2,7.873,14.295-2.526,20.298L1129.687,1642.924z"/>
		<path fill="#82C2FF" d="M1127.613,1637.094c-10.316,5.957-25.945,6.605-34.881,1.447l-735.191-424.449
			c-8.936-5.159-7.812-14.182,2.504-20.139l488.08-281.783c10.316-5.959,25.945-6.605,34.879-1.446l735.195,424.449
			c8.935,5.159,7.812,14.181-2.506,20.138L1127.613,1637.094z"/>
	</g>
	<g>
		
			<linearGradient id="SVGID_5_" gradientUnits="userSpaceOnUse" x1="39.5113" y1="1440.9043" x2="41.6186" y2="1440.9043" gradientTransform="matrix(579.5928 73.0291 73.0312 -579.5767 -127693.5391 833418.25)">
			<stop  offset="0" style="stop-color:#0077C6"/>
			<stop  offset="0.16" style="stop-color:#007FD4"/>
			<stop  offset="0.35" style="stop-color:#0086E0"/>
			<stop  offset="1" style="stop-color:#0089E4"/>
		</linearGradient>
		<path fill="url(#SVGID_5_)" d="M1207.639,1485.779c-5.966,3.445-15.006,3.818-20.17,0.835l-579.564-334.6
			c-5.167-2.982-4.519-8.199,1.448-11.645L891.579,977.43c5.967-3.443,15.004-3.818,20.169-0.834l579.566,334.602
			c5.165,2.982,4.518,8.199-1.45,11.645L1207.639,1485.779z"/>
		<g>
			<path fill="#75BCFF" d="M1291.651,1225.241l-33.1,19.109l35.444,20.463l33.1-19.109L1291.651,1225.241z"/>
			<path fill="#75BCFF" d="M1183.222,1287.84l-33.1,19.111l35.445,20.463l33.099-19.108L1183.222,1287.84z"/>
			<path fill="#75BCFF" d="M1237.703,1256.388l-33.1,19.108l35.444,20.463l33.1-19.108L1237.703,1256.388z"/>
			<path fill="#75BCFF" d="M1129.266,1318.989l-33.1,19.109l35.445,20.464l33.099-19.111L1129.266,1318.989z"/>
			<path fill="#75BCFF" d="M1072.895,1351.534l-33.1,19.111l35.444,20.463l33.1-19.108L1072.895,1351.534z"/>
			<path fill="#75BCFF" d="M1069.624,1097.055l-33.098,19.111l35.444,20.463l33.1-19.111L1069.624,1097.055z"/>
			<path fill="#75BCFF" d="M961.198,1159.656l-33.1,19.111l35.446,20.464l33.1-19.112L961.198,1159.656z"/>
			<path fill="#75BCFF" d="M1015.681,1128.213l-33.102,19.111l35.445,20.463l33.1-19.109L1015.681,1128.213z"/>
			<path fill="#75BCFF" d="M907.254,1190.814l-33.1,19.111l35.444,20.463l33.1-19.111L907.254,1190.814z"/>
			<path fill="#75BCFF" d="M850.869,1223.35l-33.098,19.109l197.312,113.916l33.1-19.111L850.869,1223.35z"/>
			<path fill="#75BCFF" d="M957.872,1032.542l-33.098,19.111l35.444,20.463l33.099-19.109L957.872,1032.542z"/>
			<path fill="#75BCFF" d="M849.446,1095.142l-33.098,19.111l35.444,20.463l33.1-19.111L849.446,1095.142z"/>
			<path fill="#75BCFF" d="M903.916,1063.688l-33.099,19.109l35.444,20.464l33.1-19.111L903.916,1063.688z"/>
			<path fill="#75BCFF" d="M795.49,1126.288l-33.1,19.109l35.444,20.464l33.1-19.108L795.49,1126.288z"/>
			<path fill="#75BCFF" d="M739.117,1158.836l-33.097,19.111l35.444,20.463l33.1-19.111L739.117,1158.836z"/>
			<path fill="#75BCFF" d="M1401.716,1288.786l-33.098,19.111l35.444,20.463l33.099-19.111L1401.716,1288.786z"/>
			<path fill="#75BCFF" d="M1293.29,1351.389l-33.1,19.108l35.444,20.463l33.1-19.109L1293.29,1351.389z"/>
			<path fill="#75BCFF" d="M1347.771,1319.934l-33.1,19.108l35.444,20.464l33.1-19.109L1347.771,1319.934z"/>
			<path fill="#75BCFF" d="M1239.331,1382.535l-33.099,19.109l35.445,20.463l33.1-19.109L1239.331,1382.535z"/>
			<path fill="#75BCFF" d="M1182.96,1415.083l-33.1,19.108l35.447,20.463l33.1-19.108L1182.96,1415.083z"/>
			<path fill="#75BCFF" d="M1179.703,1160.601l-33.099,19.109l35.444,20.464l33.1-19.111L1179.703,1160.601z"/>
			<path fill="#75BCFF" d="M1071.266,1223.202l-33.1,19.109l35.445,20.464l33.101-19.108L1071.266,1223.202z"/>
			<path fill="#75BCFF" d="M1125.746,1191.759l-33.1,19.111l35.446,20.463l33.099-19.111L1125.746,1191.759z"/>
			<path fill="#75BCFF" d="M1017.32,1254.36l-33.1,19.109l35.445,20.464l33.1-19.111L1017.32,1254.36z"/>
			<path fill="#75BCFF" d="M902.674,1000.668l-33.098,19.108l35.444,20.463l33.1-19.108L902.674,1000.668z"/>
			<path fill="#75BCFF" d="M794.248,1063.268l-33.098,19.108l35.444,20.463l33.1-19.108L794.248,1063.268z"/>
			<path fill="#75BCFF" d="M848.717,1031.812l-33.098,19.111l35.444,20.463l33.1-19.109L848.717,1031.812z"/>
			<path fill="#75BCFF" d="M740.291,1094.413l-33.1,19.111l35.444,20.463l33.1-19.109L740.291,1094.413z"/>
			<path fill="#75BCFF" d="M683.918,1126.962l-33.098,19.107l35.444,20.465l33.1-19.109L683.918,1126.962z"/>
			<path fill="#75BCFF" d="M1346.517,1256.922l-33.1,19.109l35.445,20.463l33.102-19.108L1346.517,1256.922z"/>
			<path fill="#75BCFF" d="M1238.09,1319.524l-33.099,19.108l35.444,20.465l33.1-19.111L1238.09,1319.524z"/>
			<path fill="#75BCFF" d="M1292.572,1288.07l-33.1,19.109l35.444,20.464l33.1-19.111L1292.572,1288.07z"/>
			<path fill="#75BCFF" d="M1184.144,1350.67l-33.1,19.109l35.446,20.463l33.098-19.109L1184.144,1350.67z"/>
			<path fill="#75BCFF" d="M1127.761,1383.218l-33.1,19.108l35.446,20.465l33.1-19.111L1127.761,1383.218z"/>
			<path fill="#75BCFF" d="M1124.506,1128.737l-33.101,19.112l35.446,20.463l33.099-19.109L1124.506,1128.737z"/>
			<path fill="#75BCFF" d="M1016.067,1191.34l-33.1,19.108l35.444,20.463l33.1-19.108L1016.067,1191.34z"/>
			<path fill="#75BCFF" d="M1070.547,1159.884l-33.099,19.108l35.444,20.466l33.1-19.109L1070.547,1159.884z"/>
			<path fill="#75BCFF" d="M962.12,1222.484l-33.1,19.111l35.446,20.463l33.1-19.109L962.12,1222.484z"/>
			<path fill="#75BCFF" d="M1012.742,1064.223l-33.1,19.111l35.445,20.463l33.099-19.111L1012.742,1064.223z"/>
			<path fill="#75BCFF" d="M904.315,1126.823l-33.1,19.111l35.444,20.463l33.1-19.109L904.315,1126.823z"/>
			<path fill="#75BCFF" d="M958.794,1095.372l-33.098,19.108l35.444,20.463l33.1-19.108L958.794,1095.372z"/>
			<path fill="#75BCFF" d="M850.358,1157.972l-33.1,19.107l35.444,20.465l33.1-19.109L850.358,1157.972z"/>
			<path fill="#75BCFF" d="M793.986,1190.507l-33.1,19.111l35.446,20.463l33.1-19.111L793.986,1190.507z"/>
			<path fill="#75BCFF" d="M1234.571,1192.283l-33.099,19.109l35.445,20.464l33.099-19.108L1234.571,1192.283z"/>
			<path fill="#75BCFF" d="M1126.146,1254.885l-33.101,19.107l35.445,20.465l33.1-19.109L1126.146,1254.885z"/>
			<path fill="#75BCFF" d="M1180.615,1223.43l-33.1,19.111l35.444,20.463l33.1-19.111L1180.615,1223.43z"/>
			<path fill="#75BCFF" d="M1072.188,1286.03l-33.1,19.111l35.444,20.463l33.102-19.111L1072.188,1286.03z"/>
		</g>
	</g>
</g>
<path fill="#000C91" d="M1340.505,749.18l301.286,173.949l-48.84,366.474l-301.286-173.949L1340.505,749.18z"/>
<g>
	<path fill="#A8D4FF" d="M1324.151,477.97c2.821-1.627,6.429-1.567,10.143,0.575l422.789,243.809
		c7.394,4.263,12.427,15.164,11.233,24.329l-22.585,173.252c-0.593,4.56-2.62,7.837-5.416,9.451v0.002h-0.003
		c-0.244,0.142-0.496,0.27-0.753,0.386l-12.901,5.563l0.409-11.896l-417.362-240.676c-7.391-4.264-12.425-15.167-11.23-24.329
		l21.765-166.971l-9.044-7.907L1324.151,477.97L1324.151,477.97z"/>
	<path fill="#ECF5FF" d="M1754.624,752.649c1.195-9.165-3.839-20.065-11.233-24.329l-422.752-243.828
		c-7.394-4.265-14.365-0.288-15.559,8.877l-22.585,173.257c-1.195,9.162,3.839,20.063,11.233,24.326l422.755,243.83
		c7.393,4.264,14.365,0.286,15.559-8.877L1754.624,752.649L1754.624,752.649z"/>
	<path fill="#3DB1FF" d="M1398.776,558.583c35.154,21.104,59.601,68.746,54.704,106.921c-0.904,7.037-2.744,13.267-5.371,18.622
		l-28.201-30.917c0.683-1.957,1.182-4.102,1.481-6.42c2.444-19.05-9.619-42.78-27.06-53.555l4.448-34.651H1398.776z"/>
	<path fill="#BA5AF2" d="M1398.776,558.583l-4.446,34.651l-1.003-0.616c-17.979-10.484-34.598-3.237-37.09,16.176
		c-0.296,2.319-0.379,4.706-0.257,7.132l-31.655-3.989c-0.986-7.462-1.081-14.82-0.177-21.857
		c4.944-38.536,37.936-52.925,73.625-32.109L1398.776,558.583z"/>
	<path fill="#5077FF" d="M1419.903,653.208l28.198,30.917c-11.711,23.995-39.08,30.503-68.253,13.489
		c-29.174-17.013-51.179-52.315-55.53-85.679l31.654,3.989c0.848,17.88,12.489,37.806,28.321,47.039
		C1400.126,672.199,1414.902,667.68,1419.903,653.208L1419.903,653.208z"/>
	<path fill="#67B4FF" d="M1674.143,755.102c0.412-3.163-1.325-6.924-3.877-8.397l-187.603-108.263
		c-2.551-1.473-4.959-0.099-5.37,3.062l-0.805,6.189c-0.414,3.161,1.323,6.924,3.874,8.395l187.607,108.263
		c2.552,1.473,4.955,0.099,5.369-3.062L1674.143,755.102z"/>
	<path fill="#67B4FF" d="M1536.131,715.724c0.412-3.161-1.325-6.922-3.877-8.393l-54.21-31.248c-2.55-1.473-4.957-0.099-5.369,3.062
		l-0.808,6.189c-0.412,3.161,1.327,6.922,3.877,8.393l54.21,31.248c2.552,1.473,4.957,0.099,5.369-3.062L1536.131,715.724z"/>
	<path fill="#67B4FF" d="M1692.262,805.868c0.412-3.161-1.325-6.922-3.877-8.394l-133.799-77.198
		c-2.551-1.47-4.957-0.099-5.369,3.062l-0.807,6.187c-0.412,3.163,1.323,6.924,3.875,8.397l133.799,77.198
		c2.552,1.47,4.957,0.098,5.369-3.065L1692.262,805.868L1692.262,805.868z"/>
	<path fill="#67B4FF" d="M1589.404,788.193c0.413-3.163-1.323-6.924-3.874-8.394l-113.693-65.591
		c-2.552-1.471-4.957-0.099-5.369,3.064l-0.808,6.187c-0.412,3.161,1.327,6.924,3.877,8.394l113.693,65.591
		c2.551,1.47,4.956,0.096,5.369-3.065L1589.404,788.193z"/>
	<path fill="#67B4FF" d="M1680.372,840.737c0.412-3.161-1.325-6.922-3.875-8.394l-66.385-38.299
		c-2.552-1.47-4.957-0.098-5.369,3.062l-0.808,6.187c-0.412,3.164,1.324,6.924,3.875,8.397l66.387,38.298
		c2.551,1.471,4.957,0.099,5.37-3.064L1680.372,840.737L1680.372,840.737z"/>
</g>
<g>
	<path fill="#98CCFF" d="M909.907,239.512c3.221-1.861,7.34-1.789,11.58,0.656l333.771,192.459
		c8.442,4.87,14.19,17.318,12.826,27.782l-64.735,496.641c-0.678,5.206-2.993,8.948-6.185,10.793l0,0h-0.001
		c-0.281,0.163-0.569,0.309-0.862,0.441l-14.732,6.351l0.468-13.582L854.463,772.166c-8.442-4.868-14.188-17.316-12.825-27.78
		l63.799-489.468l-10.324-9.028L909.907,239.512L909.907,239.512L909.907,239.512z"/>
	<path fill="#ECF5FF" d="M1252.452,467.22c1.361-10.462-4.386-22.911-12.828-27.779L905.895,246.956
		c-8.442-4.869-16.402-0.327-17.765,10.137l-64.736,496.646c-1.363,10.464,4.382,22.912,12.824,27.78l333.731,192.484
		c8.442,4.868,16.404,0.328,17.766-10.136L1252.452,467.22L1252.452,467.22z"/>
	<g>
		<path fill="#67B4FF" d="M904.167,705.406l-47.345-27.336l-5.62,40.953l47.348,27.336L904.167,705.406z"/>
		<path fill="#67B4FF" d="M1032.989,613.849l-47.347-27.336l-26.716,194.709l47.348,27.338L1032.989,613.849z"/>
		<path fill="#67B4FF" d="M1136.611,708.192l-47.348-27.336l-22.325,162.722l47.347,27.336L1136.611,708.192z"/>
		<path fill="#67B4FF" d="M966.131,680.313l-47.348-27.338l-13.357,97.356l47.348,27.335L966.131,680.313z"/>
		<path fill="#67B4FF" d="M1076.219,725.282l-47.348-27.334l-15.722,114.582l47.347,27.336L1076.219,725.282z"/>
		<path fill="#67B4FF" d="M1195.225,707.515l-47.345-27.336l-26.716,194.708l47.348,27.336L1195.225,707.515L1195.225,707.515z"/>
		<path fill="#FF7BB8" d="M882.768,696.237l61.964-25.092c0.285-0.115,0.535-0.283,0.754-0.499l63.138-62.76l40.481,104.344
			c0.5,1.287,1.373,2.445,2.412,3.197c1.04,0.751,2.152,1.031,3.07,0.772l60.065-17.001l58.263-0.674
			c2.009-0.025,3.031-2.138,2.278-4.719c-0.75-2.58-2.993-4.656-5.003-4.633l-58.615,0.677c-0.235,0.002-0.462,0.035-0.674,0.094
			l-56.831,16.084l-41.303-106.461c-0.607-1.565-1.761-2.921-3.066-3.602c-1.306-0.682-2.587-0.601-3.411,0.216l-66.534,66.136
			l-61.54,24.922c-1.74,0.704-2.132,3.29-0.877,5.774C878.596,695.498,881.028,696.942,882.768,696.237L882.768,696.237z"/>
		<path fill="#FF7BB8" d="M882.039,680.443c5.827,3.365,9.864,11.156,9.006,17.39c-0.854,6.234-6.279,8.564-12.105,5.201
			c-5.827-3.365-9.861-11.157-9.007-17.391C870.788,679.409,876.213,677.08,882.039,680.443z"/>
		<path fill="#FF7BB8" d="M944.217,653.768c5.828,3.363,9.864,11.157,9.008,17.39c-0.855,6.235-6.282,8.564-12.107,5.201
			c-5.827-3.365-9.861-11.156-9.007-17.391C932.966,652.735,938.392,650.405,944.217,653.768L944.217,653.768z"/>
		<path fill="#FF7BB8" d="M1011.089,587.305c5.827,3.365,9.864,11.157,9.008,17.391c-0.856,6.234-6.282,8.563-12.107,5.2
			c-5.827-3.363-9.864-11.156-9.007-17.391C999.838,586.271,1005.264,583.941,1011.089,587.305z"/>
		<path fill="#FF7BB8" d="M1054.32,698.739c5.826,3.363,9.862,11.157,9.008,17.391c-0.858,6.234-6.282,8.563-12.109,5.2
			c-5.826-3.365-9.861-11.156-9.006-17.39C1043.069,697.706,1048.494,695.376,1054.32,698.739z"/>
		<path fill="#FF7BB8" d="M1114.701,681.65c5.827,3.363,9.861,11.156,9.006,17.388c-0.855,6.234-6.282,8.565-12.105,5.2
			c-5.827-3.363-9.864-11.156-9.008-17.388C1103.447,680.616,1108.872,678.285,1114.701,681.65z"/>
		<path fill="#FF7BB8" d="M1173.098,682.552c5.828,3.363,9.865,11.156,9.008,17.388c-0.858,6.234-6.279,8.566-12.106,5.203
			c-5.827-3.365-9.864-11.157-9.008-17.39C1161.849,681.518,1167.273,679.187,1173.098,682.552L1173.098,682.552z"/>
	</g>
	<path fill="#67B4FF" d="M1028.355,434.941c0.471-3.613-1.512-7.906-4.425-9.587l-98.007-56.527
		c-2.914-1.679-5.661-0.112-6.131,3.498l-0.92,7.065c-0.472,3.611,1.511,7.906,4.426,9.585l98.005,56.528
		c2.914,1.68,5.659,0.113,6.131-3.498L1028.355,434.941L1028.355,434.941z"/>
	<path fill="#67B4FF" d="M959.649,443.585c0.472-3.609-1.512-7.906-4.424-9.585l-36.721-21.143
		c-2.911-1.681-5.659-0.113-6.129,3.498l-0.923,7.065c-0.469,3.61,1.514,7.905,4.426,9.585l36.721,21.143
		c2.911,1.68,5.659,0.113,6.129-3.497L959.649,443.585z"/>
	<path fill="#67B4FF" d="M1202.435,583.752c0.469-3.61-1.515-7.906-4.426-9.587L983.787,450.542
		c-2.913-1.679-5.662-0.113-6.131,3.497l-0.921,7.066c-0.472,3.611,1.511,7.906,4.426,9.585l214.222,123.625
		c2.911,1.679,5.659,0.113,6.128-3.499L1202.435,583.752L1202.435,583.752z"/>
	<path fill="#67B4FF" d="M1132.989,595.291c0.472-3.611-1.512-7.906-4.426-9.587l-214.22-123.623
		c-2.914-1.681-5.662-0.113-6.133,3.499l-0.919,7.064c-0.471,3.61,1.511,7.906,4.424,9.585l214.222,123.623
		c2.914,1.683,5.659,0.113,6.131-3.497L1132.989,595.291L1132.989,595.291z"/>
	<path fill="#67B4FF" d="M1151.163,505.841c0.472-3.608-1.509-7.904-4.423-9.585l-98.007-56.526
		c-2.914-1.682-5.659-0.112-6.131,3.497l-0.919,7.065c-0.471,3.611,1.511,7.906,4.425,9.585l98.007,56.529
		c2.913,1.679,5.659,0.111,6.131-3.499L1151.163,505.841z"/>
</g>
<path fill="#00053E" d="M1356.379,783.168l263.391,152.069l-42.696,320.379l-263.393-152.069L1356.379,783.168z"/>
<path fill="#0089E4" d="M1113.878,1055.751l207.053-119.542v171.559l-207.053,119.54V1055.751z"/>
<path fill="#BFE0FF" d="M1106.602,1051.549l207.053-119.541l7.283,4.204l-207.054,119.54L1106.602,1051.549z"/>
<g>
	<path id="rectangle2" fill="#E9F4FF" d="M1524.856,1213.089c3.074-1.773,4.982-5.626,4.982-11.104l0.486-247.123
		c0-10.783-7.402-23.812-16.517-29.074l-146.006-84.064c-4.606-2.659-8.774-2.83-11.769-0.96l-3.735,2.156l3.369,1.946
		c-0.35,1.38-0.535,2.931-0.535,4.64c0,0,8.623,127.552,14.587,276.893l147.451,83.367c1.192,0.689,2.354,1.209,3.474,1.573v4.18
		L1524.856,1213.089L1524.856,1213.089L1524.856,1213.089z"/>
	<path id="rectangle3" fill="#B7DCFF" d="M1509.596,928.212c9.115,5.262,16.517,18.292,16.517,29.076l-0.485,247.12
		c0,10.785-7.399,15.267-16.515,10.005l-147.454-83.368c-9.115-5.263-16.517-18.292-16.517-29.076l1.929-247.817
		c0-10.784,7.402-15.267,16.518-10.005L1509.596,928.212z"/>
	<g>
		<path id="screen6" fill="#94CBFF" d="M1487.504,997.057c1.616,0.932,2.929,3.243,2.929,5.159v7.761
			c0,1.916-1.313,2.711-2.929,1.776l-111.877-64.501c-1.617-0.934-2.931-3.245-2.931-5.158l0.256-7.887
			c0-1.913,1.314-2.708,2.932-1.776L1487.504,997.057z"/>
		<path id="screen7" fill="#94CBFF" d="M1487.504,1038.121c1.616,0.935,2.929,3.246,2.929,5.162v7.761
			c0,1.913-1.313,2.709-2.929,1.776l-111.877-64.501c-1.617-0.934-2.931-3.246-2.931-5.159l0.256-7.886
			c0-1.913,1.314-2.708,2.932-1.776L1487.504,1038.121z"/>
		<path id="screen8" fill="#94CBFF" d="M1487.504,958.394c1.616,0.934,2.929,3.246,2.929,5.157v7.765
			c0,1.913-1.313,2.709-2.929,1.774l-111.877-64.499c-1.617-0.935-2.931-3.246-2.931-5.161l0.256-7.886
			c0-1.913,1.314-2.71,2.932-1.775L1487.504,958.394z"/>
		<path id="screen9" fill="#94CBFF" d="M1487.504,1079.471c1.616,0.935,2.929,3.246,2.929,5.159v7.764
			c0,1.913-1.313,2.708-2.929,1.776l-111.877-64.501c-1.617-0.934-2.931-3.246-2.931-5.159l0.256-7.886
			c0-1.916,1.314-2.711,2.932-1.776L1487.504,1079.471z"/>
		<path id="screen10" fill="#94CBFF" d="M1487.504,1121.164c1.616,0.935,2.929,3.246,2.929,5.161v7.763
			c0,1.913-1.313,2.708-2.929,1.776l-111.877-64.499c-1.617-0.935-2.931-3.246-2.931-5.162l0.256-7.885
			c0-1.913,1.314-2.711,2.932-1.776L1487.504,1121.164z"/>
		<path id="screen11" fill="#94CBFF" d="M1487.504,1158.427c1.616,0.933,2.929,3.245,2.929,5.158v7.763
			c0,1.915-1.313,2.711-2.929,1.777l-111.877-64.501c-1.617-0.933-2.931-3.246-2.931-5.159l0.256-7.886
			c0-1.913,1.314-2.709,2.932-1.776L1487.504,1158.427L1487.504,1158.427z"/>
	</g>
</g>
<g>
	<path id="rectangle4" fill="#E9F4FF" d="M1507.649,1226.415c3.073-1.776,4.982-5.627,4.982-11.105l0.485-247.12
		c0-10.786-7.399-23.814-16.517-29.078l-146.007-84.063c-4.606-2.658-8.772-2.829-11.769-0.96l-3.734,2.157l3.369,1.946
		c-0.349,1.38-0.535,2.93-0.535,4.64c0,0,8.623,127.553,14.586,276.892l147.452,83.369c1.191,0.687,2.354,1.209,3.475,1.571v4.181
		L1507.649,1226.415L1507.649,1226.415L1507.649,1226.415z"/>
	<path id="rectangle5" fill="#B7DCFF" d="M1492.389,941.541c9.115,5.262,16.517,18.29,16.517,29.075l-0.487,247.121
		c0,10.783-7.399,15.267-16.517,10.005l-147.451-83.369c-9.116-5.264-16.518-18.292-16.518-29.077l1.931-247.816
		c0-10.785,7.402-15.267,16.517-10.005L1492.389,941.541z"/>
	<g>
		<path id="screen12" fill="#94CBFF" d="M1470.295,1010.392c1.618,0.932,2.93,3.246,2.93,5.159v7.761
			c0,1.913-1.312,2.711-2.93,1.776l-111.876-64.499c-1.617-0.935-2.931-3.246-2.931-5.161l0.258-7.886
			c0-1.913,1.312-2.711,2.929-1.776L1470.295,1010.392z"/>
		<path id="screen13" fill="#94CBFF" d="M1470.295,1051.447c1.618,0.932,2.93,3.246,2.93,5.158v7.763
			c0,1.913-1.312,2.711-2.93,1.776l-111.876-64.499c-1.617-0.935-2.931-3.246-2.931-5.159l0.258-7.886
			c0-1.915,1.312-2.71,2.929-1.774L1470.295,1051.447L1470.295,1051.447z"/>
		<path id="screen14" fill="#94CBFF" d="M1470.295,971.717c1.618,0.935,2.93,3.246,2.93,5.161v7.763c0,1.913-1.312,2.708-2.93,1.776
			l-111.876-64.501c-1.617-0.933-2.931-3.246-2.931-5.159l0.258-7.886c0-1.915,1.312-2.708,2.929-1.775L1470.295,971.717z"/>
		<path id="screen15" fill="#94CBFF" d="M1470.295,1092.797c1.618,0.932,2.93,3.246,2.93,5.158v7.763
			c0,1.916-1.312,2.711-2.93,1.776l-111.876-64.5c-1.617-0.935-2.931-3.246-2.931-5.159l0.258-7.886c0-1.913,1.312-2.71,2.929-1.775
			L1470.295,1092.797z"/>
		<path id="screen16" fill="#94CBFF" d="M1470.295,1134.499c1.618,0.935,2.93,3.246,2.93,5.159v7.764
			c0,1.913-1.312,2.708-2.93,1.776l-111.876-64.502c-1.617-0.932-2.931-3.246-2.931-5.158l0.258-7.886
			c0-1.916,1.312-2.708,2.929-1.776L1470.295,1134.499L1470.295,1134.499z"/>
		<path id="screen17" fill="#94CBFF" d="M1470.295,1171.762c1.618,0.935,2.93,3.246,2.93,5.159v7.764
			c0,1.913-1.312,2.708-2.93,1.776l-111.876-64.502c-1.617-0.932-2.931-3.246-2.931-5.159l0.258-7.886
			c0-1.915,1.312-2.71,2.929-1.774L1470.295,1171.762z"/>
	</g>
</g>
<g>
	<path id="rectangle6" fill="#E9F4FF" d="M1491.421,1243.564c3.071-1.773,4.984-5.626,4.984-11.104l0.484-247.122
		c0-10.785-7.401-23.814-16.515-29.075l-146.01-84.064c-4.603-2.656-8.77-2.83-11.765-0.957l-3.736,2.154l3.369,1.946
		c-0.347,1.382-0.535,2.932-0.535,4.642c0,0,8.623,127.55,14.588,276.891l147.451,83.367c1.192,0.688,2.354,1.212,3.477,1.571v4.181
		L1491.421,1243.564L1491.421,1243.564L1491.421,1243.564z"/>
	<path id="rectangle7" fill="#D9ECFF" d="M1476.172,958.701c9.116,5.264,16.515,18.291,16.515,29.077l-0.484,247.12
		c0,10.786-7.402,15.267-16.517,10.005l-147.451-83.369c-9.116-5.262-16.518-18.292-16.518-29.075l1.931-247.816
		c0-10.784,7.402-15.268,16.517-10.003L1476.172,958.701L1476.172,958.701z"/>
	<path id="rectangle8" fill="#C0DFFF" d="M1313.639,916.535l38.421,22.131l10.717,21.427l129.859,74.802l-0.441,199.95
		c0,10.81-7.399,15.313-16.517,10.048l-147.453-83.365c-9.115-5.262-16.517-18.311-16.517-29.119L1313.639,916.535L1313.639,916.535
		z"/>
	<g>
		<path id="screen18" fill="#94CBFF" d="M1454.078,1027.541c1.618,0.935,2.932,3.246,2.932,5.159v7.765
			c0,1.912-1.314,2.708-2.932,1.774l-111.876-64.501c-1.617-0.934-2.931-3.246-2.931-5.159l0.258-7.886
			c0-1.914,1.312-2.708,2.929-1.776L1454.078,1027.541L1454.078,1027.541z"/>
		<path id="screen19" fill="#94CBFF" d="M1454.078,1068.608c1.618,0.932,2.932,3.246,2.932,5.158v7.765
			c0,1.913-1.314,2.708-2.932,1.775l-111.876-64.501c-1.617-0.932-2.931-3.246-2.931-5.159l0.258-7.886
			c0-1.913,1.312-2.709,2.929-1.774L1454.078,1068.608z"/>
		<path id="screen20" fill="#94CBFF" d="M1454.078,988.879c1.618,0.935,2.932,3.246,2.932,5.159v7.764
			c0,1.913-1.314,2.708-2.932,1.776l-111.876-64.502c-1.617-0.933-2.931-3.246-2.931-5.159l0.258-7.886
			c0-1.913,1.312-2.71,2.929-1.778L1454.078,988.879z"/>
		<path id="screen21" fill="#94CBFF" d="M1454.078,1109.958c1.618,0.934,2.932,3.246,2.932,5.159v7.765
			c0,1.911-1.314,2.708-2.932,1.774l-111.876-64.501c-1.617-0.934-2.931-3.246-2.931-5.159l0.258-7.887
			c0-1.913,1.312-2.71,2.929-1.776L1454.078,1109.958z"/>
		<path id="screen22" fill="#94CBFF" d="M1454.078,1151.651c1.618,0.933,2.932,3.243,2.932,5.159v7.763
			c0,1.912-1.314,2.708-2.932,1.774l-111.876-64.499c-1.617-0.933-2.931-3.245-2.931-5.161l0.258-7.886
			c0-1.913,1.312-2.708,2.929-1.776L1454.078,1151.651z"/>
		<path id="screen23" fill="#94CBFF" d="M1454.078,1188.913c1.618,0.932,2.932,3.246,2.932,5.159v7.764
			c0,1.913-1.314,2.708-2.932,1.773l-111.876-64.499c-1.617-0.932-2.931-3.246-2.931-5.159l0.258-7.886
			c0-1.915,1.312-2.709,2.929-1.774L1454.078,1188.913z"/>
	</g>
</g>
<g>
	<path id="Folder3" fill="#B15CFF" d="M1264.443,923.121c2.923-2.082,7.209-1.921,12.109,0.906l49.059,28.324
		c4.853,2.8,9.702,8.092,12.938,14.939l9.702,20.544c1.079,2.489,2.697,4.045,4.312,4.98l118.065,68.162
		c8.626,4.981,16.172,18.054,16.172,28.014v161.848c0,4.909-1.508,8.409-4.039,10.228h-0.003c-0.392,0.282-0.811,0.525-1.254,0.724
		l-16.296,9.411v-14.156l-188.656-108.92c-9.165-5.291-16.173-17.429-16.173-28.013V939.65l-12.283-7.09L1264.443,923.121
		L1264.443,923.121L1264.443,923.121z"/>
	<g>
		<defs>
			<path id="SVGID_6_" d="M1264.443,923.121c2.923-2.082,7.209-1.921,12.109,0.906l49.059,28.324
				c4.853,2.8,9.702,8.092,12.938,14.939l9.702,20.544c1.079,2.489,2.697,4.045,4.312,4.98l118.065,68.162
				c8.626,4.981,16.172,18.054,16.172,28.014v161.848c0,4.909-1.508,8.409-4.039,10.228h-0.003
				c-0.392,0.282-0.811,0.525-1.254,0.724l-16.296,9.411v-14.156l-188.656-108.92c-9.165-5.291-16.173-17.429-16.173-28.013V939.65
				l-12.283-7.09L1264.443,923.121L1264.443,923.121L1264.443,923.121z"/>
		</defs>
		<clipPath id="SVGID_7_">
			<use xlink:href="#SVGID_6_"  overflow="visible"/>
		</clipPath>
		<g clip-path="url(#SVGID_7_)">
			<path fill="#C17EFF" d="M1267.084,918.562l-24.258,14.007l65.223,37.655l24.26-14.004L1267.084,918.562z"/>
			<path fill="#C17EFF" d="M1357.574,995.7l-25.265,14.589l117.578,67.883l25.266-14.587l-117.579-67.882V995.7z"/>
		</g>
	</g>
	<path id="Folder4" fill="#771EFF" d="M1453.077,1071.115l-118.062-68.165c-1.618-0.934-3.235-2.49-4.312-4.981l-9.705-20.54
		c-3.233-6.848-8.088-12.139-12.938-14.94L1259,934.164c-9.165-5.291-16.173-1.246-16.173,9.335v186.751
		c0,10.582,7.008,22.721,16.173,28.012l194.076,112.051c9.165,5.29,16.173,1.245,16.173-9.338v-161.85
		C1469.25,1089.166,1461.702,1076.094,1453.077,1071.115z"/>
</g>
<g>
	<path id="Folder5" fill="#B15CFF" d="M1237.065,938.93c2.927-2.082,7.209-1.921,12.11,0.907l49.057,28.324
		c4.853,2.801,9.705,8.092,12.94,14.939l9.702,20.542c1.079,2.492,2.696,4.047,4.315,4.98l118.062,68.166
		c8.625,4.98,16.172,18.051,16.172,28.013v161.847c0,4.91-1.508,8.411-4.039,10.227l0,0c-0.394,0.285-0.813,0.526-1.256,0.728
		l-16.296,9.407v-14.153l-188.656-108.92c-9.165-5.291-16.173-17.431-16.173-28.013V955.459l-12.283-7.092L1237.065,938.93
		L1237.065,938.93L1237.065,938.93z"/>
	<g>
		<defs>
			<path id="SVGID_8_" d="M1237.065,938.93c2.927-2.082,7.209-1.921,12.11,0.907l49.057,28.324
				c4.853,2.801,9.705,8.092,12.94,14.939l9.702,20.542c1.079,2.492,2.696,4.047,4.315,4.98l118.062,68.166
				c8.625,4.98,16.172,18.051,16.172,28.013v161.847c0,4.91-1.508,8.411-4.039,10.227l0,0c-0.394,0.285-0.813,0.526-1.256,0.728
				l-16.296,9.407v-14.153l-188.656-108.92c-9.165-5.291-16.173-17.431-16.173-28.013V955.459l-12.283-7.092L1237.065,938.93
				L1237.065,938.93L1237.065,938.93z"/>
		</defs>
		<clipPath id="SVGID_9_">
			<use xlink:href="#SVGID_8_"  overflow="visible"/>
		</clipPath>
		<g clip-path="url(#SVGID_9_)">
			<path fill="#C17EFF" d="M1239.707,934.37l-24.258,14.007l65.225,37.656l24.258-14.005L1239.707,934.37z"/>
			<path fill="#C17EFF" d="M1330.197,1011.519l-25.266,14.589l117.576,67.882l25.268-14.586L1330.197,1011.519L1330.197,1011.519z"
				/>
		</g>
	</g>
	<path id="Folder6" fill="#771EFF" d="M1425.688,1086.92l-118.062-68.165c-1.617-0.932-3.233-2.489-4.312-4.98l-9.705-20.542
		c-3.233-6.847-8.085-12.139-12.938-14.939l-49.057-28.325c-9.164-5.291-16.173-1.243-16.173,9.339v186.748
		c0,10.581,7.009,22.72,16.173,28.012l194.074,112.051c9.165,5.291,16.173,1.246,16.173-9.338v-161.85
		C1441.861,1104.973,1434.315,1091.901,1425.688,1086.92z"/>
</g>
<g>
	<path id="Folder7" fill="#B15CFF" d="M1208.423,955.455c2.927-2.081,7.21-1.921,12.113,0.909l49.057,28.323
		c4.852,2.803,9.703,8.093,12.938,14.941l9.705,20.542c1.078,2.489,2.694,4.046,4.312,4.98l118.062,68.162
		c8.626,4.98,16.173,18.052,16.173,28.013v161.85c0,4.907-1.507,8.409-4.038,10.226l-0.003,0.001
		c-0.393,0.283-0.813,0.526-1.254,0.725l-16.299,9.408v-14.153l-188.656-108.92c-9.165-5.29-16.173-17.429-16.173-28.013V971.985
		l-12.283-7.091L1208.423,955.455L1208.423,955.455L1208.423,955.455z"/>
	<g>
		<defs>
			<path id="SVGID_10_" d="M1208.423,955.455c2.927-2.081,7.21-1.921,12.113,0.909l49.057,28.323
				c4.852,2.803,9.703,8.093,12.938,14.941l9.705,20.542c1.078,2.489,2.694,4.046,4.312,4.98l118.062,68.162
				c8.626,4.98,16.173,18.052,16.173,28.013v161.85c0,4.907-1.507,8.409-4.038,10.226l-0.003,0.001
				c-0.393,0.283-0.813,0.526-1.254,0.725l-16.299,9.408v-14.153l-188.656-108.92c-9.165-5.29-16.173-17.429-16.173-28.013V971.985
				l-12.283-7.091L1208.423,955.455L1208.423,955.455L1208.423,955.455z"/>
		</defs>
		<clipPath id="SVGID_11_">
			<use xlink:href="#SVGID_10_"  overflow="visible"/>
		</clipPath>
		<g clip-path="url(#SVGID_11_)">
			<path fill="#C17EFF" d="M1211.066,950.9l-24.257,14.004l65.222,37.658l24.26-14.004L1211.066,950.9z"/>
			<path fill="#C17EFF" d="M1301.556,1028.045l-25.265,14.585l117.576,67.884l25.268-14.589l-117.579-67.883V1028.045z"/>
		</g>
	</g>
	<path id="Folder8" fill="#771EFF" d="M1397.058,1103.457l-118.062-68.164c-1.618-0.935-3.235-2.492-4.312-4.98l-9.705-20.543
		c-3.235-6.848-8.088-12.139-12.939-14.94l-49.059-28.324c-9.163-5.291-16.172-1.246-16.172,9.338v186.748
		c0,10.582,7.008,22.723,16.172,28.014l194.078,112.048c9.163,5.291,16.172,1.246,16.172-9.338v-161.85
		C1413.23,1121.508,1405.684,1108.436,1397.058,1103.457z"/>
</g>
<g>
	<path id="Folder9" fill="#B15CFF" d="M1181.947,970.749c2.926-2.083,7.209-1.921,12.109,0.906l49.059,28.326
		c4.85,2.799,9.702,8.092,12.938,14.938l9.705,20.543c1.077,2.49,2.694,4.047,4.312,4.98l118.062,68.164
		c8.626,4.98,16.172,18.054,16.172,28.013v161.847c0,4.91-1.508,8.413-4.039,10.229l0,0c-0.393,0.282-0.813,0.525-1.255,0.725
		l-16.297,9.407v-14.152l-188.656-108.92c-9.164-5.292-16.173-17.431-16.173-28.012V987.279l-12.282-7.091L1181.947,970.749
		L1181.947,970.749L1181.947,970.749z"/>
	<g>
		<defs>
			<path id="SVGID_12_" d="M1181.947,970.749c2.926-2.083,7.209-1.921,12.109,0.906l49.059,28.326
				c4.85,2.799,9.702,8.092,12.938,14.938l9.705,20.543c1.077,2.49,2.694,4.047,4.312,4.98l118.062,68.164
				c8.626,4.98,16.172,18.054,16.172,28.013v161.847c0,4.91-1.508,8.413-4.039,10.229l0,0c-0.393,0.282-0.813,0.525-1.255,0.725
				l-16.297,9.407v-14.152l-188.656-108.92c-9.164-5.292-16.173-17.431-16.173-28.012V987.279l-12.282-7.091L1181.947,970.749
				L1181.947,970.749L1181.947,970.749z"/>
		</defs>
		<clipPath id="SVGID_13_">
			<use xlink:href="#SVGID_12_"  overflow="visible"/>
		</clipPath>
		<g clip-path="url(#SVGID_13_)">
			<path fill="#C17EFF" d="M1184.59,966.193l-24.26,14.007l65.225,37.656l24.258-14.005L1184.59,966.193L1184.59,966.193z"/>
			<path fill="#C17EFF" d="M1275.079,1043.338l-25.266,14.588l117.577,67.883l25.266-14.587L1275.079,1043.338L1275.079,1043.338z"
				/>
		</g>
	</g>
	<path id="Folder10" fill="#771EFF" d="M1370.58,1118.738l-118.062-68.163c-1.617-0.933-3.235-2.489-4.312-4.98l-9.702-20.543
		c-3.238-6.846-8.088-12.139-12.94-14.94l-49.059-28.321c-9.162-5.293-16.17-1.246-16.17,9.338v186.748
		c0,10.582,7.008,22.72,16.17,28.012l194.076,112.051c9.164,5.29,16.173,1.243,16.173-9.338v-161.85
		C1386.753,1136.792,1379.205,1123.718,1370.58,1118.738z"/>
	<path id="Folder11" fill="#6300FA" d="M1386.752,1181.111L1160.33,1054.21v123.67c0,10.582,7.009,22.721,16.173,28.012
		l194.076,112.051c9.163,5.29,16.172,1.246,16.172-9.338V1181.111z"/>
	<path id="Folder12" fill="#6300FA" d="M1238.01,1241.401l50.395-170.103l-19.902-11.492c-1.616-0.932-68.226,159.81-59.059,165.101
		L1238.01,1241.401z"/>
</g>
<g>
	<path fill="#A1D1FF" d="M1106.602,1051.549l263.39,152.069v171.559l-263.39-152.069V1051.549z"/>
	<path fill="#8CC7FF" d="M1106.602,1051.549l117.286,67.714l14.411,179.878l-131.696-76.034V1051.549L1106.602,1051.549z"/>
	<path fill="#C2E1FF" d="M1369.989,1203.614l231.824-133.845l-24.774,185.864l-207.051,119.54V1203.614z"/>
	<path fill="#A2D1FF" d="M1583.299,1080.463l18.514-10.69l-24.775,185.864l-16.851,9.728l23.113-184.903H1583.299z"/>
	<path fill="#DFEFFF" d="M1362.711,1199.413l240.379-138.781l-1.268,9.14l-231.83,133.846L1362.711,1199.413z"/>
	<path fill="#DFEFFF" d="M1106.602,1051.549l7.282-4.205l263.393,152.069l-7.285,4.204L1106.602,1051.549z"/>
</g>
<g>
	<path fill="#C167FF" d="M1212.137,1161.615l47.648,27.511v25.613l-47.648-27.511V1161.615z"/>
	<path fill="#AA2EFF" d="M1259.773,1189.13l13.738-7.932v25.614l-13.738,7.931V1189.13z"/>
	<path fill="#FEEBFF" d="M1225.997,1153.758l47.517,27.433l-13.738,7.932l-47.518-27.435L1225.997,1153.758z"/>
	<path fill="#D9A2FF" d="M1225.997,1153.758l46.31,26.738l-12.526,7.23l-46.312-26.736L1225.997,1153.758z"/>
</g>
<g>
	<path fill="#CFE7FF" d="M1116.931,1009.948c11.17,2.163,8.978,44.633,13.394,75.644c0,0,47.71,61.95,42.029,62.625
		c-30.606,18.649-75.887-80.435-73.251-105.207c1.295-12.134,1.335-20.267,9.336-29.155c1.52-1.689,3.799-2.525,5.864-3.474
		C1115.111,1010.007,1116.045,1009.977,1116.931,1009.948L1116.931,1009.948z"/>
	<path fill="#000847" d="M1163.988,1376.065c0,0,10.016,2.308,7.432,8.43c-2.565,6.149-18.065,19.915-19.667,23.807
		c-1.634,3.862-10.801,17.906-14.017,16.624c-3.245-1.301-23.938,3.231-14.627-27.858
		C1127.649,1381.917,1149.808,1375.404,1163.988,1376.065z"/>
	<path fill="#000847" d="M1174.614,1442.221c0,0,7.169,11.487,19.954,7.606c12.787-3.89,6.688-9.345,34.162-18.294
		c27.528-8.973,20.115-26.336,17.819-28.746c-2.249-2.367-21.153,2.695-27.197,4.615c-6.026,1.904-17.39,5.638-17.39,5.638
		l-27.348,9.334V1442.221L1174.614,1442.221z"/>
	<path fill="#000F71" d="M1123.605,1164.86c0,0,3.145,108.406,3.145,118.714c0,10.307-10.572,78.056-3.645,113.498
		c0,0,15.7,16.595,33.33-3.429c0,0,1.959-35.299,4.616-68.987c1.852-23.479,4.038-46.177,6.136-55.593
		c5.1-22.939,3.397-93.133,3.397-93.133L1123.605,1164.86z"/>
	<path fill="#000F71" d="M1158.612,1177.865c0,0,17.87,89.049,16.955,147.948c0,0-4.762,86.021-2.029,102.788
		c0,0,37.512,9.314,41.282-8.352c0,0-0.972-102.359,0-123.753c0.913-21.393,3.128-81.045-5.344-115.474
		C1201.031,1146.605,1158.612,1177.865,1158.612,1177.865L1158.612,1177.865z"/>
	<path fill="#000847" d="M1173.542,1428.599c-5.803-49.842,2.029-102.786,2.029-102.786c3.167-97.078-39.465-81.281-37.787-137.875
		l45.334,12.492c0,0,16.679,43.842,14.134,109.597c-1.978,50.892-2.791,100.935-3.065,121.017
		C1183.829,1431.13,1173.542,1428.599,1173.542,1428.599z"/>
	<path fill="#000847" d="M1123.106,1397.066c-6.477-49.222,3.643-102.026,3.643-112.335c0-9.826-13.829-69.328-3.145-119.207
		l20.134,15.494c0,0,6.386,65.416,0,102.677c-5.82,33.908-2.08,99.913-4.914,118.86
		C1127.688,1402.554,1123.106,1397.066,1123.106,1397.066z"/>
	<path fill="#EBF5FF" d="M1113.823,1009.537c0,0-17.207,9.027-6.762,38.383c10.438,29.38,13.739,107.576,11.567,115.142
		c0,0-2.439,24.387,53.488,37.786c0,0,42.918,3.831,39.787-27.062c-6.629-65.45-14.043-77.807-13.123-89.416
		c0.943-11.624,7.439-34.926-21.852-49.992C1147.63,1019.297,1132.339,1008.034,1113.823,1009.537L1113.823,1009.537z"/>
	<path fill="#CFE7FF" d="M1198.779,1084.37c-0.249,3.134,1.961,8.088,3.605,15.351c5.85,25.903,7.789,48.568,9.679,77.198
		c1.068,16.099-16.888,23.037-29.894,23.879c-4.423-13.365,15.673-67.621,0.622-95.24c-6.309-11.582-23.266-55.242,4.411-34.151
		C1206.636,1086.216,1199.598,1074.054,1198.779,1084.37z"/>
	<path fill="#EFB185" d="M1134.105,994.518c0,0,2.15,15.412-2.955,25.175c-4.643,8.868,31.9,16.148,32.606,7.999
		c0.058-0.863-7.171-14.028,1.294-29.959C1169.481,989.402,1134.105,994.518,1134.105,994.518L1134.105,994.518z"/>
	<path fill="#DD9569" d="M1131.337,1020.243c3.793-7.289,3.599-17.623,3.224-22.473l26.839,12.648l-0.008,0.079
		c-0.97,0.244-18.804,5.157-22.437,18.125C1133.44,1026.485,1129.663,1023.471,1131.337,1020.243L1131.337,1020.243z"/>
	<path fill="#EFB185" d="M1170.606,952.938c0,0,6.283,14.707,5.345,27.511c-0.287,3.906,1.051,5.032,2.18,7.874
		c2.292,5.769-1.123,4.163-1.668,8.543c-0.325,2.618,1.058,12.476-3.112,15.279c-4.896,3.292-12.88,5.852-24.802,1.773
		c-14.418-4.959-29.908-24.361-24.156-42.208c5.812-17.85,24.368-32.785,46.211-18.771H1170.606z"/>
	<path fill="#E6A376" d="M1125.428,990.861c5.424-16.044,19.301-35.461,19.149-36.465c-0.091-0.624,4.588-3.683,9.899-6.946
		c5.06,0.173,10.462,1.862,16.13,5.491c0,0,1.688,3.919,3.171,9.496c-3.338,3.871-10.203,8.347-11.214,11.617
		c-2.29,7.693-0.661,19.227,1.697,24.303c2.367,5.058-6.664,12.719-4.664,17.209l0.077,0.615c-3.289-0.182-6.994-0.859-11.125-2.258
		C1139.305,1010.735,1129.704,1001.658,1125.428,990.861L1125.428,990.861z"/>
	<path fill="#952500" d="M1171.881,953.623c0,0,1.892,6.648-7.246,12.18c-7.167,4.359-6.543,15.955-6.132,18.198
		c0.397,2.244,2.806,12.447,1.933,13.78c-1.705,2.539-7.76-5.204-10.538-4.619c-7.091,1.514-4.185,8.104,2.425,14.943
		c7.024,7.272-11.024,10.658-19.529,4.716c-4.542-3.149-6.185-5.06-12.279-16.57c-8.833-16.784-9.663-37.151,10.167-48.425
		C1150.491,936.572,1165.786,945.055,1171.881,953.623L1171.881,953.623z"/>
	<path fill="#B32D00" d="M1149.592,983.061c-16.74,7.224-33.703,7.422-35.037,2.291c-2.942-11.281-1.125-24.927,8.125-33.339
		c2.467-2.243,5.334-4.114,8.388-5.457c6.258-2.755,13.945-4.354,20.868-4.223c10.329,0.197,18.661,5.029,24.408,13.554
		c2.467,3.66,3.961,7.593,0.38,10.86C1170.96,972.007,1163.529,977.047,1149.592,983.061z"/>
	<path fill="#EFB185" d="M1176.618,1043.464c9.978-5.468,33.578,23.86,56.762,44.965l37.448-45.727
		c0.813-3.584,2.366-11.056,2.273-15.179c-0.149-5.551,3.31-9.092,3.902-10.021c5.435-8.551,8.983-9.984,16.422-4.257
		c7.066,5.443,4.405,7.478,9.389,15.372c1.203,1.906-2.222,7.697-4.102,9.814c-2.008,2.26-4.531,2.106-6.029,2.39
		c-2.279,4.125-5.763,7.037-8.729,10.148c-11.661,33.882-39.107,62.084-39.107,62.084v-0.037c-3.085,2.856-7.877,3.445-7.877,3.445
		c-22.616-4.609-44.46-26.514-60.127-49.345C1165.61,1050.793,1176.618,1043.464,1176.618,1043.464L1176.618,1043.464z"/>
	<path fill="#EBF5FF" d="M1173.77,1040.957c19.176-12.569,37.689,24.818,60.873,45.924l36.177-44.175
		c0.813-3.583,17.769,4.805,13.812,8.955c-20.384,62.09-47.107,71.677-47.107,71.677c-22.618-4.611-42.973-23.891-62.922-43.094
		C1154.748,1061.128,1173.77,1040.957,1173.77,1040.957L1173.77,1040.957z"/>
</g>
<g id="Cloud">
	<path fill="#8EC7FF" d="M1586.647,345.264c10.154-5.799,16.439-18.231,16.439-35.919c0-35.37-25.128-78.442-56.076-96.125
		c-2.409-1.377-4.783-2.557-7.114-3.553c-10.229-48.137-44.172-98.627-84.421-121.624c-24.671-14.096-46.972-15.157-62.896-5.472
		l0,0l-41.939,23.965l19.322,11.042c-0.64,2.942-1.138,6.036-1.485,9.27c-2.679-2.045-5.431-3.884-8.233-5.487
		c-13.608-7.776-25.937-8.532-34.886-3.479l0,0l-44.052,25.172l25.283,14.446l4.374-2.501c2.317,30.087,23.512,64.753,49.282,79.477
		c0.43,0.247,0.86,0.486,1.286,0.717v0.157l183.074,104.607c0.45,0.279,0.898,0.551,1.349,0.818l-3.209,1.832v27.742
		L1586.647,345.264L1586.647,345.264L1586.647,345.264z"/>
	<g>
		<defs>
			<path id="SVGID_14_" d="M1586.647,345.264c10.154-5.799,16.439-18.231,16.439-35.919c0-35.37-25.128-78.442-56.076-96.125
				c-2.409-1.377-4.783-2.557-7.114-3.553c-10.229-48.137-44.172-98.627-84.421-121.624c-24.671-14.096-46.972-15.157-62.896-5.472
				l0,0l-41.939,23.965l19.322,11.042c-0.64,2.942-1.138,6.036-1.485,9.27c-2.679-2.045-5.431-3.884-8.233-5.487
				c-13.608-7.776-25.937-8.532-34.886-3.479l0,0l-44.052,25.172l25.283,14.446l4.374-2.501
				c2.317,30.087,23.512,64.753,49.282,79.477c0.43,0.247,0.86,0.486,1.286,0.717v0.157l183.074,104.607
				c0.45,0.279,0.898,0.551,1.349,0.818l-3.209,1.832v27.742L1586.647,345.264L1586.647,345.264L1586.647,345.264z"/>
		</defs>
		<clipPath id="SVGID_15_">
			<use xlink:href="#SVGID_14_"  overflow="visible"/>
		</clipPath>
		<g clip-path="url(#SVGID_15_)">
			
				<linearGradient id="SVGID_16_" gradientUnits="userSpaceOnUse" x1="41.2154" y1="1437.5654" x2="43.3249" y2="1437.5779" gradientTransform="matrix(-182.2392 56.0498 56.6341 180.36 -72231.3438 -261473.4062)">
				<stop  offset="0" style="stop-color:#D0E8FF"/>
				<stop  offset="0.51" style="stop-color:#ADD7FF"/>
				<stop  offset="1" style="stop-color:#40A2FF"/>
			</linearGradient>
			<path fill="url(#SVGID_16_)" d="M1428.215,139.901l112.994-64.564v134.905l-112.994,64.565V139.901z"/>
		</g>
	</g>
	<path fill="#67B4FF" d="M1311.568,160.341c-0.266-1.795-0.466-3.578-0.602-5.344l-4.374,2.501l-25.282-14.446l44.052-25.172h0.003
		c4.889-2.763,10.789-3.788,17.357-2.882l32.888,18.793l-55.252,31.571L1311.568,160.341L1311.568,160.341z"/>
	<g>
		<defs>
			<path id="SVGID_17_" d="M1311.568,160.341c-0.266-1.795-0.466-3.578-0.602-5.344l-4.374,2.501l-25.282-14.446l44.052-25.172
				h0.003c4.889-2.763,10.789-3.788,17.357-2.882l32.888,18.793l-55.252,31.571L1311.568,160.341L1311.568,160.341z"/>
		</defs>
		<clipPath id="SVGID_18_">
			<use xlink:href="#SVGID_17_"  overflow="visible"/>
		</clipPath>
		<g clip-path="url(#SVGID_18_)">
			
				<linearGradient id="SVGID_19_" gradientUnits="userSpaceOnUse" x1="41.2154" y1="1437.5654" x2="43.3249" y2="1437.5779" gradientTransform="matrix(-182.2392 56.0498 56.6341 180.36 -72231.3438 -261473.4062)">
				<stop  offset="0" style="stop-color:#D0E8FF"/>
				<stop  offset="0.51" style="stop-color:#ADD7FF"/>
				<stop  offset="1" style="stop-color:#40A2FF"/>
			</linearGradient>
			<path fill="url(#SVGID_19_)" d="M1428.215,139.901l112.994-64.564v134.905l-112.994,64.565V139.901z"/>
		</g>
	</g>
	<path fill="#67B4FF" d="M1603.047,306.931l-58.131,33.216c0.346,0.212,0.692,0.421,1.04,0.627l-3.209,1.832v27.742l43.9-25.084
		c10.154-5.799,16.439-18.231,16.439-35.919C1603.086,308.547,1603.072,307.743,1603.047,306.931z"/>
	<g>
		<defs>
			<path id="SVGID_20_" d="M1603.047,306.931l-58.131,33.216c0.346,0.212,0.692,0.421,1.04,0.627l-3.209,1.832v27.742l43.9-25.084
				c10.154-5.799,16.439-18.231,16.439-35.919C1603.086,308.547,1603.072,307.743,1603.047,306.931z"/>
		</defs>
		<clipPath id="SVGID_21_">
			<use xlink:href="#SVGID_20_"  overflow="visible"/>
		</clipPath>
		<g clip-path="url(#SVGID_21_)">
			
				<linearGradient id="SVGID_22_" gradientUnits="userSpaceOnUse" x1="41.2154" y1="1437.5654" x2="43.3249" y2="1437.5779" gradientTransform="matrix(-182.2392 56.0498 56.6341 180.36 -72231.3438 -261473.4062)">
				<stop  offset="0" style="stop-color:#D0E8FF"/>
				<stop  offset="0.51" style="stop-color:#ADD7FF"/>
				<stop  offset="1" style="stop-color:#40A2FF"/>
			</linearGradient>
			<path fill="url(#SVGID_22_)" d="M1428.215,139.901l112.994-64.564v134.905l-112.994,64.565V139.901z"/>
			
				<linearGradient id="SVGID_23_" gradientUnits="userSpaceOnUse" x1="41.2179" y1="1437.1202" x2="43.3274" y2="1437.1328" gradientTransform="matrix(-182.2392 56.0498 56.6341 180.36 -72231.3438 -261473.4062)">
				<stop  offset="0" style="stop-color:#D0E8FF"/>
				<stop  offset="0.51" style="stop-color:#ADD7FF"/>
				<stop  offset="1" style="stop-color:#40A2FF"/>
			</linearGradient>
			<path fill="url(#SVGID_23_)" d="M1330.916,108.258l44.686,25.534l-55.252,31.571l-44.687-25.532L1330.916,108.258z"/>
		</g>
	</g>
	<path fill="#A4D2FF" d="M1482.857,108.681l-54.642,31.221v133.547l1.189,0.679l111.804-63.884
		c-0.437-0.198-0.873-0.391-1.308-0.576C1532.102,172.963,1510.514,134.89,1482.857,108.681z"/>
	<g>
		<defs>
			<path id="SVGID_24_" d="M1482.857,108.681l-54.642,31.221v133.547l1.189,0.679l111.804-63.884
				c-0.437-0.198-0.873-0.391-1.308-0.576C1532.102,172.963,1510.514,134.89,1482.857,108.681z"/>
		</defs>
		<clipPath id="SVGID_25_">
			<use xlink:href="#SVGID_24_"  overflow="visible"/>
		</clipPath>
		<g clip-path="url(#SVGID_25_)">
			
				<linearGradient id="SVGID_26_" gradientUnits="userSpaceOnUse" x1="41.2112" y1="1438.5292" x2="43.3177" y2="1438.5416" gradientTransform="matrix(-182.2392 56.0498 56.6341 180.36 -72231.3438 -261473.4062)">
				<stop  offset="0" style="stop-color:#D0E8FF"/>
				<stop  offset="0.51" style="stop-color:#ADD7FF"/>
				<stop  offset="1" style="stop-color:#40A2FF"/>
			</linearGradient>
			<path fill="url(#SVGID_26_)" d="M1541.209,342.266l65.774-37.583v28.962l-65.774,37.584V342.266z"/>
			
				<linearGradient id="SVGID_27_" gradientUnits="userSpaceOnUse" x1="41.2179" y1="1437.1202" x2="43.3274" y2="1437.1328" gradientTransform="matrix(-182.2392 56.0498 56.6341 180.36 -72231.3438 -261473.4062)">
				<stop  offset="0" style="stop-color:#D0E8FF"/>
				<stop  offset="0.51" style="stop-color:#ADD7FF"/>
				<stop  offset="1" style="stop-color:#40A2FF"/>
			</linearGradient>
			<path fill="url(#SVGID_27_)" d="M1330.916,108.258l44.686,25.534l-55.252,31.571l-44.687-25.532L1330.916,108.258z"/>
		</g>
	</g>
	<path fill="#D9ECFF" d="M1495.986,234.761c-10.229-48.137-44.174-98.627-84.421-121.624c-44.914-25.664-81.975-8.121-86.998,38.803
		c-2.679-2.044-5.428-3.883-8.233-5.488c-27.315-15.606-49.492-2.936-49.492,28.28c0,31.215,22.177,69.23,49.492,84.837
		c0.43,0.246,0.86,0.487,1.289,0.717v0.157l183.072,104.607c0.797,0.494,1.599,0.971,2.402,1.43c0.805,0.46,1.605,0.898,2.403,1.315
		l0.007,0.003l0,0c29.836,15.603,53.667,1.085,53.667-33.36c0-35.369-25.126-78.441-56.076-96.126
		C1500.691,236.936,1498.32,235.755,1495.986,234.761L1495.986,234.761z"/>
</g>
<g id="Cloud1">
	<path fill="#8EC7FF" d="M1717.02,531.799c5.035-2.875,8.152-9.041,8.152-17.812c0-17.543-12.462-38.902-27.811-47.673
		c-1.193-0.684-2.37-1.269-3.525-1.763c-5.075-23.872-21.909-48.912-41.87-60.318c-12.233-6.991-23.294-7.516-31.193-2.713l0,0
		l-20.799,11.884l9.583,5.476c-0.317,1.46-0.564,2.995-0.736,4.598c-1.327-1.013-2.691-1.925-4.084-2.721
		c-6.746-3.856-12.863-4.231-17.301-1.724l0,0l-21.848,12.483l12.539,7.164l2.17-1.239c1.149,14.921,11.659,32.113,24.439,39.414
		c0.215,0.124,0.429,0.243,0.639,0.357v0.078l90.794,51.878c0.223,0.138,0.446,0.274,0.67,0.406l-1.592,0.908v13.759l21.773-12.441
		l0,0H1717.02z"/>
	<g>
		<defs>
			<path id="SVGID_28_" d="M1717.02,531.799c5.035-2.875,8.152-9.041,8.152-17.812c0-17.543-12.462-38.902-27.811-47.673
				c-1.193-0.684-2.37-1.269-3.525-1.763c-5.075-23.872-21.909-48.912-41.87-60.318c-12.233-6.991-23.294-7.516-31.193-2.713l0,0
				l-20.799,11.884l9.583,5.476c-0.317,1.46-0.564,2.995-0.736,4.598c-1.327-1.013-2.691-1.925-4.084-2.721
				c-6.746-3.856-12.863-4.231-17.301-1.724l0,0l-21.848,12.483l12.539,7.164l2.17-1.239c1.149,14.921,11.659,32.113,24.439,39.414
				c0.215,0.124,0.429,0.243,0.639,0.357v0.078l90.794,51.878c0.223,0.138,0.446,0.274,0.67,0.406l-1.592,0.908v13.759
				l21.773-12.441l0,0H1717.02z"/>
		</defs>
		<clipPath id="SVGID_29_">
			<use xlink:href="#SVGID_28_"  overflow="visible"/>
		</clipPath>
		<g clip-path="url(#SVGID_29_)">
			
				<linearGradient id="SVGID_30_" gradientUnits="userSpaceOnUse" x1="41.4812" y1="1435.723" x2="43.5883" y2="1435.7355" gradientTransform="matrix(-90.3803 27.7975 28.0871 89.4483 -34816.4258 -129157.9688)">
				<stop  offset="0" style="stop-color:#D0E8FF"/>
				<stop  offset="0.51" style="stop-color:#ADD7FF"/>
				<stop  offset="1" style="stop-color:#40A2FF"/>
			</linearGradient>
			<path fill="url(#SVGID_30_)" d="M1638.442,429.953l56.038-32.021v66.905l-56.038,32.021V429.953z"/>
		</g>
	</g>
	<path fill="#67B4FF" d="M1580.601,440.089c-0.133-0.891-0.231-1.774-0.299-2.649l-2.169,1.239l-12.538-7.164l21.846-12.483l0,0
		c2.426-1.37,5.351-1.879,8.61-1.43l16.311,9.321l-27.403,15.657L1580.601,440.089L1580.601,440.089z"/>
	<g>
		<defs>
			<path id="SVGID_31_" d="M1580.601,440.089c-0.133-0.891-0.231-1.774-0.299-2.649l-2.169,1.239l-12.538-7.164l21.846-12.483l0,0
				c2.426-1.37,5.351-1.879,8.61-1.43l16.311,9.321l-27.403,15.657L1580.601,440.089L1580.601,440.089z"/>
		</defs>
		<clipPath id="SVGID_32_">
			<use xlink:href="#SVGID_31_"  overflow="visible"/>
		</clipPath>
		<g clip-path="url(#SVGID_32_)">
			
				<linearGradient id="SVGID_33_" gradientUnits="userSpaceOnUse" x1="41.4812" y1="1435.723" x2="43.5883" y2="1435.7355" gradientTransform="matrix(-90.3803 27.7975 28.0871 89.4483 -34816.4258 -129157.9688)">
				<stop  offset="0" style="stop-color:#D0E8FF"/>
				<stop  offset="0.51" style="stop-color:#ADD7FF"/>
				<stop  offset="1" style="stop-color:#40A2FF"/>
			</linearGradient>
			<path fill="url(#SVGID_33_)" d="M1638.442,429.953l56.038-32.021v66.905l-56.038,32.021V429.953z"/>
		</g>
	</g>
	<path fill="#67B4FF" d="M1725.15,512.79l-28.829,16.472c0.172,0.105,0.345,0.208,0.518,0.311l-1.592,0.908v13.759l21.77-12.441
		c5.037-2.875,8.153-9.041,8.153-17.812c0-0.397-0.006-0.795-0.021-1.199V512.79z"/>
	<g>
		<defs>
			<path id="SVGID_34_" d="M1725.15,512.79l-28.829,16.472c0.172,0.105,0.345,0.208,0.518,0.311l-1.592,0.908v13.759l21.77-12.441
				c5.037-2.875,8.153-9.041,8.153-17.812c0-0.397-0.006-0.795-0.021-1.199V512.79z"/>
		</defs>
		<clipPath id="SVGID_35_">
			<use xlink:href="#SVGID_34_"  overflow="visible"/>
		</clipPath>
		<g clip-path="url(#SVGID_35_)">
			
				<linearGradient id="SVGID_36_" gradientUnits="userSpaceOnUse" x1="41.4812" y1="1435.723" x2="43.5883" y2="1435.7355" gradientTransform="matrix(-90.3803 27.7975 28.0871 89.4483 -34816.4258 -129157.9688)">
				<stop  offset="0" style="stop-color:#D0E8FF"/>
				<stop  offset="0.51" style="stop-color:#ADD7FF"/>
				<stop  offset="1" style="stop-color:#40A2FF"/>
			</linearGradient>
			<path fill="url(#SVGID_36_)" d="M1638.442,429.953l56.038-32.021v66.905l-56.038,32.021V429.953z"/>
			
				<linearGradient id="SVGID_37_" gradientUnits="userSpaceOnUse" x1="41.4821" y1="1435.2778" x2="43.5915" y2="1435.2904" gradientTransform="matrix(-90.3803 27.7975 28.0871 89.4483 -34816.4258 -129157.9688)">
				<stop  offset="0" style="stop-color:#D0E8FF"/>
				<stop  offset="0.51" style="stop-color:#ADD7FF"/>
				<stop  offset="1" style="stop-color:#40A2FF"/>
			</linearGradient>
			<path fill="url(#SVGID_37_)" d="M1590.189,414.259l22.162,12.664l-27.403,15.657l-22.16-12.664L1590.189,414.259z"/>
		</g>
	</g>
	<path fill="#A4D2FF" d="M1665.546,414.468l-27.099,15.485v66.229l0.589,0.338l55.45-31.683c-0.218-0.099-0.434-0.194-0.651-0.287
		C1689.969,446.349,1679.263,427.467,1665.546,414.468z"/>
	<g>
		<defs>
			<path id="SVGID_38_" d="M1665.546,414.468l-27.099,15.485v66.229l0.589,0.338l55.45-31.683c-0.218-0.099-0.434-0.194-0.651-0.287
				C1689.969,446.349,1679.263,427.467,1665.546,414.468z"/>
		</defs>
		<clipPath id="SVGID_39_">
			<use xlink:href="#SVGID_38_"  overflow="visible"/>
		</clipPath>
		<g clip-path="url(#SVGID_39_)">
			
				<linearGradient id="SVGID_40_" gradientUnits="userSpaceOnUse" x1="41.4753" y1="1436.6868" x2="43.5817" y2="1436.6992" gradientTransform="matrix(-90.3803 27.7975 28.0871 89.4483 -34816.4258 -129157.9688)">
				<stop  offset="0" style="stop-color:#D0E8FF"/>
				<stop  offset="0.51" style="stop-color:#ADD7FF"/>
				<stop  offset="1" style="stop-color:#40A2FF"/>
			</linearGradient>
			<path fill="url(#SVGID_40_)" d="M1694.483,530.312l32.618-18.638v14.364l-32.618,18.639V530.312z"/>
			
				<linearGradient id="SVGID_41_" gradientUnits="userSpaceOnUse" x1="41.4821" y1="1435.2778" x2="43.5915" y2="1435.2904" gradientTransform="matrix(-90.3803 27.7975 28.0871 89.4483 -34816.4258 -129157.9688)">
				<stop  offset="0" style="stop-color:#D0E8FF"/>
				<stop  offset="0.51" style="stop-color:#ADD7FF"/>
				<stop  offset="1" style="stop-color:#40A2FF"/>
			</linearGradient>
			<path fill="url(#SVGID_41_)" d="M1590.189,414.259l22.162,12.664l-27.403,15.657l-22.16-12.664L1590.189,414.259z"/>
		</g>
	</g>
	<path fill="#D9ECFF" d="M1672.059,476.996c-5.073-23.873-21.907-48.913-41.867-60.318c-22.274-12.728-40.654-4.028-43.145,19.245
		c-1.331-1.016-2.694-1.927-4.087-2.722c-13.545-7.74-24.543-1.456-24.543,14.024c0,15.48,10.998,34.335,24.543,42.075
		c0.215,0.121,0.429,0.241,0.641,0.356v0.076l90.793,51.881c0.395,0.245,0.795,0.482,1.192,0.708c0.4,0.229,0.796,0.447,1.192,0.653
		l0.003,0.002l0,0c14.797,7.738,26.616,0.538,26.616-16.546c0-17.541-12.462-38.901-27.811-47.673
		C1674.395,478.076,1673.216,477.491,1672.059,476.996L1672.059,476.996z"/>
</g>
<g id="Cloud2">
	<path fill="#8EC7FF" d="M787.562,665.557c6.37-3.637,10.312-11.437,10.312-22.531c0-22.189-15.764-49.208-35.176-60.302
		c-1.511-0.863-3.001-1.605-4.463-2.228c-6.417-30.199-27.711-61.871-52.96-76.298c-15.475-8.843-29.466-9.509-39.454-3.434l0,0
		l-26.31,15.032l12.122,6.929c-0.404,1.845-0.715,3.788-0.933,5.816c-1.678-1.283-3.404-2.436-5.165-3.443
		c-8.534-4.877-16.27-5.351-21.884-2.181l0,0l-27.635,15.79l15.86,9.062l2.744-1.567c1.454,18.873,14.75,40.62,30.915,49.856
		c0.272,0.157,0.542,0.307,0.81,0.451v0.097l114.843,65.623c0.282,0.173,0.564,0.344,0.849,0.513l-2.013,1.15v17.403l27.54-15.736
		l0,0H787.562z"/>
	<g>
		<defs>
			<path id="SVGID_42_" d="M787.562,665.557c6.37-3.637,10.312-11.437,10.312-22.531c0-22.189-15.764-49.208-35.176-60.302
				c-1.511-0.863-3.001-1.605-4.463-2.228c-6.417-30.199-27.711-61.871-52.96-76.298c-15.475-8.843-29.466-9.509-39.454-3.434l0,0
				l-26.31,15.032l12.122,6.929c-0.404,1.845-0.715,3.788-0.933,5.816c-1.678-1.283-3.404-2.436-5.165-3.443
				c-8.534-4.877-16.27-5.351-21.884-2.181l0,0l-27.635,15.79l15.86,9.062l2.744-1.567c1.454,18.873,14.75,40.62,30.915,49.856
				c0.272,0.157,0.542,0.307,0.81,0.451v0.097l114.843,65.623c0.282,0.173,0.564,0.344,0.849,0.513l-2.013,1.15v17.403l27.54-15.736
				l0,0H787.562z"/>
		</defs>
		<clipPath id="SVGID_43_">
			<use xlink:href="#SVGID_42_"  overflow="visible"/>
		</clipPath>
		<g clip-path="url(#SVGID_43_)">
			
				<linearGradient id="SVGID_44_" gradientUnits="userSpaceOnUse" x1="45.3698" y1="1436.0968" x2="47.4793" y2="1436.1093" gradientTransform="matrix(-114.3223 35.1611 35.5275 113.1435 -44992.7656 -163558.4531)">
				<stop  offset="0" style="stop-color:#D0E8FF"/>
				<stop  offset="0.51" style="stop-color:#ADD7FF"/>
				<stop  offset="1" style="stop-color:#40A2FF"/>
			</linearGradient>
			<path fill="url(#SVGID_44_)" d="M688.167,536.73l70.884-40.502v84.628l-70.884,40.502V536.73z"/>
		</g>
	</g>
	<path fill="#67B4FF" d="M614.998,549.552c-0.165-1.126-0.291-2.243-0.377-3.351l-2.744,1.567l-15.86-9.062l27.635-15.79l0,0
		c3.068-1.734,6.769-2.376,10.888-1.808l20.632,11.789l-34.662,19.806L614.998,549.552z"/>
	<g>
		<defs>
			<path id="SVGID_45_" d="M614.998,549.552c-0.165-1.126-0.291-2.243-0.377-3.351l-2.744,1.567l-15.86-9.062l27.635-15.79l0,0
				c3.068-1.734,6.769-2.376,10.888-1.808l20.632,11.789l-34.662,19.806L614.998,549.552z"/>
		</defs>
		<clipPath id="SVGID_46_">
			<use xlink:href="#SVGID_45_"  overflow="visible"/>
		</clipPath>
		<g clip-path="url(#SVGID_46_)">
			
				<linearGradient id="SVGID_47_" gradientUnits="userSpaceOnUse" x1="45.3698" y1="1436.0968" x2="47.4793" y2="1436.1093" gradientTransform="matrix(-114.3223 35.1611 35.5275 113.1435 -44992.7656 -163558.4531)">
				<stop  offset="0" style="stop-color:#D0E8FF"/>
				<stop  offset="0.51" style="stop-color:#ADD7FF"/>
				<stop  offset="1" style="stop-color:#40A2FF"/>
			</linearGradient>
			<path fill="url(#SVGID_47_)" d="M688.167,536.73l70.884-40.502v84.628l-70.884,40.502V536.73z"/>
		</g>
	</g>
	<path fill="#67B4FF" d="M797.846,641.51l-36.465,20.838c0.216,0.133,0.434,0.264,0.653,0.393l-2.012,1.15v17.403l27.539-15.736
		c6.368-3.637,10.312-11.437,10.312-22.531c0-0.502-0.011-1.007-0.025-1.516H797.846z"/>
	<g>
		<defs>
			<path id="SVGID_48_" d="M797.846,641.51l-36.465,20.838c0.216,0.133,0.434,0.264,0.653,0.393l-2.012,1.15v17.403l27.539-15.736
				c6.368-3.637,10.312-11.437,10.312-22.531c0-0.502-0.011-1.007-0.025-1.516H797.846z"/>
		</defs>
		<clipPath id="SVGID_49_">
			<use xlink:href="#SVGID_48_"  overflow="visible"/>
		</clipPath>
		<g clip-path="url(#SVGID_49_)">
			
				<linearGradient id="SVGID_50_" gradientUnits="userSpaceOnUse" x1="45.3698" y1="1436.0968" x2="47.4793" y2="1436.1093" gradientTransform="matrix(-114.3223 35.1611 35.5275 113.1435 -44992.7656 -163558.4531)">
				<stop  offset="0" style="stop-color:#D0E8FF"/>
				<stop  offset="0.51" style="stop-color:#ADD7FF"/>
				<stop  offset="1" style="stop-color:#40A2FF"/>
			</linearGradient>
			<path fill="url(#SVGID_50_)" d="M688.167,536.73l70.884-40.502v84.628l-70.884,40.502V536.73z"/>
			
				<linearGradient id="SVGID_51_" gradientUnits="userSpaceOnUse" x1="45.3723" y1="1435.6516" x2="47.4818" y2="1435.6642" gradientTransform="matrix(-114.3223 35.1611 35.5275 113.1435 -44992.7656 -163558.4531)">
				<stop  offset="0" style="stop-color:#D0E8FF"/>
				<stop  offset="0.51" style="stop-color:#ADD7FF"/>
				<stop  offset="1" style="stop-color:#40A2FF"/>
			</linearGradient>
			<path fill="url(#SVGID_51_)" d="M627.138,516.88l28.032,16.017l-34.663,19.806l-28.029-16.017L627.138,516.88L627.138,516.88z"/>
		</g>
	</g>
	<path fill="#A4D2FF" d="M722.445,517.146l-34.276,19.583v83.776l0.746,0.426l70.138-40.076c-0.276-0.123-0.55-0.245-0.822-0.36
		C753.338,557.471,739.797,533.587,722.445,517.146L722.445,517.146z"/>
	<g>
		<defs>
			<path id="SVGID_52_" d="M722.445,517.146l-34.276,19.583v83.776l0.746,0.426l70.138-40.076c-0.276-0.123-0.55-0.245-0.822-0.36
				C753.338,557.471,739.797,533.587,722.445,517.146L722.445,517.146z"/>
		</defs>
		<clipPath id="SVGID_53_">
			<use xlink:href="#SVGID_52_"  overflow="visible"/>
		</clipPath>
		<g clip-path="url(#SVGID_53_)">
			
				<linearGradient id="SVGID_54_" gradientUnits="userSpaceOnUse" x1="45.3631" y1="1437.0604" x2="47.4745" y2="1437.073" gradientTransform="matrix(-114.3223 35.1611 35.5275 113.1435 -44992.7656 -163558.4531)">
				<stop  offset="0" style="stop-color:#D0E8FF"/>
				<stop  offset="0.51" style="stop-color:#ADD7FF"/>
				<stop  offset="1" style="stop-color:#40A2FF"/>
			</linearGradient>
			<path fill="url(#SVGID_54_)" d="M759.059,663.677l41.26-23.575v18.167l-41.26,23.577V663.677z"/>
			
				<linearGradient id="SVGID_55_" gradientUnits="userSpaceOnUse" x1="45.3723" y1="1435.6516" x2="47.4818" y2="1435.6642" gradientTransform="matrix(-114.3223 35.1611 35.5275 113.1435 -44992.7656 -163558.4531)">
				<stop  offset="0" style="stop-color:#D0E8FF"/>
				<stop  offset="0.51" style="stop-color:#ADD7FF"/>
				<stop  offset="1" style="stop-color:#40A2FF"/>
			</linearGradient>
			<path fill="url(#SVGID_55_)" d="M627.138,516.88l28.032,16.017l-34.663,19.806l-28.029-16.017L627.138,516.88L627.138,516.88z"/>
		</g>
	</g>
	<path fill="#D9ECFF" d="M730.679,596.237c-6.418-30.197-27.711-61.872-52.96-76.296c-28.174-16.102-51.423-5.095-54.575,24.341
		c-1.679-1.283-3.404-2.436-5.165-3.443c-17.135-9.789-31.047-1.841-31.047,17.74c0,19.583,13.912,43.431,31.047,53.219
		c0.27,0.157,0.542,0.307,0.81,0.451v0.099l114.843,65.621c0.5,0.309,1.003,0.61,1.509,0.898c0.502,0.289,1.005,0.565,1.506,0.824
		l0.004,0.002l0,0c18.715,9.789,33.667,0.681,33.667-20.927c0-22.187-15.763-49.208-35.176-60.302
		C733.631,597.602,732.142,596.861,730.679,596.237L730.679,596.237z"/>
</g>
<g id="Cloud3">
	<path fill="#A6D3FF" d="M1263.202,1643.459c6.369-3.637,10.312-11.436,10.312-22.532c0-22.188-15.764-49.208-35.179-60.3
		c-1.511-0.863-3.001-1.604-4.463-2.228c-6.417-30.199-27.71-61.871-52.957-76.299c-15.477-8.843-29.467-9.508-39.456-3.433l0,0
		l-26.311,15.035l12.122,6.926c-0.401,1.845-0.713,3.787-0.932,5.814c-1.679-1.28-3.405-2.434-5.165-3.441
		c-8.535-4.875-16.27-5.352-21.882-2.181l0,0l-27.637,15.79l15.86,9.062l2.745-1.567c1.452,18.874,14.749,40.619,30.914,49.856
		c0.271,0.155,0.542,0.305,0.809,0.451v0.097l114.845,65.623c0.281,0.176,0.562,0.346,0.846,0.513l-2.012,1.15v17.402
		L1263.202,1643.459L1263.202,1643.459L1263.202,1643.459z"/>
	<g>
		<defs>
			<path id="SVGID_56_" d="M1263.202,1643.459c6.369-3.637,10.312-11.436,10.312-22.532c0-22.188-15.764-49.208-35.179-60.3
				c-1.511-0.863-3.001-1.604-4.463-2.228c-6.417-30.199-27.71-61.871-52.957-76.299c-15.477-8.843-29.467-9.508-39.456-3.433l0,0
				l-26.311,15.035l12.122,6.926c-0.401,1.845-0.713,3.787-0.932,5.814c-1.679-1.28-3.405-2.434-5.165-3.441
				c-8.535-4.875-16.27-5.352-21.882-2.181l0,0l-27.637,15.79l15.86,9.062l2.745-1.567c1.452,18.874,14.749,40.619,30.914,49.856
				c0.271,0.155,0.542,0.305,0.809,0.451v0.097l114.845,65.623c0.281,0.176,0.562,0.346,0.846,0.513l-2.012,1.15v17.402
				L1263.202,1643.459L1263.202,1643.459L1263.202,1643.459z"/>
		</defs>
		<clipPath id="SVGID_57_">
			<use xlink:href="#SVGID_56_"  overflow="visible"/>
		</clipPath>
		<g clip-path="url(#SVGID_57_)">
			
				<linearGradient id="SVGID_58_" gradientUnits="userSpaceOnUse" x1="44.6627" y1="1440.8618" x2="46.7698" y2="1440.8743" gradientTransform="matrix(-114.3223 35.1611 35.5275 113.1435 -44767.2031 -163094.8281)">
				<stop  offset="0" style="stop-color:#D0E8FF"/>
				<stop  offset="0.51" style="stop-color:#ADD7FF"/>
				<stop  offset="1" style="stop-color:#40A2FF"/>
			</linearGradient>
			<path fill="url(#SVGID_58_)" d="M1163.818,1514.636l70.884-40.502v84.63l-70.884,40.502V1514.636z"/>
		</g>
	</g>
	<path fill="#67B4FF" d="M1090.638,1527.461c-0.167-1.126-0.292-2.245-0.378-3.353l-2.745,1.57l-15.86-9.062l27.634-15.793l0,0
		c3.069-1.731,6.77-2.374,10.891-1.806l20.632,11.789l-34.663,19.806l-5.513-3.15H1090.638z"/>
	<g>
		<defs>
			<path id="SVGID_59_" d="M1090.638,1527.461c-0.167-1.126-0.292-2.245-0.378-3.353l-2.745,1.57l-15.86-9.062l27.634-15.793l0,0
				c3.069-1.731,6.77-2.374,10.891-1.806l20.632,11.789l-34.663,19.806l-5.513-3.15H1090.638z"/>
		</defs>
		<clipPath id="SVGID_60_">
			<use xlink:href="#SVGID_59_"  overflow="visible"/>
		</clipPath>
		<g clip-path="url(#SVGID_60_)">
			
				<linearGradient id="SVGID_61_" gradientUnits="userSpaceOnUse" x1="44.6627" y1="1440.8618" x2="46.7698" y2="1440.8743" gradientTransform="matrix(-114.3223 35.1611 35.5275 113.1435 -44767.2031 -163094.8281)">
				<stop  offset="0" style="stop-color:#D0E8FF"/>
				<stop  offset="0.51" style="stop-color:#ADD7FF"/>
				<stop  offset="1" style="stop-color:#40A2FF"/>
			</linearGradient>
			<path fill="url(#SVGID_61_)" d="M1163.818,1514.636l70.884-40.502v84.63l-70.884,40.502V1514.636z"/>
		</g>
	</g>
	<path fill="#7CBEFF" d="M1273.496,1619.408l-36.465,20.837c0.216,0.134,0.434,0.265,0.653,0.393l-2.013,1.152v17.402l27.538-15.736
		c6.37-3.637,10.313-11.436,10.313-22.534c0-0.5-0.01-1.005-0.025-1.513H1273.496z"/>
	<g>
		<defs>
			<path id="SVGID_62_" d="M1273.496,1619.408l-36.465,20.837c0.216,0.134,0.434,0.265,0.653,0.393l-2.013,1.152v17.402
				l27.538-15.736c6.37-3.637,10.313-11.436,10.313-22.534c0-0.5-0.01-1.005-0.025-1.513H1273.496z"/>
		</defs>
		<clipPath id="SVGID_63_">
			<use xlink:href="#SVGID_62_"  overflow="visible"/>
		</clipPath>
		<g clip-path="url(#SVGID_63_)">
			
				<linearGradient id="SVGID_64_" gradientUnits="userSpaceOnUse" x1="44.6627" y1="1440.8618" x2="46.7698" y2="1440.8743" gradientTransform="matrix(-114.3223 35.1611 35.5275 113.1435 -44767.2031 -163094.8281)">
				<stop  offset="0" style="stop-color:#D0E8FF"/>
				<stop  offset="0.51" style="stop-color:#ADD7FF"/>
				<stop  offset="1" style="stop-color:#40A2FF"/>
			</linearGradient>
			<path fill="url(#SVGID_64_)" d="M1163.818,1514.636l70.884-40.502v84.63l-70.884,40.502V1514.636z"/>
			
				<linearGradient id="SVGID_65_" gradientUnits="userSpaceOnUse" x1="44.6676" y1="1440.4166" x2="46.7729" y2="1440.4292" gradientTransform="matrix(-114.3223 35.1611 35.5275 113.1435 -44767.2031 -163094.8281)">
				<stop  offset="0" style="stop-color:#D0E8FF"/>
				<stop  offset="0.51" style="stop-color:#ADD7FF"/>
				<stop  offset="1" style="stop-color:#40A2FF"/>
			</linearGradient>
			<path fill="url(#SVGID_65_)" d="M1102.788,1494.787l28.031,16.018l-34.663,19.805l-28.031-16.017L1102.788,1494.787z"/>
		</g>
	</g>
	<path fill="#B9DDFF" d="M1198.095,1495.048l-34.278,19.585v83.778l0.745,0.427l70.139-40.078c-0.274-0.123-0.548-0.243-0.82-0.361
		C1228.988,1535.375,1215.445,1511.491,1198.095,1495.048L1198.095,1495.048z"/>
	<g>
		<defs>
			<path id="SVGID_66_" d="M1198.095,1495.048l-34.278,19.585v83.778l0.745,0.427l70.139-40.078
				c-0.274-0.123-0.548-0.243-0.82-0.361C1228.988,1535.375,1215.445,1511.491,1198.095,1495.048L1198.095,1495.048z"/>
		</defs>
		<clipPath id="SVGID_67_">
			<use xlink:href="#SVGID_66_"  overflow="visible"/>
		</clipPath>
		<g clip-path="url(#SVGID_67_)">
			
				<linearGradient id="SVGID_68_" gradientUnits="userSpaceOnUse" x1="44.6569" y1="1441.8254" x2="46.7633" y2="1441.8379" gradientTransform="matrix(-114.3223 35.1611 35.5275 113.1435 -44767.2031 -163094.8281)">
				<stop  offset="0" style="stop-color:#D0E8FF"/>
				<stop  offset="0.51" style="stop-color:#ADD7FF"/>
				<stop  offset="1" style="stop-color:#40A2FF"/>
			</linearGradient>
			<path fill="url(#SVGID_68_)" d="M1234.697,1641.581l41.259-23.578v18.169l-41.259,23.578V1641.581z"/>
			
				<linearGradient id="SVGID_69_" gradientUnits="userSpaceOnUse" x1="44.6676" y1="1440.4166" x2="46.7729" y2="1440.4292" gradientTransform="matrix(-114.3223 35.1611 35.5275 113.1435 -44767.2031 -163094.8281)">
				<stop  offset="0" style="stop-color:#D0E8FF"/>
				<stop  offset="0.51" style="stop-color:#ADD7FF"/>
				<stop  offset="1" style="stop-color:#40A2FF"/>
			</linearGradient>
			<path fill="url(#SVGID_69_)" d="M1102.788,1494.787l28.031,16.018l-34.663,19.805l-28.031-16.017L1102.788,1494.787z"/>
		</g>
	</g>
	<path fill="#D9ECFF" d="M1206.329,1574.142c-6.417-30.199-27.71-61.872-52.96-76.298c-28.173-16.1-51.423-5.094-54.574,24.341
		c-1.68-1.28-3.406-2.434-5.166-3.441c-17.134-9.79-31.046-1.841-31.046,17.74c0,19.582,13.912,43.429,31.046,53.219
		c0.27,0.157,0.54,0.306,0.808,0.451v0.097l114.845,65.623c0.501,0.309,1.003,0.607,1.508,0.896
		c0.504,0.291,1.007,0.565,1.507,0.826l0.004,0.003l0,0c18.715,9.786,33.667,0.679,33.667-20.927
		c0-22.189-15.763-49.208-35.178-60.301C1209.278,1575.507,1207.791,1574.765,1206.329,1574.142L1206.329,1574.142z"/>
</g>
<g id="Cloud4">
	<path fill="#8EC7FF" d="M535.839,1575.781c9.865-5.633,15.969-17.713,15.969-34.897c0-34.361-24.411-76.206-54.478-93.386
		c-2.34-1.336-4.644-2.484-6.911-3.452c-9.937-46.764-42.914-95.816-82.015-118.158c-23.966-13.696-45.632-14.726-61.101-5.318l0,0
		l-40.747,23.282l18.774,10.725c-0.624,2.862-1.105,5.866-1.443,9.007c-2.601-1.986-5.275-3.773-7.999-5.33
		c-13.218-7.553-25.198-8.29-33.891-3.378l0,0l-42.799,24.452l24.562,14.035l4.25-2.427c2.249,29.227,22.842,62.905,47.877,77.21
		c0.418,0.241,0.836,0.474,1.252,0.698v0.151l177.855,101.627c0.436,0.273,0.873,0.536,1.312,0.796l-3.116,1.781v26.948
		L535.839,1575.781L535.839,1575.781z"/>
	<g>
		<defs>
			<path id="SVGID_70_" d="M535.839,1575.781c9.865-5.633,15.969-17.713,15.969-34.897c0-34.361-24.411-76.206-54.478-93.386
				c-2.34-1.336-4.644-2.484-6.911-3.452c-9.937-46.764-42.914-95.816-82.015-118.158c-23.966-13.696-45.632-14.726-61.101-5.318
				l0,0l-40.747,23.282l18.774,10.725c-0.624,2.862-1.105,5.866-1.443,9.007c-2.601-1.986-5.275-3.773-7.999-5.33
				c-13.218-7.553-25.198-8.29-33.891-3.378l0,0l-42.799,24.452l24.562,14.035l4.25-2.427c2.249,29.227,22.842,62.905,47.877,77.21
				c0.418,0.241,0.836,0.474,1.252,0.698v0.151l177.855,101.627c0.436,0.273,0.873,0.536,1.312,0.796l-3.116,1.781v26.948
				L535.839,1575.781L535.839,1575.781z"/>
		</defs>
		<clipPath id="SVGID_71_">
			<use xlink:href="#SVGID_70_"  overflow="visible"/>
		</clipPath>
		<g clip-path="url(#SVGID_71_)">
			
				<linearGradient id="SVGID_72_" gradientUnits="userSpaceOnUse" x1="45.1293" y1="1439.9558" x2="47.2388" y2="1439.9684" gradientTransform="matrix(-177.0471 54.4531 55.0201 175.2214 -70617.3125 -253415.3438)">
				<stop  offset="0" style="stop-color:#D0E8FF"/>
				<stop  offset="0.51" style="stop-color:#ADD7FF"/>
				<stop  offset="1" style="stop-color:#40A2FF"/>
			</linearGradient>
			<path fill="url(#SVGID_72_)" d="M381.917,1376.259l109.773-62.725v131.063l-109.773,62.724V1376.259L381.917,1376.259z"/>
		</g>
	</g>
	<path fill="#67B4FF" d="M268.597,1396.12c-0.257-1.744-0.453-3.474-0.585-5.192l-4.251,2.43l-24.562-14.035l42.798-24.452l0,0
		c4.751-2.683,10.483-3.681,16.866-2.8l31.951,18.257l-53.678,30.671L268.597,1396.12L268.597,1396.12z"/>
	<g>
		<defs>
			<path id="SVGID_73_" d="M268.597,1396.12c-0.257-1.744-0.453-3.474-0.585-5.192l-4.251,2.43l-24.562-14.035l42.798-24.452l0,0
				c4.751-2.683,10.483-3.681,16.866-2.8l31.951,18.257l-53.678,30.671L268.597,1396.12L268.597,1396.12z"/>
		</defs>
		<clipPath id="SVGID_74_">
			<use xlink:href="#SVGID_73_"  overflow="visible"/>
		</clipPath>
		<g clip-path="url(#SVGID_74_)">
			
				<linearGradient id="SVGID_75_" gradientUnits="userSpaceOnUse" x1="45.1293" y1="1439.9558" x2="47.2388" y2="1439.9684" gradientTransform="matrix(-177.0471 54.4531 55.0201 175.2214 -70617.3125 -253415.3438)">
				<stop  offset="0" style="stop-color:#D0E8FF"/>
				<stop  offset="0.51" style="stop-color:#ADD7FF"/>
				<stop  offset="1" style="stop-color:#40A2FF"/>
			</linearGradient>
			<path fill="url(#SVGID_75_)" d="M381.917,1376.259l109.773-62.725v131.063l-109.773,62.724V1376.259L381.917,1376.259z"/>
		</g>
	</g>
	<path fill="#67B4FF" d="M551.771,1538.529l-56.476,32.27c0.336,0.206,0.673,0.409,1.012,0.61l-3.116,1.781v26.951l42.648-24.37
		c9.865-5.633,15.969-17.713,15.969-34.894C551.808,1540.097,551.796,1539.319,551.771,1538.529L551.771,1538.529z"/>
	<g>
		<defs>
			<path id="SVGID_76_" d="M551.771,1538.529l-56.476,32.27c0.336,0.206,0.673,0.409,1.012,0.61l-3.116,1.781v26.951l42.648-24.37
				c9.865-5.633,15.969-17.713,15.969-34.894C551.808,1540.097,551.796,1539.319,551.771,1538.529L551.771,1538.529z"/>
		</defs>
		<clipPath id="SVGID_77_">
			<use xlink:href="#SVGID_76_"  overflow="visible"/>
		</clipPath>
		<g clip-path="url(#SVGID_77_)">
			
				<linearGradient id="SVGID_78_" gradientUnits="userSpaceOnUse" x1="45.1293" y1="1439.9558" x2="47.2388" y2="1439.9684" gradientTransform="matrix(-177.0471 54.4531 55.0201 175.2214 -70617.3125 -253415.3438)">
				<stop  offset="0" style="stop-color:#D0E8FF"/>
				<stop  offset="0.51" style="stop-color:#ADD7FF"/>
				<stop  offset="1" style="stop-color:#40A2FF"/>
			</linearGradient>
			<path fill="url(#SVGID_78_)" d="M381.917,1376.259l109.773-62.725v131.063l-109.773,62.724V1376.259L381.917,1376.259z"/>
			
				<linearGradient id="SVGID_79_" gradientUnits="userSpaceOnUse" x1="45.1318" y1="1439.5107" x2="47.2413" y2="1439.5232" gradientTransform="matrix(-177.0471 54.4531 55.0201 175.2214 -70617.3125 -253415.3438)">
				<stop  offset="0" style="stop-color:#D0E8FF"/>
				<stop  offset="0.51" style="stop-color:#ADD7FF"/>
				<stop  offset="1" style="stop-color:#40A2FF"/>
			</linearGradient>
			<path fill="url(#SVGID_79_)" d="M287.402,1345.524l43.412,24.804l-53.678,30.671l-43.414-24.804L287.402,1345.524z"/>
		</g>
	</g>
	<path fill="#A4D2FF" d="M435.008,1345.933l-53.083,30.33v129.742l1.155,0.661l108.617-62.065c-0.424-0.194-0.849-0.379-1.271-0.56
		C482.848,1408.382,461.879,1371.396,435.008,1345.933z"/>
	<g>
		<defs>
			<path id="SVGID_80_" d="M435.008,1345.933l-53.083,30.33v129.742l1.155,0.661l108.617-62.065
				c-0.424-0.194-0.849-0.379-1.271-0.56C482.848,1408.382,461.879,1371.396,435.008,1345.933z"/>
		</defs>
		<clipPath id="SVGID_81_">
			<use xlink:href="#SVGID_80_"  overflow="visible"/>
		</clipPath>
		<g clip-path="url(#SVGID_81_)">
			
				<linearGradient id="SVGID_82_" gradientUnits="userSpaceOnUse" x1="45.1251" y1="1440.9196" x2="47.2315" y2="1440.932" gradientTransform="matrix(-177.0471 54.4531 55.0201 175.2214 -70617.3125 -253415.3438)">
				<stop  offset="0" style="stop-color:#D0E8FF"/>
				<stop  offset="0.51" style="stop-color:#ADD7FF"/>
				<stop  offset="1" style="stop-color:#40A2FF"/>
			</linearGradient>
			<path fill="url(#SVGID_82_)" d="M491.698,1572.864l63.9-36.513v28.139l-63.9,36.51V1572.864z"/>
			
				<linearGradient id="SVGID_83_" gradientUnits="userSpaceOnUse" x1="45.1318" y1="1439.5107" x2="47.2413" y2="1439.5232" gradientTransform="matrix(-177.0471 54.4531 55.0201 175.2214 -70617.3125 -253415.3438)">
				<stop  offset="0" style="stop-color:#D0E8FF"/>
				<stop  offset="0.51" style="stop-color:#ADD7FF"/>
				<stop  offset="1" style="stop-color:#40A2FF"/>
			</linearGradient>
			<path fill="url(#SVGID_83_)" d="M287.402,1345.524l43.412,24.804l-53.678,30.671l-43.414-24.804L287.402,1345.524z"/>
		</g>
	</g>
	<path fill="#D9ECFF" d="M447.763,1468.423c-9.937-46.764-42.916-95.817-82.015-118.159c-43.635-24.931-79.64-7.89-84.517,37.697
		c-2.603-1.984-5.277-3.771-8.001-5.327c-26.537-15.164-48.081-2.854-48.081,27.471c0,30.327,21.544,67.257,48.081,82.421
		c0.418,0.24,0.838,0.472,1.252,0.696v0.152l177.858,101.626c0.774,0.483,1.553,0.946,2.333,1.39
		c0.783,0.447,1.561,0.873,2.336,1.28l0.004,0.001l0,0c28.985,15.158,52.138,1.055,52.138-32.408
		c0-34.363-24.409-76.208-54.478-93.389C452.333,1470.538,450.028,1469.389,447.763,1468.423L447.763,1468.423z"/>
</g>
<g id="Upload">
	<path fill="#ACC800" d="M1425.504,271.157l22.956,13.115l-45.907-108.786l-45.907,56.326l22.953,13.115v53.349l45.904,26.231
		V271.157L1425.504,271.157z"/>
	<path fill="#778A00" d="M1391.761,289.675l33.737-19.275v65.232l-33.737,19.276V289.675z"/>
	<path fill="#D3ED33" d="M1391.761,289.581l22.953,13.116l-45.906-107.936l-45.904,55.474l22.951,13.115v65.327l45.905,26.231
		V289.581z"/>
	<path fill="#A6C100" d="M1368.815,194.762l33.735-19.276l45.905,107.935l-33.734,19.277L1368.815,194.762z"/>
</g>
<g>
	<g>
		<path fill="#A639FF" d="M1759.737,1098.023c44.018,11.47,92.663-2.298,92.663-2.298l-0.003,0.012l0.015-0.008
			c0,0,38.076,63.929,78.564,101.334c-4.073,28.879-23.318,104.085-68.259,131.307l-0.003,0.009l-33.87,19.867l0.408-2.99
			c-7.845,2.13-16.316,2.874-25.449,1.899l0.001-0.009l-0.008-0.034l-0.004,0.037c-58.416-65.055-64.069-169.917-61.373-220.757
			l-15.631-9.043L1759.737,1098.023L1759.737,1098.023z"/>
		<path fill="#D388FF" d="M1819.456,1115.059l32.952-19.34l-0.003,0.014l0.013-0.008c0,0,38.076,63.929,78.563,101.334
			c-4.072,28.879-23.315,104.085-68.261,131.306l-0.001,0.01l-33.869,19.865l0.407-2.988c-7.845,2.13-16.315,2.872-25.45,1.899
			l0.003-0.009l-0.007-0.034l-0.004,0.037C1745.385,1282.088,1816.76,1165.902,1819.456,1115.059L1819.456,1115.059z"/>
		<path fill="#6B00C2" d="M1898.034,1216.393c0,0,33.094-19.246,32.949-19.328c-4.073,28.879-23.317,104.085-68.259,131.307
			l-0.003,0.009l-33.87,19.866l0.408-2.989c-7.844,2.13-16.316,2.874-25.449,1.899l0.003-0.009l-0.009-0.034l-0.004,0.037
			C1745.385,1282.094,1895.341,1267.233,1898.034,1216.393L1898.034,1216.393z"/>
		<path fill="#C767FF" d="M1819.469,1115.059c0,0,38.075,63.929,78.565,101.336c-5.199,36.84-35.082,149.069-111.522,140.908
			l0.003-0.008l0,0l-0.006-0.033l-0.004,0.034c-67.347-74.998-64.565-202.905-59.711-239.943
			c44.018,11.469,92.663-2.299,92.663-2.299v0.013L1819.469,1115.059z"/>
		<path fill="#D2E8FF" d="M1816.666,1135.651c0,0,31.604,53.058,65.208,84.106c-4.312,30.574-29.116,123.724-92.56,116.95
			l0.003-0.006l0,0l-0.007-0.029l-0.004,0.031c-55.895-62.25-53.587-168.41-49.558-199.149c36.534,9.519,76.91-1.91,76.91-1.91
			l-0.003,0.013L1816.666,1135.651z"/>
		<g>
			<path fill="#A539FF" d="M1826.255,1244.476l-51.564-27.315l-6.681,47.204l51.566,27.313L1826.255,1244.476z"/>
			<path fill="#A539FF" d="M1779.962,1219.956l7.402,3.921l4.997-35.314c0.553-3.913,3.94-5.532,7.561-3.617l13.112,6.947
				c3.618,1.917,6.109,6.651,5.555,10.563l-4.997,35.312l7.399,3.921l5.495-38.83c0.867-6.121-3.028-13.524-8.69-16.523
				l-20.514-10.865c-5.662-2.998-10.959-0.463-11.825,5.658L1779.962,1219.956z"/>
		</g>
		<path fill="#3700CC" d="M1826.165,1328.145c-10.504,6.615-22.721,10.067-36.855,8.557v-0.007l-0.007-0.029l-0.004,0.029
			c-55.895-62.249-53.585-168.407-49.558-199.146c1.035,0.269,2.072,0.521,3.115,0.758c-3.777,33.911-4.426,135.872,49.893,196.366
			l0.004-0.029l0.004,0.029v0.007C1805.377,1336.026,1816.466,1333.419,1826.165,1328.145L1826.165,1328.145z"/>
	</g>
</g>
<g id="cone1_1_">
</g>
</svg>
